<svg width="330" height="374" viewBox="0 0 330 374" fill="none" xmlns="http://www.w3.org/2000/svg">
<path d="M328 209C328 299.578 254.796 373 164.5 373C74.2043 373 1 299.578 1 209C1 118.422 74.2043 45 164.5 45C254.796 45 328 118.422 328 209Z" stroke="#C4C4C4" stroke-width="2"/>
<path d="M288.5 209C288.5 277.202 232.989 332.5 164.5 332.5C96.011 332.5 40.5 277.202 40.5 209C40.5 140.798 96.011 85.5 164.5 85.5C232.989 85.5 288.5 140.798 288.5 209Z" stroke="#C4C4C4" stroke-width="3"/>
<g clip-path="url(#clip0)">
<path d="M41.8174 230C55.4522 230 66.4609 219.038 66.4609 205.509C66.4609 191.979 55.4 181 41.8174 181C28.2348 181 17.1218 191.962 17.1218 205.509C17.1218 219.004 28.1826 230 41.8174 230Z" fill="#8641EF"/>
<path d="M49.1913 218.418C49.1913 221.882 50.3913 225.105 52.374 227.622C61.5913 223.278 67.2783 213.661 66.3913 203.441C65.7479 203.372 65.087 203.303 64.4087 203.303C56.0087 203.337 49.1913 210.093 49.1913 218.418Z" fill="#FDC2C4"/>
<path d="M65.8174 200.01C64.0957 192.599 59.174 186.773 52.8261 183.602C52.5827 183.602 52.374 183.637 52.1131 183.637C48.2348 183.912 46.287 182.62 45.2957 181.258C42.7914 180.913 40.2174 180.913 37.6261 181.362C37.0696 183.706 36.9827 186.86 38.9653 189.893C40.774 192.685 43.7653 194.478 47.087 194.891C53.6087 195.77 59.9914 196.167 65.8174 200.01Z" fill="#EB27B7"/>
<path d="M40.3913 221.779C37.7826 216.677 40.3218 214.471 37.5044 209.783C33.6261 203.337 26.9479 204.526 23.8696 199.218C22.7044 197.201 22.0087 194.133 23.3131 189.273C19.3653 193.72 17.0696 199.528 17.1392 205.647C17.5218 205.578 17.9566 205.509 18.3392 205.509C22.7218 205.509 26.2522 210.335 26.2522 216.281C26.2522 218.832 25.6087 221.141 24.5305 223.002C30.3566 228.638 38.8261 231.327 47.3479 229.38C47.7305 229.276 48.1305 229.207 48.4783 229.104C45.6261 227.69 42.4087 225.726 40.3913 221.779ZM31.2609 224.467C30.8087 225.105 29.6783 225.019 28.687 224.364C27.6957 223.657 27.2783 222.606 27.6957 221.986C28.1479 221.348 29.2783 221.434 30.2696 222.089C31.2609 222.761 31.7131 223.881 31.2609 224.467Z" fill="#F7921E"/>
<path d="M31.4348 187.584C33.487 187.584 35.1392 185.068 35.1392 181.948V181.914C32.6696 182.62 30.374 183.62 28.3218 184.999C28.9653 186.533 30.1305 187.584 31.4348 187.584Z" fill="#AD1AA4"/>
<path d="M41.887 230C55.5218 230 66.5653 219.038 66.5653 205.509C66.5653 191.979 55.5044 181 41.887 181C28.2696 181 17.2261 191.962 17.2261 205.509C17.2261 219.004 28.287 230 41.887 230Z" fill="url(#paint0_linear)"/>
<path d="M64.687 195.633C65.3652 196.753 65.9565 197.925 66.4435 199.149C66.7739 199.287 67.1217 199.425 67.4522 199.58C68.1304 199.907 68.7913 200.304 69.313 200.838C69.8348 201.372 70.2174 202.079 70.2522 202.82C70.287 203.544 69.9739 204.25 69.5391 204.819C69.1044 205.405 68.5304 205.853 67.9391 206.301C66.687 207.249 65.3478 208.111 63.9391 208.835C60.113 210.765 55.8 211.507 51.5565 212.093C44.3565 213.075 37.0522 213.661 29.8174 212.937C25.6783 212.523 21.5391 211.679 17.7304 210.024C16.8609 209.645 15.9913 209.231 15.2957 208.594C14.9478 208.284 14.6348 207.904 14.4261 207.491C14.2 207.077 14.0783 206.612 14.0609 206.146C14.0435 205.543 14.2522 204.94 14.5478 204.406C14.8609 203.871 15.2783 203.406 15.713 202.992C16.1826 202.544 16.7043 202.131 17.2435 201.751C17.6435 200.183 18.1826 198.649 18.8609 197.184C17.6957 197.477 16.5478 197.908 15.5043 198.511C13.3478 199.752 11.5565 201.613 10.4087 203.802C9.22609 206.043 8.70435 208.663 9.1913 211.145C9.78261 214.144 11.7652 216.712 14.1652 218.607C16.3913 220.348 19 221.572 21.6957 222.451C29.1391 224.881 37.1739 224.709 45 224.261C51.6609 223.881 58.4609 223.261 64.5478 220.538C68.0609 218.952 71.2609 216.677 73.7652 213.764C75.4522 211.8 76.8435 209.456 77 206.887C77.1044 205.233 76.6696 203.578 75.887 202.131C74.5131 199.614 72.0957 197.77 69.4174 196.701C67.9044 196.098 66.3044 195.736 64.687 195.633Z" fill="#F7CB16"/>
<path d="M68.0609 196.236C69.9217 197.322 71.5391 198.822 72.5478 200.7C73.3304 202.148 73.7652 203.82 73.6609 205.457C73.5043 208.025 72.113 210.369 70.4261 212.334C67.9217 215.247 64.7217 217.522 61.2087 219.108C55.1217 221.848 48.3217 222.451 41.6609 222.83C33.8348 223.279 25.8 223.451 18.3565 221.021C18.0783 220.935 17.8174 220.814 17.5391 220.728C18.8609 221.417 20.2522 221.969 21.6783 222.434C29.1217 224.864 37.1565 224.692 44.9826 224.244C51.6435 223.865 58.4435 223.244 64.5304 220.521C68.0435 218.935 71.2435 216.66 73.7478 213.747C75.4348 211.783 76.8261 209.439 76.9826 206.871C77.0869 205.216 76.6522 203.561 75.8696 202.114C74.4956 199.597 72.0782 197.753 69.4 196.684C68.9652 196.512 68.513 196.374 68.0609 196.236Z" fill="#F7B516"/>
<path d="M14.8783 217.504C13.5913 216.694 12.4783 215.591 11.6609 214.316C11.0348 213.351 10.5652 212.282 10.2696 211.162C10.1478 210.731 10.0609 210.3 10.0783 209.852C10.0957 209.404 10.2348 208.956 10.5304 208.646C10.7044 208.456 10.9304 208.318 11.1739 208.249C11.4174 208.18 11.6783 208.163 11.9391 208.232C12.3217 208.335 12.6522 208.594 12.8957 208.921C13.1391 209.232 13.313 209.593 13.5044 209.955C14.0435 211.024 14.6696 212.058 15.487 212.937C16.3739 213.868 17.487 214.574 18.5304 215.333C18.8435 215.557 19.1565 215.798 19.4 216.108C19.6435 216.419 19.8 216.798 19.7652 217.177C19.7478 217.418 19.6435 217.66 19.487 217.849C19.3304 218.039 19.1217 218.194 18.913 218.315C18.4609 218.539 17.9391 218.573 17.4522 218.521C16.4957 218.418 15.6087 218.056 14.8783 217.504Z" fill="#FADF6F"/>
<path d="M39 204.767C38.8609 204.767 38.7217 204.836 38.6348 204.957C38.5478 205.078 38.513 205.216 38.5478 205.353C38.6696 205.922 38.9478 206.439 39.3304 206.87C39.713 207.301 40.2174 207.629 40.7565 207.801C41.7304 208.128 42.8087 207.99 43.6783 207.473C44.4609 207.008 45.0696 206.267 45.3478 205.388C45.4 205.267 45.3826 205.129 45.3304 205.009C45.2783 204.888 45.1739 204.802 45.0348 204.767C44.913 204.733 44.7739 204.75 44.6522 204.802C44.5304 204.871 44.4435 204.974 44.4261 205.112C44.2348 205.75 43.7826 206.319 43.1913 206.646C42.5652 207.008 41.7478 207.111 41.0696 206.887C40.6869 206.75 40.3217 206.525 40.0435 206.215C39.7652 205.905 39.5739 205.543 39.4869 205.147C39.4522 204.923 39.2435 204.75 39 204.767Z" fill="black"/>
<path d="M33.9565 202.01C33.9565 202.7 33.6782 203.354 33.1913 203.837C32.7043 204.32 32.0434 204.595 31.3478 204.595C30.6521 204.595 29.9912 204.32 29.5043 203.837C29.0173 203.354 28.7391 202.7 28.7391 202.01C28.7391 200.58 29.9043 199.425 31.3478 199.425C32.7912 199.425 33.9565 200.58 33.9565 202.01Z" fill="black"/>
<path d="M31.3479 200.872C31.3479 201.079 31.2609 201.286 31.1044 201.441C30.9479 201.596 30.7392 201.682 30.5305 201.682C30.0783 201.682 29.7131 201.32 29.7131 200.872C29.7131 200.424 30.0783 200.062 30.5305 200.062C30.9826 200.079 31.3479 200.424 31.3479 200.872Z" fill="white"/>
<path d="M50.3566 203.94C50.0087 203.94 49.7131 203.665 49.6957 203.32C49.6435 202.751 49.7479 202.182 49.9913 201.683C50.2522 201.183 50.6522 200.752 51.1392 200.476C51.9392 200.011 52.9131 199.942 53.7652 200.287C54.3565 200.528 54.8609 200.959 55.1913 201.493C55.5218 202.045 55.6609 202.682 55.5913 203.32C55.5739 203.492 55.487 203.665 55.3479 203.768C55.2087 203.889 55.0348 203.94 54.8435 203.923C54.6696 203.906 54.4957 203.82 54.3913 203.682C54.2696 203.544 54.2174 203.372 54.2522 203.182C54.287 202.855 54.2 202.493 54.0261 202.2C53.8522 201.907 53.5739 201.665 53.2609 201.545C52.8087 201.372 52.2522 201.407 51.8348 201.648C51.5739 201.803 51.3479 202.027 51.2087 202.303C51.0696 202.579 51.0174 202.889 51.0522 203.182C51.0696 203.372 51.0174 203.561 50.8783 203.716C50.7392 203.854 50.5479 203.94 50.3566 203.94Z" fill="black"/>
</g>
<g clip-path="url(#clip1)">
<path d="M268.723 85.4964C268.945 83.8661 268.461 82.2358 267.956 80.688C267.25 78.4799 266.462 76.1892 266.745 73.8573C266.927 72.3301 267.573 70.8649 268.602 69.7505C269.631 68.6362 271.024 67.8726 272.518 67.6456C273.91 67.4392 275.303 67.7075 276.696 67.9345C278.088 68.1615 279.521 68.3266 280.853 67.9551C282.407 67.5218 283.699 66.4074 284.789 65.1692C285.879 63.9516 286.807 62.5689 287.978 61.4339C289.129 60.2989 290.541 59.3909 292.116 59.0813C292.903 58.9162 293.71 58.9162 294.497 59.102C295.284 59.2877 296.011 59.6591 296.617 60.1957C297.626 61.1244 298.171 62.4657 298.817 63.6833C299.14 64.3024 299.483 64.9009 299.947 65.4168C300.411 65.9327 300.976 66.3455 301.622 66.5518C302.147 66.7169 302.732 66.7169 303.277 66.6344C303.822 66.5312 304.347 66.3455 304.851 66.0978C305.861 65.6232 306.789 64.9628 307.839 64.5501C309.897 63.7246 312.319 63.9103 314.257 65.0041C316.195 66.0978 317.628 68.079 318.132 70.2871C318.294 70.9681 318.354 71.6698 318.495 72.3508C318.637 73.0318 318.818 73.7334 319.202 74.3113C319.565 74.8685 320.07 75.3225 320.635 75.6733C321.2 76.0241 321.806 76.2924 322.411 76.5607C323.017 76.829 323.622 77.0766 324.207 77.4068C324.773 77.737 325.318 78.1291 325.741 78.6656C326.286 79.3673 326.589 80.234 326.69 81.142C326.791 82.0294 326.69 82.9374 326.529 83.8042C326.185 85.5583 325.519 87.2712 325.439 89.0459C325.338 91.1096 326.044 93.1733 327.114 94.9481C327.719 95.9593 328.446 96.8879 329.031 97.9198C329.617 98.9516 330.04 100.107 330 101.304C329.96 102.109 329.697 102.914 329.294 103.616C328.89 104.317 328.365 104.936 327.8 105.514C326.65 106.649 325.318 107.578 324.228 108.754C321.866 111.292 320.776 114.78 320.13 118.206C319.908 119.341 319.727 120.517 319.343 121.611C318.96 122.705 318.334 123.757 317.406 124.417C316.659 124.954 315.751 125.202 314.862 125.284C313.954 125.346 313.046 125.222 312.158 125.057C310.382 124.706 308.606 124.108 306.789 124.273C305.195 124.417 303.721 125.14 302.329 125.965C300.956 126.791 299.624 127.699 298.13 128.318C296.818 128.854 295.406 129.123 294.013 128.978C292.62 128.834 291.248 128.235 290.259 127.224C289.573 126.522 289.108 125.676 288.584 124.851C288.059 124.025 287.453 123.22 286.626 122.725C286.061 122.374 285.395 122.209 284.729 122.168C284.062 122.127 283.396 122.189 282.751 122.333C281.459 122.601 280.207 123.117 278.896 123.344C276.978 123.695 274.919 123.468 273.244 122.457C272.417 121.941 271.67 121.26 271.145 120.414C270.62 119.588 270.297 118.598 270.237 117.607C270.176 116.328 270.58 115.069 270.923 113.81C271.266 112.572 271.569 111.251 271.307 109.992C271.024 108.672 270.156 107.536 269.187 106.608C268.218 105.659 267.149 104.833 266.301 103.801C264.565 101.676 263.879 98.8071 264.02 96.0418C264.101 94.4321 264.525 92.8225 265.312 91.4192C265.716 90.7175 266.18 90.0778 266.684 89.438C267.189 88.7983 267.694 88.1792 268.077 87.4775C268.42 86.8584 268.622 86.1981 268.723 85.4964Z" fill="#F77026"/>
<path d="M272.881 81.6798C272.457 80.4829 272.356 79.1621 272.598 77.9033C272.881 76.3761 273.688 74.9316 274.899 73.9823C276.191 72.9504 277.826 72.5171 279.42 72.1662C280.954 71.836 282.508 71.5471 284.002 71.0931C285.516 70.6391 286.969 69.9787 288.2 68.9882C288.947 68.3897 289.593 67.6468 290.319 67.007C291.046 66.3673 291.873 65.8101 292.822 65.645C293.569 65.5005 294.356 65.6244 295.062 65.9133C295.769 66.1816 296.435 66.6149 297.04 67.0689C298.251 67.9976 299.341 69.1326 300.714 69.8343C302.227 70.6185 303.983 70.7836 305.699 70.8042C307.394 70.8248 309.11 70.6804 310.805 70.928C311.572 71.0312 312.319 71.2169 313.026 71.5265C313.732 71.836 314.378 72.29 314.903 72.8679C315.67 73.7553 316.094 74.9109 316.477 76.0253C316.881 77.1397 317.284 78.2954 318.092 79.1621C318.596 79.7193 319.242 80.132 319.868 80.5654C320.494 80.9988 321.099 81.4734 321.523 82.1132C321.866 82.6291 322.068 83.2482 322.149 83.8673C322.229 84.4864 322.209 85.1261 322.149 85.7452C322.027 86.9834 321.725 88.2216 321.745 89.4805C321.765 90.8632 322.189 92.2252 322.653 93.5253C323.117 94.8254 323.662 96.1255 323.925 97.4876C324.106 98.3956 324.167 99.3449 324.046 100.274C323.925 101.202 323.602 102.11 323.057 102.853C322.512 103.617 321.765 104.215 321.018 104.772C320.272 105.33 319.505 105.887 318.879 106.588C317.93 107.703 317.405 109.147 317.083 110.571C316.76 112.016 316.578 113.481 316.194 114.905C315.892 115.999 315.468 117.072 314.782 117.959C314.095 118.847 313.106 119.548 312.016 119.734C311.391 119.837 310.745 119.775 310.119 119.631C309.494 119.486 308.908 119.239 308.303 119.012C307.112 118.537 305.881 118.001 304.609 118.104C303.741 118.166 302.934 118.516 302.187 118.991C301.461 119.466 300.794 120.044 300.128 120.601C299.462 121.179 298.796 121.736 298.05 122.169C297.303 122.603 296.455 122.912 295.587 122.912C294.336 122.912 293.145 122.293 292.136 121.529C291.127 120.766 290.218 119.858 289.149 119.177C287.857 118.351 286.363 117.877 284.87 117.526C283.376 117.196 281.842 116.989 280.349 116.639C279.501 116.453 278.633 116.205 277.866 115.772C277.099 115.338 276.413 114.719 276.05 113.894C275.686 113.089 275.666 112.16 275.706 111.294C275.747 110.406 275.848 109.519 275.727 108.631C275.505 107.022 274.556 105.639 273.527 104.401C272.497 103.163 271.387 101.986 270.681 100.521C270.095 99.283 269.853 97.9003 269.873 96.5383C269.894 95.1762 270.156 93.8142 270.58 92.5141C271.266 90.3472 272.336 88.3248 272.8 86.0961C273.123 84.6515 273.143 83.145 272.881 81.6798Z" fill="#F78526"/>
<path d="M273.829 90.7803C274.919 83.8876 279.238 77.614 285.193 74.1677C289.714 71.5468 295.123 70.5563 300.249 71.423C305.376 72.2898 310.2 74.9932 313.631 78.9761C317.87 83.8876 319.908 90.7184 319.101 97.219C318.294 103.72 314.681 109.807 309.413 113.543C305.76 116.122 301.36 117.608 296.919 117.711C292.479 117.835 288.018 116.576 284.244 114.182C280.47 111.789 277.422 108.218 275.585 104.091C273.749 99.9431 273.123 95.2585 273.829 90.7803Z" fill="#F7CB16"/>
<path d="M307.172 73.7964C310.281 80.0287 310.785 87.6437 308.303 94.1855C305.558 101.47 299.281 107.249 291.914 109.25C287.554 110.447 282.872 110.303 278.552 108.961C280.147 111.005 282.084 112.779 284.244 114.162C288.018 116.556 292.479 117.815 296.919 117.691C301.36 117.567 305.76 116.102 309.413 113.522C314.681 109.787 318.314 103.72 319.101 97.1985C319.908 90.6979 317.87 83.8878 313.631 78.9556C311.815 76.8713 309.615 75.1171 307.172 73.7964Z" fill="#F7B516"/>
<path d="M282.508 78.811C284.183 77.1394 286.121 75.6329 288.341 74.9107C289.068 74.6836 289.815 74.5186 290.561 74.5186C291.308 74.5186 292.075 74.6837 292.741 75.0551C293.327 75.3853 293.831 75.8806 294.134 76.479C294.457 77.0775 294.578 77.7792 294.457 78.4602C294.336 79.1206 293.972 79.7397 293.549 80.2349C293.105 80.7509 292.6 81.1842 292.095 81.6382C289.673 83.8051 287.534 86.3022 285.616 88.923C285.233 89.439 284.87 89.9755 284.405 90.4502C283.961 90.9042 283.416 91.2963 282.811 91.482C282.084 91.709 281.277 91.6058 280.591 91.2756C279.905 90.9454 279.339 90.3676 278.956 89.7072C278.552 89.0056 278.35 88.2007 278.29 87.3959C278.229 86.5911 278.35 85.7656 278.572 84.9814C279.238 82.5669 280.772 80.5445 282.508 78.811Z" fill="#FADF6F"/>
<path d="M294.215 97.5078C294.073 97.5078 293.932 97.5903 293.851 97.6935C293.771 97.8174 293.73 97.9618 293.771 98.1063C293.892 98.6635 294.154 99.2 294.538 99.6128C294.921 100.046 295.405 100.356 295.93 100.541C296.879 100.872 297.928 100.727 298.776 100.211C299.543 99.7572 300.128 98.9937 300.391 98.1269C300.431 98.0031 300.431 97.8586 300.371 97.7554C300.31 97.6316 300.209 97.5491 300.088 97.5078C299.967 97.4665 299.826 97.4872 299.725 97.5491C299.604 97.611 299.523 97.7142 299.503 97.8586C299.301 98.4984 298.877 99.0556 298.312 99.4064C297.706 99.7779 296.919 99.881 296.253 99.654C295.87 99.5302 295.527 99.2826 295.264 98.9937C295.002 98.6841 294.8 98.3126 294.719 97.9205C294.638 97.6729 294.437 97.5078 294.215 97.5078Z" fill="black"/>
<path d="M287.332 100.975C287.332 102.213 285.899 103.204 284.143 103.204C282.387 103.204 280.954 102.213 280.954 100.975C280.954 100.376 281.297 99.8192 281.883 99.4065C282.488 98.9937 283.295 98.7461 284.143 98.7461C284.991 98.7461 285.798 98.9731 286.404 99.4065C287.009 99.8192 287.332 100.376 287.332 100.975Z" fill="#FF8080"/>
<path d="M312.541 100.975C312.541 102.213 311.108 103.204 309.352 103.204C307.596 103.204 306.163 102.213 306.163 100.975C306.163 100.376 306.506 99.8192 307.092 99.4065C307.697 98.9937 308.505 98.7461 309.352 98.7461C310.2 98.7461 311.007 98.9731 311.613 99.4065C312.198 99.8192 312.541 100.376 312.541 100.975Z" fill="#FF8080"/>
<path d="M289.895 94.4536C289.895 96.0426 288.624 97.3428 287.07 97.3428C285.516 97.3428 284.244 96.0426 284.244 94.4536C284.244 92.8646 285.516 91.5645 287.07 91.5645C288.624 91.5645 289.895 92.8439 289.895 94.4536Z" fill="black"/>
<path d="M287.07 93.1741C287.07 93.4218 286.969 93.6488 286.807 93.8139C286.646 93.979 286.424 94.0821 286.182 94.0821C285.939 94.0821 285.717 93.979 285.556 93.8139C285.394 93.6488 285.294 93.4218 285.294 93.1741C285.294 92.6788 285.697 92.2661 286.182 92.2661C286.666 92.2868 287.07 92.6788 287.07 93.1741Z" fill="white"/>
<path d="M308.949 94.4538C308.949 96.0429 307.677 97.343 306.123 97.343C304.569 97.343 303.297 96.0429 303.297 94.4538C303.297 92.8648 304.569 91.5647 306.123 91.5647C307.677 91.5441 308.949 92.8442 308.949 94.4538Z" fill="black"/>
<path d="M306.123 93.1741C306.123 93.4218 306.022 93.6488 305.86 93.8139C305.699 93.979 305.477 94.0821 305.235 94.0821C304.993 94.0821 304.771 93.979 304.609 93.8139C304.448 93.6488 304.347 93.4218 304.347 93.1741C304.347 92.6788 304.75 92.2661 305.235 92.2661C305.739 92.2868 306.123 92.6788 306.123 93.1741Z" fill="white"/>
</g>
<path d="M307.889 15.68C306.495 15.68 305.164 16.064 304.024 16.704C304.214 15.872 304.341 14.976 304.341 14.08C304.341 7.744 299.271 2.688 293.061 2.688C289.64 2.688 286.598 4.224 284.507 6.592C282.669 2.688 278.804 0 274.305 0C268.032 0 263.026 5.12 263.026 11.392C263.026 13.376 263.533 15.296 264.42 16.896C263.152 16.128 261.695 15.616 260.111 15.616C255.612 15.68 252 19.328 252 23.808C252 28.352 255.612 32 260.048 32C264.483 32 303.39 32 307.889 32C312.325 32 315.937 28.352 315.937 23.872C316 19.328 312.388 15.68 307.889 15.68Z" fill="url(#paint1_linear)"/>
<path d="M56.7762 62.72C55.5347 62.72 54.3495 63.056 53.3337 63.616C53.503 62.888 53.6158 62.104 53.6158 61.32C53.6158 55.776 49.101 51.352 43.5703 51.352C40.5228 51.352 37.8139 52.696 35.9515 54.768C34.3149 51.352 30.8723 49 26.8653 49C21.2782 49 16.8198 53.48 16.8198 58.968C16.8198 60.704 17.2713 62.384 18.0614 63.784C16.9327 63.112 15.6347 62.664 14.2238 62.664C10.2168 62.72 7 65.912 7 69.832C7 73.808 10.2168 77 14.1673 77C18.1178 77 52.7693 77 56.7762 77C60.7267 77 63.9436 73.808 63.9436 69.888C64 65.912 60.7832 62.72 56.7762 62.72Z" fill="url(#paint2_linear)"/>
<g clip-path="url(#clip2)">
<path d="M303.993 315.97C315.595 315.97 324.985 306.587 324.985 294.993C324.985 283.398 315.61 274 303.993 274C292.375 274 283 283.383 283 294.978C283 306.557 292.39 315.97 303.993 315.97Z" fill="#DBFF66"/>
<path d="M302.198 274.09C303.245 275.883 303.843 277.959 303.843 280.171C303.843 286.879 298.385 292.378 291.627 292.378C288.622 292.378 285.871 291.272 283.733 289.464C283.404 290.689 283.164 291.989 283.045 293.274C285.512 294.888 288.442 295.829 291.627 295.829C300.269 295.829 307.282 288.822 307.282 280.186C307.282 278.034 306.833 275.987 306.056 274.134C304.785 273.97 303.484 273.97 302.198 274.09Z" fill="#42ED6C"/>
<path d="M311.199 306.497C311.199 309.201 312.485 311.622 314.504 313.146C315.61 312.518 316.627 311.801 317.569 310.994C315.864 310.217 314.653 308.499 314.653 306.497C314.653 303.763 316.866 301.552 319.602 301.552C321.068 301.552 322.398 302.209 323.295 303.225C323.774 302.089 324.163 300.894 324.462 299.654C323.086 298.668 321.397 298.1 319.602 298.1C314.982 298.1 311.199 301.88 311.199 306.497Z" fill="#42ED6C"/>
<path d="M295.305 314.087C295.604 313.071 295.784 311.996 295.784 310.875C295.784 304.854 290.865 299.968 284.869 299.968C284.45 299.968 284.032 299.998 283.643 300.028C283.882 301.014 284.211 302 284.6 302.971C284.66 303.12 284.719 303.27 284.779 303.419C284.809 303.419 284.839 303.419 284.869 303.419C289.011 303.419 292.345 306.781 292.345 310.89C292.345 311.398 292.285 311.876 292.195 312.354C293.167 312.997 294.214 313.594 295.305 314.087Z" fill="#42ED6C"/>
<path d="M312.964 288.598C311.349 289.823 309.659 291.093 308.074 292.557C304.68 295.71 302.378 299.236 301.241 303.135C299.746 308.26 300.434 312.578 301.72 315.88C302.976 316.03 304.277 316.03 305.563 315.94C304.157 313.086 303.125 309.022 304.576 304.092C305.533 300.82 307.491 297.801 310.422 295.097C311.887 293.752 313.517 292.542 315.042 291.377C317.629 289.434 320.23 287.477 322.339 284.788C321.741 283.712 321.053 282.696 320.275 281.725C318.436 284.519 315.82 286.476 312.964 288.598Z" fill="#42ED6C"/>
<path d="M303.993 315.97C315.595 315.97 324.985 306.587 324.985 294.993C324.985 283.398 315.61 274 303.993 274C292.375 274 283 283.383 283 294.978C283 306.557 292.39 315.97 303.993 315.97Z" fill="url(#paint3_linear)"/>
<path d="M301.436 294.619C301.286 294.619 301.167 294.694 301.077 294.813C300.987 294.933 300.957 295.067 300.987 295.217C301.107 295.77 301.376 296.293 301.75 296.711C302.124 297.129 302.617 297.458 303.155 297.637C304.112 297.951 305.159 297.817 306.011 297.324C306.789 296.86 307.372 296.128 307.641 295.277C307.686 295.157 307.686 295.023 307.626 294.903C307.566 294.783 307.461 294.694 307.342 294.664C307.222 294.619 307.088 294.634 306.968 294.709C306.848 294.769 306.774 294.873 306.744 295.008C306.549 295.635 306.101 296.188 305.548 296.532C304.934 296.89 304.142 296.995 303.469 296.771C303.095 296.636 302.737 296.412 302.467 296.113C302.198 295.814 302.004 295.441 301.914 295.052C301.884 294.769 301.675 294.619 301.436 294.619Z" fill="black"/>
<path d="M294.528 298.025C294.528 299.236 293.093 300.222 291.328 300.222C289.564 300.222 288.129 299.236 288.129 298.025C288.129 297.443 288.472 296.89 289.071 296.472C289.669 296.053 290.491 295.829 291.343 295.829C292.195 295.829 293.003 296.053 293.616 296.472C294.184 296.89 294.528 297.443 294.528 298.025Z" fill="#FF8080"/>
<path d="M319.886 298.025C319.886 299.236 318.451 300.222 316.687 300.222C314.922 300.222 313.487 299.236 313.487 298.025C313.487 297.443 313.831 296.89 314.429 296.472C315.027 296.053 315.849 295.829 316.702 295.829C317.554 295.829 318.361 296.053 318.974 296.472C319.542 296.89 319.886 297.443 319.886 298.025Z" fill="#FF8080"/>
<path d="M297.1 291.601C297.1 292.363 296.801 293.08 296.262 293.618C295.724 294.156 295.006 294.455 294.244 294.455C292.674 294.455 291.388 293.185 291.388 291.601C291.388 290.032 292.659 288.747 294.244 288.747C295.006 288.747 295.724 289.046 296.262 289.584C296.801 290.122 297.1 290.854 297.1 291.601Z" fill="black"/>
<path d="M294.259 290.361C294.259 290.6 294.169 290.824 294.005 290.988C293.84 291.152 293.616 291.242 293.377 291.242C293.137 291.242 292.913 291.152 292.749 290.988C292.584 290.824 292.495 290.6 292.495 290.361C292.495 289.867 292.898 289.479 293.377 289.479C293.855 289.479 294.259 289.867 294.259 290.361Z" fill="white"/>
<path d="M316.268 291.601C316.268 292.363 315.969 293.08 315.431 293.618C314.892 294.156 314.175 294.455 313.412 294.455C312.65 294.455 311.932 294.156 311.394 293.618C310.855 293.08 310.556 292.363 310.556 291.601C310.556 290.032 311.827 288.747 313.412 288.747C314.997 288.762 316.268 290.032 316.268 291.601Z" fill="black"/>
<path d="M313.427 290.361C313.427 290.6 313.337 290.824 313.173 290.988C313.009 291.152 312.784 291.242 312.545 291.242C312.306 291.242 312.081 291.152 311.917 290.988C311.753 290.824 311.663 290.6 311.663 290.361C311.663 289.867 312.067 289.479 312.545 289.479C313.023 289.479 313.427 289.867 313.427 290.361Z" fill="white"/>
</g>
<defs>
<linearGradient id="paint0_linear" x1="34.6329" y1="198.311" x2="70.4429" y2="234.374" gradientUnits="userSpaceOnUse">
<stop stop-color="#661FD1" stop-opacity="0"/>
<stop offset="1" stop-color="#661FD1"/>
</linearGradient>
<linearGradient id="paint1_linear" x1="283.969" y1="0" x2="283.969" y2="32" gradientUnits="userSpaceOnUse">
<stop stop-color="#3BD1F5"/>
<stop offset="1" stop-color="#00BAE8" stop-opacity="0"/>
</linearGradient>
<linearGradient id="paint2_linear" x1="35.4721" y1="49" x2="35.4721" y2="77" gradientUnits="userSpaceOnUse">
<stop stop-color="#3BD1F5"/>
<stop offset="1" stop-color="#00BAE8" stop-opacity="0"/>
</linearGradient>
<linearGradient id="paint3_linear" x1="297.83" y1="288.812" x2="328.505" y2="319.516" gradientUnits="userSpaceOnUse">
<stop stop-color="#00AB94" stop-opacity="0"/>
<stop offset="1" stop-color="#00AB94"/>
</linearGradient>
<clipPath id="clip0">
<rect width="68" height="49" fill="white" transform="translate(9 181)"/>
</clipPath>
<clipPath id="clip1">
<rect width="66" height="70" fill="white" transform="translate(264 59)"/>
</clipPath>
<clipPath id="clip2">
<rect width="42" height="42" fill="white" transform="translate(283 274)"/>
</clipPath>
</defs>
</svg>
