<svg width="370" height="106" viewBox="0 0 370 106" fill="none" xmlns="http://www.w3.org/2000/svg">
<path d="M0 34C0 22.9543 8.9543 14 20 14H350C361.046 14 370 22.9543 370 34V82.3289C370 93.3746 361.046 102.329 350 102.329H20C8.95432 102.329 0 93.3746 0 82.3289V34Z" fill="url(#paint0_linear)"/>
<path d="M127.594 42.7V49.1C127.594 51.1267 126.994 52.68 125.794 53.76C124.714 54.72 123.314 55.2 121.594 55.2C119.874 55.2 118.474 54.72 117.394 53.76C116.194 52.68 115.594 51.1267 115.594 49.1V41H118.294V49.3C118.294 50.46 118.6 51.3267 119.214 51.9C119.84 52.5 120.634 52.8 121.594 52.8C122.554 52.8 123.347 52.5 123.974 51.9C124.587 51.3267 124.894 50.46 124.894 49.3V41H127.294C127.574 40.96 127.774 40.88 127.894 40.76C128.067 40.5867 128.154 40.2533 128.154 39.76L130.094 39.74C130.094 40.5667 129.8 41.2733 129.214 41.86C128.747 42.3267 128.207 42.6067 127.594 42.7ZM139.696 45.3V55H137.196V54.22C136.463 54.8733 135.589 55.2 134.576 55.2C133.216 55.2 132.116 54.68 131.276 53.64C130.623 52.84 130.296 51.7733 130.296 50.44V45.3H132.896V50.54C132.896 51.2867 133.056 51.84 133.376 52.2C133.736 52.6 134.223 52.8 134.836 52.8C135.329 52.8 135.796 52.66 136.236 52.38C136.423 52.26 136.589 52.1267 136.736 51.98C136.869 51.86 136.989 51.7333 137.096 51.6V45.3H139.696ZM146.594 46.3H148.594V41H152.994C155.007 41 156.614 41.44 157.814 42.32C158.68 42.96 159.36 43.7733 159.854 44.76C160.347 45.7733 160.594 46.8533 160.594 48C160.594 49.1467 160.347 50.22 159.854 51.22C159.36 52.22 158.68 53.04 157.814 53.68C156.614 54.56 155.007 55 152.994 55H148.594V48.7H146.594V46.3ZM157.894 48C157.894 46.8267 157.554 45.8133 156.874 44.96C156.047 43.92 154.854 43.4 153.294 43.4H151.294V46.3H155.294V48.7H151.294V52.6H153.294C154.854 52.6 156.047 52.08 156.874 51.04C157.554 50.1867 157.894 49.1733 157.894 48ZM169.794 48.7C169.194 47.9 168.394 47.5 167.394 47.5C166.66 47.5 166.054 47.7667 165.574 48.3C165.12 48.82 164.894 49.44 164.894 50.16C164.894 50.92 165.14 51.5467 165.634 52.04C166.114 52.5467 166.72 52.8 167.454 52.8C168.454 52.8 169.234 52.4 169.794 51.6V48.7ZM172.394 55H169.894V54.22C169.12 54.8733 168.22 55.2 167.194 55.2C165.7 55.2 164.48 54.6533 163.534 53.56C162.707 52.6 162.294 51.4667 162.294 50.16C162.294 48.7333 162.76 47.5333 163.694 46.56C164.614 45.5867 165.734 45.1 167.054 45.1C168.147 45.1 169.094 45.4267 169.894 46.08V45.3H172.394V55ZM170.914 42.14C170.914 42.74 170.76 43.24 170.454 43.64C170.134 44.0667 169.694 44.28 169.134 44.28C168.8 44.28 168.374 44.1467 167.854 43.88L167.554 43.74L167.274 43.6C167.074 43.52 166.9 43.48 166.754 43.48C166.38 43.48 166.167 43.7467 166.114 44.28L164.834 44.02C164.834 43.42 164.987 42.92 165.294 42.52C165.614 42.0933 166.054 41.88 166.614 41.88C166.96 41.88 167.394 42.0133 167.914 42.28L168.194 42.42L168.474 42.56C168.674 42.64 168.847 42.68 168.994 42.68C169.367 42.68 169.58 42.4133 169.634 41.88L170.914 42.14ZM177.998 55H175.398V45.3H177.998V55ZM174.998 41.86C174.998 41.3933 175.165 41 175.498 40.68C175.832 40.36 176.232 40.2 176.698 40.2C177.165 40.2 177.565 40.36 177.898 40.68C178.232 41 178.398 41.3933 178.398 41.86C178.398 42.3267 178.232 42.72 177.898 43.04C177.565 43.36 177.165 43.52 176.698 43.52C176.232 43.52 175.832 43.36 175.498 43.04C175.165 42.72 174.998 42.3267 174.998 41.86ZM184.895 46.3H186.895V41H191.295C193.308 41 194.915 41.44 196.115 42.32C196.981 42.96 197.661 43.7733 198.155 44.76C198.648 45.7733 198.895 46.8533 198.895 48C198.895 49.1467 198.648 50.22 198.155 51.22C197.661 52.22 196.981 53.04 196.115 53.68C194.915 54.56 193.308 55 191.295 55H186.895V48.7H184.895V46.3ZM196.195 48C196.195 46.8267 195.855 45.8133 195.175 44.96C194.348 43.92 193.155 43.4 191.595 43.4H189.595V46.3H193.595V48.7H189.595V52.6H191.595C193.155 52.6 194.348 52.08 195.175 51.04C195.855 50.1867 196.195 49.1733 196.195 48ZM209.655 53.46C208.681 54.62 207.355 55.2 205.675 55.2C204.208 55.2 203.001 54.74 202.055 53.82C201.081 52.8867 200.595 51.6667 200.595 50.16C200.595 48.76 201.021 47.58 201.875 46.62C202.768 45.6067 203.915 45.1 205.315 45.1C206.635 45.1 207.735 45.5867 208.615 46.56C209.468 47.52 209.895 48.6867 209.895 50.06C209.895 50.3267 209.875 50.5733 209.835 50.8H203.115C203.181 51.48 203.461 52.0333 203.955 52.46C204.448 52.8867 205.041 53.1 205.735 53.1C206.228 53.1 206.715 52.9733 207.195 52.72C207.568 52.5333 207.895 52.2867 208.175 51.98L209.655 53.46ZM207.235 48.9C207.195 48.4467 206.995 48.0533 206.635 47.72C206.261 47.3733 205.821 47.2 205.315 47.2C204.795 47.2 204.328 47.3733 203.915 47.72C203.528 48.0533 203.301 48.4467 203.235 48.9H207.235ZM206.435 41.56L208.155 44.32H206.495L205.255 42.94L204.015 44.32H202.355L204.075 41.56H206.435ZM211.235 39.6L209.115 42.24H207.615L208.735 39.6H211.235ZM212.098 55V45.3H214.598V46.08C215.398 45.4267 216.311 45.1 217.338 45.1C218.711 45.1 219.831 45.62 220.698 46.66C221.364 47.4467 221.698 48.58 221.698 50.06V55H219.098V49.86C219.098 49.0333 218.904 48.4267 218.518 48.04C218.158 47.68 217.671 47.5 217.058 47.5C216.564 47.5 216.078 47.64 215.598 47.92C215.211 48.1333 214.911 48.3933 214.698 48.7V55H212.098Z" fill="white"/>
<circle cx="51.5" cy="59.5" r="35.5" fill="white" stroke="#FF8F3A" stroke-width="2"/>
<path d="M73.6487 79.1898H29.6067C27.626 79.1898 26.0364 77.6003 26.0364 75.6195V61.0937H77.219V75.6195C77.219 77.6003 75.605 79.1898 73.6487 79.1898Z" fill="url(#paint1_radial)"/>
<path d="M77.0233 61.0937H26.2076C24.7893 61.0937 23.6155 59.9444 23.6155 58.5016V56.4719C23.6155 55.0291 24.7893 53.8797 26.2076 53.8797H77.0233C78.4661 53.8797 79.6155 55.0535 79.6155 56.4719V58.5016C79.6155 59.9444 78.4661 61.0937 77.0233 61.0937Z" fill="url(#paint2_radial)"/>
<path d="M57.0443 53.8553H46.1867V61.0937H57.0443V53.8553Z" fill="url(#paint3_linear)"/>
<path d="M57.0443 61.0937H46.1867V79.1898H57.0443V61.0937Z" fill="url(#paint4_linear)"/>
<path d="M54.6967 53.8553H48.5587V50.1872C48.5587 49.3557 49.2434 48.671 50.0749 48.671H53.1806C54.012 48.671 54.6967 49.3557 54.6967 50.1872V53.8553Z" fill="url(#paint5_linear)"/>
<path d="M48.5588 50.2116C48.5588 50.2116 46.8959 46.8858 44.0103 44.0492C41.5405 41.6282 38.1902 40.3077 34.7422 40.3077C32.2723 40.3077 30.2671 42.3129 30.2671 44.7828V50.6029C30.2671 52.4125 31.7343 53.8553 33.5195 53.8553H48.5588V50.2116Z" fill="url(#paint6_linear)"/>
<path d="M54.6968 50.2116C54.6968 50.2116 56.3597 46.8858 59.2452 44.0492C61.6907 41.6282 65.0409 40.3077 68.5134 40.3077C70.9832 40.3077 72.9885 42.3129 72.9885 44.7828V50.6029C72.9885 52.4125 71.5212 53.8553 69.7361 53.8553H54.7212V50.2116H54.6968Z" fill="url(#paint7_linear)"/>
<path d="M77.219 61.0937H26.0364V70.6064H77.219V61.0937Z" fill="url(#paint8_linear)"/>
<path d="M106.78 85.22H102.58V89H100.96V80.6H102.58V83.78H106.78V80.6H108.4V89H106.78V85.22ZM109.783 86.096C109.783 85.248 110.079 84.532 110.671 83.948C111.263 83.356 111.999 83.06 112.879 83.06C113.759 83.06 114.495 83.356 115.087 83.948C115.679 84.532 115.975 85.248 115.975 86.096C115.975 86.944 115.679 87.656 115.087 88.232C114.495 88.824 113.759 89.12 112.879 89.12C111.999 89.12 111.263 88.824 110.671 88.232C110.079 87.656 109.783 86.944 109.783 86.096ZM111.343 86.096C111.343 86.544 111.487 86.916 111.775 87.212C112.063 87.524 112.431 87.68 112.879 87.68C113.327 87.68 113.699 87.524 113.995 87.212C114.275 86.916 114.415 86.544 114.415 86.096C114.415 85.648 114.275 85.272 113.995 84.968C113.699 84.656 113.327 84.5 112.879 84.5C112.431 84.5 112.063 84.656 111.775 84.968C111.487 85.272 111.343 85.648 111.343 86.096ZM112.051 90.8C112.051 90.56 112.131 90.36 112.291 90.2C112.451 90.032 112.647 89.948 112.879 89.948C113.119 89.948 113.319 90.032 113.479 90.2C113.647 90.36 113.731 90.56 113.731 90.8C113.731 91.032 113.647 91.228 113.479 91.388C113.319 91.548 113.119 91.628 112.879 91.628C112.647 91.628 112.451 91.548 112.291 91.388C112.131 91.228 112.051 91.032 112.051 90.8ZM122.692 87.812C122.036 88.684 121.156 89.12 120.052 89.12C119.156 89.12 118.412 88.824 117.82 88.232C117.228 87.656 116.932 86.944 116.932 86.096C116.932 85.248 117.232 84.532 117.832 83.948C118.432 83.356 119.176 83.06 120.064 83.06C121.096 83.06 121.912 83.448 122.512 84.224L121.408 85.196C121.056 84.732 120.608 84.5 120.064 84.5C119.616 84.5 119.24 84.656 118.936 84.968C118.64 85.272 118.492 85.648 118.492 86.096C118.492 86.552 118.64 86.928 118.936 87.224C119.24 87.528 119.628 87.68 120.1 87.68C120.692 87.68 121.156 87.424 121.492 86.912L122.692 87.812ZM128.807 85.58V89H127.187V80.6H130.343C131.319 80.6 132.047 80.852 132.527 81.356C132.967 81.812 133.187 82.392 133.187 83.096C133.187 83.8 132.967 84.38 132.527 84.836C132.055 85.332 131.327 85.58 130.343 85.58H128.807ZM130.271 84.14C130.743 84.14 131.083 84.028 131.291 83.804C131.475 83.604 131.567 83.368 131.567 83.096C131.567 82.816 131.475 82.576 131.291 82.376C131.083 82.152 130.743 82.04 130.271 82.04H128.807V84.14H130.271ZM135.882 89H134.322V80.48H135.882V83.6C136.346 83.24 136.874 83.06 137.466 83.06C138.29 83.06 138.962 83.372 139.482 83.996C139.882 84.468 140.082 85.148 140.082 86.036V89H138.522V85.916C138.522 85.42 138.406 85.056 138.174 84.824C137.958 84.608 137.666 84.5 137.298 84.5C137.002 84.5 136.71 84.584 136.422 84.752C136.19 84.88 136.01 85.036 135.882 85.22V89ZM143.323 89H141.763V83.18H143.323V89ZM143.935 80.696L142.663 82.28H141.763L142.435 80.696H143.935ZM152.237 81.92C151.445 81.92 150.781 82.2 150.245 82.76C149.709 83.32 149.441 84 149.441 84.8C149.441 85.616 149.717 86.3 150.269 86.852C150.821 87.404 151.501 87.68 152.309 87.68C153.293 87.68 154.085 87.292 154.685 86.516L155.801 87.512C154.961 88.584 153.785 89.12 152.273 89.12C150.977 89.12 149.909 88.7 149.069 87.86C148.237 87.044 147.821 86.024 147.821 84.8C147.821 83.576 148.233 82.556 149.057 81.74C149.897 80.9 150.961 80.48 152.249 80.48C153.473 80.48 154.497 80.88 155.321 81.68L154.277 82.784C153.701 82.208 153.021 81.92 152.237 81.92ZM158.499 89H156.939V80.48H158.499V83.6C158.963 83.24 159.491 83.06 160.083 83.06C160.907 83.06 161.579 83.372 162.099 83.996C162.499 84.468 162.699 85.148 162.699 86.036V89H161.139V85.916C161.139 85.42 161.023 85.056 160.791 84.824C160.575 84.608 160.283 84.5 159.915 84.5C159.619 84.5 159.327 84.584 159.039 84.752C158.807 84.88 158.627 85.036 158.499 85.22V89ZM163.9 86.096C163.9 85.248 164.196 84.532 164.788 83.948C165.38 83.356 166.116 83.06 166.996 83.06C167.876 83.06 168.612 83.356 169.204 83.948C169.796 84.532 170.092 85.248 170.092 86.096C170.092 86.944 169.796 87.656 169.204 88.232C168.612 88.824 167.876 89.12 166.996 89.12C166.116 89.12 165.38 88.824 164.788 88.232C164.196 87.656 163.9 86.944 163.9 86.096ZM165.46 86.096C165.46 86.544 165.604 86.916 165.892 87.212C166.18 87.524 166.548 87.68 166.996 87.68C167.444 87.68 167.816 87.524 168.112 87.212C168.392 86.916 168.532 86.544 168.532 86.096C168.532 85.648 168.392 85.272 168.112 84.968C167.816 84.656 167.444 84.5 166.996 84.5C166.548 84.5 166.18 84.656 165.892 84.968C165.604 85.272 165.46 85.648 165.46 86.096ZM177.562 80.6C178.37 80.6 178.998 80.796 179.446 81.188C179.966 81.644 180.226 82.208 180.226 82.88C180.226 83.44 180.046 83.908 179.686 84.284C180.062 84.468 180.366 84.756 180.598 85.148C180.83 85.54 180.946 85.968 180.946 86.432C180.946 87.144 180.69 87.748 180.178 88.244C179.674 88.748 178.942 89 177.982 89H174.706V80.6H177.562ZM176.326 83.84H177.466C177.882 83.84 178.182 83.74 178.366 83.54C178.526 83.364 178.606 83.164 178.606 82.94C178.606 82.716 178.526 82.516 178.366 82.34C178.182 82.14 177.882 82.04 177.466 82.04H176.326V83.84ZM177.946 87.56C178.442 87.56 178.802 87.436 179.026 87.188C179.226 86.972 179.326 86.716 179.326 86.42C179.326 86.124 179.226 85.868 179.026 85.652C178.802 85.404 178.442 85.28 177.946 85.28H176.326V87.56H177.946ZM186.342 85.22C185.982 84.74 185.502 84.5 184.902 84.5C184.462 84.5 184.098 84.66 183.81 84.98C183.538 85.292 183.402 85.664 183.402 86.096C183.402 86.552 183.55 86.928 183.846 87.224C184.134 87.528 184.498 87.68 184.938 87.68C185.538 87.68 186.006 87.44 186.342 86.96V85.22ZM187.902 89H186.402V88.532C185.938 88.924 185.398 89.12 184.782 89.12C183.886 89.12 183.154 88.792 182.586 88.136C182.09 87.56 181.842 86.88 181.842 86.096C181.842 85.24 182.122 84.52 182.682 83.936C183.234 83.352 183.906 83.06 184.698 83.06C185.354 83.06 185.922 83.256 186.402 83.648V83.18H187.902V89ZM197.199 85.628L200.259 80.6H201.399V89H199.779V84.32L197.763 87.62H196.635L194.619 84.32V89H192.999V80.6H194.139L197.199 85.628ZM208.219 88.076C207.635 88.772 206.839 89.12 205.831 89.12C204.951 89.12 204.227 88.844 203.659 88.292C203.075 87.732 202.783 87 202.783 86.096C202.783 85.256 203.039 84.548 203.551 83.972C204.087 83.364 204.775 83.06 205.615 83.06C206.407 83.06 207.067 83.352 207.595 83.936C208.107 84.512 208.363 85.212 208.363 86.036C208.363 86.196 208.351 86.344 208.327 86.48H204.295C204.335 86.888 204.503 87.22 204.799 87.476C205.095 87.732 205.451 87.86 205.867 87.86C206.163 87.86 206.455 87.784 206.743 87.632C206.967 87.52 207.163 87.372 207.331 87.188L208.219 88.076ZM206.767 85.34C206.743 85.068 206.623 84.832 206.407 84.632C206.183 84.424 205.919 84.32 205.615 84.32C205.303 84.32 205.023 84.424 204.775 84.632C204.543 84.832 204.407 85.068 204.367 85.34H206.767ZM204.739 90.8C204.739 90.56 204.819 90.36 204.979 90.2C205.139 90.032 205.335 89.948 205.567 89.948C205.807 89.948 206.007 90.032 206.167 90.2C206.335 90.36 206.419 90.56 206.419 90.8C206.419 91.032 206.335 91.228 206.167 91.388C206.007 91.548 205.807 91.628 205.567 91.628C205.335 91.628 205.139 91.548 204.979 91.388C204.819 91.228 204.739 91.032 204.739 90.8ZM212.02 83.78H213.22V80.6H215.86C217.068 80.6 218.032 80.864 218.752 81.392C219.272 81.776 219.68 82.264 219.976 82.856C220.272 83.464 220.42 84.112 220.42 84.8C220.42 85.488 220.272 86.132 219.976 86.732C219.68 87.332 219.272 87.824 218.752 88.208C218.032 88.736 217.068 89 215.86 89H213.22V85.22H212.02V83.78ZM218.8 84.8C218.8 84.096 218.596 83.488 218.188 82.976C217.692 82.352 216.976 82.04 216.04 82.04H214.84V83.78H217.24V85.22H214.84V87.56H216.04C216.976 87.56 217.692 87.248 218.188 86.624C218.596 86.112 218.8 85.504 218.8 84.8ZM225.94 85.22C225.58 84.74 225.1 84.5 224.5 84.5C224.06 84.5 223.696 84.66 223.408 84.98C223.136 85.292 223 85.664 223 86.096C223 86.552 223.148 86.928 223.444 87.224C223.732 87.528 224.096 87.68 224.536 87.68C225.136 87.68 225.604 87.44 225.94 86.96V85.22ZM227.5 89H226V88.532C225.536 88.924 224.996 89.12 224.38 89.12C223.484 89.12 222.752 88.792 222.184 88.136C221.688 87.56 221.44 86.88 221.44 86.096C221.44 85.24 221.72 84.52 222.28 83.936C222.832 83.352 223.504 83.06 224.296 83.06C224.952 83.06 225.52 83.256 226 83.648V83.18H227.5V89ZM226.444 81.08C226.444 81.48 226.304 81.82 226.024 82.1C225.744 82.38 225.404 82.52 225.004 82.52C224.604 82.52 224.264 82.38 223.984 82.1C223.704 81.82 223.564 81.48 223.564 81.08H224.572C224.572 81.2 224.616 81.3 224.704 81.38C224.784 81.468 224.884 81.512 225.004 81.512C225.124 81.512 225.228 81.468 225.316 81.38C225.396 81.3 225.436 81.2 225.436 81.08H226.444ZM229.302 89V83.18H230.802V83.648C231.282 83.256 231.83 83.06 232.446 83.06C233.27 83.06 233.942 83.372 234.462 83.996C234.862 84.468 235.062 85.148 235.062 86.036V89H233.502V85.916C233.502 85.42 233.386 85.056 233.154 84.824C232.938 84.608 232.646 84.5 232.278 84.5C231.982 84.5 231.69 84.584 231.402 84.752C231.17 84.88 230.99 85.036 230.862 85.22V89H229.302ZM242.324 88.676C242.324 89.62 242.148 90.34 241.796 90.836C241.236 91.612 240.376 92 239.216 92C238.664 92 238.128 91.884 237.608 91.652C237.112 91.436 236.716 91.152 236.42 90.8L237.404 89.78C237.5 89.884 237.592 89.976 237.68 90.056C237.808 90.16 237.936 90.248 238.064 90.32C238.408 90.52 238.792 90.62 239.216 90.62C239.744 90.62 240.14 90.464 240.404 90.152C240.644 89.888 240.764 89.432 240.764 88.784V88.592C240.308 88.944 239.788 89.12 239.204 89.12C238.3 89.12 237.564 88.792 236.996 88.136C236.508 87.568 236.264 86.888 236.264 86.096C236.264 85.24 236.544 84.52 237.104 83.936C237.656 83.352 238.328 83.06 239.12 83.06C239.776 83.06 240.344 83.256 240.824 83.648V83.18H242.324V88.676ZM240.764 85.22C240.404 84.74 239.924 84.5 239.324 84.5C238.884 84.5 238.52 84.66 238.232 84.98C237.96 85.292 237.824 85.664 237.824 86.096C237.824 86.552 237.972 86.928 238.268 87.224C238.556 87.528 238.92 87.68 239.36 87.68C239.96 87.68 240.428 87.44 240.764 86.96V85.22ZM249.041 84.872V89H247.421V80.6H249.041V83.96L252.221 80.6H254.357L250.661 84.44L254.801 89H252.725L249.041 84.872ZM255.44 91.88L257.048 88.412L254.444 83.18H256.16L257.864 86.672L259.436 83.18H261.08L257.072 91.88H255.44ZM259.148 80.696L257.876 82.28H256.976L257.648 80.696H259.148ZM265.163 80.6H266.303L270.983 86.072V80.6H272.603V89H271.463L266.783 83.528V89H265.163V80.6ZM280.046 88.676C280.046 89.62 279.87 90.34 279.518 90.836C278.958 91.612 278.098 92 276.938 92C276.386 92 275.85 91.884 275.33 91.652C274.834 91.436 274.438 91.152 274.142 90.8L275.126 89.78C275.222 89.884 275.314 89.976 275.402 90.056C275.53 90.16 275.658 90.248 275.786 90.32C276.13 90.52 276.514 90.62 276.938 90.62C277.466 90.62 277.862 90.464 278.126 90.152C278.366 89.888 278.486 89.432 278.486 88.784V88.592C278.03 88.944 277.51 89.12 276.926 89.12C276.022 89.12 275.286 88.792 274.718 88.136C274.23 87.568 273.986 86.888 273.986 86.096C273.986 85.24 274.266 84.52 274.826 83.936C275.378 83.352 276.05 83.06 276.842 83.06C277.498 83.06 278.066 83.256 278.546 83.648V83.18H280.046V88.676ZM278.486 85.22C278.126 84.74 277.646 84.5 277.046 84.5C276.606 84.5 276.242 84.66 275.954 84.98C275.682 85.292 275.546 85.664 275.546 86.096C275.546 86.552 275.694 86.928 275.99 87.224C276.278 87.528 276.642 87.68 277.082 87.68C277.682 87.68 278.15 87.44 278.486 86.96V85.22ZM285.869 85.22C285.509 84.74 285.029 84.5 284.429 84.5C283.989 84.5 283.625 84.66 283.337 84.98C283.065 85.292 282.929 85.664 282.929 86.096C282.929 86.552 283.077 86.928 283.373 87.224C283.661 87.528 284.025 87.68 284.465 87.68C285.065 87.68 285.533 87.44 285.869 86.96V85.22ZM287.429 89H285.929V88.532C285.465 88.924 284.925 89.12 284.309 89.12C283.413 89.12 282.681 88.792 282.113 88.136C281.617 87.56 281.369 86.88 281.369 86.096C281.369 85.24 281.649 84.52 282.209 83.936C282.761 83.352 283.433 83.06 284.225 83.06C284.881 83.06 285.449 83.256 285.929 83.648V83.18H287.429V89ZM289.448 91.88L291.056 88.412L288.452 83.18H290.168L291.872 86.672L293.444 83.18H295.088L291.08 91.88H289.448ZM304.991 85.22H300.791V89H299.171V80.6H300.791V83.78H304.991V80.6H306.611V89H304.991V85.22ZM307.994 86.096C307.994 85.248 308.29 84.532 308.882 83.948C309.474 83.356 310.21 83.06 311.09 83.06C311.97 83.06 312.706 83.356 313.298 83.948C313.89 84.532 314.186 85.248 314.186 86.096C314.186 86.944 313.89 87.656 313.298 88.232C312.706 88.824 311.97 89.12 311.09 89.12C310.21 89.12 309.474 88.824 308.882 88.232C308.29 87.656 307.994 86.944 307.994 86.096ZM309.554 86.096C309.554 86.544 309.698 86.916 309.986 87.212C310.274 87.524 310.642 87.68 311.09 87.68C311.538 87.68 311.91 87.524 312.206 87.212C312.486 86.916 312.626 86.544 312.626 86.096C312.626 85.648 312.486 85.272 312.206 84.968C311.91 84.656 311.538 84.5 311.09 84.5C310.642 84.5 310.274 84.656 309.986 84.968C309.698 85.272 309.554 85.648 309.554 86.096ZM311.798 80.936L312.83 82.592H311.834L311.09 81.764L310.346 82.592H309.35L310.382 80.936H311.798ZM315.505 89V83.18H317.005V83.648C317.445 83.256 317.969 83.06 318.577 83.06C319.377 83.06 320.029 83.364 320.533 83.972C321.109 83.364 321.797 83.06 322.597 83.06C323.453 83.06 324.133 83.372 324.637 83.996C325.029 84.476 325.225 85.116 325.225 85.916V89H323.665V85.856C323.665 85.408 323.569 85.076 323.377 84.86C323.161 84.62 322.869 84.5 322.501 84.5C322.197 84.5 321.905 84.592 321.625 84.776C321.401 84.912 321.225 85.076 321.097 85.268C321.129 85.524 321.145 85.74 321.145 85.916V89H319.585V85.856C319.585 85.408 319.489 85.076 319.297 84.86C319.081 84.62 318.789 84.5 318.421 84.5C318.125 84.5 317.845 84.584 317.581 84.752C317.469 84.824 317.369 84.904 317.281 84.992C317.201 85.064 317.129 85.14 317.065 85.22V89H315.505ZM330.202 80.6H331.342L336.022 86.072V80.6H337.642V89H336.502L331.822 83.528V89H330.202V80.6ZM343.525 85.22C343.165 84.74 342.685 84.5 342.085 84.5C341.645 84.5 341.281 84.66 340.993 84.98C340.721 85.292 340.585 85.664 340.585 86.096C340.585 86.552 340.733 86.928 341.029 87.224C341.317 87.528 341.681 87.68 342.121 87.68C342.721 87.68 343.189 87.44 343.525 86.96V85.22ZM345.085 89H343.585V88.532C343.121 88.924 342.581 89.12 341.965 89.12C341.069 89.12 340.337 88.792 339.769 88.136C339.273 87.56 339.025 86.88 339.025 86.096C339.025 85.24 339.305 84.52 339.865 83.936C340.417 83.352 341.089 83.06 341.881 83.06C342.537 83.06 343.105 83.256 343.585 83.648V83.18H345.085V89ZM347.104 91.88L348.712 88.412L346.108 83.18H347.824L349.528 86.672L351.1 83.18H352.744L348.736 91.88H347.104Z" fill="white"/>
<path d="M231.7 30H259.3V34.8L241.24 72H232.66L249.64 37.2H231.7V30ZM270.243 72L278.163 58.62H277.623C273.583 58.62 270.143 57.26 267.303 54.54C264.383 51.74 262.923 48.28 262.923 44.16C262.923 40.08 264.403 36.6 267.363 33.72C270.283 30.84 273.783 29.4 277.863 29.4C281.983 29.4 285.523 30.7 288.483 33.3C291.643 36.02 293.223 39.5 293.223 43.74C293.223 46.82 291.843 50.68 289.083 55.32L279.183 72H270.243ZM282.903 50.4C283.623 49.4 284.183 48.44 284.583 47.52C285.143 46.28 285.423 45.02 285.423 43.74C285.423 41.78 284.703 40.1 283.263 38.7C281.783 37.3 280.023 36.6 277.983 36.6C275.943 36.6 274.243 37.32 272.883 38.76C271.563 40.16 270.903 41.88 270.903 43.92C270.903 46 271.583 47.76 272.943 49.2C274.383 50.68 276.203 51.42 278.403 51.42C279.923 51.42 281.423 51.08 282.903 50.4Z" fill="white"/>
<path d="M231.7 30V29H230.7V30H231.7ZM259.3 30H260.3V29H259.3V30ZM259.3 34.8L260.2 35.2367L260.3 35.0299V34.8H259.3ZM241.24 72V73H241.866L242.14 72.4367L241.24 72ZM232.66 72L231.761 71.5615L231.059 73H232.66V72ZM249.64 37.2L250.539 37.6385L251.241 36.2H249.64V37.2ZM231.7 37.2H230.7V38.2H231.7V37.2ZM231.7 31H259.3V29H231.7V31ZM258.3 30V34.8H260.3V30H258.3ZM258.4 34.3633L240.34 71.5633L242.14 72.4367L260.2 35.2367L258.4 34.3633ZM241.24 71H232.66V73H241.24V71ZM233.559 72.4385L250.539 37.6385L248.741 36.7615L231.761 71.5615L233.559 72.4385ZM249.64 36.2H231.7V38.2H249.64V36.2ZM232.7 37.2V30H230.7V37.2H232.7ZM270.243 72L269.383 71.4906L268.489 73H270.243V72ZM278.163 58.62L279.024 59.1294L279.917 57.62H278.163V58.62ZM267.303 54.54L266.611 55.2618L266.612 55.2622L267.303 54.54ZM267.363 33.72L268.061 34.4367L268.066 34.432L267.363 33.72ZM288.483 33.3L287.823 34.0514L287.831 34.0579L288.483 33.3ZM289.083 55.32L288.224 54.8088L288.223 54.8096L289.083 55.32ZM279.183 72V73H279.753L280.043 72.5104L279.183 72ZM282.903 50.4L283.321 51.3087L283.561 51.1985L283.715 50.9843L282.903 50.4ZM284.583 47.52L283.672 47.1084L283.666 47.1213L284.583 47.52ZM283.263 38.7L283.961 37.9829L283.951 37.9735L283.263 38.7ZM272.883 38.76L272.156 38.0734L272.156 38.074L272.883 38.76ZM272.943 49.2L272.216 49.8866L272.222 49.892L272.227 49.8974L272.943 49.2ZM271.104 72.5094L279.024 59.1294L277.303 58.1106L269.383 71.4906L271.104 72.5094ZM278.163 57.62H277.623V59.62H278.163V57.62ZM277.623 57.62C273.833 57.62 270.643 56.3542 267.995 53.8178L266.612 55.2622C269.643 58.1658 273.334 59.62 277.623 59.62V57.62ZM267.996 53.8182C265.276 51.2107 263.923 48.0132 263.923 44.16H261.923C261.923 48.5468 263.491 52.2693 266.611 55.2618L267.996 53.8182ZM263.923 44.16C263.923 40.3537 265.292 37.1311 268.061 34.4367L266.666 33.0033C263.515 36.0689 261.923 39.8063 261.923 44.16H263.923ZM268.066 34.432C270.8 31.7354 274.048 30.4 277.863 30.4V28.4C273.519 28.4 269.767 29.9446 266.661 33.008L268.066 34.432ZM277.863 30.4C281.753 30.4 285.055 31.6194 287.823 34.0513L289.143 32.5487C285.992 29.7806 282.214 28.4 277.863 28.4V30.4ZM287.831 34.0579C290.766 36.5843 292.223 39.7855 292.223 43.74H294.223C294.223 39.2145 292.521 35.4557 289.136 32.5421L287.831 34.0579ZM292.223 43.74C292.223 46.5505 290.952 50.2222 288.224 54.8088L289.943 55.8312C292.735 51.1378 294.223 47.0895 294.223 43.74H292.223ZM288.223 54.8096L278.323 71.4896L280.043 72.5104L289.943 55.8304L288.223 54.8096ZM279.183 71H270.243V73H279.183V71ZM283.715 50.9843C284.468 49.939 285.066 48.917 285.501 47.9187L283.666 47.1213C283.3 47.963 282.779 48.861 282.092 49.8157L283.715 50.9843ZM285.495 47.9316C286.109 46.5705 286.423 45.1708 286.423 43.74H284.423C284.423 44.8692 284.177 45.9895 283.672 47.1084L285.495 47.9316ZM286.423 43.74C286.423 41.5025 285.589 39.5661 283.961 37.983L282.566 39.417C283.818 40.6339 284.423 42.0575 284.423 43.74H286.423ZM283.951 37.9735C282.285 36.3976 280.279 35.6 277.983 35.6V37.6C279.768 37.6 281.282 38.2024 282.576 39.4265L283.951 37.9735ZM277.983 35.6C275.678 35.6 273.712 36.4267 272.156 38.0734L273.61 39.4466C274.775 38.2133 276.209 37.6 277.983 37.6V35.6ZM272.156 38.074C270.65 39.6715 269.903 41.6418 269.903 43.92H271.903C271.903 42.1182 272.477 40.6485 273.611 39.446L272.156 38.074ZM269.903 43.92C269.903 46.2412 270.672 48.251 272.216 49.8866L273.67 48.5134C272.495 47.269 271.903 45.7588 271.903 43.92H269.903ZM272.227 49.8974C273.868 51.5845 275.953 52.42 278.403 52.42V50.42C276.454 50.42 274.899 49.7755 273.66 48.5026L272.227 49.8974ZM278.403 52.42C280.078 52.42 281.72 52.0445 283.321 51.3087L282.486 49.4913C281.127 50.1155 279.769 50.42 278.403 50.42V52.42Z" fill="white"/>
<path d="M229.7 28H257.3V32.8L239.24 70H230.66L247.64 35.2H229.7V28ZM268.243 70L276.163 56.62H275.623C271.583 56.62 268.143 55.26 265.303 52.54C262.383 49.74 260.923 46.28 260.923 42.16C260.923 38.08 262.403 34.6 265.363 31.72C268.283 28.84 271.783 27.4 275.863 27.4C279.983 27.4 283.523 28.7 286.483 31.3C289.643 34.02 291.223 37.5 291.223 41.74C291.223 44.82 289.843 48.68 287.083 53.32L277.183 70H268.243ZM280.903 48.4C281.623 47.4 282.183 46.44 282.583 45.52C283.143 44.28 283.423 43.02 283.423 41.74C283.423 39.78 282.703 38.1 281.263 36.7C279.783 35.3 278.023 34.6 275.983 34.6C273.943 34.6 272.243 35.32 270.883 36.76C269.563 38.16 268.903 39.88 268.903 41.92C268.903 44 269.583 45.76 270.943 47.2C272.383 48.68 274.203 49.42 276.403 49.42C277.923 49.42 279.423 49.08 280.903 48.4Z" fill="#DE020D"/>
<path d="M302.3 28.25C302.3 27.61 302.11 27.08 301.73 26.66C301.33 26.22 300.82 26 300.2 26C299.58 26 299.07 26.22 298.67 26.66C298.29 27.08 298.1 27.61 298.1 28.25C298.1 28.89 298.29 29.42 298.67 29.84C299.07 30.28 299.58 30.5 300.2 30.5C300.82 30.5 301.33 30.28 301.73 29.84C302.11 29.42 302.3 28.89 302.3 28.25ZM294.5 28.25C294.5 26.71 295.05 25.4 296.15 24.32C297.25 23.24 298.6 22.7 300.2 22.7C301.8 22.7 303.16 23.24 304.28 24.32C305.36 25.4 305.9 26.71 305.9 28.25C305.9 29.79 305.36 31.1 304.28 32.18C303.16 33.26 301.8 33.8 300.2 33.8C298.6 33.8 297.25 33.26 296.15 32.18C295.05 31.1 294.5 29.79 294.5 28.25ZM316.85 38.75C316.85 38.11 316.66 37.58 316.28 37.16C315.88 36.72 315.37 36.5 314.75 36.5C314.13 36.5 313.62 36.72 313.22 37.16C312.84 37.58 312.65 38.11 312.65 38.75C312.65 39.39 312.84 39.92 313.22 40.34C313.62 40.78 314.13 41 314.75 41C315.37 41 315.88 40.78 316.28 40.34C316.66 39.92 316.85 39.39 316.85 38.75ZM309.05 38.75C309.05 37.21 309.6 35.9 310.7 34.82C311.8 33.74 313.15 33.2 314.75 33.2C316.35 33.2 317.71 33.74 318.83 34.82C319.91 35.9 320.45 37.21 320.45 38.75C320.45 40.29 319.91 41.6 318.83 42.68C317.71 43.76 316.35 44.3 314.75 44.3C313.15 44.3 311.8 43.76 310.7 42.68C309.6 41.6 309.05 40.29 309.05 38.75ZM299.72 44L311.99 23H315.32L303.05 44H299.72Z" fill="#DE020D"/>
<defs>
<linearGradient id="paint0_linear" x1="185" y1="14" x2="185" y2="84.6631" gradientUnits="userSpaceOnUse">
<stop stop-color="#FFC553"/>
<stop offset="1" stop-color="#FF9849"/>
</linearGradient>
<radialGradient id="paint1_radial" cx="0" cy="0" r="1" gradientUnits="userSpaceOnUse" gradientTransform="translate(51.0466 66.1892) scale(32.2255)">
<stop stop-color="#F4ECD7"/>
<stop offset="0.2237" stop-color="#F4EAD4"/>
<stop offset="0.3826" stop-color="#F5E3CB"/>
<stop offset="0.5214" stop-color="#F6D6BB"/>
<stop offset="0.6487" stop-color="#F7C5A5"/>
<stop offset="0.7682" stop-color="#F9AF89"/>
<stop offset="0.8818" stop-color="#FC9366"/>
<stop offset="0.9889" stop-color="#FF743D"/>
<stop offset="1" stop-color="#FF7038"/>
</radialGradient>
<radialGradient id="paint2_radial" cx="0" cy="0" r="1" gradientUnits="userSpaceOnUse" gradientTransform="translate(50.9924 55.9008) scale(32.0932)">
<stop stop-color="#F4ECD7"/>
<stop offset="0.2237" stop-color="#F4EAD4"/>
<stop offset="0.3826" stop-color="#F5E3CB"/>
<stop offset="0.5214" stop-color="#F6D6BB"/>
<stop offset="0.6487" stop-color="#F7C5A5"/>
<stop offset="0.7682" stop-color="#F9AF89"/>
<stop offset="0.8818" stop-color="#FC9366"/>
<stop offset="0.9889" stop-color="#FF743D"/>
<stop offset="1" stop-color="#FF7038"/>
</radialGradient>
<linearGradient id="paint3_linear" x1="51.6213" y1="60.747" x2="51.6213" y2="52.8574" gradientUnits="userSpaceOnUse">
<stop stop-color="#FF7654"/>
<stop offset="0.1498" stop-color="#FE7054"/>
<stop offset="0.358" stop-color="#FC5E53"/>
<stop offset="0.6004" stop-color="#F94051"/>
<stop offset="0.8666" stop-color="#F5174E"/>
<stop offset="1" stop-color="#F2004D"/>
</linearGradient>
<linearGradient id="paint4_linear" x1="51.6213" y1="80.0656" x2="51.6213" y2="59.3746" gradientUnits="userSpaceOnUse">
<stop stop-color="#FF7654"/>
<stop offset="0.1498" stop-color="#FE7054"/>
<stop offset="0.358" stop-color="#FC5E53"/>
<stop offset="0.6004" stop-color="#F94051"/>
<stop offset="0.8666" stop-color="#F5174E"/>
<stop offset="1" stop-color="#F2004D"/>
</linearGradient>
<linearGradient id="paint5_linear" x1="49.613" y1="48.6093" x2="53.6781" y2="55.1081" gradientUnits="userSpaceOnUse">
<stop stop-color="#FF7654"/>
<stop offset="0.1498" stop-color="#FE7054"/>
<stop offset="0.358" stop-color="#FC5E53"/>
<stop offset="0.6004" stop-color="#F94051"/>
<stop offset="0.8666" stop-color="#F5174E"/>
<stop offset="1" stop-color="#F2004D"/>
</linearGradient>
<linearGradient id="paint6_linear" x1="32.8951" y1="40.3948" x2="44.1116" y2="58.3263" gradientUnits="userSpaceOnUse">
<stop stop-color="#FF7654"/>
<stop offset="0.1498" stop-color="#FE7054"/>
<stop offset="0.358" stop-color="#FC5E53"/>
<stop offset="0.6004" stop-color="#F94051"/>
<stop offset="0.8666" stop-color="#F5174E"/>
<stop offset="1" stop-color="#F2004D"/>
</linearGradient>
<linearGradient id="paint7_linear" x1="60.2066" y1="42.889" x2="68.646" y2="56.3809" gradientUnits="userSpaceOnUse">
<stop stop-color="#FF7654"/>
<stop offset="0.1498" stop-color="#FE7054"/>
<stop offset="0.358" stop-color="#FC5E53"/>
<stop offset="0.6004" stop-color="#F94051"/>
<stop offset="0.8666" stop-color="#F5174E"/>
<stop offset="1" stop-color="#F2004D"/>
</linearGradient>
<linearGradient id="paint8_linear" x1="51.6213" y1="72.1786" x2="51.6213" y2="61.0101" gradientUnits="userSpaceOnUse">
<stop stop-color="#FF7038" stop-opacity="0"/>
<stop offset="0.8833" stop-color="#FF7038" stop-opacity="0.8833"/>
<stop offset="1" stop-color="#FF7038"/>
</linearGradient>
</defs>
</svg>
