<svg width="48" height="47" viewBox="0 0 48 47" fill="none" xmlns="http://www.w3.org/2000/svg">
<path d="M23.7409 0C22.601 0 20.0461 0.311258 17.4126 8.32616C9.55137 4.55215 7.8219 6.03063 6.95717 6.88659C6.13174 7.70364 4.5595 9.68791 8.41149 17.1581C0.235836 19.9205 0 22.7219 0 23.5C0 24.2392 0.314448 27.1184 8.37219 29.7641C4.5595 37.4288 6.36758 39.5687 6.95717 40.1134C7.46815 40.6192 9.7479 42.4478 17.334 38.6738C20.0854 46.7666 22.6403 47 23.7409 47C24.8807 47 27.4356 46.6887 30.0691 38.7127C37.7731 42.5257 39.7777 40.8916 40.5245 40.1134C41.35 39.2964 42.9222 37.3121 39.0702 29.803C47.2459 27.0406 47.4817 24.2781 47.4817 23.4611C47.4817 22.7219 47.1673 19.8427 39.1095 17.197C42.9222 9.53228 41.1141 7.39238 40.5245 6.84768C40.0136 6.34189 37.7338 4.51324 30.1084 8.28725C27.2391 0.155629 24.9593 0 23.7409 0ZM9.04039 8.94868C9.27623 8.71523 10.141 7.58692 16.823 10.2326C16.7837 10.3493 16.7444 10.4661 16.7444 10.5828C15.801 14.0066 13.7178 15.6018 10.7699 16.4578C10.6126 16.4967 10.4947 16.5356 10.3375 16.5745C7.50745 10.1937 8.72594 9.29884 9.04039 8.94868ZM28.8506 11.0886C28.9292 11.0497 28.9686 11.0108 29.0472 11.0108C29.0865 11.1275 29.1258 11.2053 29.1651 11.322C30.5408 14.7459 32.7026 17.0414 36.2402 18.3253C36.3188 18.3642 36.3974 18.3642 36.476 18.4031C36.4367 18.5199 36.3974 18.5977 36.3581 18.7144C34.8252 22.0604 34.7072 25.2508 36.3581 28.5969C36.3974 28.6747 36.4367 28.7525 36.476 28.7914C36.3581 28.8303 36.2795 28.8692 36.1616 28.9081C32.7026 30.1921 30.3443 32.3709 29.0865 35.8725C29.0472 35.9503 29.0472 36.0281 29.0079 36.106C28.8899 36.0671 28.8113 36.0281 28.6934 35.9892C25.3131 34.4719 22.09 34.4329 18.7097 35.9892C18.6311 36.0281 18.5525 36.0671 18.5131 36.0671C18.4738 35.9503 18.4345 35.8725 18.3952 35.7558C17.0588 32.332 14.8577 30.0364 11.3201 28.7525C11.2415 28.7136 11.1629 28.7136 11.0843 28.6747C11.1236 28.5579 11.1629 28.4801 11.2022 28.3634C12.7352 25.0174 12.8138 21.827 11.2022 18.481C11.1629 18.4031 11.1236 18.3253 11.0843 18.2864C11.2022 18.2475 11.2808 18.2086 11.3988 18.1697C14.897 16.8858 17.216 14.668 18.4738 11.2053C18.5131 11.1275 18.5131 11.0497 18.5525 11.0108C18.6704 11.0497 18.749 11.0886 18.8669 11.1275C22.2472 12.5671 25.431 12.6449 28.8506 11.0886ZM2.98726 23.5C2.98726 23.072 2.79073 21.6325 9.39414 18.9478C9.47276 19.0646 9.51206 19.1813 9.59067 19.298C11.3594 22.3717 11.045 24.9785 9.55137 27.6242C9.47276 27.7409 9.43345 27.8576 9.35484 28.0132C2.83003 25.3675 2.98726 23.8891 2.98726 23.5ZM9.04039 38.0513C8.72594 37.7401 7.54676 36.8841 10.2982 30.3477C10.4161 30.3866 10.534 30.4255 10.6912 30.4644C14.1502 31.3982 15.7617 33.4603 16.6265 36.3783C16.6658 36.5339 16.7051 36.6507 16.7444 36.8063C10.2982 39.4909 9.31553 38.3237 9.04039 38.0513ZM23.7409 44.082C23.3871 44.082 21.9721 44.4321 19.142 37.7401C19.26 37.6623 19.3779 37.6233 19.4565 37.5455C22.5617 35.7947 25.1952 36.106 27.868 37.5844C27.9859 37.6623 28.1431 37.7401 28.261 37.8179C25.7848 44.2765 24.0946 44.082 23.7409 44.082ZM38.4413 38.0513C38.2055 38.2848 37.4194 39.5298 30.6587 36.8063C30.698 36.6896 30.7373 36.5728 30.7766 36.4561C31.72 33.0323 33.8032 31.4371 36.7512 30.5811C36.9084 30.5422 37.0656 30.5033 37.1835 30.4644C40.0136 36.7674 38.6772 37.8179 38.4413 38.0513ZM44.5337 23.5C44.5337 23.928 44.7303 25.3675 38.1269 28.0522C38.0483 27.9354 38.0089 27.8187 37.9303 27.702C36.1616 24.6283 36.476 22.0215 37.9696 19.3758C38.0483 19.2591 38.1269 19.1424 38.1662 18.9868C44.691 21.6325 44.5337 23.1498 44.5337 23.5ZM38.4413 8.94868C38.7558 9.25993 39.9349 10.1159 37.1835 16.6523C37.0656 16.6134 36.9477 16.5745 36.7905 16.5356C33.3315 15.6018 31.7593 13.5008 30.8552 10.6217C30.8159 10.505 30.7766 10.3493 30.7373 10.2326C37.2228 7.54801 38.1662 8.71523 38.4413 8.94868ZM28.3397 9.29884C28.2217 9.37666 28.1431 9.41556 28.0252 9.49338C24.92 11.2442 22.2865 10.894 19.6137 9.45447C19.4958 9.37665 19.3386 9.29884 19.2207 9.25993C21.7755 2.72351 23.3085 2.95695 23.7409 2.95695C24.0946 2.95695 25.5096 2.76242 28.3397 9.29884Z" fill="url(#paint0_linear)"/>
<defs>
<linearGradient id="paint0_linear" x1="23.7495" y1="47.0172" x2="23.7495" y2="0" gradientUnits="userSpaceOnUse">
<stop stop-color="#007DCD"/>
<stop offset="0.5028" stop-color="#46DF83"/>
<stop offset="1" stop-color="#FFCF71"/>
</linearGradient>
</defs>
</svg>
