<svg width="1440" height="807" viewBox="0 0 1440 807" fill="none" xmlns="http://www.w3.org/2000/svg">
<circle cx="1017.82" cy="241.011" r="168.962" transform="rotate(5.75016 1017.82 241.011)" stroke="#C4C4C4" stroke-width="2"/>
<circle cx="1017.82" cy="241.011" r="218.482" transform="rotate(5.75016 1017.82 241.011)" stroke="#C4C4C4"/>
<circle cx="1018.26" cy="240.651" r="125.773" transform="rotate(5.75016 1018.26 240.651)" stroke="#C4C4C4" stroke-width="4"/>
<path d="M1238.06 222.618C1259.22 224.749 1278.04 209.298 1280.17 188.104C1282.3 166.91 1266.87 147.983 1245.79 145.86C1224.71 143.737 1205.73 159.171 1203.59 180.392C1201.46 201.533 1216.9 220.487 1238.06 222.618Z" fill="#8641EF"/>
<path d="M1251.33 205.627C1250.78 211.054 1252.14 216.29 1254.82 220.542C1269.81 215.179 1280.15 201.002 1280.39 184.853C1279.4 184.645 1278.39 184.434 1277.33 184.328C1264.29 183.069 1252.64 192.587 1251.33 205.627Z" fill="#FDC2C4"/>
<path d="M1280.04 179.39C1278.54 167.512 1271.82 157.617 1262.46 151.657C1262.08 151.619 1261.76 151.64 1261.35 151.599C1255.29 151.425 1252.47 149.096 1251.14 146.808C1247.31 145.877 1243.32 145.474 1239.22 145.771C1237.99 149.356 1237.36 154.283 1239.96 159.345C1242.32 164.002 1246.68 167.277 1251.77 168.444C1261.76 170.84 1271.6 172.459 1280.04 179.39Z" fill="#EB27B7"/>
<path d="M1237.14 209.516C1233.9 201.117 1238.19 198.058 1234.55 190.274C1229.55 179.57 1219 180.389 1215.06 171.592C1213.57 168.251 1212.97 163.337 1215.76 155.927C1208.93 162.276 1204.45 171.016 1203.6 180.611C1204.2 180.563 1204.89 180.523 1205.48 180.583C1212.28 181.268 1217 189.379 1216.06 198.694C1215.66 202.69 1214.3 206.207 1212.33 208.954C1220.48 218.693 1233.21 224.229 1246.74 222.51C1247.35 222.408 1247.98 222.362 1248.54 222.255C1244.33 219.595 1239.65 216.014 1237.14 209.516ZM1222.55 212.301C1221.74 213.229 1220 212.918 1218.57 211.737C1217.14 210.475 1216.66 208.763 1217.4 207.856C1218.21 206.928 1219.95 207.239 1221.38 208.42C1222.81 209.628 1223.34 211.454 1222.55 212.301Z" fill="#F7921E"/>
<path d="M1228.63 154.551C1231.82 154.872 1234.78 151.188 1235.27 146.301L1235.28 146.247C1231.33 146.968 1227.61 148.175 1224.21 150.014C1224.97 152.518 1226.61 154.347 1228.63 154.551Z" fill="#AD1AA4"/>
<path d="M1238.17 222.629C1259.33 224.76 1278.2 209.314 1280.33 188.12C1282.47 166.926 1267.03 147.999 1245.89 145.871C1224.76 143.743 1205.89 159.188 1203.75 180.409C1201.62 201.549 1217.06 220.503 1238.17 222.629Z" fill="url(#paint0_linear)"/>
<path d="M1278.97 172.356C1279.85 174.217 1280.58 176.145 1281.15 178.138C1281.64 178.406 1282.16 178.676 1282.64 178.971C1283.64 179.59 1284.61 180.314 1285.33 181.233C1286.06 182.151 1286.54 183.318 1286.48 184.484C1286.42 185.624 1285.82 186.682 1285.06 187.505C1284.29 188.355 1283.33 188.967 1282.34 189.577C1280.25 190.866 1278.03 192.007 1275.73 192.92C1269.49 195.346 1262.68 195.833 1256 196.088C1244.67 196.502 1233.24 196.278 1222.12 194.013C1215.77 192.718 1209.47 190.748 1203.82 187.561C1202.53 186.831 1201.25 186.048 1200.27 184.94C1199.78 184.4 1199.35 183.757 1199.09 183.076C1198.81 182.393 1198.69 181.645 1198.74 180.913C1198.81 179.965 1199.23 179.053 1199.77 178.262C1200.34 177.474 1201.06 176.811 1201.8 176.23C1202.6 175.602 1203.48 175.035 1204.37 174.526C1205.24 172.131 1206.32 169.813 1207.6 167.624C1205.75 167.901 1203.9 168.396 1202.18 169.178C1198.64 170.785 1195.57 173.421 1193.44 176.67C1191.25 179.995 1190.03 184.018 1190.39 187.982C1190.84 192.772 1193.51 197.105 1196.94 200.45C1200.12 203.524 1203.97 205.849 1208.02 207.647C1219.19 212.617 1231.69 213.603 1243.9 214.124C1254.3 214.571 1264.95 214.662 1274.83 211.348C1280.53 209.413 1285.86 206.349 1290.2 202.178C1293.13 199.364 1295.66 195.909 1296.31 191.911C1296.73 189.335 1296.32 186.675 1295.33 184.285C1293.6 180.129 1290.14 176.862 1286.15 174.769C1283.89 173.588 1281.47 172.771 1278.97 172.356Z" fill="#F7CB16"/>
<path d="M1284.12 173.829C1286.83 175.82 1289.11 178.422 1290.38 181.523C1291.36 183.913 1291.77 186.6 1291.35 189.148C1290.7 193.147 1288.18 196.601 1285.25 199.415C1280.9 203.587 1275.58 206.65 1269.87 208.585C1259.99 211.927 1249.34 211.809 1238.95 211.362C1226.73 210.841 1214.23 209.855 1203.06 204.885C1202.64 204.706 1202.26 204.477 1201.84 204.298C1203.78 205.585 1205.85 206.666 1207.99 207.618C1219.16 212.588 1231.66 213.574 1243.88 214.095C1254.28 214.542 1264.93 214.633 1274.81 211.318C1280.51 209.384 1285.83 206.32 1290.18 202.148C1293.11 199.334 1295.64 195.88 1296.29 191.881C1296.71 189.306 1296.29 186.646 1295.31 184.256C1293.57 180.099 1290.11 176.833 1286.12 174.74C1285.48 174.402 1284.8 174.115 1284.12 173.829Z" fill="#F7B516"/>
<path d="M1198.22 198.833C1196.35 197.363 1194.79 195.461 1193.73 193.335C1192.91 191.726 1192.35 189.978 1192.06 188.177C1191.94 187.483 1191.88 186.795 1191.97 186.095C1192.07 185.396 1192.36 184.716 1192.87 184.276C1193.17 184.006 1193.54 183.826 1193.93 183.756C1194.32 183.686 1194.72 183.699 1195.12 183.848C1195.7 184.07 1196.17 184.527 1196.49 185.078C1196.82 185.602 1197.04 186.196 1197.28 186.793C1197.94 188.551 1198.75 190.269 1199.88 191.773C1201.11 193.37 1202.73 194.651 1204.23 196.002C1204.68 196.402 1205.13 196.829 1205.46 197.353C1205.78 197.877 1205.97 198.495 1205.85 199.084C1205.79 199.459 1205.59 199.821 1205.32 200.093C1205.04 200.366 1204.69 200.576 1204.35 200.733C1203.61 201.013 1202.8 200.985 1202.05 200.828C1200.58 200.517 1199.26 199.811 1198.22 198.833Z" fill="#FADF6F"/>
<path d="M1237.66 182.651C1237.45 182.629 1237.22 182.715 1237.07 182.891C1236.91 183.066 1236.84 183.277 1236.87 183.498C1236.97 184.408 1237.32 185.261 1237.85 185.996C1238.37 186.731 1239.1 187.323 1239.91 187.677C1241.37 188.342 1243.07 188.295 1244.5 187.621C1245.79 187.014 1246.85 185.948 1247.42 184.615C1247.52 184.434 1247.51 184.215 1247.45 184.018C1247.39 183.821 1247.24 183.67 1247.03 183.594C1246.85 183.521 1246.63 183.526 1246.43 183.588C1246.23 183.677 1246.08 183.825 1246.03 184.039C1245.63 185.008 1244.84 185.828 1243.87 186.249C1242.85 186.718 1241.56 186.752 1240.54 186.295C1239.97 186.019 1239.44 185.611 1239.06 185.082C1238.67 184.552 1238.43 183.955 1238.36 183.321C1238.34 182.964 1238.05 182.662 1237.66 182.651Z" fill="black"/>
<path d="M1230.27 177.543C1230.16 178.623 1229.63 179.605 1228.8 180.285C1227.96 180.965 1226.9 181.294 1225.82 181.185C1224.74 181.076 1223.75 180.541 1223.07 179.709C1222.39 178.877 1222.07 177.808 1222.17 176.728C1222.4 174.487 1224.39 172.86 1226.63 173.085C1228.87 173.311 1230.5 175.302 1230.27 177.543Z" fill="black"/>
<path d="M1226.4 175.354C1226.37 175.678 1226.2 175.988 1225.93 176.206C1225.67 176.425 1225.33 176.527 1225.01 176.495C1224.3 176.424 1223.79 175.8 1223.87 175.098C1223.94 174.396 1224.56 173.886 1225.26 173.957C1225.96 174.055 1226.47 174.652 1226.4 175.354Z" fill="white"/>
<path d="M1255.42 183.13C1254.88 183.075 1254.47 182.597 1254.49 182.054C1254.5 181.155 1254.75 180.28 1255.21 179.536C1255.69 178.793 1256.38 178.181 1257.18 177.825C1258.5 177.221 1260.02 177.265 1261.29 177.938C1262.17 178.409 1262.88 179.163 1263.31 180.051C1263.74 180.967 1263.85 181.988 1263.64 182.976C1263.59 183.243 1263.43 183.499 1263.2 183.64C1262.96 183.807 1262.68 183.861 1262.39 183.804C1262.12 183.75 1261.87 183.587 1261.72 183.355C1261.56 183.12 1261.5 182.842 1261.59 182.55C1261.69 182.043 1261.62 181.462 1261.39 180.976C1261.17 180.49 1260.77 180.069 1260.31 179.831C1259.63 179.49 1258.76 179.457 1258.08 179.77C1257.65 179.972 1257.26 180.288 1257 180.698C1256.74 181.108 1256.61 181.586 1256.62 182.05C1256.62 182.35 1256.51 182.639 1256.27 182.86C1256.03 183.054 1255.72 183.159 1255.42 183.13Z" fill="black"/>
<path d="M870.435 29.7277C870.81 28.2003 870.487 26.6025 870.136 25.0811C869.649 22.9119 869.09 20.6563 869.593 18.4679C869.918 17.0345 870.697 15.7062 871.822 14.7495C872.947 13.7928 874.397 13.2058 875.896 13.1388C877.294 13.0813 878.645 13.475 880.001 13.8295C881.357 14.184 882.758 14.4836 884.111 14.2632C885.69 14.0061 887.074 13.0755 888.271 12.0072C889.465 10.9585 890.516 9.73673 891.782 8.7745C893.029 7.81026 894.513 7.08792 896.1 6.95049C896.894 6.87197 897.693 6.95238 898.454 7.20731C899.214 7.46225 899.897 7.88768 900.445 8.45797C901.354 9.44116 901.765 10.7704 902.287 11.992C902.547 12.6126 902.829 13.2156 903.239 13.7522C903.649 14.2888 904.168 14.7374 904.787 14.9979C905.291 15.2071 905.87 15.2654 906.417 15.2412C906.965 15.1974 907.502 15.0731 908.025 14.888C909.069 14.5374 910.05 14.0022 911.128 13.7144C913.243 13.1348 915.621 13.5526 917.432 14.7852C919.244 16.0177 920.472 18.0435 920.76 20.1925C920.854 20.8559 920.847 21.5288 920.921 22.1902C920.996 22.8516 921.108 23.5366 921.432 24.124C921.738 24.6898 922.194 25.1716 922.719 25.5613C923.245 25.951 923.818 26.2663 924.391 26.5816C924.964 26.8969 925.54 27.1926 926.087 27.5648C926.614 27.9349 927.116 28.3618 927.484 28.914C927.955 29.6352 928.172 30.4892 928.185 31.3623C928.2 32.2158 928.013 33.0688 927.77 33.8765C927.263 35.5096 926.44 37.0713 926.191 38.7502C925.893 40.7016 926.394 42.7335 927.283 44.5269C927.785 45.5483 928.415 46.5034 928.895 47.5424C929.375 48.5814 929.683 49.7221 929.529 50.8557C929.412 51.6167 929.075 52.3555 928.609 52.9823C928.143 53.609 927.564 54.1451 926.95 54.6381C925.704 55.6023 924.297 56.3523 923.107 57.3618C920.528 59.5392 919.116 62.7456 918.149 65.9374C917.821 66.9941 917.529 68.094 917.045 69.0954C916.561 70.0968 915.841 71.0349 914.86 71.5701C914.07 72.0057 913.148 72.1506 912.262 72.1406C911.357 72.109 910.471 71.9008 909.608 71.6555C907.885 71.1451 906.186 70.3994 904.373 70.3754C902.782 70.3539 901.256 70.8937 899.8 71.5396C898.363 72.1875 896.959 72.9178 895.422 73.3575C894.073 73.7369 892.65 73.8511 891.287 73.5751C889.923 73.2991 888.623 72.5936 887.741 71.534C887.13 70.7987 886.752 69.9483 886.312 69.1114C885.872 68.2745 885.35 67.4493 884.579 66.8961C884.053 66.5063 883.41 66.2831 882.755 66.1775C882.101 66.072 881.436 66.0645 880.783 66.1374C879.48 66.2638 878.193 66.6295 876.874 66.7146C874.944 66.8571 872.929 66.4363 871.369 65.3083C870.6 64.7355 869.926 64.0139 869.488 63.1574C869.048 62.3205 868.824 61.3468 868.859 60.3993C868.921 59.1771 869.441 58.0208 869.901 56.8585C870.359 55.7158 870.785 54.4906 870.646 53.2679C870.493 51.9844 869.743 50.8192 868.873 49.84C868.006 48.8412 867.027 47.9501 866.287 46.8849C864.774 44.6917 864.37 41.8969 864.774 39.2826C865.008 37.7607 865.581 36.2729 866.494 35.0175C866.961 34.3908 867.481 33.829 868.041 33.2712C868.602 32.7134 869.16 32.1752 869.606 31.5464C870.005 30.9922 870.268 30.3846 870.435 29.7277Z" fill="#F77026"/>
<path d="M874.913 26.513C874.608 25.3331 874.635 24.0677 874.995 22.8953C875.42 21.472 876.357 20.1793 877.646 19.3976C879.022 18.5456 880.681 18.2965 882.291 18.1218C883.84 17.9608 885.405 17.8409 886.925 17.5582C888.466 17.2774 889.967 16.7945 891.279 15.9756C892.075 15.4811 892.785 14.8393 893.565 14.3036C894.345 13.7679 895.217 13.3207 896.171 13.2583C896.923 13.1954 897.69 13.3914 898.361 13.7364C899.034 14.0618 899.651 14.54 900.207 15.0318C901.315 16.0351 902.285 17.2225 903.575 18.0261C904.997 18.9222 906.718 19.254 908.413 19.4445C910.088 19.633 911.799 19.6666 913.452 20.0708C914.201 20.2453 914.921 20.4962 915.59 20.8608C916.26 21.2253 916.855 21.7212 917.319 22.3227C917.992 23.2425 918.301 24.3831 918.574 25.4805C918.866 26.58 919.155 27.7186 919.87 28.6228C920.316 29.2027 920.915 29.6593 921.493 30.1335C922.07 30.6078 922.624 31.1192 922.982 31.7695C923.272 32.294 923.412 32.9026 923.433 33.4991C923.453 34.0956 923.372 34.7016 923.253 35.284C923.014 36.4489 922.597 37.5956 922.496 38.7941C922.384 40.1103 922.672 41.4471 923.007 42.7291C923.342 44.0111 923.756 45.3011 923.886 46.6218C923.978 47.503 923.947 48.4113 923.739 49.2819C923.53 50.1525 923.124 50.9834 922.514 51.6352C921.902 52.3067 921.106 52.8012 920.314 53.2564C919.522 53.7116 918.71 54.1648 918.024 54.7694C916.979 55.7342 916.322 57.0549 915.866 58.3762C915.408 59.7171 915.088 61.0916 914.573 62.4069C914.169 63.4163 913.647 64.3941 912.883 65.1692C912.119 65.9443 911.074 66.5127 909.978 66.5807C909.35 66.6164 908.717 66.4932 908.112 66.2936C907.507 66.094 906.951 65.8003 906.374 65.5243C905.242 64.9545 904.076 64.3219 902.808 64.2933C901.944 64.2657 901.112 64.5188 900.328 64.8956C899.563 65.2743 898.849 65.7572 898.137 66.2205C897.423 66.7034 896.711 67.1666 895.931 67.5042C895.151 67.8417 894.283 68.0515 893.424 67.9651C892.187 67.8404 891.068 67.1334 890.143 66.3071C889.218 65.4808 888.407 64.5273 887.414 63.7735C886.215 62.8602 884.783 62.2603 883.34 61.7781C881.894 61.3155 880.397 60.9666 878.953 60.4844C878.132 60.2234 877.298 59.9016 876.58 59.4133C875.863 58.925 875.244 58.2682 874.964 57.4475C874.681 56.6463 874.75 55.7616 874.873 54.9418C874.998 54.1024 875.183 53.269 875.148 52.4135C875.082 50.8614 874.276 49.4527 873.377 48.1733C872.477 46.8939 871.492 45.6653 870.933 44.2023C870.473 42.9671 870.366 41.6288 870.516 40.3362C870.666 39.0436 871.056 37.7752 871.6 36.5816C872.486 34.5904 873.738 32.7747 874.41 30.7025C874.868 29.3617 875.032 27.9318 874.913 26.513Z" fill="#F78526"/>
<path d="M874.98 35.2572C876.718 28.8144 881.59 23.2816 887.809 20.5989C892.531 18.5581 897.976 18.1554 902.964 19.4898C907.951 20.8242 912.464 23.8742 915.476 28.0016C919.198 33.0921 920.561 39.7876 919.14 45.8859C917.72 51.9842 913.563 57.4108 907.996 60.4364C904.136 62.5244 899.641 63.4985 895.24 63.1543C890.836 62.8298 886.545 61.189 883.041 58.5378C879.537 55.8865 876.864 52.1896 875.443 48.0837C874.023 43.9582 873.853 39.4433 874.98 35.2572Z" fill="#F7CB16"/>
<path d="M909.584 22.4354C912.062 28.6687 911.832 35.9569 908.75 41.9275C905.338 48.5782 898.577 53.4452 891.099 54.6141C886.672 55.3176 882.055 54.7139 877.911 53.0088C879.293 55.1095 881.039 56.9893 883.043 58.5186C886.547 61.1698 890.838 62.8106 895.242 63.1352C899.645 63.4597 904.137 62.5053 907.998 60.4173C913.565 57.3916 917.739 51.9867 919.142 45.8668C920.563 39.7685 919.198 33.0925 915.478 27.9824C913.881 25.8204 911.873 23.934 909.584 22.4354Z" fill="#F7B516"/>
<path d="M884.709 24.7457C886.526 23.3238 888.587 22.0849 890.852 21.6195C891.592 21.4761 892.347 21.3935 893.085 21.4679C893.824 21.5423 894.567 21.7756 895.19 22.195C895.737 22.5671 896.189 23.0881 896.431 23.6871C896.693 24.2881 896.746 24.9671 896.561 25.6023C896.378 26.2179 895.959 26.7702 895.493 27.1987C895.004 27.6449 894.464 28.0065 893.921 28.3878C891.318 30.2061 888.963 32.3665 886.816 34.6666C886.387 35.1188 885.977 35.5926 885.472 35.9975C884.989 36.3848 884.413 36.7032 883.796 36.8194C883.056 36.9628 882.267 36.7843 881.62 36.4021C880.973 36.02 880.469 35.4145 880.153 34.7486C879.821 34.0415 879.698 33.2564 879.716 32.4854C879.733 31.7144 879.931 30.9418 880.226 30.2186C881.116 27.99 882.827 26.2205 884.709 24.7457Z" fill="#FADF6F"/>
<path d="M894.498 43.6824C894.359 43.6684 894.211 43.7327 894.121 43.8228C894.03 43.9324 893.976 44.0657 894.002 44.207C894.068 44.7487 894.277 45.2848 894.616 45.7153C894.954 46.1654 895.404 46.5079 895.905 46.7367C896.812 47.145 897.863 47.1122 898.751 46.7063C899.553 46.3512 900.205 45.6837 900.548 44.886C900.6 44.7723 900.613 44.635 900.563 44.5309C900.515 44.4072 900.423 44.3187 900.308 44.2674C900.192 44.2161 900.05 44.2216 899.944 44.2704C899.819 44.3172 899.729 44.4073 899.695 44.5426C899.434 45.1305 898.962 45.6179 898.369 45.8951C897.735 46.1878 896.946 46.2075 896.309 45.9254C895.942 45.7695 895.626 45.5 895.394 45.1992C895.164 44.8789 895 44.5057 894.958 44.125C894.902 43.8816 894.718 43.7045 894.498 43.6824Z" fill="black"/>
<path d="M887.359 46.2927C887.241 47.4696 885.729 48.2684 883.992 48.0935C882.255 47.9186 880.932 46.8344 881.051 45.6575C881.108 45.0886 881.501 44.5932 882.119 44.2592C882.758 43.9272 883.58 43.7722 884.418 43.8567C885.257 43.9411 886.034 44.2373 886.591 44.7095C887.15 45.1621 887.417 45.7239 887.359 46.2927Z" fill="#FF8080"/>
<path d="M912.293 48.8034C912.174 49.9803 910.662 50.7791 908.925 50.6043C907.189 50.4294 905.866 49.3451 905.985 48.1682C906.042 47.5994 906.435 47.104 907.053 46.77C907.691 46.438 908.514 46.283 909.352 46.3674C910.19 46.4518 910.967 46.748 911.525 47.2202C912.064 47.6708 912.35 48.2346 912.293 48.8034Z" fill="#FF8080"/>
<path d="M890.519 40.349C890.367 41.8593 888.984 42.9684 887.447 42.8136C885.91 42.6589 884.777 41.2965 884.929 39.7861C885.081 38.2758 886.463 37.1667 888 37.3215C889.538 37.4763 890.673 38.819 890.519 40.349Z" fill="black"/>
<path d="M887.846 38.8515C887.823 39.0869 887.701 39.2926 887.526 39.4334C887.35 39.5742 887.121 39.6502 886.881 39.6261C886.642 39.602 886.432 39.4818 886.288 39.3088C886.144 39.1358 886.066 38.91 886.09 38.6746C886.137 38.2038 886.576 37.8517 887.055 37.9C887.532 37.9678 887.894 38.3807 887.846 38.8515Z" fill="white"/>
<path d="M909.364 42.2467C909.211 43.757 907.829 44.8661 906.292 44.7113C904.755 44.5565 903.622 43.1942 903.774 41.6838C903.926 40.1735 905.308 39.0644 906.845 39.2192C908.384 39.3543 909.518 40.7167 909.364 42.2467Z" fill="black"/>
<path d="M906.691 40.7489C906.668 40.9843 906.546 41.19 906.37 41.3309C906.195 41.4717 905.966 41.5477 905.726 41.5235C905.486 41.4994 905.277 41.3792 905.133 41.2062C904.989 41.0332 904.911 40.8074 904.935 40.572C904.982 40.1013 905.421 39.7492 905.9 39.7974C906.397 39.8673 906.739 40.2782 906.691 40.7489Z" fill="white"/>
<path d="M852.348 227.982C870.461 229.806 886.605 216.632 888.432 198.489C890.259 180.346 877.063 164.242 858.95 162.418C840.838 160.594 824.716 173.77 822.89 191.913C821.07 209.985 834.235 226.158 852.348 227.982Z" fill="url(#paint1_linear)"/>
<path d="M852.188 199.058C841.433 181.888 824.665 183.989 824.665 183.989C822.325 190.426 822.065 197.502 823.928 204.076C827.885 205.238 831.571 206.967 834.979 209.312C841.441 213.752 846.375 220.112 849.134 227.491C856.138 228.912 863.403 227.975 869.88 224.933L869.927 224.938C862.455 217.751 856.622 206.129 852.188 199.058Z" fill="#19C3ED"/>
<path d="M882.763 213.863C888.461 205.547 890.084 195.105 887.145 185.491C877.423 181.486 869.178 181.275 865.184 185.687C859.481 192.167 864.61 206.53 876.765 220.432C879.074 218.567 881.082 216.363 882.763 213.863Z" fill="#19C3ED"/>
<path d="M874.318 168.088C867.097 163.143 858.261 161.228 849.643 162.815C841.074 164.407 833.433 169.31 828.489 176.533C828.489 176.533 828.484 176.581 828.437 176.576C832.215 177.623 840.725 179.458 850.314 178.636C853.465 178.333 856.558 177.668 859.587 176.686C868.186 173.858 875.823 174.198 883.912 178.325C881.554 174.298 878.266 170.75 874.318 168.088Z" fill="#19C3ED"/>
<path d="M852.348 227.982C870.461 229.806 886.605 216.632 888.432 198.489C890.259 180.346 877.063 164.242 858.95 162.418C840.838 160.594 824.716 173.77 822.89 191.913C821.07 209.985 834.235 226.158 852.348 227.982Z" fill="url(#paint2_linear)"/>
<path d="M850.1 194.248C849.926 195.732 850.366 197.278 851.323 198.423C852.023 199.28 852.985 199.901 854.025 200.22C855.065 200.54 856.211 200.512 857.268 200.189C858.301 199.864 859.25 199.197 859.932 198.337C860.614 197.476 861.032 196.398 861.095 195.308L850.1 194.248Z" fill="black"/>
<path d="M867.954 194.854C867.6 194.819 867.322 194.505 867.334 194.148C867.337 193.41 867.531 192.667 867.951 192.042C868.348 191.415 868.921 190.924 869.596 190.611C870.695 190.102 871.978 190.136 873.042 190.696C873.789 191.081 874.369 191.711 874.746 192.464C875.099 193.214 875.202 194.083 875.025 194.899C874.982 195.085 874.871 195.241 874.718 195.345C874.564 195.448 874.371 195.477 874.185 195.434C873.998 195.391 873.843 195.28 873.739 195.127C873.635 194.974 873.607 194.78 873.65 194.594C873.749 194.079 873.686 193.525 873.474 193.027C873.26 192.553 872.873 192.132 872.397 191.894C871.742 191.542 870.885 191.527 870.211 191.84C869.786 192.036 869.397 192.354 869.165 192.76C868.91 193.163 868.768 193.626 868.768 194.102C868.772 194.293 868.68 194.499 868.548 194.628C868.364 194.8 868.166 194.876 867.954 194.854Z" fill="black"/>
<path d="M837.53 191.791C837.176 191.755 836.898 191.441 836.91 191.085C836.913 190.346 837.107 189.603 837.527 188.978C837.924 188.351 838.498 187.861 839.172 187.547C840.272 187.038 841.555 187.072 842.618 187.632C843.366 188.017 843.945 188.648 844.322 189.4C844.675 190.151 844.779 191.019 844.601 191.836C844.558 192.022 844.448 192.178 844.294 192.281C844.141 192.385 843.947 192.413 843.761 192.371C843.575 192.328 843.419 192.217 843.315 192.064C843.212 191.91 843.184 191.717 843.226 191.53C843.326 191.016 843.262 190.462 843.05 189.964C842.836 189.489 842.45 189.069 841.973 188.83C841.318 188.478 840.462 188.464 839.787 188.777C839.362 188.973 838.973 189.291 838.742 189.696C838.487 190.1 838.345 190.562 838.344 191.039C838.349 191.23 838.257 191.435 838.125 191.565C837.917 191.734 837.719 191.81 837.53 191.791Z" fill="black"/>
<path d="M841.469 198.336C841.383 199.186 840.805 199.962 839.873 200.464C838.939 200.989 837.702 201.198 836.453 201.072C835.203 200.947 834.057 200.498 833.222 199.794C832.411 199.093 831.997 198.241 832.082 197.391C832.261 195.622 834.504 194.394 837.099 194.655C839.693 194.916 841.647 196.567 841.469 198.336Z" fill="#FF8080"/>
<path d="M878.567 202.072C878.481 202.921 877.903 203.697 876.971 204.199C876.036 204.724 874.8 204.934 873.55 204.808C872.3 204.682 871.155 204.233 870.32 203.529C869.509 202.828 869.095 201.976 869.18 201.127C869.358 199.357 871.602 198.129 874.197 198.391C876.791 198.652 878.745 200.302 878.567 202.072Z" fill="#FF8080"/>
<path d="M855.494 196.984C854.695 196.879 853.883 196.893 853.086 197.003C852.289 197.114 851.527 197.347 850.807 197.632C850.97 197.91 851.132 198.189 851.323 198.423C852.023 199.28 852.985 199.901 854.025 200.22C855.065 200.539 856.211 200.512 857.268 200.189C858.228 199.881 859.07 199.322 859.717 198.577C858.444 197.734 857.001 197.159 855.494 196.984Z" fill="#FF8080"/>
<path d="M1444.7 319.914V231.622C1285.69 229.031 1275.33 247.621 1225.07 259.112C1174.14 270.754 1121.28 270.942 1088.71 261.629C1056.14 252.315 1054.43 232.486 1054.43 232.486C1054.43 232.486 1019.27 204.132 996.176 240.673C973.079 277.214 914.45 271.355 783.645 259.112C652.84 246.87 585.401 291.259 496.791 298.62C408.181 305.981 386.639 285.551 186.397 259.112C96.5284 247.208 35.7524 247.884 -4 252.202V319.914V393.033V807H1445V319.914H1444.7Z" fill="url(#paint3_radial)"/>
<path d="M1059.62 98.705C1057.03 85.154 1053.48 71.7915 1049.01 58.7379C1044.85 46.6065 1039.79 34.588 1031.67 24.6577C1028.71 21.0446 1025.34 17.7396 1021.42 15.2525C1017.44 12.7534 1012.9 11.1266 1008.22 11.0888C1002.98 11.0731 997.867 12.9897 993.632 16.0687C989.541 19.0088 986.281 22.9575 983.679 27.279C981.078 31.6006 979.221 36.2857 977.603 41.0519C972.416 56.7288 970.451 73.2869 970.143 89.8123C969.745 109.335 971.626 128.847 974.458 148.171C975.103 152.611 975.824 157.096 977.279 161.345C978.734 165.594 981 169.651 984.322 172.661C988.716 176.619 994.688 178.448 1000.56 179.174C1010.27 180.434 1020.12 179.134 1029.77 177.448C1037.68 176.034 1045.84 174.275 1052.3 169.495C1057.53 165.64 1061.32 159.902 1063.18 153.68C1065.82 144.757 1064.59 135.235 1063.32 126.017C1062.08 116.92 1060.83 107.823 1059.62 98.705Z" fill="url(#paint4_linear)"/>
<path d="M1057.82 90.11C1064.79 94.7509 1071.08 100.436 1076.46 106.888C1085.5 117.818 1091.78 130.929 1095.09 144.723C1097.16 153.52 1098.05 162.567 1098.73 171.598C1098.9 173.826 1099.07 176.141 1098.27 178.241C1097.9 179.27 1097.28 180.272 1096.42 180.964C1095.57 181.688 1094.45 182.124 1093.35 182.081C1092.64 182.067 1092 181.869 1091.37 181.529C1090.75 181.223 1090.22 180.82 1089.72 180.341C1088.74 179.384 1088 178.224 1087.19 177.107C1083.86 172.472 1079.5 168.581 1074.74 165.423C1070.52 162.614 1065.95 160.354 1061.18 158.592C1061.96 157.026 1062.61 155.348 1063.12 153.668C1065.77 144.746 1064.54 135.224 1063.26 126.006C1062.02 116.909 1060.8 107.845 1059.59 98.7269C1059.06 95.8485 1058.44 92.9792 1057.82 90.11Z" fill="url(#paint5_linear)"/>
<path d="M1006.52 65.873C1008.53 65.6618 1010.59 65.4625 1012.65 65.3175C1025.48 64.3051 1038.4 64.396 1051.2 65.5966C1054.65 76.4599 1057.47 87.5292 1059.62 98.7052C1060.81 107.649 1062.04 116.571 1063.26 125.493C1049.67 129.98 1035.6 132.996 1021.4 134.56C1005.16 136.301 988.756 136.098 972.585 133.926C970.862 119.258 969.871 104.496 970.155 89.7581C970.255 84.0025 970.596 78.1861 971.175 72.4508C982.726 69.3631 994.599 67.1433 1006.52 65.873Z" fill="#DFE2E7"/>
<path d="M1049.06 171.514C1053.44 178.001 1057.28 184.881 1060.46 191.988C1061.21 193.661 1061.94 195.387 1062.25 197.192C1062.56 198.998 1062.45 200.937 1061.63 202.578C1060.78 204.241 1059.27 205.443 1057.62 206.217C1055.97 206.992 1054.16 207.447 1052.36 207.848C1041.86 210.171 1031.24 211.87 1020.62 213.199C1012.93 214.149 1005.18 214.945 997.421 215.425C995.576 215.53 993.731 215.636 991.916 215.349C990.101 215.063 988.294 214.351 987.022 213.017C985.739 211.738 985.096 210.003 984.803 208.23C984.565 206.47 984.709 204.652 984.982 202.891C985.807 197.465 987.587 192.223 989.388 187.013C990.518 183.818 991.714 180.581 992.899 177.399C995.39 178.233 997.974 178.774 1000.57 179.12C1010.29 180.38 1020.15 179.113 1029.78 177.394C1036.4 176.292 1043.22 174.78 1049.06 171.514Z" fill="#DFE2E7"/>
<path d="M970.061 96.9102C970.188 114.044 971.941 131.166 974.404 148.16C975.049 152.6 975.77 157.085 977.225 161.334C977.452 161.982 977.734 162.641 977.994 163.268C972.082 165.693 966.47 168.952 961.528 173.042C957.141 176.685 953.176 180.99 950.356 185.918C949.668 187.104 949.055 188.335 948.195 189.398C947.738 189.923 947.239 190.382 946.697 190.775C946.134 191.135 945.474 191.416 944.796 191.523C943.681 191.675 942.553 191.37 941.617 190.708C940.703 190.079 939.99 189.182 939.475 188.158C938.467 186.142 938.402 183.851 938.326 181.614C938.064 172.591 938.042 163.507 939.197 154.512C941.038 140.459 945.957 126.772 953.849 114.965C958.351 108.217 963.844 102.142 970.061 96.9102Z" fill="url(#paint6_linear)"/>
<path d="M1034.22 98.4236C1033.83 94.4687 1032.29 90.6 1029.64 87.6797C1027.35 85.1267 1024.28 83.3106 1021 82.33C1017.68 81.3705 1014.18 81.2253 1010.79 81.7584C1006.04 82.5046 1001.4 84.5833 998.173 88.14C995.857 90.6461 994.323 93.8655 993.757 97.213C993.158 100.582 993.548 104.111 994.784 107.287C996.529 111.771 999.967 115.546 1004.1 117.993C1009.05 120.937 1015.18 122.061 1020.67 120.282C1025.51 118.731 1029.51 115.004 1031.85 110.481C1033.68 106.788 1034.58 102.575 1034.22 98.4236Z" fill="url(#paint7_linear)"/>
<path d="M1027.94 95.2465C1026.38 91.8572 1023.61 89.0548 1020.26 87.4622C1016.01 85.4701 1010.82 85.5206 1006.64 87.6739C1004.55 88.7777 1002.75 90.3453 1001.39 92.2921C1000.05 94.2178 999.212 96.4803 998.948 98.8414C998.608 101.812 999.301 104.868 1000.78 107.47C1002.25 110.073 1004.55 112.201 1007.18 113.55C1009.61 114.798 1012.41 115.387 1015.15 115.223C1017.89 115.059 1020.57 114.141 1022.82 112.56C1025.49 110.672 1027.46 107.919 1028.38 104.764C1029.34 101.675 1029.16 98.2475 1027.94 95.2465Z" fill="url(#paint8_linear)"/>
<path d="M1054.59 207.314C1059.13 212.016 1062.5 217.796 1064.15 224.11C1065.16 227.946 1065.58 231.967 1065.5 235.935C1065.46 237.319 1065.41 238.703 1065.2 240.051C1065.16 240.356 1065.09 240.681 1064.97 240.941C1064.83 241.221 1064.64 241.523 1064.39 241.638C1064.23 241.744 1064 241.75 1063.77 241.757C1063.57 241.742 1063.36 241.694 1063.15 241.592C1062.76 241.421 1062.48 241.132 1062.15 240.831C1058.63 237.436 1056.09 233.089 1052.42 229.833C1050.39 228.048 1048.01 226.584 1045.34 226.193C1045.09 226.166 1044.84 226.14 1044.57 226.167C1044.31 226.195 1044.06 226.31 1043.9 226.503C1043.79 226.621 1043.76 226.783 1043.72 226.946C1043.68 227.109 1043.7 227.284 1043.75 227.438C1043.82 227.766 1043.99 228.031 1044.13 228.317C1045.16 230.224 1045.81 232.331 1046.4 234.425C1048.14 240.359 1049.71 246.398 1050.06 252.566C1050.58 261.474 1048.43 270.45 1044.28 278.329C1043.49 279.862 1042.55 281.392 1041.41 282.678C1040.34 284.064 1038.9 285.169 1037.27 285.748C1035.39 286.387 1033.32 286.357 1031.41 285.851C1027.34 284.811 1024 281.91 1021.08 278.875C1016.93 274.574 1013.17 269.789 1010.52 264.394C1007.91 259.064 1006.34 253.112 1006.53 247.206C1006.68 243.196 1007.61 239.19 1008.26 235.234C1008.33 234.766 1008.42 234.245 1008.37 233.808C1008.34 233.316 1008.16 232.822 1007.81 232.488C1007.55 232.232 1007.18 232.094 1006.85 232.076C1006.49 232.026 1006.14 232.062 1005.8 232.187C1005.15 232.414 1004.56 232.882 1004.01 233.329C1001.84 235.184 999.728 237.138 997.93 239.36C996.477 241.174 995.251 243.124 994.252 245.208C993.741 246.234 993.306 247.305 992.548 248.163C992.169 248.592 991.694 248.942 991.167 249.139C990.661 249.369 990.049 249.433 989.485 249.28C988.867 249.115 988.308 248.679 987.936 248.17C987.565 247.661 987.271 247.056 987.011 246.429C985.795 243.286 985.261 239.895 985.131 236.48C984.913 231.394 985.578 226.304 987.078 221.426C987.788 219.106 988.703 216.889 989.781 214.708C990.441 214.939 991.135 215.149 991.82 215.271C993.635 215.558 995.479 215.452 997.324 215.347C1005.09 214.867 1012.8 214.092 1020.52 213.121C1031.18 211.771 1041.82 210.105 1052.27 207.77L1054.59 207.314Z" fill="url(#paint9_linear)"/>
<path d="M984.46 69.3757C984.101 72.1711 983.775 74.9454 983.503 77.7316C981.769 96.9877 982.426 116.629 987.726 135.217C987.714 135.271 987.756 135.337 987.778 135.37C982.692 135.074 977.588 134.603 972.552 133.947C972.181 130.592 971.809 127.237 971.504 123.84C971.44 123.228 971.396 122.649 971.353 122.071C970.752 115.363 970.358 108.616 970.161 101.884C970.163 101.23 970.143 100.543 970.112 99.9097C970.057 96.5391 970.023 93.2017 970.11 89.8338C970.162 87.1414 970.268 84.461 970.429 81.7925C970.449 81.3131 970.49 80.8668 970.531 80.4206C970.68 77.8064 970.916 75.183 971.173 72.5928C971.152 72.5596 971.185 72.5385 971.185 72.5385C975.559 71.2833 979.994 70.2692 984.46 69.3757Z" fill="#CFD3DB"/>
<path d="M1059.62 98.7053C1057.03 85.1543 1053.48 71.7918 1049.01 58.7383C1044.85 46.6068 1039.76 34.5552 1031.67 24.6581C1028.71 21.0449 1025.34 17.7399 1021.42 15.2528C1017.44 12.7537 1012.9 11.1269 1008.22 11.0892C1002.98 11.0734 997.867 12.9901 993.632 16.069C989.541 19.0091 986.281 22.9578 983.679 27.2794C981.111 31.5798 979.221 36.2861 977.603 41.0523C972.416 56.7291 970.451 73.2873 970.143 89.8126C969.745 109.335 971.626 128.848 974.459 148.172C975.103 152.612 975.824 157.097 977.279 161.346C978.735 165.594 981 169.652 984.355 172.64C988.749 176.598 994.721 178.427 1000.59 179.154C1010.31 180.413 1020.15 179.113 1029.8 177.428C1037.73 176.046 1045.87 174.254 1052.33 169.474C1057.56 165.619 1061.36 159.882 1063.21 153.659C1065.86 144.736 1064.62 135.214 1063.35 125.997C1062.08 116.921 1060.83 107.824 1059.62 98.7053Z" stroke="black" stroke-width="0.9295"/>
<path d="M970.061 96.9102C970.188 114.044 971.941 131.166 974.404 148.16C975.049 152.6 975.77 157.085 977.225 161.334C977.452 161.982 977.734 162.641 977.994 163.268C972.082 165.693 966.47 168.952 961.528 173.042C957.141 176.685 953.188 180.936 950.356 185.918C949.668 187.104 949.055 188.335 948.195 189.398C947.738 189.923 947.239 190.382 946.664 190.796C946.101 191.156 945.441 191.437 944.763 191.544C943.648 191.697 942.52 191.391 941.584 190.729C940.67 190.1 939.957 189.203 939.442 188.179C938.434 186.163 938.369 183.872 938.293 181.635C938.03 172.612 938.009 163.528 939.164 154.533C941.005 140.48 945.924 126.794 953.816 114.987C958.351 108.217 963.844 102.142 970.061 96.9102Z" stroke="black" stroke-width="0.9295"/>
<path d="M1057.82 90.1092C1064.79 94.7501 1071.08 100.435 1076.46 106.888C1085.53 117.796 1091.78 130.928 1095.09 144.722C1097.16 153.52 1098.05 162.566 1098.73 171.598C1098.9 173.825 1099.04 176.162 1098.27 178.24C1097.87 179.29 1097.28 180.271 1096.42 180.963C1095.57 181.688 1094.45 182.124 1093.35 182.08C1092.64 182.066 1092 181.868 1091.37 181.529C1090.75 181.222 1090.22 180.819 1089.72 180.34C1088.74 179.383 1088 178.224 1087.19 177.106C1083.86 172.472 1079.51 168.58 1074.74 165.422C1070.52 162.613 1065.95 160.353 1061.18 158.591C1061.96 157.025 1062.61 155.348 1063.12 153.668C1065.77 144.745 1064.54 135.223 1063.26 126.005C1062.02 116.908 1060.8 107.844 1059.59 98.7261C1059.06 95.8477 1058.44 92.9784 1057.82 90.1092Z" stroke="black" stroke-width="0.9295"/>
<path d="M1009.04 86.7508C1007.27 87.9265 1005.74 89.4665 1004.65 91.2772C1003.01 94.1018 1002.45 97.5367 1003.05 100.744C1003.74 104.225 1005.77 107.405 1008.54 109.695C1011.08 111.85 1014.24 113.286 1017.51 113.808C1018.39 113.946 1019.32 114.007 1020.2 114.003C1018.63 114.681 1016.94 115.106 1015.2 115.235C1012.46 115.399 1009.7 114.789 1007.23 113.562C1004.57 112.234 1002.29 110.052 1000.78 107.471C999.301 104.868 998.641 101.791 998.981 98.8206C999.212 96.4807 1000.11 94.2301 1001.42 92.2713C1002.75 90.3456 1004.58 88.7569 1006.68 87.6531C1007.41 87.275 1008.22 86.9964 1009.04 86.7508Z" fill="#B8BECA"/>
<path d="M1006.24 82.89C1004.22 84.464 1002.38 86.3362 1000.93 88.4339C998.795 91.5216 997.34 95.1569 996.974 98.89C996.575 102.644 997.285 106.529 999.151 109.816C1001.43 113.819 1005.28 116.773 1009.57 118.461C1013.13 119.872 1017.02 120.418 1020.87 120.155C1020.78 120.165 1020.71 120.207 1020.61 120.27C1015.16 122.028 1009 120.925 1004.04 117.981C999.913 115.534 996.475 111.759 994.73 107.275C993.494 104.099 993.104 100.569 993.703 97.2008C994.302 93.8322 995.857 90.646 998.119 88.1279C1000.34 85.6853 1003.16 83.9743 1006.24 82.89Z" fill="url(#paint10_linear)"/>
<path d="M992.865 177.42C995.357 178.254 997.941 178.796 1000.54 179.141C1001.1 179.207 1001.68 179.251 1002.24 179.317C1000.54 184.692 1000.09 190.484 1001.15 196.012C1001.54 198.146 1002.17 200.307 1003.52 202.056C1004.59 203.429 1006.03 204.515 1007.6 205.233C1009.2 205.985 1010.89 206.443 1012.62 206.739C1018.24 207.722 1024.02 207.203 1029.71 206.693C1040.16 205.754 1050.61 204.673 1061.06 203.505C1060.18 204.676 1058.95 205.601 1057.64 206.251C1055.99 207.025 1054.18 207.48 1052.38 207.881C1041.88 210.204 1031.26 211.904 1020.64 213.232C1012.95 214.182 1005.18 214.945 997.442 215.458C995.597 215.564 993.753 215.669 991.937 215.383C990.122 215.096 988.348 214.363 987.043 213.051C985.76 211.772 985.096 210.003 984.857 208.242C984.619 206.482 984.763 204.664 985.037 202.903C985.861 197.478 987.608 192.256 989.463 187.058C990.518 183.819 991.681 180.603 992.865 177.42Z" fill="#CFD3DB"/>
<path d="M1049.06 171.514C1053.44 178.001 1057.28 184.881 1060.49 192.022C1061.23 193.694 1061.96 195.42 1062.27 197.226C1062.59 199.031 1062.47 200.97 1061.66 202.611C1060.81 204.274 1059.29 205.476 1057.64 206.251C1055.99 207.025 1054.18 207.48 1052.38 207.881C1041.88 210.204 1031.26 211.904 1020.64 213.232C1012.95 214.182 1005.2 214.978 997.442 215.458C995.597 215.563 993.753 215.669 991.937 215.382C990.122 215.096 988.315 214.384 987.043 213.051C985.793 211.75 985.117 210.036 984.824 208.263C984.586 206.503 984.73 204.685 985.004 202.924C985.828 197.499 987.575 192.277 989.409 187.046C990.539 183.851 991.735 180.615 992.92 177.432C995.411 178.266 997.996 178.808 1000.59 179.153C1010.31 180.413 1020.18 179.146 1029.8 177.427C1036.4 176.292 1043.22 174.78 1049.06 171.514Z" stroke="black" stroke-width="0.9295"/>
<path d="M989.823 214.774C990.484 215.005 991.177 215.215 991.862 215.338C992.438 215.436 993.026 215.481 993.593 215.492C991.818 220.451 990.595 225.618 990.015 230.84C989.899 231.754 989.838 232.68 990.105 233.536C990.238 233.964 990.492 234.361 990.824 234.662C991.157 234.963 991.621 235.179 992.046 235.188C992.417 235.184 992.812 235.072 993.185 234.927C994.571 234.321 995.66 233.252 996.619 232.126C997.578 231 998.42 229.763 999.379 228.637C1000.71 227.136 1002.32 225.87 1004.22 225.264C1005.17 224.934 1006.15 224.779 1007.18 224.865C1008.19 224.917 1009.18 225.22 1010.03 225.749C1011.16 226.426 1012.02 227.468 1012.64 228.658C1013.24 229.814 1013.6 231.119 1013.86 232.4C1014.81 237.25 1014.36 242.301 1015.5 247.077C1017.04 253.509 1021.34 258.926 1025.86 263.736C1028.05 266.069 1030.37 268.318 1033.02 270.126C1036.85 272.764 1041.41 274.282 1046.04 274.733C1045.53 275.988 1044.92 277.219 1044.29 278.417C1043.49 279.95 1042.59 281.459 1041.42 282.766C1040.34 284.064 1038.9 285.17 1037.27 285.748C1035.39 286.387 1033.32 286.358 1031.41 285.851C1027.32 284.778 1024 281.91 1021.08 278.876C1016.93 274.574 1013.17 269.79 1010.52 264.394C1007.87 259.086 1006.34 253.113 1006.53 247.206C1006.68 243.196 1007.61 239.191 1008.26 235.234C1008.33 234.767 1008.42 234.245 1008.37 233.808C1008.34 233.317 1008.16 232.822 1007.81 232.488C1007.52 232.254 1007.18 232.094 1006.85 232.077C1006.51 232.059 1006.16 232.096 1005.8 232.187C1005.12 232.435 1004.56 232.882 1004.01 233.33C1001.84 235.184 999.728 237.138 997.93 239.36C996.477 241.174 995.251 243.124 994.252 245.209C993.741 246.235 993.306 247.306 992.548 248.163C992.169 248.592 991.694 248.942 991.188 249.172C990.661 249.369 990.07 249.467 989.506 249.314C988.888 249.149 988.329 248.713 987.958 248.204C987.586 247.695 987.292 247.089 987.086 246.475C985.871 243.332 985.337 239.941 985.173 236.546C984.955 231.461 985.62 226.37 987.121 221.493C987.83 219.173 988.745 216.956 989.823 214.774Z" fill="url(#paint11_linear)"/>
<path d="M1054.59 207.314C1059.13 212.016 1062.5 217.796 1064.15 224.11C1065.16 227.946 1065.58 231.967 1065.5 235.935C1065.46 237.319 1065.41 238.703 1065.2 240.051C1065.16 240.356 1065.09 240.681 1064.97 240.941C1064.83 241.221 1064.64 241.523 1064.39 241.638C1064.23 241.744 1064 241.75 1063.77 241.757C1063.57 241.742 1063.36 241.694 1063.15 241.592C1062.76 241.421 1062.48 241.132 1062.15 240.831C1058.63 237.436 1056.09 233.089 1052.42 229.833C1050.39 228.048 1048.01 226.584 1045.34 226.193C1045.09 226.166 1044.84 226.14 1044.57 226.167C1044.31 226.195 1044.06 226.31 1043.9 226.503C1043.79 226.621 1043.76 226.783 1043.72 226.946C1043.68 227.109 1043.7 227.284 1043.75 227.438C1043.82 227.766 1043.99 228.031 1044.13 228.317C1045.16 230.224 1045.81 232.331 1046.4 234.425C1048.14 240.359 1049.71 246.398 1050.06 252.566C1050.58 261.474 1048.43 270.45 1044.28 278.329C1043.49 279.862 1042.55 281.392 1041.41 282.678C1040.34 284.064 1038.9 285.169 1037.27 285.748C1035.39 286.387 1033.32 286.357 1031.41 285.851C1027.34 284.811 1024 281.91 1021.08 278.875C1016.93 274.574 1013.17 269.789 1010.54 264.427C1007.93 259.097 1006.36 253.145 1006.55 247.239C1006.68 243.196 1007.64 239.224 1008.28 235.267C1008.35 234.799 1008.44 234.278 1008.39 233.841C1008.36 233.349 1008.18 232.855 1007.83 232.521C1007.57 232.265 1007.21 232.127 1006.87 232.11C1006.51 232.059 1006.16 232.096 1005.82 232.22C1005.17 232.447 1004.58 232.915 1004.03 233.362C1001.86 235.217 999.749 237.171 997.951 239.393C996.498 241.207 995.272 243.157 994.273 245.242C993.762 246.267 993.327 247.338 992.57 248.196C992.191 248.625 991.715 248.975 991.188 249.172C990.661 249.369 990.07 249.466 989.506 249.313C988.888 249.148 988.329 248.712 987.958 248.203C987.565 247.661 987.292 247.089 987.065 246.441C985.85 243.298 985.315 239.907 985.152 236.513C984.934 231.427 985.599 226.337 987.099 221.459C987.809 219.14 988.724 216.922 989.802 214.741C990.484 215.005 991.156 215.182 991.841 215.304C993.656 215.591 995.501 215.485 997.345 215.38C1005.11 214.9 1012.82 214.125 1020.55 213.154C1031.2 211.804 1041.84 210.138 1052.29 207.803L1054.59 207.314Z" stroke="black" stroke-width="0.9295"/>
<path d="M1068.68 107.847C1071.64 110.206 1074.24 112.973 1076.41 116.069C1078.68 119.33 1080.45 122.909 1081.61 126.694" stroke="white" stroke-width="1.4407" stroke-linecap="round" stroke-linejoin="round"/>
<line x1="4" y1="504.5" x2="1444" y2="504.5" stroke="white"/>
<defs>
<linearGradient id="paint0_linear" x1="1231.91" y1="171.854" x2="1282.37" y2="233.478" gradientUnits="userSpaceOnUse">
<stop stop-color="#661FD1" stop-opacity="0"/>
<stop offset="1" stop-color="#661FD1"/>
</linearGradient>
<linearGradient id="paint1_linear" x1="840.92" y1="177.15" x2="882.624" y2="228.18" gradientUnits="userSpaceOnUse">
<stop stop-color="#B4FF8C"/>
<stop offset="0.39" stop-color="#B4EAAC"/>
<stop offset="1" stop-color="#B3C4E5"/>
</linearGradient>
<linearGradient id="paint2_linear" x1="846.804" y1="184.356" x2="876.255" y2="220.391" gradientUnits="userSpaceOnUse">
<stop stop-color="#0058D3" stop-opacity="0"/>
<stop offset="0.12" stop-color="#0058D3" stop-opacity="0.16"/>
<stop offset="0.35" stop-color="#0058D3" stop-opacity="0.46"/>
<stop offset="0.56" stop-color="#0058D3" stop-opacity="0.69"/>
<stop offset="0.75" stop-color="#0058D3" stop-opacity="0.86"/>
<stop offset="0.9" stop-color="#0058D3" stop-opacity="0.96"/>
<stop offset="1" stop-color="#0058D3"/>
</linearGradient>
<radialGradient id="paint3_radial" cx="0" cy="0" r="1" gradientUnits="userSpaceOnUse" gradientTransform="translate(946.065 752.027) scale(1331.77 675.628)">
<stop stop-color="#4A289C"/>
<stop offset="0.963" stop-color="#00092B"/>
</radialGradient>
<linearGradient id="paint4_linear" x1="1057.83" y1="87.7712" x2="966.944" y2="102.641" gradientUnits="userSpaceOnUse">
<stop stop-color="#C57BFF"/>
<stop offset="1" stop-color="#454BCB"/>
</linearGradient>
<linearGradient id="paint5_linear" x1="1093.45" y1="133.232" x2="1058" y2="139.032" gradientUnits="userSpaceOnUse">
<stop offset="0.2759" stop-color="#7556BA"/>
<stop offset="0.3895" stop-color="#7C5FBE"/>
<stop offset="0.5743" stop-color="#9077C8"/>
<stop offset="0.7825" stop-color="#AC9AD6"/>
</linearGradient>
<linearGradient id="paint6_linear" x1="977.273" y1="140.944" x2="932.529" y2="148.265" gradientUnits="userSpaceOnUse">
<stop offset="0.2759" stop-color="#7556BA"/>
<stop offset="0.3895" stop-color="#7C5FBE"/>
<stop offset="0.5743" stop-color="#9077C8"/>
<stop offset="0.7825" stop-color="#AC9AD6"/>
</linearGradient>
<linearGradient id="paint7_linear" x1="1034.18" y1="98.0468" x2="993.872" y2="104.642" gradientUnits="userSpaceOnUse">
<stop offset="0.2759" stop-color="#7556BA"/>
<stop offset="0.3895" stop-color="#7C5FBE"/>
<stop offset="0.5743" stop-color="#9077C8"/>
<stop offset="0.7825" stop-color="#AC9AD6"/>
</linearGradient>
<linearGradient id="paint8_linear" x1="1028.79" y1="98.2109" x2="999.169" y2="103.058" gradientUnits="userSpaceOnUse">
<stop offset="0.1525" stop-color="#7FCDEE"/>
<stop offset="0.236" stop-color="#88D0EF"/>
<stop offset="0.372" stop-color="#A0DAF2"/>
<stop offset="0.5426" stop-color="#C7E9F7"/>
<stop offset="0.5915" stop-color="#D4EEF9"/>
</linearGradient>
<linearGradient id="paint9_linear" x1="1067.18" y1="241.56" x2="987.835" y2="254.543" gradientUnits="userSpaceOnUse">
<stop offset="0.4377" stop-color="#F7931E"/>
<stop offset="0.5098" stop-color="#F89C27"/>
<stop offset="0.6095" stop-color="#FBB03B"/>
</linearGradient>
<linearGradient id="paint10_linear" x1="1017.68" y1="100.952" x2="993.904" y2="104.843" gradientUnits="userSpaceOnUse">
<stop offset="0.2759" stop-color="#7556BA"/>
<stop offset="0.3895" stop-color="#7C5FBE"/>
<stop offset="0.5743" stop-color="#9077C8"/>
<stop offset="0.7825" stop-color="#AC9AD6"/>
</linearGradient>
<linearGradient id="paint11_linear" x1="1041.32" y1="245.783" x2="987.833" y2="254.535" gradientUnits="userSpaceOnUse">
<stop offset="0.4377" stop-color="#F7931E"/>
<stop offset="0.5098" stop-color="#F89C27"/>
<stop offset="0.6095" stop-color="#FBB03B"/>
</linearGradient>
</defs>
</svg>
