<svg width="1440" height="807" viewBox="0 0 1440 807" fill="none" xmlns="http://www.w3.org/2000/svg">
<circle cx="1012.82" cy="241.011" r="168.962" transform="rotate(5.75016 1012.82 241.011)" stroke="#C4C4C4" stroke-width="2"/>
<circle cx="1012.82" cy="241.011" r="218.482" transform="rotate(5.75016 1012.82 241.011)" stroke="#C4C4C4"/>
<circle cx="1013.26" cy="240.651" r="125.773" transform="rotate(5.75016 1013.26 240.651)" stroke="#C4C4C4" stroke-width="4"/>
<path d="M1233.06 222.618C1254.22 224.749 1273.04 209.298 1275.17 188.104C1277.3 166.91 1261.87 147.983 1240.79 145.86C1219.71 143.737 1200.73 159.171 1198.59 180.392C1196.46 201.533 1211.9 220.487 1233.06 222.618Z" fill="#8641EF"/>
<path d="M1246.33 205.627C1245.78 211.054 1247.14 216.29 1249.82 220.542C1264.81 215.179 1275.15 201.002 1275.39 184.853C1274.4 184.645 1273.39 184.434 1272.33 184.328C1259.29 183.069 1247.64 192.587 1246.33 205.627Z" fill="#FDC2C4"/>
<path d="M1275.04 179.39C1273.54 167.512 1266.82 157.617 1257.46 151.657C1257.08 151.619 1256.76 151.64 1256.35 151.599C1250.29 151.425 1247.47 149.096 1246.14 146.808C1242.31 145.877 1238.32 145.474 1234.22 145.771C1232.99 149.356 1232.36 154.283 1234.96 159.345C1237.32 164.002 1241.68 167.277 1246.77 168.444C1256.76 170.84 1266.6 172.459 1275.04 179.39Z" fill="#EB27B7"/>
<path d="M1232.14 209.516C1228.9 201.117 1233.19 198.058 1229.55 190.274C1224.55 179.57 1214 180.389 1210.06 171.592C1208.57 168.251 1207.97 163.337 1210.76 155.927C1203.93 162.276 1199.45 171.016 1198.6 180.611C1199.2 180.563 1199.89 180.523 1200.48 180.583C1207.28 181.268 1212 189.379 1211.06 198.694C1210.66 202.69 1209.3 206.207 1207.33 208.954C1215.48 218.693 1228.21 224.229 1241.74 222.51C1242.35 222.408 1242.98 222.362 1243.54 222.255C1239.33 219.595 1234.65 216.014 1232.14 209.516ZM1217.55 212.301C1216.74 213.229 1215 212.918 1213.57 211.737C1212.14 210.475 1211.66 208.763 1212.4 207.856C1213.21 206.928 1214.95 207.239 1216.38 208.42C1217.81 209.628 1218.34 211.454 1217.55 212.301Z" fill="#F7921E"/>
<path d="M1223.63 154.551C1226.82 154.872 1229.78 151.188 1230.27 146.301L1230.28 146.247C1226.33 146.968 1222.61 148.175 1219.21 150.014C1219.97 152.518 1221.61 154.347 1223.63 154.551Z" fill="#AD1AA4"/>
<path d="M1233.17 222.629C1254.33 224.76 1273.2 209.314 1275.33 188.12C1277.47 166.926 1262.03 147.999 1240.89 145.871C1219.76 143.743 1200.89 159.188 1198.75 180.409C1196.62 201.549 1212.06 220.503 1233.17 222.629Z" fill="url(#paint0_linear)"/>
<path d="M1273.97 172.356C1274.85 174.217 1275.58 176.145 1276.15 178.138C1276.64 178.406 1277.16 178.676 1277.64 178.971C1278.64 179.59 1279.61 180.314 1280.33 181.233C1281.06 182.151 1281.54 183.318 1281.48 184.484C1281.42 185.624 1280.82 186.682 1280.06 187.505C1279.29 188.355 1278.33 188.967 1277.34 189.577C1275.25 190.866 1273.03 192.007 1270.73 192.92C1264.49 195.346 1257.68 195.833 1251 196.088C1239.67 196.502 1228.24 196.278 1217.12 194.013C1210.77 192.718 1204.47 190.748 1198.82 187.561C1197.53 186.831 1196.25 186.048 1195.27 184.94C1194.78 184.4 1194.35 183.757 1194.09 183.076C1193.81 182.393 1193.69 181.645 1193.74 180.913C1193.81 179.965 1194.23 179.053 1194.77 178.262C1195.34 177.474 1196.06 176.811 1196.8 176.23C1197.6 175.602 1198.48 175.035 1199.37 174.526C1200.24 172.131 1201.32 169.813 1202.6 167.624C1200.75 167.901 1198.9 168.396 1197.18 169.178C1193.64 170.785 1190.57 173.421 1188.44 176.67C1186.25 179.995 1185.03 184.018 1185.39 187.982C1185.84 192.772 1188.51 197.105 1191.94 200.45C1195.12 203.524 1198.97 205.849 1203.02 207.647C1214.19 212.617 1226.69 213.603 1238.9 214.124C1249.3 214.571 1259.95 214.662 1269.83 211.348C1275.53 209.413 1280.86 206.349 1285.2 202.178C1288.13 199.364 1290.66 195.909 1291.31 191.911C1291.73 189.335 1291.32 186.675 1290.33 184.285C1288.6 180.129 1285.14 176.862 1281.15 174.769C1278.89 173.588 1276.47 172.771 1273.97 172.356Z" fill="#F7CB16"/>
<path d="M1279.12 173.829C1281.83 175.82 1284.11 178.422 1285.38 181.523C1286.36 183.913 1286.77 186.6 1286.35 189.148C1285.7 193.147 1283.18 196.601 1280.25 199.415C1275.9 203.587 1270.58 206.65 1264.87 208.585C1254.99 211.927 1244.34 211.809 1233.95 211.362C1221.73 210.841 1209.23 209.855 1198.06 204.885C1197.64 204.706 1197.26 204.477 1196.84 204.298C1198.78 205.585 1200.85 206.666 1202.99 207.618C1214.16 212.588 1226.66 213.574 1238.88 214.095C1249.28 214.542 1259.93 214.633 1269.81 211.318C1275.51 209.384 1280.83 206.32 1285.18 202.148C1288.11 199.334 1290.64 195.88 1291.29 191.881C1291.71 189.306 1291.29 186.646 1290.31 184.256C1288.57 180.099 1285.11 176.833 1281.12 174.74C1280.48 174.402 1279.8 174.115 1279.12 173.829Z" fill="#F7B516"/>
<path d="M1193.22 198.833C1191.35 197.363 1189.79 195.461 1188.73 193.335C1187.91 191.726 1187.35 189.978 1187.06 188.177C1186.94 187.483 1186.88 186.795 1186.97 186.095C1187.07 185.396 1187.36 184.716 1187.87 184.276C1188.17 184.006 1188.54 183.826 1188.93 183.756C1189.32 183.686 1189.72 183.699 1190.12 183.848C1190.7 184.07 1191.17 184.527 1191.49 185.078C1191.82 185.602 1192.04 186.196 1192.28 186.793C1192.94 188.551 1193.75 190.269 1194.88 191.773C1196.11 193.37 1197.73 194.651 1199.23 196.002C1199.68 196.402 1200.13 196.829 1200.46 197.353C1200.78 197.877 1200.97 198.495 1200.85 199.084C1200.79 199.459 1200.59 199.821 1200.32 200.093C1200.04 200.366 1199.69 200.576 1199.35 200.733C1198.61 201.013 1197.8 200.985 1197.05 200.828C1195.58 200.517 1194.26 199.811 1193.22 198.833Z" fill="#FADF6F"/>
<path d="M1232.66 182.651C1232.45 182.629 1232.22 182.715 1232.07 182.891C1231.91 183.066 1231.84 183.277 1231.87 183.498C1231.97 184.408 1232.32 185.261 1232.85 185.996C1233.37 186.731 1234.1 187.323 1234.91 187.677C1236.37 188.342 1238.07 188.295 1239.5 187.621C1240.79 187.014 1241.85 185.948 1242.42 184.615C1242.52 184.434 1242.51 184.215 1242.45 184.018C1242.39 183.821 1242.24 183.67 1242.03 183.594C1241.85 183.521 1241.63 183.526 1241.43 183.588C1241.23 183.677 1241.08 183.825 1241.03 184.039C1240.63 185.008 1239.84 185.828 1238.87 186.249C1237.85 186.718 1236.56 186.752 1235.54 186.295C1234.97 186.019 1234.44 185.611 1234.06 185.082C1233.67 184.552 1233.43 183.955 1233.36 183.321C1233.34 182.964 1233.05 182.662 1232.66 182.651Z" fill="black"/>
<path d="M1225.27 177.543C1225.16 178.623 1224.63 179.605 1223.8 180.285C1222.96 180.965 1221.9 181.294 1220.82 181.185C1219.74 181.076 1218.75 180.541 1218.07 179.709C1217.39 178.877 1217.07 177.808 1217.17 176.728C1217.4 174.487 1219.39 172.86 1221.63 173.085C1223.87 173.311 1225.5 175.302 1225.27 177.543Z" fill="black"/>
<path d="M1221.4 175.354C1221.37 175.678 1221.2 175.988 1220.93 176.206C1220.67 176.425 1220.33 176.527 1220.01 176.495C1219.3 176.424 1218.79 175.8 1218.87 175.098C1218.94 174.396 1219.56 173.886 1220.26 173.957C1220.96 174.055 1221.47 174.652 1221.4 175.354Z" fill="white"/>
<path d="M1250.42 183.13C1249.88 183.075 1249.47 182.597 1249.49 182.054C1249.5 181.155 1249.75 180.28 1250.21 179.536C1250.69 178.793 1251.38 178.181 1252.18 177.825C1253.5 177.221 1255.02 177.265 1256.29 177.938C1257.17 178.409 1257.88 179.163 1258.31 180.051C1258.74 180.967 1258.85 181.988 1258.64 182.976C1258.59 183.243 1258.43 183.499 1258.2 183.64C1257.96 183.807 1257.68 183.861 1257.39 183.804C1257.12 183.75 1256.87 183.587 1256.72 183.355C1256.56 183.12 1256.5 182.842 1256.59 182.55C1256.69 182.043 1256.62 181.462 1256.39 180.976C1256.17 180.49 1255.77 180.069 1255.31 179.831C1254.63 179.49 1253.76 179.457 1253.08 179.77C1252.65 179.972 1252.26 180.288 1252 180.698C1251.74 181.108 1251.61 181.586 1251.62 182.05C1251.62 182.35 1251.51 182.639 1251.27 182.86C1251.03 183.054 1250.72 183.159 1250.42 183.13Z" fill="black"/>
<path d="M865.435 29.7277C865.81 28.2003 865.487 26.6025 865.136 25.0811C864.649 22.9119 864.09 20.6563 864.593 18.4679C864.918 17.0345 865.697 15.7062 866.822 14.7495C867.947 13.7928 869.397 13.2058 870.896 13.1388C872.294 13.0813 873.645 13.475 875.001 13.8295C876.357 14.184 877.758 14.4836 879.111 14.2632C880.69 14.0061 882.074 13.0755 883.271 12.0072C884.465 10.9585 885.516 9.73673 886.782 8.7745C888.029 7.81026 889.513 7.08792 891.1 6.95049C891.894 6.87197 892.693 6.95238 893.454 7.20731C894.214 7.46225 894.897 7.88768 895.445 8.45797C896.354 9.44116 896.765 10.7704 897.287 11.992C897.547 12.6126 897.829 13.2156 898.239 13.7522C898.649 14.2888 899.168 14.7374 899.787 14.9979C900.291 15.2071 900.87 15.2654 901.417 15.2412C901.965 15.1974 902.502 15.0731 903.025 14.888C904.069 14.5374 905.05 14.0022 906.128 13.7144C908.243 13.1348 910.621 13.5526 912.432 14.7852C914.244 16.0177 915.472 18.0435 915.76 20.1925C915.854 20.8559 915.847 21.5288 915.921 22.1902C915.996 22.8516 916.108 23.5366 916.432 24.124C916.738 24.6898 917.194 25.1716 917.719 25.5613C918.245 25.951 918.818 26.2663 919.391 26.5816C919.964 26.8969 920.54 27.1926 921.087 27.5648C921.614 27.9349 922.116 28.3618 922.484 28.914C922.955 29.6352 923.172 30.4892 923.185 31.3623C923.2 32.2158 923.013 33.0688 922.77 33.8765C922.263 35.5096 921.44 37.0713 921.191 38.7502C920.893 40.7016 921.394 42.7335 922.283 44.5269C922.785 45.5483 923.415 46.5034 923.895 47.5424C924.375 48.5814 924.683 49.7221 924.529 50.8557C924.412 51.6167 924.075 52.3555 923.609 52.9823C923.143 53.609 922.564 54.1451 921.95 54.6381C920.704 55.6023 919.297 56.3523 918.107 57.3618C915.528 59.5392 914.116 62.7456 913.149 65.9374C912.821 66.9941 912.529 68.094 912.045 69.0954C911.561 70.0968 910.841 71.0349 909.86 71.5701C909.07 72.0057 908.148 72.1506 907.262 72.1406C906.357 72.109 905.471 71.9008 904.608 71.6555C902.885 71.1451 901.186 70.3994 899.373 70.3754C897.782 70.3539 896.256 70.8937 894.8 71.5396C893.363 72.1875 891.959 72.9178 890.422 73.3575C889.073 73.7369 887.65 73.8511 886.287 73.5751C884.923 73.2991 883.623 72.5936 882.741 71.534C882.13 70.7987 881.752 69.9483 881.312 69.1114C880.872 68.2745 880.35 67.4493 879.579 66.8961C879.053 66.5063 878.41 66.2831 877.755 66.1775C877.101 66.072 876.436 66.0645 875.783 66.1374C874.48 66.2638 873.193 66.6295 871.874 66.7146C869.944 66.8571 867.929 66.4363 866.369 65.3083C865.6 64.7355 864.926 64.0139 864.488 63.1574C864.048 62.3205 863.824 61.3468 863.859 60.3993C863.921 59.1771 864.441 58.0208 864.901 56.8585C865.359 55.7158 865.785 54.4906 865.646 53.2679C865.493 51.9844 864.743 50.8192 863.873 49.84C863.006 48.8412 862.027 47.9501 861.287 46.8849C859.774 44.6917 859.37 41.8969 859.774 39.2826C860.008 37.7607 860.581 36.2729 861.494 35.0175C861.961 34.3908 862.481 33.829 863.041 33.2712C863.602 32.7134 864.16 32.1752 864.606 31.5464C865.005 30.9922 865.268 30.3846 865.435 29.7277Z" fill="#F77026"/>
<path d="M869.913 26.513C869.608 25.3331 869.635 24.0677 869.995 22.8953C870.42 21.472 871.357 20.1793 872.646 19.3976C874.022 18.5456 875.681 18.2965 877.291 18.1218C878.84 17.9608 880.405 17.8409 881.925 17.5582C883.466 17.2774 884.967 16.7945 886.279 15.9756C887.075 15.4811 887.785 14.8393 888.565 14.3036C889.345 13.7679 890.217 13.3207 891.171 13.2583C891.923 13.1954 892.69 13.3914 893.361 13.7364C894.034 14.0618 894.651 14.54 895.207 15.0318C896.315 16.0351 897.285 17.2225 898.575 18.0261C899.997 18.9222 901.718 19.254 903.413 19.4445C905.088 19.633 906.799 19.6666 908.452 20.0708C909.201 20.2453 909.921 20.4962 910.59 20.8608C911.26 21.2253 911.855 21.7212 912.319 22.3227C912.992 23.2425 913.301 24.3831 913.574 25.4805C913.866 26.58 914.155 27.7186 914.87 28.6228C915.316 29.2027 915.915 29.6593 916.493 30.1335C917.07 30.6078 917.624 31.1192 917.982 31.7695C918.272 32.294 918.412 32.9026 918.433 33.4991C918.453 34.0956 918.372 34.7016 918.253 35.284C918.014 36.4489 917.597 37.5956 917.496 38.7941C917.384 40.1103 917.672 41.4471 918.007 42.7291C918.342 44.0111 918.756 45.3011 918.886 46.6218C918.978 47.503 918.947 48.4113 918.739 49.2819C918.53 50.1525 918.124 50.9834 917.514 51.6352C916.902 52.3067 916.106 52.8012 915.314 53.2564C914.522 53.7116 913.71 54.1648 913.024 54.7694C911.979 55.7342 911.322 57.0549 910.866 58.3762C910.408 59.7171 910.088 61.0916 909.573 62.4069C909.169 63.4163 908.647 64.3941 907.883 65.1692C907.119 65.9443 906.074 66.5127 904.978 66.5807C904.35 66.6164 903.717 66.4932 903.112 66.2936C902.507 66.094 901.951 65.8003 901.374 65.5243C900.242 64.9545 899.076 64.3219 897.808 64.2933C896.944 64.2657 896.112 64.5188 895.328 64.8956C894.563 65.2743 893.849 65.7572 893.137 66.2205C892.423 66.7034 891.711 67.1666 890.931 67.5042C890.151 67.8417 889.283 68.0515 888.424 67.9651C887.187 67.8404 886.068 67.1334 885.143 66.3071C884.218 65.4808 883.407 64.5273 882.414 63.7735C881.215 62.8602 879.783 62.2603 878.34 61.7781C876.894 61.3155 875.397 60.9666 873.953 60.4844C873.132 60.2234 872.298 59.9016 871.58 59.4133C870.863 58.925 870.244 58.2682 869.964 57.4475C869.681 56.6463 869.75 55.7616 869.873 54.9418C869.998 54.1024 870.183 53.269 870.148 52.4135C870.082 50.8614 869.276 49.4527 868.377 48.1733C867.477 46.8939 866.492 45.6653 865.933 44.2023C865.473 42.9671 865.366 41.6288 865.516 40.3362C865.666 39.0436 866.056 37.7752 866.6 36.5816C867.486 34.5904 868.738 32.7747 869.41 30.7025C869.868 29.3617 870.032 27.9318 869.913 26.513Z" fill="#F78526"/>
<path d="M869.98 35.2572C871.718 28.8144 876.59 23.2816 882.809 20.5989C887.531 18.5581 892.976 18.1554 897.964 19.4898C902.951 20.8242 907.464 23.8742 910.476 28.0016C914.198 33.0921 915.561 39.7876 914.14 45.8859C912.72 51.9842 908.563 57.4108 902.996 60.4364C899.136 62.5244 894.641 63.4985 890.24 63.1543C885.836 62.8298 881.545 61.189 878.041 58.5378C874.537 55.8865 871.864 52.1896 870.443 48.0837C869.023 43.9582 868.853 39.4433 869.98 35.2572Z" fill="#F7CB16"/>
<path d="M904.584 22.4354C907.062 28.6687 906.832 35.9569 903.75 41.9275C900.338 48.5782 893.577 53.4452 886.099 54.6141C881.672 55.3176 877.055 54.7139 872.911 53.0088C874.293 55.1095 876.039 56.9893 878.043 58.5186C881.547 61.1698 885.838 62.8106 890.242 63.1352C894.645 63.4597 899.137 62.5053 902.998 60.4173C908.565 57.3916 912.739 51.9867 914.142 45.8668C915.563 39.7685 914.198 33.0925 910.478 27.9824C908.881 25.8204 906.873 23.934 904.584 22.4354Z" fill="#F7B516"/>
<path d="M879.709 24.7457C881.526 23.3238 883.587 22.0849 885.852 21.6195C886.592 21.4761 887.347 21.3935 888.085 21.4679C888.824 21.5423 889.567 21.7756 890.19 22.195C890.737 22.5671 891.189 23.0881 891.431 23.6871C891.693 24.2881 891.746 24.9671 891.561 25.6023C891.378 26.2179 890.959 26.7702 890.493 27.1987C890.004 27.6449 889.464 28.0065 888.921 28.3878C886.318 30.2061 883.963 32.3665 881.816 34.6666C881.387 35.1188 880.977 35.5926 880.472 35.9975C879.989 36.3848 879.413 36.7032 878.796 36.8194C878.056 36.9628 877.267 36.7843 876.62 36.4021C875.973 36.02 875.469 35.4145 875.153 34.7486C874.821 34.0415 874.698 33.2564 874.716 32.4854C874.733 31.7144 874.931 30.9418 875.226 30.2186C876.116 27.99 877.827 26.2205 879.709 24.7457Z" fill="#FADF6F"/>
<path d="M889.498 43.6824C889.359 43.6684 889.211 43.7327 889.121 43.8228C889.03 43.9324 888.976 44.0657 889.002 44.207C889.068 44.7487 889.277 45.2848 889.616 45.7153C889.954 46.1654 890.404 46.5079 890.905 46.7367C891.812 47.145 892.863 47.1122 893.751 46.7063C894.553 46.3512 895.205 45.6837 895.548 44.886C895.6 44.7723 895.613 44.635 895.563 44.5309C895.515 44.4072 895.423 44.3187 895.308 44.2674C895.192 44.2161 895.05 44.2216 894.944 44.2704C894.819 44.3172 894.729 44.4073 894.695 44.5426C894.434 45.1305 893.962 45.6179 893.369 45.8951C892.735 46.1878 891.946 46.2075 891.309 45.9254C890.942 45.7695 890.626 45.5 890.394 45.1992C890.164 44.8789 890 44.5057 889.958 44.125C889.902 43.8816 889.718 43.7045 889.498 43.6824Z" fill="black"/>
<path d="M882.359 46.2927C882.241 47.4696 880.729 48.2684 878.992 48.0935C877.255 47.9186 875.932 46.8344 876.051 45.6575C876.108 45.0886 876.501 44.5932 877.119 44.2592C877.758 43.9272 878.58 43.7722 879.418 43.8567C880.257 43.9411 881.034 44.2373 881.591 44.7095C882.15 45.1621 882.417 45.7239 882.359 46.2927Z" fill="#FF8080"/>
<path d="M907.293 48.8034C907.174 49.9803 905.662 50.7791 903.925 50.6043C902.189 50.4294 900.866 49.3451 900.985 48.1682C901.042 47.5994 901.435 47.104 902.053 46.77C902.691 46.438 903.514 46.283 904.352 46.3674C905.19 46.4518 905.967 46.748 906.525 47.2202C907.064 47.6708 907.35 48.2346 907.293 48.8034Z" fill="#FF8080"/>
<path d="M885.519 40.349C885.367 41.8593 883.984 42.9684 882.447 42.8136C880.91 42.6589 879.777 41.2965 879.929 39.7861C880.081 38.2758 881.463 37.1667 883 37.3215C884.538 37.4763 885.673 38.819 885.519 40.349Z" fill="black"/>
<path d="M882.846 38.8515C882.823 39.0869 882.701 39.2926 882.526 39.4334C882.35 39.5742 882.121 39.6502 881.881 39.6261C881.642 39.602 881.432 39.4818 881.288 39.3088C881.144 39.1358 881.066 38.91 881.09 38.6746C881.137 38.2038 881.576 37.8517 882.055 37.9C882.532 37.9678 882.894 38.3807 882.846 38.8515Z" fill="white"/>
<path d="M904.364 42.2467C904.211 43.757 902.829 44.8661 901.292 44.7113C899.755 44.5565 898.622 43.1942 898.774 41.6838C898.926 40.1735 900.308 39.0644 901.845 39.2192C903.384 39.3543 904.518 40.7167 904.364 42.2467Z" fill="black"/>
<path d="M901.691 40.7489C901.668 40.9843 901.546 41.19 901.37 41.3309C901.195 41.4717 900.966 41.5477 900.726 41.5235C900.486 41.4994 900.277 41.3792 900.133 41.2062C899.989 41.0332 899.911 40.8074 899.935 40.572C899.982 40.1013 900.421 39.7492 900.9 39.7974C901.397 39.8673 901.739 40.2782 901.691 40.7489Z" fill="white"/>
<path d="M847.348 227.982C865.461 229.806 881.605 216.632 883.432 198.489C885.259 180.346 872.063 164.242 853.95 162.418C835.838 160.594 819.716 173.77 817.89 191.913C816.07 209.985 829.235 226.158 847.348 227.982Z" fill="url(#paint1_linear)"/>
<path d="M847.188 199.058C836.433 181.888 819.665 183.989 819.665 183.989C817.325 190.426 817.065 197.502 818.928 204.076C822.885 205.238 826.571 206.967 829.979 209.312C836.441 213.752 841.375 220.112 844.134 227.491C851.138 228.912 858.403 227.975 864.88 224.933L864.927 224.938C857.455 217.751 851.622 206.129 847.188 199.058Z" fill="#19C3ED"/>
<path d="M877.763 213.863C883.461 205.547 885.084 195.105 882.145 185.491C872.423 181.486 864.178 181.275 860.184 185.687C854.481 192.167 859.61 206.53 871.765 220.432C874.074 218.567 876.082 216.363 877.763 213.863Z" fill="#19C3ED"/>
<path d="M869.318 168.088C862.097 163.143 853.261 161.228 844.643 162.815C836.074 164.407 828.433 169.31 823.489 176.533C823.489 176.533 823.484 176.581 823.437 176.576C827.215 177.623 835.725 179.458 845.314 178.636C848.465 178.333 851.558 177.668 854.587 176.686C863.186 173.858 870.823 174.198 878.912 178.325C876.554 174.298 873.266 170.75 869.318 168.088Z" fill="#19C3ED"/>
<path d="M847.348 227.982C865.461 229.806 881.605 216.632 883.432 198.489C885.259 180.346 872.063 164.242 853.95 162.418C835.838 160.594 819.716 173.77 817.89 191.913C816.07 209.985 829.235 226.158 847.348 227.982Z" fill="url(#paint2_linear)"/>
<path d="M845.1 194.248C844.926 195.732 845.366 197.278 846.323 198.423C847.023 199.28 847.985 199.901 849.025 200.22C850.065 200.54 851.211 200.512 852.268 200.189C853.301 199.864 854.25 199.197 854.932 198.337C855.614 197.476 856.032 196.398 856.095 195.308L845.1 194.248Z" fill="black"/>
<path d="M862.954 194.854C862.6 194.819 862.322 194.505 862.334 194.148C862.337 193.41 862.531 192.667 862.951 192.042C863.348 191.415 863.921 190.924 864.596 190.611C865.695 190.102 866.978 190.136 868.042 190.696C868.789 191.081 869.369 191.711 869.746 192.464C870.099 193.214 870.202 194.083 870.025 194.899C869.982 195.085 869.871 195.241 869.718 195.345C869.564 195.448 869.371 195.477 869.185 195.434C868.998 195.391 868.843 195.28 868.739 195.127C868.635 194.974 868.607 194.78 868.65 194.594C868.749 194.079 868.686 193.525 868.474 193.027C868.26 192.553 867.873 192.132 867.397 191.894C866.742 191.542 865.885 191.527 865.211 191.84C864.786 192.036 864.397 192.354 864.165 192.76C863.91 193.163 863.768 193.626 863.768 194.102C863.772 194.293 863.68 194.499 863.548 194.628C863.364 194.8 863.166 194.876 862.954 194.854Z" fill="black"/>
<path d="M832.53 191.791C832.176 191.755 831.898 191.441 831.91 191.085C831.913 190.346 832.107 189.603 832.527 188.978C832.924 188.351 833.498 187.861 834.172 187.547C835.272 187.038 836.555 187.072 837.618 187.632C838.366 188.017 838.945 188.648 839.322 189.4C839.675 190.151 839.779 191.019 839.601 191.836C839.558 192.022 839.448 192.178 839.294 192.281C839.141 192.385 838.947 192.413 838.761 192.371C838.575 192.328 838.419 192.217 838.315 192.064C838.212 191.91 838.184 191.717 838.226 191.53C838.326 191.016 838.262 190.462 838.05 189.964C837.836 189.489 837.45 189.069 836.973 188.83C836.318 188.478 835.462 188.464 834.787 188.777C834.362 188.973 833.973 189.291 833.742 189.696C833.487 190.1 833.345 190.562 833.344 191.039C833.349 191.23 833.257 191.435 833.125 191.565C832.917 191.734 832.719 191.81 832.53 191.791Z" fill="black"/>
<path d="M836.469 198.336C836.383 199.186 835.805 199.962 834.873 200.464C833.939 200.989 832.702 201.198 831.453 201.072C830.203 200.947 829.057 200.498 828.222 199.794C827.411 199.093 826.997 198.241 827.082 197.391C827.261 195.622 829.504 194.394 832.099 194.655C834.693 194.916 836.647 196.567 836.469 198.336Z" fill="#FF8080"/>
<path d="M873.567 202.072C873.481 202.921 872.903 203.697 871.971 204.199C871.036 204.724 869.8 204.934 868.55 204.808C867.3 204.682 866.155 204.233 865.32 203.529C864.509 202.828 864.095 201.976 864.18 201.127C864.358 199.357 866.602 198.129 869.197 198.391C871.791 198.652 873.745 200.302 873.567 202.072Z" fill="#FF8080"/>
<path d="M850.494 196.984C849.695 196.879 848.883 196.893 848.086 197.003C847.289 197.114 846.527 197.347 845.807 197.632C845.97 197.91 846.132 198.189 846.323 198.423C847.023 199.28 847.985 199.901 849.025 200.22C850.065 200.539 851.211 200.512 852.268 200.189C853.228 199.881 854.07 199.322 854.717 198.577C853.444 197.734 852.001 197.159 850.494 196.984Z" fill="#FF8080"/>
<path d="M1439.7 319.914V231.622C1280.69 229.031 1270.33 247.621 1220.07 259.112C1169.14 270.754 1116.28 270.942 1083.71 261.629C1051.14 252.315 1049.43 232.486 1049.43 232.486C1049.43 232.486 1014.27 204.132 991.176 240.673C968.079 277.214 909.45 271.355 778.645 259.112C647.84 246.87 580.401 291.259 491.791 298.62C403.181 305.981 381.639 285.551 181.397 259.112C91.5284 247.208 30.7524 247.884 -9 252.202V319.914V393.033V807H1440V319.914H1439.7Z" fill="url(#paint3_radial)"/>
<path d="M1054.62 98.705C1052.03 85.154 1048.48 71.7915 1044.01 58.7379C1039.85 46.6065 1034.79 34.588 1026.67 24.6577C1023.71 21.0446 1020.34 17.7396 1016.42 15.2525C1012.44 12.7534 1007.9 11.1266 1003.22 11.0888C997.984 11.0731 992.867 12.9897 988.632 16.0687C984.541 19.0088 981.281 22.9575 978.679 27.279C976.078 31.6006 974.221 36.2857 972.603 41.0519C967.416 56.7288 965.451 73.2869 965.143 89.8123C964.745 109.335 966.626 128.847 969.458 148.171C970.103 152.611 970.824 157.096 972.279 161.345C973.734 165.594 976 169.651 979.322 172.661C983.716 176.619 989.688 178.448 995.562 179.174C1005.27 180.434 1015.12 179.134 1024.77 177.448C1032.68 176.034 1040.84 174.275 1047.3 169.495C1052.53 165.64 1056.32 159.902 1058.18 153.68C1060.82 144.757 1059.59 135.235 1058.32 126.017C1057.08 116.92 1055.83 107.823 1054.62 98.705Z" fill="url(#paint4_linear)"/>
<path d="M1052.82 90.11C1059.79 94.7509 1066.08 100.436 1071.46 106.888C1080.5 117.818 1086.78 130.929 1090.09 144.723C1092.16 153.52 1093.05 162.567 1093.73 171.598C1093.9 173.826 1094.07 176.141 1093.27 178.241C1092.9 179.27 1092.28 180.272 1091.42 180.964C1090.57 181.688 1089.45 182.124 1088.35 182.081C1087.64 182.067 1087 181.869 1086.37 181.529C1085.75 181.223 1085.22 180.82 1084.72 180.341C1083.74 179.384 1083 178.224 1082.19 177.107C1078.86 172.472 1074.5 168.581 1069.74 165.423C1065.52 162.614 1060.95 160.354 1056.18 158.592C1056.96 157.026 1057.61 155.348 1058.12 153.668C1060.77 144.746 1059.54 135.224 1058.26 126.006C1057.02 116.909 1055.8 107.845 1054.59 98.7269C1054.06 95.8485 1053.44 92.9792 1052.82 90.11Z" fill="url(#paint5_linear)"/>
<path d="M1001.52 65.873C1003.53 65.6618 1005.59 65.4625 1007.65 65.3175C1020.48 64.3051 1033.4 64.396 1046.2 65.5966C1049.65 76.4599 1052.47 87.5292 1054.62 98.7052C1055.81 107.649 1057.04 116.571 1058.26 125.493C1044.67 129.98 1030.6 132.996 1016.4 134.56C1000.16 136.301 983.756 136.098 967.585 133.926C965.862 119.258 964.871 104.496 965.155 89.7581C965.255 84.0025 965.596 78.1861 966.175 72.4508C977.726 69.3631 989.599 67.1433 1001.52 65.873Z" fill="#DFE2E7"/>
<path d="M1044.06 171.514C1048.44 178.001 1052.28 184.881 1055.46 191.988C1056.21 193.661 1056.94 195.387 1057.25 197.192C1057.56 198.998 1057.45 200.937 1056.63 202.578C1055.78 204.241 1054.27 205.443 1052.62 206.217C1050.97 206.992 1049.16 207.447 1047.36 207.848C1036.86 210.171 1026.24 211.87 1015.62 213.199C1007.93 214.149 1000.18 214.945 992.421 215.425C990.576 215.53 988.731 215.636 986.916 215.349C985.101 215.063 983.294 214.351 982.022 213.017C980.739 211.738 980.096 210.003 979.803 208.23C979.565 206.47 979.709 204.652 979.982 202.891C980.807 197.465 982.587 192.223 984.388 187.013C985.518 183.818 986.714 180.581 987.899 177.399C990.39 178.233 992.974 178.774 995.574 179.12C1005.29 180.38 1015.15 179.113 1024.78 177.394C1031.4 176.292 1038.22 174.78 1044.06 171.514Z" fill="#DFE2E7"/>
<path d="M965.061 96.9102C965.188 114.044 966.941 131.166 969.404 148.16C970.049 152.6 970.77 157.085 972.225 161.334C972.452 161.982 972.734 162.641 972.994 163.268C967.082 165.693 961.47 168.952 956.528 173.042C952.141 176.685 948.176 180.99 945.356 185.918C944.668 187.104 944.055 188.335 943.195 189.398C942.738 189.923 942.239 190.382 941.697 190.775C941.134 191.135 940.474 191.416 939.796 191.523C938.681 191.675 937.553 191.37 936.617 190.708C935.703 190.079 934.99 189.182 934.475 188.158C933.467 186.142 933.402 183.851 933.326 181.614C933.064 172.591 933.042 163.507 934.197 154.512C936.038 140.459 940.957 126.772 948.849 114.965C953.351 108.217 958.844 102.142 965.061 96.9102Z" fill="url(#paint6_linear)"/>
<path d="M1029.22 98.4236C1028.83 94.4687 1027.29 90.6 1024.64 87.6797C1022.35 85.1267 1019.28 83.3106 1016 82.33C1012.68 81.3705 1009.18 81.2253 1005.79 81.7584C1001.04 82.5046 996.404 84.5833 993.173 88.14C990.857 90.6461 989.323 93.8655 988.757 97.213C988.158 100.582 988.548 104.111 989.784 107.287C991.529 111.771 994.967 115.546 999.096 117.993C1004.05 120.937 1010.18 122.061 1015.67 120.282C1020.51 118.731 1024.51 115.004 1026.85 110.481C1028.68 106.788 1029.58 102.575 1029.22 98.4236Z" fill="url(#paint7_linear)"/>
<path d="M1022.94 95.2465C1021.38 91.8572 1018.61 89.0548 1015.26 87.4622C1011.01 85.4701 1005.82 85.5206 1001.64 87.6739C999.55 88.7777 997.754 90.3453 996.386 92.2921C995.051 94.2178 994.212 96.4803 993.948 98.8414C993.608 101.812 994.301 104.868 995.777 107.47C997.253 110.073 999.546 112.201 1002.18 113.55C1004.61 114.798 1007.41 115.387 1010.15 115.223C1012.89 115.059 1015.57 114.141 1017.82 112.56C1020.49 110.672 1022.46 107.919 1023.38 104.764C1024.34 101.675 1024.16 98.2475 1022.94 95.2465Z" fill="url(#paint8_linear)"/>
<path d="M1049.59 207.314C1054.13 212.016 1057.5 217.796 1059.15 224.11C1060.16 227.946 1060.58 231.967 1060.5 235.935C1060.46 237.319 1060.41 238.703 1060.2 240.051C1060.16 240.356 1060.09 240.681 1059.97 240.941C1059.83 241.221 1059.64 241.523 1059.39 241.638C1059.23 241.744 1059 241.75 1058.77 241.757C1058.57 241.742 1058.36 241.694 1058.15 241.592C1057.76 241.421 1057.48 241.132 1057.15 240.831C1053.63 237.436 1051.09 233.089 1047.42 229.833C1045.39 228.048 1043.01 226.584 1040.34 226.193C1040.09 226.166 1039.84 226.14 1039.57 226.167C1039.31 226.195 1039.06 226.31 1038.9 226.503C1038.79 226.621 1038.76 226.783 1038.72 226.946C1038.68 227.109 1038.7 227.284 1038.75 227.438C1038.82 227.766 1038.99 228.031 1039.13 228.317C1040.16 230.224 1040.81 232.331 1041.4 234.425C1043.14 240.359 1044.71 246.398 1045.06 252.566C1045.58 261.474 1043.43 270.45 1039.28 278.329C1038.49 279.862 1037.55 281.392 1036.41 282.678C1035.34 284.064 1033.9 285.169 1032.27 285.748C1030.39 286.387 1028.32 286.357 1026.41 285.851C1022.34 284.811 1019 281.91 1016.08 278.875C1011.93 274.574 1008.17 269.789 1005.52 264.394C1002.91 259.064 1001.34 253.112 1001.53 247.206C1001.68 243.196 1002.61 239.19 1003.26 235.234C1003.33 234.766 1003.42 234.245 1003.37 233.808C1003.34 233.316 1003.16 232.822 1002.81 232.488C1002.55 232.232 1002.18 232.094 1001.85 232.076C1001.49 232.026 1001.14 232.062 1000.8 232.187C1000.15 232.414 999.563 232.882 999.01 233.329C996.837 235.184 994.728 237.138 992.93 239.36C991.477 241.174 990.251 243.124 989.252 245.208C988.741 246.234 988.306 247.305 987.548 248.163C987.169 248.592 986.694 248.942 986.167 249.139C985.661 249.369 985.049 249.433 984.485 249.28C983.867 249.115 983.308 248.679 982.936 248.17C982.565 247.661 982.271 247.056 982.011 246.429C980.795 243.286 980.261 239.895 980.131 236.48C979.913 231.394 980.578 226.304 982.078 221.426C982.788 219.106 983.703 216.889 984.781 214.708C985.441 214.939 986.135 215.149 986.82 215.271C988.635 215.558 990.479 215.452 992.324 215.347C1000.09 214.867 1007.8 214.092 1015.52 213.121C1026.18 211.771 1036.82 210.105 1047.27 207.77L1049.59 207.314Z" fill="url(#paint9_linear)"/>
<path d="M979.46 69.3757C979.101 72.1711 978.775 74.9454 978.503 77.7316C976.769 96.9877 977.426 116.629 982.726 135.217C982.714 135.271 982.756 135.337 982.778 135.37C977.692 135.074 972.588 134.603 967.552 133.947C967.181 130.592 966.809 127.237 966.504 123.84C966.44 123.228 966.396 122.649 966.353 122.071C965.752 115.363 965.358 108.616 965.161 101.884C965.163 101.23 965.143 100.543 965.112 99.9097C965.057 96.5391 965.023 93.2017 965.11 89.8338C965.162 87.1414 965.268 84.461 965.429 81.7925C965.449 81.3131 965.49 80.8668 965.531 80.4206C965.68 77.8064 965.916 75.183 966.173 72.5928C966.152 72.5596 966.185 72.5385 966.185 72.5385C970.559 71.2833 974.994 70.2692 979.46 69.3757Z" fill="#CFD3DB"/>
<path d="M1054.62 98.7053C1052.03 85.1543 1048.48 71.7918 1044.01 58.7383C1039.85 46.6068 1034.76 34.5552 1026.67 24.6581C1023.71 21.0449 1020.34 17.7399 1016.42 15.2528C1012.44 12.7537 1007.9 11.1269 1003.22 11.0892C997.984 11.0734 992.867 12.9901 988.632 16.069C984.541 19.0091 981.281 22.9578 978.679 27.2794C976.111 31.5798 974.221 36.2861 972.603 41.0523C967.416 56.7291 965.451 73.2873 965.143 89.8126C964.745 109.335 966.626 128.848 969.459 148.172C970.103 152.612 970.824 157.097 972.279 161.346C973.735 165.594 976 169.652 979.355 172.64C983.749 176.598 989.721 178.427 995.595 179.154C1005.31 180.413 1015.15 179.113 1024.8 177.428C1032.73 176.046 1040.87 174.254 1047.33 169.474C1052.56 165.619 1056.36 159.882 1058.21 153.659C1060.86 144.736 1059.62 135.214 1058.35 125.997C1057.08 116.921 1055.83 107.824 1054.62 98.7053Z" stroke="black" stroke-width="0.9295"/>
<path d="M965.061 96.9102C965.188 114.044 966.941 131.166 969.404 148.16C970.049 152.6 970.77 157.085 972.225 161.334C972.452 161.982 972.734 162.641 972.994 163.268C967.082 165.693 961.47 168.952 956.528 173.042C952.141 176.685 948.188 180.936 945.356 185.918C944.668 187.104 944.055 188.335 943.195 189.398C942.738 189.923 942.239 190.382 941.664 190.796C941.101 191.156 940.441 191.437 939.763 191.544C938.648 191.697 937.52 191.391 936.584 190.729C935.67 190.1 934.957 189.203 934.442 188.179C933.434 186.163 933.369 183.872 933.293 181.635C933.03 172.612 933.009 163.528 934.164 154.533C936.005 140.48 940.924 126.794 948.816 114.987C953.351 108.217 958.844 102.142 965.061 96.9102Z" stroke="black" stroke-width="0.9295"/>
<path d="M1052.82 90.1092C1059.79 94.7501 1066.08 100.435 1071.46 106.888C1080.53 117.796 1086.78 130.928 1090.09 144.722C1092.16 153.52 1093.05 162.566 1093.73 171.598C1093.9 173.825 1094.04 176.162 1093.27 178.24C1092.87 179.29 1092.28 180.271 1091.42 180.963C1090.57 181.688 1089.45 182.124 1088.35 182.08C1087.64 182.066 1087 181.868 1086.37 181.529C1085.75 181.222 1085.22 180.819 1084.72 180.34C1083.74 179.383 1083 178.224 1082.19 177.106C1078.86 172.472 1074.51 168.58 1069.74 165.422C1065.52 162.613 1060.95 160.353 1056.18 158.591C1056.96 157.025 1057.61 155.348 1058.12 153.668C1060.77 144.745 1059.54 135.223 1058.26 126.005C1057.02 116.908 1055.8 107.844 1054.59 98.7261C1054.06 95.8477 1053.44 92.9784 1052.82 90.1092Z" stroke="black" stroke-width="0.9295"/>
<path d="M1004.04 86.7508C1002.27 87.9265 1000.74 89.4665 999.655 91.2772C998.008 94.1018 997.451 97.5367 998.055 100.744C998.74 104.225 1000.77 107.405 1003.54 109.695C1006.08 111.85 1009.24 113.286 1012.51 113.808C1013.39 113.946 1014.32 114.007 1015.2 114.003C1013.63 114.681 1011.94 115.106 1010.2 115.235C1007.46 115.399 1004.7 114.789 1002.23 113.562C999.567 112.234 997.287 110.052 995.777 107.471C994.301 104.868 993.641 101.791 993.981 98.8206C994.212 96.4807 995.106 94.2301 996.419 92.2713C997.754 90.3456 999.583 88.7569 1001.68 87.6531C1002.41 87.275 1003.22 86.9964 1004.04 86.7508Z" fill="#B8BECA"/>
<path d="M1001.24 82.89C999.219 84.464 997.384 86.3362 995.926 88.4339C993.795 91.5216 992.34 95.1569 991.974 98.89C991.575 102.644 992.285 106.529 994.151 109.816C996.429 113.819 1000.28 116.773 1004.57 118.461C1008.13 119.872 1012.02 120.418 1015.87 120.155C1015.78 120.165 1015.71 120.207 1015.61 120.27C1010.16 122.028 1004 120.925 999.042 117.981C994.913 115.534 991.475 111.759 989.73 107.275C988.494 104.099 988.104 100.569 988.703 97.2008C989.302 93.8322 990.857 90.646 993.119 88.1279C995.336 85.6853 998.16 83.9743 1001.24 82.89Z" fill="url(#paint10_linear)"/>
<path d="M987.865 177.42C990.357 178.254 992.941 178.796 995.54 179.141C996.095 179.207 996.683 179.251 997.238 179.317C995.542 184.692 995.093 190.484 996.153 196.012C996.537 198.146 997.171 200.307 998.522 202.056C999.586 203.429 1001.03 204.515 1002.6 205.233C1004.2 205.985 1005.89 206.443 1007.62 206.739C1013.24 207.722 1019.02 207.203 1024.71 206.693C1035.16 205.754 1045.61 204.673 1056.06 203.505C1055.18 204.676 1053.95 205.601 1052.64 206.251C1050.99 207.025 1049.18 207.48 1047.38 207.881C1036.88 210.204 1026.26 211.904 1015.64 213.232C1007.95 214.182 1000.18 214.945 992.442 215.458C990.597 215.564 988.753 215.669 986.937 215.383C985.122 215.096 983.348 214.363 982.043 213.051C980.76 211.772 980.096 210.003 979.857 208.242C979.619 206.482 979.763 204.664 980.037 202.903C980.861 197.478 982.608 192.256 984.463 187.058C985.518 183.819 986.681 180.603 987.865 177.42Z" fill="#CFD3DB"/>
<path d="M1044.06 171.514C1048.44 178.001 1052.28 184.881 1055.49 192.022C1056.23 193.694 1056.96 195.42 1057.27 197.226C1057.59 199.031 1057.47 200.97 1056.66 202.611C1055.81 204.274 1054.29 205.476 1052.64 206.251C1050.99 207.025 1049.18 207.48 1047.38 207.881C1036.88 210.204 1026.26 211.904 1015.64 213.232C1007.95 214.182 1000.2 214.978 992.442 215.458C990.597 215.563 988.753 215.669 986.937 215.382C985.122 215.096 983.315 214.384 982.043 213.051C980.793 211.75 980.117 210.036 979.824 208.263C979.586 206.503 979.73 204.685 980.004 202.924C980.828 197.499 982.575 192.277 984.409 187.046C985.539 183.851 986.735 180.615 987.92 177.432C990.411 178.266 992.996 178.808 995.595 179.153C1005.31 180.413 1015.18 179.146 1024.8 177.427C1031.4 176.292 1038.22 174.78 1044.06 171.514Z" stroke="black" stroke-width="0.9295"/>
<path d="M984.823 214.774C985.484 215.005 986.177 215.215 986.862 215.338C987.438 215.436 988.026 215.481 988.593 215.492C986.818 220.451 985.595 225.618 985.015 230.84C984.899 231.754 984.838 232.68 985.105 233.536C985.238 233.964 985.492 234.361 985.824 234.662C986.157 234.963 986.621 235.179 987.046 235.188C987.417 235.184 987.812 235.072 988.185 234.927C989.571 234.321 990.66 233.252 991.619 232.126C992.578 231 993.42 229.763 994.379 228.637C995.706 227.136 997.322 225.87 999.22 225.264C1000.17 224.934 1001.15 224.779 1002.18 224.865C1003.19 224.917 1004.18 225.22 1005.03 225.749C1006.16 226.426 1007.02 227.468 1007.64 228.658C1008.24 229.814 1008.6 231.119 1008.86 232.4C1009.81 237.25 1009.36 242.301 1010.5 247.077C1012.04 253.509 1016.34 258.926 1020.86 263.736C1023.05 266.069 1025.37 268.318 1028.02 270.126C1031.85 272.764 1036.41 274.282 1041.04 274.733C1040.53 275.988 1039.92 277.219 1039.29 278.417C1038.49 279.95 1037.59 281.459 1036.42 282.766C1035.34 284.064 1033.9 285.17 1032.27 285.748C1030.39 286.387 1028.32 286.358 1026.41 285.851C1022.32 284.778 1019 281.91 1016.08 278.876C1011.93 274.574 1008.17 269.79 1005.52 264.394C1002.87 259.086 1001.34 253.113 1001.53 247.206C1001.68 243.196 1002.61 239.191 1003.26 235.234C1003.33 234.767 1003.42 234.245 1003.37 233.808C1003.34 233.317 1003.16 232.822 1002.81 232.488C1002.52 232.254 1002.18 232.094 1001.85 232.077C1001.51 232.059 1001.16 232.096 1000.8 232.187C1000.12 232.435 999.563 232.882 999.01 233.33C996.837 235.184 994.728 237.138 992.93 239.36C991.477 241.174 990.251 243.124 989.252 245.209C988.741 246.235 988.306 247.306 987.548 248.163C987.169 248.592 986.694 248.942 986.188 249.172C985.661 249.369 985.07 249.467 984.506 249.314C983.888 249.149 983.329 248.713 982.958 248.204C982.586 247.695 982.292 247.089 982.086 246.475C980.871 243.332 980.337 239.941 980.173 236.546C979.955 231.461 980.62 226.37 982.121 221.493C982.83 219.173 983.745 216.956 984.823 214.774Z" fill="url(#paint11_linear)"/>
<path d="M1049.59 207.314C1054.13 212.016 1057.5 217.796 1059.15 224.11C1060.16 227.946 1060.58 231.967 1060.5 235.935C1060.46 237.319 1060.41 238.703 1060.2 240.051C1060.16 240.356 1060.09 240.681 1059.97 240.941C1059.83 241.221 1059.64 241.523 1059.39 241.638C1059.23 241.744 1059 241.75 1058.77 241.757C1058.57 241.742 1058.36 241.694 1058.15 241.592C1057.76 241.421 1057.48 241.132 1057.15 240.831C1053.63 237.436 1051.09 233.089 1047.42 229.833C1045.39 228.048 1043.01 226.584 1040.34 226.193C1040.09 226.166 1039.84 226.14 1039.57 226.167C1039.31 226.195 1039.06 226.31 1038.9 226.503C1038.79 226.621 1038.76 226.783 1038.72 226.946C1038.68 227.109 1038.7 227.284 1038.75 227.438C1038.82 227.766 1038.99 228.031 1039.13 228.317C1040.16 230.224 1040.81 232.331 1041.4 234.425C1043.14 240.359 1044.71 246.398 1045.06 252.566C1045.58 261.474 1043.43 270.45 1039.28 278.329C1038.49 279.862 1037.55 281.392 1036.41 282.678C1035.34 284.064 1033.9 285.169 1032.27 285.748C1030.39 286.387 1028.32 286.357 1026.41 285.851C1022.34 284.811 1019 281.91 1016.08 278.875C1011.93 274.574 1008.17 269.789 1005.54 264.427C1002.93 259.097 1001.36 253.145 1001.55 247.239C1001.68 243.196 1002.64 239.224 1003.28 235.267C1003.35 234.799 1003.44 234.278 1003.39 233.841C1003.36 233.349 1003.18 232.855 1002.83 232.521C1002.57 232.265 1002.21 232.127 1001.87 232.11C1001.51 232.059 1001.16 232.096 1000.82 232.22C1000.17 232.447 999.584 232.915 999.031 233.362C996.858 235.217 994.749 237.171 992.951 239.393C991.498 241.207 990.272 243.157 989.273 245.242C988.762 246.267 988.327 247.338 987.57 248.196C987.191 248.625 986.715 248.975 986.188 249.172C985.661 249.369 985.07 249.466 984.506 249.313C983.888 249.148 983.329 248.712 982.958 248.203C982.565 247.661 982.292 247.089 982.065 246.441C980.85 243.298 980.315 239.907 980.152 236.513C979.934 231.427 980.599 226.337 982.099 221.459C982.809 219.14 983.724 216.922 984.802 214.741C985.484 215.005 986.156 215.182 986.841 215.304C988.656 215.591 990.501 215.485 992.345 215.38C1000.11 214.9 1007.82 214.125 1015.55 213.154C1026.2 211.804 1036.84 210.138 1047.29 207.803L1049.59 207.314Z" stroke="black" stroke-width="0.9295"/>
<path d="M1063.68 107.847C1066.64 110.206 1069.24 112.973 1071.41 116.069C1073.68 119.33 1075.45 122.909 1076.61 126.694" stroke="white" stroke-width="1.4407" stroke-linecap="round" stroke-linejoin="round"/>
<defs>
<linearGradient id="paint0_linear" x1="1226.91" y1="171.854" x2="1277.37" y2="233.478" gradientUnits="userSpaceOnUse">
<stop stop-color="#661FD1" stop-opacity="0"/>
<stop offset="1" stop-color="#661FD1"/>
</linearGradient>
<linearGradient id="paint1_linear" x1="835.92" y1="177.15" x2="877.624" y2="228.18" gradientUnits="userSpaceOnUse">
<stop stop-color="#B4FF8C"/>
<stop offset="0.39" stop-color="#B4EAAC"/>
<stop offset="1" stop-color="#B3C4E5"/>
</linearGradient>
<linearGradient id="paint2_linear" x1="841.804" y1="184.356" x2="871.255" y2="220.391" gradientUnits="userSpaceOnUse">
<stop stop-color="#0058D3" stop-opacity="0"/>
<stop offset="0.12" stop-color="#0058D3" stop-opacity="0.16"/>
<stop offset="0.35" stop-color="#0058D3" stop-opacity="0.46"/>
<stop offset="0.56" stop-color="#0058D3" stop-opacity="0.69"/>
<stop offset="0.75" stop-color="#0058D3" stop-opacity="0.86"/>
<stop offset="0.9" stop-color="#0058D3" stop-opacity="0.96"/>
<stop offset="1" stop-color="#0058D3"/>
</linearGradient>
<radialGradient id="paint3_radial" cx="0" cy="0" r="1" gradientUnits="userSpaceOnUse" gradientTransform="translate(941.065 752.027) scale(1331.77 675.628)">
<stop stop-color="#4A289C"/>
<stop offset="0.963" stop-color="#00092B"/>
</radialGradient>
<linearGradient id="paint4_linear" x1="1052.83" y1="87.7712" x2="961.944" y2="102.641" gradientUnits="userSpaceOnUse">
<stop stop-color="#C57BFF"/>
<stop offset="1" stop-color="#454BCB"/>
</linearGradient>
<linearGradient id="paint5_linear" x1="1088.45" y1="133.232" x2="1053" y2="139.032" gradientUnits="userSpaceOnUse">
<stop offset="0.2759" stop-color="#7556BA"/>
<stop offset="0.3895" stop-color="#7C5FBE"/>
<stop offset="0.5743" stop-color="#9077C8"/>
<stop offset="0.7825" stop-color="#AC9AD6"/>
</linearGradient>
<linearGradient id="paint6_linear" x1="972.273" y1="140.944" x2="927.529" y2="148.265" gradientUnits="userSpaceOnUse">
<stop offset="0.2759" stop-color="#7556BA"/>
<stop offset="0.3895" stop-color="#7C5FBE"/>
<stop offset="0.5743" stop-color="#9077C8"/>
<stop offset="0.7825" stop-color="#AC9AD6"/>
</linearGradient>
<linearGradient id="paint7_linear" x1="1029.18" y1="98.0468" x2="988.872" y2="104.642" gradientUnits="userSpaceOnUse">
<stop offset="0.2759" stop-color="#7556BA"/>
<stop offset="0.3895" stop-color="#7C5FBE"/>
<stop offset="0.5743" stop-color="#9077C8"/>
<stop offset="0.7825" stop-color="#AC9AD6"/>
</linearGradient>
<linearGradient id="paint8_linear" x1="1023.79" y1="98.2109" x2="994.169" y2="103.058" gradientUnits="userSpaceOnUse">
<stop offset="0.1525" stop-color="#7FCDEE"/>
<stop offset="0.236" stop-color="#88D0EF"/>
<stop offset="0.372" stop-color="#A0DAF2"/>
<stop offset="0.5426" stop-color="#C7E9F7"/>
<stop offset="0.5915" stop-color="#D4EEF9"/>
</linearGradient>
<linearGradient id="paint9_linear" x1="1062.18" y1="241.56" x2="982.835" y2="254.543" gradientUnits="userSpaceOnUse">
<stop offset="0.4377" stop-color="#F7931E"/>
<stop offset="0.5098" stop-color="#F89C27"/>
<stop offset="0.6095" stop-color="#FBB03B"/>
</linearGradient>
<linearGradient id="paint10_linear" x1="1012.68" y1="100.952" x2="988.904" y2="104.843" gradientUnits="userSpaceOnUse">
<stop offset="0.2759" stop-color="#7556BA"/>
<stop offset="0.3895" stop-color="#7C5FBE"/>
<stop offset="0.5743" stop-color="#9077C8"/>
<stop offset="0.7825" stop-color="#AC9AD6"/>
</linearGradient>
<linearGradient id="paint11_linear" x1="1036.32" y1="245.783" x2="982.833" y2="254.535" gradientUnits="userSpaceOnUse">
<stop offset="0.4377" stop-color="#F7931E"/>
<stop offset="0.5098" stop-color="#F89C27"/>
<stop offset="0.6095" stop-color="#FBB03B"/>
</linearGradient>
</defs>
</svg>
