<svg width="344" height="360" viewBox="0 0 344 360" fill="none" xmlns="http://www.w3.org/2000/svg">
<circle cx="267.676" cy="70.731" r="48.3797" transform="rotate(5.75016 267.676 70.731)" stroke="#C4C4C4" stroke-width="2"/>
<circle cx="267.676" cy="70.731" r="63.1216" transform="rotate(5.75016 267.676 70.731)" stroke="#C4C4C4"/>
<circle cx="267.804" cy="70.6265" r="35.6223" transform="rotate(5.75016 267.804 70.6265)" stroke="#C4C4C4" stroke-width="3"/>
<path d="M331.662 65.3874C337.81 66.0065 343.277 61.5176 343.897 55.36C344.517 49.2024 340.032 43.7035 333.908 43.0867C327.783 42.47 322.269 46.9542 321.648 53.1196C321.03 59.2615 325.514 64.7683 331.662 65.3874Z" fill="#8641EF"/>
<path d="M335.518 60.4505C335.359 62.0272 335.753 63.5485 336.531 64.7838C340.887 63.2256 343.892 59.1069 343.961 54.4151C343.674 54.3545 343.379 54.2931 343.073 54.2623C339.283 53.8965 335.9 56.6619 335.518 60.4505Z" fill="#FDC2C4"/>
<path d="M343.859 52.8277C343.422 49.3766 341.47 46.5018 338.753 44.7702C338.643 44.7592 338.547 44.7654 338.43 44.7535C336.668 44.7029 335.849 44.0262 335.464 43.3615C334.351 43.0909 333.19 42.974 332.001 43.0603C331.643 44.1018 331.459 45.5333 332.214 47.0039C332.902 48.3568 334.168 49.3084 335.647 49.6475C338.548 50.3437 341.408 50.8139 343.859 52.8277Z" fill="#EB27B7"/>
<path d="M331.396 61.5803C330.453 59.14 331.699 58.2512 330.644 55.9897C329.19 52.8799 326.124 53.1179 324.98 50.5622C324.547 49.5915 324.374 48.1637 325.184 46.0109C323.201 47.8554 321.899 50.3946 321.65 53.1824C321.826 53.1684 322.025 53.1568 322.198 53.1741C324.174 53.3732 325.545 55.7298 325.272 58.436C325.155 59.5969 324.759 60.6188 324.188 61.417C326.557 64.2466 330.253 65.8548 334.185 65.3554C334.362 65.3257 334.545 65.3125 334.707 65.2812C333.486 64.5085 332.125 63.4682 331.396 61.5803ZM327.156 62.3894C326.922 62.6591 326.417 62.5685 326 62.2254C325.585 61.8588 325.445 61.3614 325.662 61.0979C325.895 60.8282 326.401 60.9188 326.817 61.2619C327.234 61.6128 327.386 62.1432 327.156 62.3894Z" fill="#F7921E"/>
<path d="M328.924 45.6112C329.85 45.7044 330.71 44.6342 330.853 43.2144L330.854 43.1987C329.708 43.4082 328.627 43.7589 327.639 44.2932C327.859 45.0206 328.336 45.552 328.924 45.6112Z" fill="#AD1AA4"/>
<path d="M331.693 65.3902C337.841 66.0094 343.324 61.522 343.944 55.3644C344.564 49.2068 340.079 43.7079 333.939 43.0895C327.798 42.4712 322.316 46.9586 321.695 53.124C321.076 59.2659 325.56 64.7727 331.693 65.3902Z" fill="url(#paint0_linear)"/>
<path d="M343.55 50.7845C343.804 51.3252 344.017 51.8854 344.181 52.4645C344.323 52.5422 344.474 52.6208 344.616 52.7064C344.907 52.8862 345.186 53.0966 345.397 53.3635C345.608 53.6304 345.748 53.9693 345.73 54.3082C345.712 54.6392 345.539 54.9466 345.317 55.1857C345.094 55.4327 344.814 55.6106 344.527 55.7877C343.919 56.1623 343.276 56.4937 342.607 56.7591C340.794 57.4639 338.815 57.6054 336.874 57.6794C333.583 57.7996 330.262 57.7346 327.033 57.0766C325.185 56.7004 323.358 56.1281 321.716 55.2021C321.341 54.9901 320.968 54.7623 320.684 54.4405C320.541 54.2835 320.417 54.0968 320.342 53.899C320.259 53.7005 320.225 53.4832 320.239 53.2706C320.259 52.9953 320.38 52.7302 320.538 52.5005C320.704 52.2715 320.913 52.0787 321.128 51.9102C321.361 51.7275 321.615 51.563 321.875 51.4149C322.128 50.7192 322.441 50.0456 322.814 49.4096C322.275 49.4901 321.738 49.6341 321.24 49.8612C320.21 50.3281 319.317 51.0939 318.699 52.038C318.063 53.004 317.708 54.1726 317.814 55.3243C317.943 56.716 318.719 57.9748 319.715 58.9466C320.639 59.8399 321.759 60.5153 322.934 61.0378C326.18 62.4818 329.811 62.7682 333.36 62.9196C336.381 63.0495 339.476 63.0759 342.346 62.1129C344.002 61.5508 345.55 60.6607 346.812 59.4487C347.663 58.6311 348.398 57.6275 348.586 56.4658C348.709 55.7175 348.589 54.9448 348.302 54.2503C347.798 53.0427 346.793 52.0936 345.634 51.4857C344.979 51.1424 344.274 50.905 343.55 50.7845Z" fill="#F7CB16"/>
<path d="M345.043 51.2125C345.833 51.7912 346.493 52.5471 346.862 53.4479C347.149 54.1423 347.268 54.923 347.146 55.6634C346.958 56.8251 346.223 57.8287 345.372 58.6463C344.109 59.8582 342.562 60.7484 340.905 61.3105C338.035 62.2813 334.941 62.2471 331.92 62.1172C328.37 61.9658 324.739 61.6794 321.494 60.2354C321.373 60.1835 321.26 60.1167 321.139 60.0649C321.703 60.4387 322.305 60.7529 322.927 61.0294C326.172 62.4734 329.803 62.7598 333.353 62.9112C336.374 63.0411 339.469 63.0675 342.338 62.1045C343.995 61.5424 345.542 60.6523 346.805 59.4404C347.656 58.6227 348.391 57.6191 348.579 56.4575C348.702 55.7092 348.582 54.9364 348.295 54.2419C347.791 53.0343 346.785 52.0852 345.627 51.4773C345.438 51.3791 345.241 51.2958 345.043 51.2125Z" fill="#F7B516"/>
<path d="M320.087 58.4772C319.544 58.0501 319.092 57.4975 318.782 56.8799C318.544 56.4122 318.381 55.9046 318.299 55.3813C318.264 55.1797 318.245 54.9796 318.273 54.7765C318.302 54.5733 318.385 54.3757 318.532 54.2479C318.619 54.1695 318.728 54.117 318.841 54.0967C318.954 54.0764 319.072 54.0804 319.187 54.1236C319.354 54.1881 319.491 54.3207 319.586 54.4808C319.682 54.6331 319.744 54.8057 319.813 54.9791C320.007 55.4899 320.242 55.989 320.571 56.4261C320.928 56.89 321.398 57.2621 321.833 57.6547C321.964 57.7709 322.094 57.8949 322.19 58.0471C322.285 58.1994 322.339 58.3791 322.306 58.5501C322.287 58.6591 322.229 58.7642 322.149 58.8433C322.07 58.9225 321.969 58.9836 321.869 59.0291C321.655 59.1105 321.418 59.1025 321.201 59.0569C320.774 58.9664 320.391 58.7614 320.087 58.4772Z" fill="#FADF6F"/>
<path d="M331.548 53.7759C331.485 53.7696 331.419 53.7946 331.374 53.8456C331.33 53.8965 331.308 53.9577 331.317 54.022C331.346 54.2864 331.448 54.5344 331.6 54.7479C331.753 54.9613 331.966 55.1333 332.201 55.2362C332.625 55.4295 333.118 55.4157 333.533 55.2198C333.908 55.0436 334.216 54.7339 334.382 54.3465C334.411 54.294 334.409 54.2304 334.391 54.1732C334.373 54.1159 334.33 54.0719 334.269 54.0499C334.216 54.0287 334.152 54.0302 334.095 54.0482C334.037 54.0741 333.993 54.1172 333.979 54.1791C333.863 54.4607 333.633 54.699 333.352 54.8212C333.053 54.9575 332.679 54.9674 332.384 54.8347C332.218 54.7546 332.063 54.636 331.952 54.4822C331.841 54.3283 331.771 54.1549 331.75 53.9706C331.745 53.867 331.658 53.7791 331.548 53.7759Z" fill="black"/>
<path d="M329.4 52.2915C329.368 52.6052 329.213 52.8907 328.971 53.0882C328.729 53.2857 328.419 53.3812 328.105 53.3496C327.791 53.318 327.506 53.1625 327.309 52.9208C327.111 52.679 327.016 52.3683 327.047 52.0545C327.113 51.4035 327.691 50.9308 328.342 50.9964C328.993 51.0619 329.466 51.6404 329.4 52.2915Z" fill="black"/>
<path d="M328.276 51.6553C328.266 51.7494 328.218 51.8396 328.14 51.9031C328.062 51.9666 327.964 51.9963 327.87 51.9869C327.666 51.9663 327.518 51.785 327.539 51.5811C327.559 51.3771 327.74 51.229 327.944 51.2495C328.147 51.2779 328.296 51.4514 328.276 51.6553Z" fill="white"/>
<path d="M336.707 53.9147C336.55 53.8989 336.429 53.76 336.437 53.6023C336.44 53.3411 336.513 53.087 336.646 52.8706C336.786 52.6549 336.986 52.477 337.218 52.3736C337.6 52.1981 338.043 52.211 338.411 52.4066C338.667 52.5432 338.875 52.7622 338.999 53.0204C339.123 53.2864 339.156 53.583 339.096 53.87C339.08 53.9477 339.033 54.0222 338.965 54.0629C338.897 54.1115 338.816 54.1272 338.731 54.1106C338.653 54.0949 338.579 54.0478 338.538 53.9803C338.489 53.912 338.474 53.8312 338.498 53.7465C338.529 53.599 338.506 53.4304 338.441 53.2891C338.376 53.1479 338.262 53.0254 338.126 52.9563C337.93 52.8573 337.678 52.8477 337.478 52.9386C337.354 52.9973 337.241 53.0891 337.166 53.2082C337.091 53.3274 337.053 53.4663 337.055 53.6012C337.054 53.6883 337.022 53.7722 336.952 53.8365C336.883 53.8929 336.793 53.9234 336.707 53.9147Z" fill="black"/>
<path d="M224.855 9.3459C224.965 8.90212 224.871 8.4379 224.769 7.99589C224.627 7.36568 224.465 6.71034 224.611 6.07455C224.705 5.6581 224.932 5.27217 225.258 4.99423C225.585 4.71628 226.007 4.54572 226.442 4.52625C226.848 4.50956 227.241 4.62394 227.635 4.72693C228.029 4.82991 228.436 4.91697 228.829 4.85294C229.288 4.77823 229.69 4.50788 230.037 4.19749C230.384 3.8928 230.69 3.53784 231.058 3.25829C231.42 2.97814 231.851 2.76828 232.312 2.72835C232.543 2.70554 232.775 2.7289 232.996 2.80297C233.217 2.87703 233.415 3.00063 233.574 3.16632C233.839 3.45197 233.958 3.83816 234.11 4.19308C234.185 4.37339 234.267 4.54858 234.386 4.70448C234.505 4.86038 234.656 4.99071 234.836 5.06639C234.982 5.12716 235.15 5.1441 235.309 5.13707C235.469 5.12435 235.625 5.08825 235.777 5.03446C236.08 4.93259 236.365 4.77709 236.678 4.69349C237.293 4.52511 237.983 4.64648 238.51 5.00458C239.036 5.36269 239.393 5.95124 239.476 6.57561C239.504 6.76834 239.502 6.96385 239.523 7.156C239.545 7.34814 239.578 7.54716 239.672 7.71782C239.761 7.8822 239.893 8.02218 240.046 8.13541C240.198 8.24864 240.365 8.34025 240.532 8.43185C240.698 8.52346 240.865 8.60936 241.024 8.71748C241.177 8.82501 241.323 8.94906 241.43 9.10949C241.567 9.31902 241.63 9.56713 241.634 9.8208C241.638 10.0688 241.584 10.3166 241.513 10.5513C241.366 11.0257 241.127 11.4795 241.054 11.9672C240.968 12.5342 241.114 13.1245 241.372 13.6455C241.517 13.9423 241.7 14.2198 241.84 14.5217C241.979 14.8235 242.069 15.1549 242.024 15.4843C241.99 15.7054 241.892 15.92 241.757 16.1021C241.621 16.2842 241.453 16.44 241.275 16.5832C240.913 16.8633 240.504 17.0812 240.158 17.3745C239.409 18.0071 238.999 18.9387 238.718 19.866C238.623 20.173 238.538 20.4926 238.397 20.7835C238.257 21.0745 238.048 21.347 237.762 21.5025C237.533 21.6291 237.265 21.6712 237.008 21.6683C236.745 21.6591 236.487 21.5986 236.237 21.5273C235.736 21.379 235.242 21.1624 234.716 21.1554C234.254 21.1492 233.81 21.306 233.387 21.4936C232.97 21.6819 232.561 21.8941 232.115 22.0218C231.723 22.132 231.31 22.1652 230.914 22.085C230.517 22.0048 230.14 21.7999 229.884 21.492C229.706 21.2784 229.596 21.0313 229.468 20.7882C229.34 20.545 229.189 20.3053 228.965 20.1445C228.812 20.0313 228.625 19.9664 228.435 19.9358C228.245 19.9051 228.052 19.9029 227.862 19.9241C227.483 19.9608 227.109 20.0671 226.726 20.0918C226.165 20.1332 225.58 20.011 225.127 19.6832C224.903 19.5168 224.708 19.3072 224.58 19.0583C224.453 18.8152 224.387 18.5323 224.398 18.257C224.416 17.9019 224.567 17.566 224.7 17.2283C224.833 16.8963 224.957 16.5403 224.917 16.1851C224.872 15.8122 224.654 15.4737 224.402 15.1892C224.15 14.899 223.865 14.6401 223.65 14.3306C223.211 13.6934 223.093 12.8814 223.211 12.1219C223.279 11.6797 223.445 11.2475 223.711 10.8828C223.846 10.7007 223.997 10.5374 224.16 10.3754C224.323 10.2133 224.485 10.057 224.615 9.8743C224.731 9.71326 224.807 9.53674 224.855 9.3459Z" fill="#F77026"/>
<path d="M226.156 8.41161C226.068 8.06881 226.076 7.70117 226.18 7.36055C226.304 6.94702 226.576 6.57147 226.95 6.34436C227.35 6.0968 227.832 6.02443 228.3 5.97369C228.75 5.9269 229.205 5.89209 229.646 5.80993C230.094 5.72836 230.53 5.58805 230.911 5.35013C231.143 5.20648 231.349 5.02001 231.575 4.86437C231.802 4.70874 232.055 4.57882 232.332 4.56067C232.551 4.54239 232.774 4.59936 232.969 4.69959C233.164 4.79411 233.344 4.93306 233.505 5.07595C233.827 5.36744 234.109 5.71241 234.484 5.94588C234.897 6.20624 235.397 6.30264 235.889 6.35798C236.376 6.41274 236.873 6.42249 237.353 6.53994C237.571 6.59062 237.78 6.66352 237.975 6.76944C238.169 6.87537 238.342 7.01943 238.477 7.19418C238.672 7.46142 238.762 7.79282 238.841 8.11165C238.926 8.43106 239.01 8.76188 239.218 9.02459C239.348 9.19305 239.522 9.32572 239.689 9.4635C239.857 9.60128 240.018 9.74987 240.122 9.9388C240.206 10.0912 240.247 10.268 240.253 10.4413C240.259 10.6146 240.235 10.7907 240.201 10.9599C240.132 11.2983 240.01 11.6315 239.981 11.9797C239.948 12.3621 240.032 12.7505 240.129 13.1229C240.227 13.4954 240.347 13.8702 240.385 14.2539C240.412 14.5099 240.403 14.7738 240.342 15.0267C240.281 15.2797 240.163 15.5211 239.986 15.7105C239.808 15.9055 239.577 16.0492 239.347 16.1815C239.117 16.3137 238.881 16.4454 238.682 16.621C238.378 16.9013 238.187 17.2851 238.055 17.6689C237.922 18.0585 237.829 18.4579 237.679 18.84C237.562 19.1333 237.41 19.4173 237.188 19.6425C236.966 19.8677 236.662 20.0328 236.344 20.0526C236.161 20.063 235.978 20.0272 235.802 19.9692C235.626 19.9112 235.465 19.8259 235.297 19.7457C234.968 19.5802 234.629 19.3964 234.261 19.3881C234.01 19.38 233.768 19.4536 233.54 19.563C233.318 19.6731 233.111 19.8134 232.904 19.948C232.696 20.0882 232.49 20.2228 232.263 20.3209C232.036 20.419 231.784 20.4799 231.535 20.4548C231.175 20.4186 230.85 20.2132 230.581 19.9731C230.313 19.7331 230.077 19.456 229.788 19.237C229.44 18.9717 229.024 18.7974 228.605 18.6573C228.185 18.5229 227.75 18.4215 227.33 18.2814C227.092 18.2056 226.849 18.1121 226.641 17.9703C226.433 17.8284 226.253 17.6376 226.171 17.3991C226.089 17.1663 226.109 16.9093 226.145 16.6711C226.181 16.4272 226.235 16.1851 226.225 15.9366C226.206 15.4856 225.971 15.0764 225.71 14.7047C225.449 14.3329 225.162 13.976 225 13.5509C224.866 13.1921 224.835 12.8032 224.879 12.4277C224.923 12.0522 225.036 11.6836 225.194 11.3369C225.451 10.7584 225.815 10.2308 226.01 9.62881C226.143 9.23924 226.191 8.82381 226.156 8.41161Z" fill="#F78526"/>
<path d="M226.176 10.9524C226.681 9.08055 228.096 7.4731 229.903 6.69369C231.275 6.10077 232.857 5.98375 234.306 6.37144C235.755 6.75913 237.066 7.64526 237.941 8.84441C239.023 10.3234 239.419 12.2686 239.006 14.0404C238.593 15.8122 237.386 17.3888 235.768 18.2678C234.647 18.8744 233.341 19.1574 232.062 19.0574C230.783 18.9632 229.536 18.4865 228.518 17.7162C227.5 16.9459 226.723 15.8718 226.31 14.6789C225.898 13.4803 225.848 12.1686 226.176 10.9524Z" fill="#F7CB16"/>
<path d="M236.23 7.22708C236.949 9.03806 236.883 11.1555 235.987 12.8902C234.996 14.8224 233.032 16.2365 230.859 16.5761C229.573 16.7804 228.231 16.6051 227.028 16.1097C227.429 16.72 227.936 17.2661 228.518 17.7104C229.536 18.4807 230.783 18.9574 232.063 19.0517C233.342 19.146 234.647 18.8687 235.769 18.2621C237.386 17.383 238.599 15.8127 239.007 14.0347C239.419 12.2629 239.023 10.3233 237.942 8.83867C237.478 8.21053 236.895 7.66247 236.23 7.22708Z" fill="#F7B516"/>
<path d="M229.003 7.89819C229.531 7.48506 230.129 7.12512 230.787 6.98991C231.002 6.94824 231.222 6.92426 231.436 6.94587C231.651 6.96748 231.867 7.03527 232.048 7.15712C232.207 7.26523 232.338 7.41661 232.408 7.59063C232.484 7.76524 232.5 7.9625 232.446 8.14706C232.393 8.32592 232.271 8.48637 232.136 8.61087C231.994 8.74049 231.837 8.84557 231.679 8.95634C230.923 9.48463 230.239 10.1123 229.615 10.7805C229.49 10.9119 229.371 11.0496 229.224 11.1672C229.084 11.2797 228.916 11.3722 228.737 11.406C228.522 11.4477 228.293 11.3958 228.105 11.2848C227.917 11.1737 227.771 10.9978 227.679 10.8044C227.582 10.5989 227.547 10.3708 227.552 10.1468C227.557 9.92282 227.615 9.69837 227.7 9.48824C227.959 8.84076 228.456 8.32666 229.003 7.89819Z" fill="#FADF6F"/>
<path d="M231.847 13.4001C231.806 13.396 231.763 13.4147 231.737 13.4409C231.71 13.4727 231.695 13.5115 231.702 13.5525C231.722 13.7099 231.782 13.8656 231.881 13.9907C231.979 14.1215 232.11 14.221 232.255 14.2875C232.519 14.4061 232.824 14.3966 233.082 14.2786C233.315 14.1755 233.505 13.9815 233.604 13.7498C233.619 13.7167 233.623 13.6769 233.609 13.6466C233.595 13.6107 233.568 13.585 233.534 13.57C233.501 13.5551 233.46 13.5568 233.429 13.5709C233.392 13.5845 233.366 13.6107 233.356 13.65C233.281 13.8208 233.143 13.9624 232.971 14.0429C232.787 14.128 232.558 14.1337 232.373 14.0518C232.266 14.0065 232.174 13.9282 232.107 13.8408C232.04 13.7477 231.992 13.6393 231.98 13.5287C231.964 13.458 231.91 13.4065 231.847 13.4001Z" fill="black"/>
<path d="M229.772 14.1584C229.738 14.5004 229.299 14.7324 228.794 14.6816C228.29 14.6308 227.905 14.3158 227.94 13.9739C227.956 13.8086 228.07 13.6647 228.25 13.5676C228.436 13.4712 228.674 13.4261 228.918 13.4507C229.162 13.4752 229.387 13.5613 229.549 13.6984C229.712 13.8299 229.789 13.9932 229.772 14.1584Z" fill="#FF8080"/>
<path d="M237.017 14.8879C236.982 15.2298 236.543 15.4619 236.038 15.4111C235.534 15.3603 235.149 15.0453 235.184 14.7034C235.201 14.5381 235.315 14.3942 235.494 14.2971C235.68 14.2007 235.919 14.1556 236.162 14.1802C236.406 14.2047 236.631 14.2907 236.793 14.4279C236.95 14.5589 237.033 14.7226 237.017 14.8879Z" fill="#FF8080"/>
<path d="M230.69 12.4316C230.646 12.8704 230.245 13.1926 229.798 13.1476C229.352 13.1027 229.022 12.7069 229.067 12.268C229.111 11.8292 229.512 11.507 229.959 11.552C230.405 11.5969 230.735 11.9871 230.69 12.4316Z" fill="black"/>
<path d="M229.914 11.9965C229.907 12.0649 229.872 12.1246 229.821 12.1655C229.77 12.2065 229.703 12.2285 229.634 12.2215C229.564 12.2145 229.503 12.1796 229.461 12.1293C229.419 12.0791 229.397 12.0135 229.404 11.9451C229.417 11.8083 229.545 11.706 229.684 11.72C229.823 11.7397 229.928 11.8597 229.914 11.9965Z" fill="white"/>
<path d="M236.165 12.9829C236.121 13.4217 235.72 13.7439 235.273 13.699C234.827 13.654 234.497 13.2582 234.541 12.8194C234.586 12.3806 234.987 12.0583 235.434 12.1033C235.881 12.1426 236.21 12.5384 236.165 12.9829Z" fill="black"/>
<path d="M235.389 12.5477C235.382 12.6161 235.347 12.6759 235.296 12.7168C235.245 12.7577 235.178 12.7798 235.109 12.7728C235.039 12.7658 234.978 12.7309 234.936 12.6806C234.894 12.6303 234.872 12.5647 234.879 12.4964C234.892 12.3596 235.02 12.2573 235.159 12.2713C235.304 12.2916 235.403 12.411 235.389 12.5477Z" fill="white"/>
<path d="M219.601 66.9459C224.863 67.4758 229.554 63.6483 230.084 58.3772C230.615 53.1062 226.781 48.4272 221.519 47.8973C216.256 47.3674 211.573 51.1956 211.042 56.4667C210.513 61.7172 214.338 66.416 219.601 66.9459Z" fill="url(#paint1_linear)"/>
<path d="M219.554 58.5423C216.43 53.554 211.558 54.1643 211.558 54.1643C210.878 56.0346 210.802 58.0903 211.344 60.0004C212.493 60.3378 213.564 60.8403 214.554 61.5216C216.432 62.8115 217.865 64.6592 218.667 66.8032C220.702 67.2159 222.812 66.9437 224.694 66.06L224.708 66.0614C222.537 63.9733 220.842 60.5969 219.554 58.5423Z" fill="#19C3ED"/>
<path d="M228.437 62.8434C230.092 60.4275 230.564 57.3938 229.71 54.6005C226.886 53.4368 224.49 53.3756 223.33 54.6574C221.673 56.54 223.163 60.7129 226.695 64.7521C227.365 64.2103 227.949 63.5697 228.437 62.8434Z" fill="#19C3ED"/>
<path d="M225.983 49.5448C223.886 48.108 221.318 47.5518 218.815 48.0128C216.325 48.4753 214.105 49.8996 212.669 51.9984C212.669 51.9984 212.667 52.0121 212.654 52.0107C213.751 52.3151 216.224 52.848 219.01 52.6092C219.925 52.5213 220.824 52.3279 221.704 52.0427C224.202 51.221 226.421 51.3198 228.771 52.5189C228.086 51.349 227.131 50.3181 225.983 49.5448Z" fill="#19C3ED"/>
<path d="M219.601 66.9459C224.863 67.4758 229.554 63.6483 230.084 58.3772C230.615 53.1062 226.781 48.4272 221.519 47.8973C216.256 47.3674 211.573 51.1956 211.042 56.4667C210.513 61.7172 214.338 66.416 219.601 66.9459Z" fill="url(#paint2_linear)"/>
<path d="M218.947 57.1446C218.897 57.5757 219.025 58.0248 219.303 58.3575C219.506 58.6064 219.786 58.7869 220.088 58.8796C220.39 58.9724 220.723 58.9644 221.03 58.8706C221.33 58.7762 221.606 58.5824 221.804 58.3324C222.002 58.0823 222.124 57.7691 222.142 57.4524L218.947 57.1446Z" fill="black"/>
<path d="M224.135 57.3207C224.032 57.3104 223.951 57.2192 223.954 57.1156C223.955 56.9011 224.012 56.6852 224.134 56.5036C224.249 56.3214 224.416 56.1789 224.612 56.0878C224.931 55.94 225.304 55.9498 225.613 56.1125C225.83 56.2244 225.998 56.4075 226.108 56.6262C226.211 56.8443 226.24 57.0966 226.189 57.3337C226.177 57.3879 226.144 57.4331 226.1 57.4632C226.055 57.4934 225.999 57.5015 225.945 57.4892C225.891 57.4768 225.846 57.4445 225.815 57.4C225.785 57.3554 225.777 57.2992 225.789 57.245C225.818 57.0956 225.8 56.9345 225.738 56.7898C225.676 56.652 225.564 56.5299 225.425 56.4606C225.235 56.3583 224.986 56.3541 224.79 56.4451C224.667 56.5019 224.554 56.5944 224.487 56.7122C224.412 56.8294 224.371 56.9637 224.371 57.1022C224.372 57.1577 224.346 57.2174 224.307 57.255C224.254 57.305 224.196 57.3269 224.135 57.3207Z" fill="black"/>
<path d="M215.295 56.4311C215.193 56.4207 215.112 56.3295 215.115 56.226C215.116 56.0114 215.173 55.7955 215.295 55.614C215.41 55.4317 215.577 55.2892 215.773 55.1982C216.092 55.0503 216.465 55.0602 216.774 55.2228C216.991 55.3347 217.159 55.5179 217.269 55.7366C217.371 55.9546 217.401 56.2069 217.35 56.4441C217.337 56.4982 217.305 56.5434 217.261 56.5736C217.216 56.6037 217.16 56.6119 217.106 56.5995C217.052 56.5871 217.006 56.5549 216.976 56.5103C216.946 56.4657 216.938 56.4095 216.95 56.3554C216.979 56.206 216.961 56.0449 216.899 55.9002C216.837 55.7624 216.725 55.6403 216.586 55.5709C216.396 55.4687 216.147 55.4644 215.951 55.5554C215.828 55.6123 215.715 55.7047 215.647 55.8226C215.573 55.9398 215.532 56.0741 215.532 56.2126C215.533 56.2681 215.507 56.3277 215.468 56.3654C215.408 56.4147 215.35 56.4366 215.295 56.4311Z" fill="black"/>
<path d="M216.44 58.3323C216.415 58.5791 216.247 58.8045 215.976 58.9503C215.705 59.103 215.346 59.1638 214.982 59.1272C214.619 59.0906 214.286 58.9602 214.044 58.7557C213.808 58.552 213.688 58.3045 213.713 58.0577C213.765 57.5436 214.416 57.1869 215.17 57.2628C215.924 57.3387 216.492 57.8182 216.44 58.3323Z" fill="#FF8080"/>
<path d="M227.218 59.4178C227.193 59.6645 227.025 59.8899 226.754 60.0358C226.483 60.1884 226.124 60.2492 225.761 60.2127C225.397 60.1761 225.065 60.0456 224.822 59.8412C224.587 59.6374 224.466 59.3899 224.491 59.1431C224.543 58.6291 225.195 58.2723 225.948 58.3482C226.702 58.4241 227.27 58.9037 227.218 59.4178Z" fill="#FF8080"/>
<path d="M220.515 57.9396C220.282 57.9093 220.047 57.9132 219.815 57.9453C219.583 57.9774 219.362 58.0451 219.153 58.1279C219.2 58.2088 219.247 58.2897 219.303 58.3576C219.506 58.6066 219.786 58.7871 220.088 58.8798C220.39 58.9725 220.723 58.9645 221.03 58.8708C221.309 58.7812 221.554 58.6189 221.742 58.4024C221.372 58.1574 220.952 57.9906 220.515 57.9396Z" fill="#FF8080"/>
<path d="M381.922 115.208V70.8358C340.002 69.5335 337.27 78.876 324.019 84.6514C310.592 90.5022 296.658 90.5966 288.071 85.9159C279.484 81.2352 279.035 71.2699 279.035 71.2699C279.035 71.2699 269.765 57.0203 263.676 75.3844C257.588 93.7485 242.131 90.8042 207.647 84.6514C173.163 78.4986 155.384 100.807 132.024 104.507C108.663 108.206 102.984 97.9385 50.1943 84.6514C26.5023 78.6684 10.4799 79.0082 0 81.1786V115.208V151.955V360H382V115.208H381.922Z" fill="url(#paint3_radial)"/>
<path d="M279.821 29.3867C279.067 25.4497 278.037 21.5674 276.738 17.7749C275.53 14.2504 274.057 10.7586 271.699 7.87351C270.839 6.82376 269.86 5.86355 268.721 5.14097C267.566 4.41491 266.248 3.94226 264.886 3.9313C263.365 3.92672 261.879 4.48357 260.648 5.37811C259.46 6.2323 258.513 7.37954 257.757 8.63509C257.001 9.89064 256.461 11.2518 255.991 12.6366C254.484 17.1912 253.913 22.0019 253.824 26.8031C253.708 32.475 254.255 38.144 255.078 43.7584C255.265 45.0483 255.474 46.3514 255.897 47.5858C256.32 48.8202 256.978 49.999 257.943 50.8734C259.22 52.0232 260.955 52.5548 262.662 52.7658C265.483 53.1318 268.344 52.7541 271.148 52.2643C273.446 51.8533 275.815 51.3424 277.692 49.9536C279.212 48.8335 280.315 47.1666 280.853 45.3587C281.622 42.7664 281.264 39.9999 280.894 37.3219C280.533 34.6789 280.172 32.0359 279.821 29.3867Z" fill="url(#paint4_linear)"/>
<path d="M279.296 26.8895C281.323 28.2378 283.15 29.8895 284.714 31.7642C287.339 34.9396 289.162 38.7488 290.124 42.7564C290.727 45.3123 290.984 47.9406 291.184 50.5646C291.231 51.2118 291.282 51.8845 291.048 52.4945C290.941 52.7934 290.761 53.0845 290.51 53.2854C290.266 53.4961 289.94 53.6227 289.62 53.6101C289.415 53.606 289.229 53.5485 289.044 53.4498C288.865 53.3608 288.709 53.2436 288.566 53.1046C288.28 52.8265 288.065 52.4896 287.83 52.165C286.861 50.8185 285.597 49.6879 284.212 48.7704C282.986 47.9543 281.658 47.2977 280.274 46.7857C280.499 46.3307 280.689 45.8434 280.837 45.3553C281.606 42.763 281.248 39.9965 280.878 37.3185C280.517 34.6755 280.163 32.0421 279.812 29.393C279.657 28.5567 279.476 27.7231 279.296 26.8895Z" fill="url(#paint5_linear)"/>
<path d="M264.392 19.8478C264.976 19.7865 265.576 19.7286 266.172 19.6864C269.9 19.3923 273.656 19.4187 277.374 19.7675C278.375 22.9237 279.196 26.1397 279.821 29.3867C280.167 31.985 280.523 34.5772 280.878 37.1694C276.928 38.473 272.841 39.3493 268.714 39.8035C263.998 40.3095 259.231 40.2505 254.533 39.6195C254.033 35.358 253.745 31.069 253.827 26.7873C253.856 25.115 253.955 23.4252 254.124 21.7589C257.48 20.8618 260.929 20.2169 264.392 19.8478Z" fill="#DFE2E7"/>
<path d="M276.753 50.5402C278.025 52.425 279.139 54.4238 280.065 56.4887C280.281 56.9745 280.493 57.4761 280.584 58.0006C280.675 58.5251 280.642 59.0884 280.405 59.5653C280.158 60.0484 279.718 60.3977 279.238 60.6227C278.759 60.8477 278.233 60.9799 277.712 61.0964C274.661 61.7714 271.576 62.2651 268.489 62.651C266.254 62.927 264.004 63.1584 261.749 63.2977C261.213 63.3284 260.677 63.359 260.15 63.2758C259.622 63.1925 259.097 62.9858 258.728 62.5983C258.355 62.2266 258.168 61.7224 258.083 61.2075C258.014 60.696 258.056 60.1678 258.135 59.6561C258.375 58.0799 258.892 56.5567 259.415 55.0431C259.744 54.115 260.091 53.1745 260.435 52.2499C261.159 52.4922 261.91 52.6496 262.665 52.75C265.487 53.116 268.354 52.7479 271.151 52.2485C273.074 51.9284 275.056 51.489 276.753 50.5402Z" fill="#DFE2E7"/>
<path d="M253.8 28.865C253.837 33.8429 254.346 38.8175 255.062 43.7548C255.249 45.0448 255.459 46.3479 255.881 47.5823C255.947 47.7705 256.029 47.9622 256.105 48.1443C254.387 48.8486 252.757 49.7955 251.321 50.9838C250.046 52.0422 248.894 53.2932 248.075 54.7249C247.875 55.0694 247.697 55.4271 247.447 55.7358C247.315 55.8885 247.169 56.0218 247.012 56.136C246.848 56.2405 246.657 56.3222 246.46 56.3532C246.136 56.3975 245.808 56.3087 245.536 56.1164C245.271 55.9338 245.063 55.6731 244.914 55.3755C244.621 54.79 244.602 54.1243 244.58 53.4744C244.504 50.8528 244.498 48.2136 244.833 45.6002C245.368 41.5174 246.797 37.541 249.09 34.1107C250.398 32.15 251.994 30.3851 253.8 28.865Z" fill="url(#paint6_linear)"/>
<path d="M272.439 29.3043C272.328 28.1553 271.881 27.0313 271.109 26.1828C270.445 25.4411 269.553 24.9135 268.598 24.6286C267.634 24.3498 266.618 24.3076 265.633 24.4625C264.255 24.6793 262.906 25.2832 261.968 26.3166C261.295 27.0447 260.849 27.98 260.685 28.9526C260.511 29.9313 260.624 30.9568 260.983 31.8795C261.49 33.1821 262.489 34.2789 263.688 34.99C265.129 35.8452 266.909 36.1717 268.503 35.655C269.909 35.2043 271.073 34.1215 271.751 32.8074C272.285 31.7344 272.546 30.5103 272.439 29.3043Z" fill="url(#paint7_linear)"/>
<path d="M270.617 28.3814C270.164 27.3967 269.359 26.5825 268.386 26.1198C267.149 25.541 265.641 25.5557 264.428 26.1813C263.82 26.502 263.298 26.9574 262.901 27.523C262.513 28.0825 262.269 28.7398 262.193 29.4258C262.094 30.2888 262.295 31.1767 262.724 31.9328C263.153 32.6889 263.819 33.3071 264.584 33.6992C265.29 34.0616 266.104 34.2329 266.9 34.1852C267.696 34.1375 268.474 33.8708 269.129 33.4117C269.903 32.863 270.476 32.0632 270.744 31.1465C271.024 30.2491 270.97 29.2533 270.617 28.3814Z" fill="url(#paint8_linear)"/>
<path d="M278.358 60.9412C279.678 62.3073 280.656 63.9867 281.137 65.821C281.429 66.9356 281.552 68.1039 281.53 69.2567C281.516 69.6587 281.502 70.0608 281.44 70.4525C281.429 70.541 281.408 70.6356 281.375 70.711C281.332 70.7925 281.28 70.8802 281.206 70.9136C281.158 70.9443 281.092 70.9462 281.025 70.948C280.968 70.9437 280.905 70.9298 280.846 70.9001C280.732 70.8504 280.652 70.7664 280.555 70.679C279.532 69.6926 278.793 68.4298 277.728 67.4837C277.139 66.9652 276.447 66.5398 275.67 66.4262C275.598 66.4185 275.525 66.4107 275.449 66.4187C275.373 66.4267 275.299 66.4601 275.254 66.5163C275.221 66.5505 275.211 66.5978 275.201 66.6451C275.19 66.6924 275.195 66.7432 275.21 66.7879C275.231 66.8833 275.28 66.9603 275.32 67.0435C275.619 67.5975 275.807 68.2094 275.979 68.8179C276.484 70.5419 276.941 72.2965 277.043 74.0885C277.193 76.6767 276.569 79.2845 275.363 81.5735C275.132 82.0188 274.861 82.4633 274.53 82.837C274.219 83.2396 273.801 83.5608 273.325 83.7289C272.78 83.9146 272.179 83.9059 271.624 83.7588C270.442 83.4567 269.47 82.6139 268.622 81.7323C267.417 80.4825 266.326 79.0924 265.555 77.5248C264.796 75.9765 264.341 74.2472 264.396 72.5312C264.438 71.3661 264.711 70.2024 264.897 69.0529C264.919 68.9171 264.944 68.7655 264.931 68.6385C264.921 68.4958 264.87 68.3522 264.767 68.2551C264.693 68.1808 264.586 68.1407 264.488 68.1356C264.383 68.1208 264.282 68.1315 264.183 68.1676C263.995 68.2336 263.824 68.3696 263.663 68.4995C263.032 69.0383 262.419 69.6061 261.897 70.2516C261.475 70.7787 261.119 71.3451 260.828 71.9509C260.68 72.2489 260.554 72.5601 260.333 72.8092C260.223 72.9338 260.085 73.0356 259.932 73.0928C259.785 73.1596 259.607 73.1782 259.443 73.1338C259.264 73.0859 259.101 72.9592 258.993 72.8113C258.885 72.6635 258.8 72.4876 258.724 72.3055C258.371 71.3924 258.216 70.4073 258.178 69.4149C258.115 67.9373 258.308 66.4584 258.744 65.0413C258.95 64.3674 259.216 63.7231 259.529 63.0893C259.721 63.1565 259.923 63.2175 260.122 63.2531C260.649 63.3363 261.185 63.3057 261.721 63.275C263.976 63.1356 266.216 62.9105 268.461 62.6283C271.557 62.2362 274.649 61.7521 277.684 61.0737L278.358 60.9412Z" fill="url(#paint9_linear)"/>
<path d="M257.983 20.8652C257.879 21.6774 257.784 22.4834 257.705 23.2929C257.201 28.8875 257.392 34.5939 258.932 39.9942C258.929 40.01 258.941 40.0292 258.947 40.0389C257.47 39.9528 255.987 39.8158 254.524 39.6255C254.416 38.6507 254.308 37.676 254.219 36.6889C254.201 36.5112 254.188 36.343 254.175 36.1748C254.001 34.2262 253.886 32.266 253.829 30.3101C253.83 30.12 253.824 29.9203 253.815 29.7364C253.799 28.7571 253.789 27.7875 253.814 26.809C253.829 26.0268 253.86 25.248 253.907 24.4727C253.913 24.3335 253.925 24.2038 253.937 24.0741C253.98 23.3146 254.048 22.5525 254.123 21.7999C254.117 21.7903 254.126 21.7841 254.126 21.7841C255.397 21.4195 256.686 21.1248 257.983 20.8652Z" fill="#CFD3DB"/>
<path d="M279.821 29.3865C279.067 25.4495 278.036 21.5672 276.738 17.7748C275.529 14.2502 274.051 10.7488 271.699 7.87333C270.839 6.82358 269.86 5.86336 268.72 5.14078C267.566 4.41472 266.247 3.94207 264.886 3.93111C263.365 3.92653 261.878 4.48338 260.648 5.37793C259.46 6.23211 258.512 7.37935 257.757 8.6349C257.01 9.88431 256.461 11.2516 255.991 12.6364C254.484 17.191 253.913 22.0017 253.824 26.8029C253.708 32.4748 254.255 38.1438 255.078 43.7582C255.265 45.0481 255.474 46.3512 255.897 47.5856C256.32 48.82 256.978 49.9988 257.953 50.8671C259.23 52.0169 260.965 52.5484 262.671 52.7594C265.493 53.1254 268.354 52.7477 271.157 52.258C273.461 51.8566 275.825 51.336 277.702 49.9473C279.221 48.8272 280.324 47.1603 280.863 45.3523C281.632 42.7601 281.273 39.9936 280.904 37.3155C280.533 34.6787 280.172 32.0357 279.821 29.3865Z" stroke="black" stroke-width="0.9295"/>
<path d="M253.8 28.865C253.837 33.8429 254.346 38.8175 255.062 43.7548C255.249 45.0448 255.459 46.3479 255.881 47.5823C255.947 47.7705 256.029 47.9622 256.105 48.1443C254.387 48.8486 252.757 49.7955 251.321 50.9838C250.046 52.0422 248.898 53.2774 248.075 54.7249C247.875 55.0694 247.697 55.4271 247.447 55.7358C247.315 55.8885 247.169 56.0218 247.002 56.1421C246.839 56.2466 246.647 56.3284 246.45 56.3593C246.126 56.4037 245.799 56.3148 245.527 56.1226C245.261 55.9399 245.054 55.6792 244.904 55.3816C244.611 54.7961 244.593 54.1304 244.57 53.4805C244.494 50.859 244.488 48.2198 244.823 45.6063C245.358 41.5236 246.787 37.5472 249.08 34.1168C250.398 32.15 251.994 30.3851 253.8 28.865Z" stroke="black" stroke-width="0.9295"/>
<path d="M279.296 26.8891C281.323 28.2375 283.15 29.8892 284.714 31.7638C287.348 34.9331 289.163 38.7485 290.124 42.7561C290.728 45.312 290.984 47.9403 291.184 50.5643C291.231 51.2115 291.272 51.8903 291.048 52.4942C290.932 52.7992 290.761 53.0841 290.51 53.2851C290.266 53.4957 289.94 53.6224 289.62 53.6098C289.415 53.6057 289.229 53.5482 289.044 53.4495C288.865 53.3604 288.709 53.2433 288.566 53.1043C288.28 52.8262 288.065 52.4893 287.83 52.1647C286.861 50.8182 285.597 49.6876 284.212 48.7701C282.986 47.9539 281.658 47.2973 280.275 46.7854C280.499 46.3304 280.689 45.8431 280.837 45.3549C281.606 42.7627 281.248 39.9962 280.878 37.3182C280.518 34.6752 280.163 32.0418 279.812 29.3926C279.657 28.5564 279.476 27.7227 279.296 26.8891Z" stroke="black" stroke-width="0.9295"/>
<path d="M265.124 25.9133C264.611 26.2549 264.165 26.7023 263.851 27.2284C263.372 28.049 263.211 29.047 263.386 29.9787C263.585 30.9901 264.175 31.9142 264.98 32.5795C265.718 33.2054 266.635 33.6227 267.586 33.7745C267.842 33.8143 268.11 33.8323 268.367 33.831C267.91 34.028 267.42 34.1514 266.916 34.189C266.12 34.2367 265.315 34.0593 264.6 33.703C263.825 33.3171 263.163 32.6831 262.724 31.9331C262.295 31.177 262.103 30.283 262.202 29.42C262.269 28.7402 262.529 28.0863 262.911 27.5172C263.298 26.9577 263.83 26.4961 264.438 26.1755C264.652 26.0656 264.885 25.9847 265.124 25.9133Z" fill="#B8BECA"/>
<path d="M264.313 24.7914C263.724 25.2487 263.191 25.7926 262.767 26.4021C262.148 27.2991 261.726 28.3553 261.619 29.4399C261.503 30.5306 261.709 31.6594 262.252 32.6142C262.913 33.7772 264.031 34.6356 265.279 35.1259C266.313 35.5359 267.444 35.6944 268.561 35.6182C268.535 35.6208 268.516 35.6331 268.487 35.6516C266.903 36.1622 265.113 35.8418 263.673 34.9866C262.473 34.2755 261.474 33.1786 260.967 31.876C260.608 30.9534 260.495 29.9278 260.669 28.9491C260.843 27.9704 261.295 27.0447 261.952 26.3131C262.596 25.6035 263.416 25.1064 264.313 24.7914Z" fill="url(#paint10_linear)"/>
<path d="M260.426 52.256C261.149 52.4983 261.9 52.6557 262.655 52.7561C262.817 52.7751 262.987 52.7879 263.149 52.8069C262.656 54.3687 262.525 56.0515 262.833 57.6575C262.945 58.2775 263.129 58.9053 263.522 59.4135C263.831 59.8125 264.249 60.128 264.708 60.3366C265.172 60.5549 265.664 60.6881 266.166 60.774C267.798 61.0596 269.476 60.9089 271.13 60.7608C274.166 60.488 277.204 60.1739 280.238 59.8344C279.982 60.1747 279.625 60.4433 279.244 60.6322C278.765 60.8573 278.24 60.9895 277.718 61.1059C274.667 61.7809 271.582 62.2746 268.496 62.6606C266.26 62.9366 264.004 63.1583 261.755 63.3073C261.219 63.3379 260.683 63.3686 260.156 63.2853C259.629 63.2021 259.113 62.9892 258.734 62.6079C258.361 62.2362 258.168 61.7223 258.099 61.2109C258.03 60.6994 258.071 60.1712 258.151 59.6595C258.39 58.0833 258.898 56.5663 259.437 55.0562C259.744 54.1149 260.081 53.1806 260.426 52.256Z" fill="#CFD3DB"/>
<path d="M276.753 50.5399C278.025 52.4246 279.139 54.4235 280.071 56.498C280.287 56.9838 280.499 57.4853 280.59 58.0099C280.682 58.5344 280.649 59.0977 280.411 59.5746C280.164 60.0576 279.724 60.407 279.244 60.632C278.765 60.857 278.24 60.9892 277.718 61.1057C274.667 61.7806 271.582 62.2743 268.496 62.6603C266.26 62.9363 264.01 63.1676 261.755 63.307C261.219 63.3376 260.683 63.3683 260.156 63.285C259.628 63.2018 259.103 62.995 258.734 62.6076C258.371 62.2298 258.174 61.7317 258.089 61.2168C258.02 60.7053 258.062 60.1771 258.141 59.6654C258.381 58.0892 258.888 56.5721 259.421 55.0524C259.75 54.1243 260.097 53.1838 260.441 52.2592C261.165 52.5015 261.916 52.6589 262.671 52.7593C265.493 53.1253 268.36 52.7572 271.157 52.2578C273.074 51.928 275.056 51.4886 276.753 50.5399Z" stroke="black" stroke-width="0.9295"/>
<path d="M259.542 63.1082C259.733 63.1754 259.935 63.2364 260.134 63.272C260.301 63.3006 260.472 63.3135 260.637 63.3167C260.121 64.7576 259.766 66.2586 259.597 67.776C259.564 68.0415 259.546 68.3104 259.623 68.5591C259.662 68.6834 259.736 68.7989 259.832 68.8863C259.929 68.9738 260.064 69.0366 260.187 69.039C260.295 69.038 260.41 69.0054 260.518 68.9632C260.921 68.7874 261.237 68.4768 261.516 68.1496C261.795 67.8224 262.039 67.4629 262.318 67.1357C262.703 66.6998 263.173 66.332 263.724 66.1559C264.002 66.06 264.284 66.0149 264.585 66.0398C264.879 66.0551 265.166 66.1431 265.413 66.2969C265.742 66.4935 265.989 66.7961 266.17 67.1418C266.344 67.4779 266.45 67.857 266.526 68.2292C266.802 69.6381 266.67 71.1055 267.001 72.4934C267.449 74.3619 268.699 75.9357 270.012 77.3334C270.648 78.0112 271.323 78.6644 272.092 79.1897C273.205 79.9561 274.53 80.3972 275.874 80.5282C275.727 80.8928 275.549 81.2505 275.365 81.5985C275.135 82.0439 274.873 82.4822 274.533 82.8621C274.219 83.2392 273.801 83.5605 273.325 83.7285C272.78 83.9142 272.178 83.9056 271.624 83.7584C270.436 83.4467 269.47 82.6135 268.622 81.7319C267.417 80.4821 266.326 79.092 265.554 77.5244C264.786 75.9823 264.341 74.2469 264.396 72.5308C264.438 71.3658 264.71 70.2021 264.897 69.0525C264.919 68.9167 264.944 68.7652 264.931 68.6382C264.921 68.4954 264.87 68.3518 264.767 68.2548C264.683 68.1866 264.586 68.1403 264.487 68.1352C264.389 68.1301 264.288 68.1408 264.183 68.1672C263.985 68.2394 263.824 68.3693 263.663 68.4992C263.032 69.038 262.419 69.6057 261.897 70.2512C261.475 70.7784 261.119 71.3448 260.828 71.9505C260.68 72.2486 260.554 72.5597 260.333 72.8089C260.223 72.9334 260.085 73.0352 259.938 73.102C259.785 73.1592 259.613 73.1875 259.449 73.1431C259.27 73.0952 259.108 72.9685 259 72.8206C258.892 72.6728 258.806 72.4968 258.746 72.3182C258.393 71.4052 258.238 70.42 258.191 69.4338C258.127 67.9562 258.32 66.4773 258.756 65.0602C258.963 64.3863 259.228 63.742 259.542 63.1082Z" fill="url(#paint11_linear)"/>
<path d="M278.358 60.9412C279.678 62.3073 280.656 63.9867 281.137 65.821C281.429 66.9356 281.552 68.1039 281.53 69.2567C281.516 69.6587 281.502 70.0608 281.44 70.4525C281.429 70.541 281.408 70.6356 281.375 70.711C281.332 70.7925 281.28 70.8802 281.206 70.9136C281.158 70.9443 281.092 70.9462 281.025 70.948C280.968 70.9437 280.905 70.9298 280.846 70.9001C280.732 70.8504 280.652 70.7664 280.555 70.679C279.532 69.6926 278.793 68.4298 277.728 67.4837C277.139 66.9652 276.447 66.5398 275.67 66.4262C275.598 66.4185 275.525 66.4107 275.449 66.4187C275.373 66.4267 275.299 66.4601 275.254 66.5163C275.221 66.5505 275.211 66.5978 275.201 66.6451C275.19 66.6924 275.195 66.7432 275.21 66.7879C275.231 66.8833 275.28 66.9603 275.32 67.0435C275.619 67.5975 275.807 68.2094 275.979 68.8179C276.484 70.5419 276.941 72.2965 277.043 74.0885C277.193 76.6767 276.569 79.2845 275.363 81.5735C275.132 82.0188 274.861 82.4633 274.53 82.837C274.219 83.2396 273.801 83.5608 273.325 83.7289C272.78 83.9146 272.179 83.9059 271.624 83.7588C270.442 83.4567 269.47 82.6139 268.622 81.7323C267.417 80.4825 266.326 79.0924 265.561 77.5344C264.802 75.9861 264.347 74.2568 264.403 72.5408C264.438 71.3661 264.717 70.212 264.904 69.0625C264.925 68.9267 264.95 68.7751 264.937 68.6481C264.927 68.5054 264.876 68.3618 264.773 68.2647C264.699 68.1904 264.592 68.1503 264.494 68.1452C264.389 68.1305 264.288 68.1411 264.189 68.1772C264.001 68.2432 263.83 68.3792 263.669 68.5091C263.038 69.048 262.425 69.6157 261.903 70.2612C261.481 70.7883 261.125 71.3547 260.834 71.9605C260.686 72.2585 260.56 72.5697 260.34 72.8188C260.229 72.9434 260.091 73.0452 259.938 73.1024C259.785 73.1596 259.613 73.1879 259.45 73.1435C259.27 73.0956 259.108 72.9688 259 72.821C258.885 72.6635 258.806 72.4972 258.74 72.309C258.387 71.3959 258.232 70.4107 258.184 69.4245C258.121 67.9469 258.314 66.468 258.75 65.0509C258.956 64.377 259.222 63.7328 259.535 63.0989C259.734 63.1757 259.929 63.2271 260.128 63.2627C260.655 63.3459 261.191 63.3153 261.727 63.2846C263.982 63.1453 266.223 62.9201 268.467 62.6379C271.563 62.2458 274.655 61.7617 277.69 61.0833L278.358 60.9412Z" stroke="black" stroke-width="0.9295"/>
<path d="M282.453 32.0425C283.311 32.7278 284.068 33.5316 284.697 34.4311C285.357 35.3787 285.872 36.4185 286.209 37.5181" stroke="white" stroke-width="1.4407" stroke-linecap="round" stroke-linejoin="round"/>
<defs>
<linearGradient id="paint0_linear" x1="329.874" y1="50.6384" x2="344.535" y2="68.5422" gradientUnits="userSpaceOnUse">
<stop stop-color="#661FD1" stop-opacity="0"/>
<stop offset="1" stop-color="#661FD1"/>
</linearGradient>
<linearGradient id="paint1_linear" x1="216.28" y1="52.1775" x2="228.397" y2="67.0036" gradientUnits="userSpaceOnUse">
<stop stop-color="#B4FF8C"/>
<stop offset="0.39" stop-color="#B4EAAC"/>
<stop offset="1" stop-color="#B3C4E5"/>
</linearGradient>
<linearGradient id="paint2_linear" x1="217.99" y1="54.2712" x2="226.546" y2="64.7406" gradientUnits="userSpaceOnUse">
<stop stop-color="#0058D3" stop-opacity="0"/>
<stop offset="0.12" stop-color="#0058D3" stop-opacity="0.16"/>
<stop offset="0.35" stop-color="#0058D3" stop-opacity="0.46"/>
<stop offset="0.56" stop-color="#0058D3" stop-opacity="0.69"/>
<stop offset="0.75" stop-color="#0058D3" stop-opacity="0.86"/>
<stop offset="0.9" stop-color="#0058D3" stop-opacity="0.96"/>
<stop offset="1" stop-color="#0058D3"/>
</linearGradient>
<radialGradient id="paint3_radial" cx="0" cy="0" r="1" gradientUnits="userSpaceOnUse" gradientTransform="translate(250.466 332.372) scale(351.096 339.547)">
<stop stop-color="#4A289C"/>
<stop offset="0.963" stop-color="#00092B"/>
</radialGradient>
<linearGradient id="paint4_linear" x1="279.299" y1="26.2101" x2="252.895" y2="30.5303" gradientUnits="userSpaceOnUse">
<stop stop-color="#C57BFF"/>
<stop offset="1" stop-color="#454BCB"/>
</linearGradient>
<linearGradient id="paint5_linear" x1="289.649" y1="39.4178" x2="279.35" y2="41.103" gradientUnits="userSpaceOnUse">
<stop offset="0.2759" stop-color="#7556BA"/>
<stop offset="0.3895" stop-color="#7C5FBE"/>
<stop offset="0.5743" stop-color="#9077C8"/>
<stop offset="0.7825" stop-color="#AC9AD6"/>
</linearGradient>
<linearGradient id="paint6_linear" x1="255.896" y1="41.6583" x2="242.896" y2="43.7853" gradientUnits="userSpaceOnUse">
<stop offset="0.2759" stop-color="#7556BA"/>
<stop offset="0.3895" stop-color="#7C5FBE"/>
<stop offset="0.5743" stop-color="#9077C8"/>
<stop offset="0.7825" stop-color="#AC9AD6"/>
</linearGradient>
<linearGradient id="paint7_linear" x1="272.43" y1="29.1948" x2="260.718" y2="31.1111" gradientUnits="userSpaceOnUse">
<stop offset="0.2759" stop-color="#7556BA"/>
<stop offset="0.3895" stop-color="#7C5FBE"/>
<stop offset="0.5743" stop-color="#9077C8"/>
<stop offset="0.7825" stop-color="#AC9AD6"/>
</linearGradient>
<linearGradient id="paint8_linear" x1="270.864" y1="29.2426" x2="262.257" y2="30.6509" gradientUnits="userSpaceOnUse">
<stop offset="0.1525" stop-color="#7FCDEE"/>
<stop offset="0.236" stop-color="#88D0EF"/>
<stop offset="0.372" stop-color="#A0DAF2"/>
<stop offset="0.5426" stop-color="#C7E9F7"/>
<stop offset="0.5915" stop-color="#D4EEF9"/>
</linearGradient>
<linearGradient id="paint9_linear" x1="282.018" y1="70.8908" x2="258.964" y2="74.6627" gradientUnits="userSpaceOnUse">
<stop offset="0.4377" stop-color="#F7931E"/>
<stop offset="0.5098" stop-color="#F89C27"/>
<stop offset="0.6095" stop-color="#FBB03B"/>
</linearGradient>
<linearGradient id="paint10_linear" x1="267.636" y1="30.039" x2="260.727" y2="31.1693" gradientUnits="userSpaceOnUse">
<stop offset="0.2759" stop-color="#7556BA"/>
<stop offset="0.3895" stop-color="#7C5FBE"/>
<stop offset="0.5743" stop-color="#9077C8"/>
<stop offset="0.7825" stop-color="#AC9AD6"/>
</linearGradient>
<linearGradient id="paint11_linear" x1="274.504" y1="72.1174" x2="258.963" y2="74.66" gradientUnits="userSpaceOnUse">
<stop offset="0.4377" stop-color="#F7931E"/>
<stop offset="0.5098" stop-color="#F89C27"/>
<stop offset="0.6095" stop-color="#FBB03B"/>
</linearGradient>
</defs>
</svg>
