<svg width="1440" height="585" viewBox="0 0 1440 585" fill="none" xmlns="http://www.w3.org/2000/svg">
<path d="M1439.7 97.9137V9.62232C1280.69 7.03104 1270.33 25.6207 1220.07 37.1125C1169.14 48.7545 1116.28 48.9422 1083.71 39.6286C1051.14 30.315 1049.43 10.4861 1049.43 10.4861C1049.43 10.4861 1014.27 -17.8678 991.176 18.673C968.079 55.2139 909.45 49.3553 778.645 37.1125C647.84 24.8696 580.401 69.2594 491.791 76.6202C403.181 83.9809 381.639 63.5511 181.397 37.1125C91.5284 25.2076 30.7524 25.8836 -9 30.2024V97.9137V171.033V585H1440V97.9137H1439.7Z" fill="url(#paint0_radial)"/>
<defs>
<radialGradient id="paint0_radial" cx="0" cy="0" r="1" gradientUnits="userSpaceOnUse" gradientTransform="translate(941.065 530.027) scale(1331.77 675.628)">
<stop stop-color="#4A289C"/>
<stop offset="0.963" stop-color="#00092B"/>
</radialGradient>
</defs>
</svg>
