<svg width="30" height="30" viewBox="0 0 30 30" fill="none" xmlns="http://www.w3.org/2000/svg">
<path d="M15 0C6.70051 0 0 6.70051 0 15C0 23.2995 6.70051 30 15 30C23.2995 30 30 23.2995 30 15C30 6.70051 23.2995 0 15 0ZM22.7665 20.7868C22.7665 21.3198 22.5381 21.7766 22.1574 22.0812C21.7766 22.3858 21.2437 22.6142 20.7868 22.5381C19.0355 22.3858 17.3604 21.9289 15.8376 21.1675C14.3147 20.4061 12.9442 19.4924 11.7259 18.2741C10.5076 17.0558 9.51777 15.6853 8.83249 14.1624C8.07107 12.5635 7.61421 10.8883 7.46193 9.2132C7.46193 9.13706 7.46193 9.13705 7.46193 9.06091C7.46193 8.60406 7.61421 8.14721 7.91878 7.84264C8.22335 7.46193 8.75634 7.2335 9.2132 7.2335H11.6497C12.5635 7.2335 13.3249 7.91878 13.401 8.83249C13.4772 9.36548 13.5533 9.89848 13.7056 10.4315C13.934 11.0406 13.7056 11.7259 13.2487 12.2589L12.2589 13.2487C13.2487 15.1523 14.8477 16.6751 16.7513 17.7411L17.7411 16.7513C18.198 16.2944 18.8832 16.1421 19.5685 16.2944C20.1015 16.4467 20.6345 16.5228 21.1675 16.599C22.0812 16.6751 22.7665 17.4365 22.7665 18.3503V20.7868Z" fill="white"/>
</svg>
