<svg width="30" height="30" viewBox="0 0 30 30" fill="none" xmlns="http://www.w3.org/2000/svg">
<path d="M15 0C6.70051 0 0 6.70051 0 15C0 23.2995 6.70051 30 15 30C23.2995 30 30 23.2995 30 15C30 6.70051 23.2995 0 15 0ZM11.8782 7.46193C12.7157 6.62437 13.7817 6.16751 15 6.16751C16.2183 6.16751 17.2843 6.62437 18.1218 7.46193C18.9594 8.29949 19.4162 9.36548 19.4162 10.5838C19.4162 11.802 18.9594 12.868 18.1218 13.7056C17.2843 14.5431 16.2183 15 15 15C13.7817 15 12.7157 14.5431 11.8782 13.7056C11.0406 12.868 10.5838 11.802 10.5838 10.5838C10.5838 9.36548 11.0406 8.37563 11.8782 7.46193ZM21.8528 23.6802C21.2437 24.2132 20.4822 24.5178 19.4924 24.5178H10.736C9.74619 24.5178 8.98477 24.2132 8.37563 23.6802C7.7665 23.1472 7.46193 22.3096 7.46193 21.3959C7.46193 21.0152 7.46193 20.6345 7.46193 20.3299C7.46193 19.9492 7.53807 19.5685 7.61421 19.1878C7.69035 18.8071 7.7665 18.3503 7.91878 18.0457C8.07106 17.665 8.22335 17.2843 8.37563 16.9797C8.60406 16.599 8.83249 16.2944 9.06091 16.066C9.36548 15.7614 9.67005 15.6091 10.1269 15.3807C10.5076 15.2284 10.9645 15.1523 11.4213 15.1523C11.5736 15.1523 11.802 15.2284 12.1066 15.4569C12.335 15.6091 12.5635 15.7614 12.868 15.9137C13.0964 16.066 13.401 16.2183 13.8579 16.3706C14.2386 16.5228 14.6193 16.599 15.0761 16.599C15.4569 16.599 15.8376 16.5228 16.2944 16.3706C16.6751 16.2183 17.0558 16.066 17.2843 15.9137C17.5888 15.7614 17.8173 15.6091 18.0457 15.4569C18.4264 15.2284 18.5787 15.1523 18.731 15.1523C19.1878 15.1523 19.6447 15.2284 20.0254 15.3807C20.4061 15.533 20.7868 15.7614 21.0914 16.066C21.3959 16.2944 21.6244 16.6751 21.7766 16.9797C22.0051 17.3604 22.1574 17.665 22.2335 18.0457C22.3858 18.4264 22.4619 18.8071 22.5381 19.1878C22.6142 19.5685 22.6904 20.0254 22.6904 20.3299C22.6904 20.7107 22.6904 21.0152 22.6904 21.3959C22.7665 22.3096 22.4619 23.0711 21.8528 23.6802Z" fill="white"/>
</svg>
