<svg width="30" height="30" viewBox="0 0 30 30" fill="none" xmlns="http://www.w3.org/2000/svg">
<path fill-rule="evenodd" clip-rule="evenodd" d="M15 0C6.73317 0 0 6.73317 0 15C0 23.3042 6.73317 30 15 30C23.3042 30 30 23.2668 30 15C30 6.73317 23.3042 0 15 0ZM19.414 8.56608C19.414 8.71571 19.3017 8.79052 19.1895 8.79052H17.2818C16.7955 8.79052 16.4214 9.16459 16.4214 9.65087V11.6334H19.1147C19.2643 11.6334 19.3766 11.7456 19.3392 11.8953L19.1147 14.7007C19.1147 14.813 19.0025 14.9252 18.8903 14.9252H16.4214V24.2768C16.4214 24.4264 16.3092 24.5012 16.197 24.5012H12.793C12.6434 24.5012 12.5686 24.389 12.5686 24.2768V15.0748V14.9252H10.8479C10.6983 14.9252 10.6234 14.813 10.6234 14.7007V11.8953C10.6234 11.7456 10.7357 11.6708 10.8479 11.6708H12.5686V8.94015C12.5686 7.03242 14.1022 5.49875 16.01 5.49875H19.2269C19.3766 5.49875 19.4514 5.61097 19.4514 5.72319V8.56608H19.414Z" fill="white"/>
</svg>
