<svg width="30" height="30" viewBox="0 0 30 30" fill="none" xmlns="http://www.w3.org/2000/svg">
<path d="M15.1523 11.1924C13.7056 11.1924 12.5635 12.3345 12.5635 13.7812C12.5635 15.2279 13.7056 16.37 15.1523 16.37C16.599 16.37 17.7411 15.2279 17.7411 13.7812C17.7411 12.3345 16.599 11.1924 15.1523 11.1924Z" fill="white"/>
<path d="M15 0C6.70051 0 0 6.70051 0 15C0 23.2995 6.70051 30 15 30C23.2995 30 30 23.2995 30 15C30 6.70051 23.2995 0 15 0ZM18.5787 21.3198C17.0558 23.0711 15.533 24.0609 15.4569 24.1371C15.3807 24.2132 15.2284 24.2132 15.1523 24.2132C15.0761 24.2132 14.9239 24.2132 14.8477 24.1371C14.7716 24.0609 13.2487 23.0711 11.7259 21.3198C9.67005 18.9594 8.60406 16.3706 8.60406 13.7817C8.60406 10.203 11.5736 7.2335 15.1523 7.2335C18.731 7.2335 21.7005 10.203 21.7005 13.7817C21.7005 16.3706 20.6345 18.9594 18.5787 21.3198Z" fill="white"/>
</svg>
