<svg width="122" height="147" viewBox="0 0 122 147" fill="none" xmlns="http://www.w3.org/2000/svg">
<g clip-path="url(#clip0)">
<path d="M60.972 103.317C40.704 103.317 23.5154 116.845 17.0207 135.727C30.0661 142.885 45.0152 147 60.972 147C76.9289 147 91.8779 142.942 104.923 135.727C98.4846 116.845 81.24 103.317 60.972 103.317Z" fill="white"/>
<path d="M60.972 98.7515C44.4553 98.7515 30.458 116.225 26.0909 140.067C36.8408 144.52 48.6544 147 60.972 147C73.2896 147 85.1033 144.52 95.8532 140.067C91.486 116.168 77.5448 98.7515 60.972 98.7515Z" fill="#EEEFF1"/>
<path d="M60.972 112.166C73.8973 112.166 84.3754 108.129 84.3754 103.148C84.3754 98.1673 73.8973 94.1296 60.972 94.1296C48.0467 94.1296 37.5686 98.1673 37.5686 103.148C37.5686 108.129 48.0467 112.166 60.972 112.166Z" fill="#D1D3D4"/>
<path d="M12.0936 7.94748H8.34235V51.3486H12.0936V7.94748Z" fill="#EEEFF1"/>
<path d="M113.658 7.94748H109.906V51.3486H113.658V7.94748Z" fill="#EEEFF1"/>
<path d="M15.061 75.5855C23.379 75.5855 30.1221 68.7971 30.1221 60.4233C30.1221 52.0494 23.379 45.2611 15.061 45.2611C6.74306 45.2611 0 52.0494 0 60.4233C0 68.7971 6.74306 75.5855 15.061 75.5855Z" fill="#D1D3D4"/>
<path d="M109.317 75.3903C117.531 74.0697 123.127 66.2957 121.815 58.0265C120.503 49.7574 112.781 44.1244 104.567 45.445C96.3529 46.7655 90.7575 54.5395 92.0692 62.8087C93.381 71.0779 101.103 76.7108 109.317 75.3903Z" fill="#D1D3D4"/>
<path d="M60.1322 17.6423C33.0335 18.0932 11.4778 40.9774 11.4778 68.3144V89.564C11.4778 97.1169 17.5246 103.204 25.0271 103.204H96.917C104.419 103.204 110.466 97.1169 110.466 89.564V67.5253C110.466 39.681 87.8467 17.1913 60.1322 17.6423Z" fill="#D1D3D4"/>
<path d="M60.1322 12.344C33.0335 12.7949 11.4778 35.6227 11.4778 62.9598V87.6476C11.4778 93.2841 16.0129 97.8497 21.6118 97.8497H100.332C105.931 97.8497 110.466 93.2841 110.466 87.6476V62.1707C110.466 34.3263 87.8467 11.8367 60.1322 12.344Z" fill="#EEEFF1"/>
<path d="M60.3561 21.4751C39.2483 21.8133 22.5636 39.7937 22.5636 61.2688V80.6584C22.5636 85.1112 26.0909 88.6622 30.458 88.6622H91.654C96.0211 88.6622 99.5484 85.0548 99.5484 80.6584V60.5924C99.4924 38.7791 81.9119 21.0805 60.3561 21.4751Z" fill="#D1D3D4"/>
<path d="M60.3561 24.6879C39.2483 25.0261 22.5636 43.0065 22.5636 64.4816V80.6584C22.5636 85.1112 26.0909 88.6622 30.458 88.6622H91.654C96.0211 88.6622 99.5484 85.0548 99.5484 80.6584V63.8616C99.4924 41.992 81.9119 24.3497 60.3561 24.6879Z" fill="#353849"/>
<path d="M45.1089 57.3093C47.5778 56.7273 49.1106 54.2406 48.5325 51.7551C47.9543 49.2696 45.4842 47.7265 43.0153 48.3085C40.5464 48.8905 39.0136 51.3772 39.5918 53.8627C40.1699 56.3482 42.64 57.8913 45.1089 57.3093Z" fill="#4CEEDF"/>
<path d="M81.9332 55.0946C83.1737 52.8682 82.3864 50.051 80.1749 48.8023C77.9633 47.5535 75.1649 48.3461 73.9245 50.5725C72.6841 52.7989 73.4714 55.616 75.6829 56.8648C77.8945 58.1135 80.6928 57.321 81.9332 55.0946Z" fill="#4CEEDF"/>
<path d="M72.2818 64.4816H49.7182C48.9904 64.4816 48.4305 65.158 48.4865 65.8907C49.1583 72.2036 54.4773 77.1637 60.972 77.1637C67.4667 77.1637 72.7857 72.26 73.4575 65.8907C73.5695 65.1016 73.0096 64.4816 72.2818 64.4816Z" fill="#4CEEDF"/>
<path d="M11.1023 10.636C14.0014 10.1593 15.9677 7.40686 15.4941 4.4883C15.0206 1.56973 12.2865 -0.409777 9.38743 0.0669409C6.48833 0.543659 4.52203 3.29608 4.99557 6.21465C5.46911 9.13321 8.20316 11.1127 11.1023 10.636Z" fill="#D1D3D4"/>
<path d="M116.663 7.43604C117.8 4.70882 116.525 1.57066 113.815 0.426771C111.106 -0.717116 107.989 0.566437 106.853 3.29367C105.717 6.02089 106.992 9.15905 109.701 10.3029C112.41 11.4468 115.527 10.1633 116.663 7.43604Z" fill="#D1D3D4"/>
</g>
<defs>
<clipPath id="clip0">
<rect width="122" height="147" fill="white"/>
</clipPath>
</defs>
</svg>
