<svg width="104" height="147" viewBox="0 0 104 147" fill="none" xmlns="http://www.w3.org/2000/svg">
<g clip-path="url(#clip0)">
<path d="M62.7382 128.461V139.835" stroke="white" stroke-width="19.8643" stroke-miterlimit="10"/>
<path d="M63.2455 131.362C54.6211 131.362 45.9968 129.542 37.8797 125.959C22.4347 119.135 10.5409 106.625 4.39676 90.759C-1.74741 74.8932 -1.4092 57.5489 5.41139 41.9675C12.1756 26.3861 24.5767 14.3872 40.3035 8.18878L42.5583 14.1029C13.303 25.5899 -1.18373 58.9706 10.2027 88.4843C21.6455 117.998 54.6775 132.613 83.9328 121.126L86.1875 127.04C78.7469 129.94 70.968 131.362 63.2455 131.362Z" fill="white"/>
<g opacity="0.4">
<path opacity="0.4" d="M33.4829 11.3164L35.7941 17.2305C37.9361 16.0363 40.1908 14.9559 42.5019 14.046L40.2472 8.1319C37.9361 9.09863 35.6813 10.1222 33.4829 11.3164Z" fill="#7FA2AD"/>
<path opacity="0.4" d="M86.2439 126.983L83.9892 121.069C81.7344 121.979 79.4797 122.661 77.2249 123.287L79.5361 129.201C81.7344 128.575 83.9892 127.836 86.2439 126.983Z" fill="#7FA2AD"/>
</g>
<path d="M37.7106 3.69632L86.6385 130.224" stroke="white" stroke-width="12.955" stroke-miterlimit="10" stroke-linecap="round" stroke-linejoin="round"/>
<path d="M85.6239 142.906C85.6239 145.123 83.8201 146.943 81.6217 146.943H44.2493C42.051 146.943 40.2472 145.123 40.2472 142.906C40.2472 140.688 42.051 138.868 44.2493 138.868H81.6217C83.8201 138.868 85.6239 140.688 85.6239 142.906Z" fill="#D1D3D4"/>
<path d="M81.6217 142.451H44.2493C42.8401 142.451 41.6564 141.768 40.9236 140.631C40.4726 141.257 40.2472 142.053 40.2472 142.906C40.2472 145.123 42.051 146.943 44.2493 146.943H81.6217C83.8201 146.943 85.6239 145.123 85.6239 142.906C85.6239 142.053 85.3984 141.257 84.9474 140.631C84.2146 141.711 82.9745 142.451 81.6217 142.451Z" fill="#EEEFF1"/>
<path d="M60.0889 112.709C84.3274 112.709 103.944 92.9199 103.944 68.4673C103.944 44.0147 84.3274 24.2251 60.0889 24.2251C35.8504 24.2251 16.2342 44.0147 16.2342 68.4673C16.2342 92.863 35.8504 112.709 60.0889 112.709Z" fill="url(#paint0_linear)"/>
<path d="M56.0304 74.0971C39.458 52.6016 17.5306 57.6627 17.5306 57.6627C15.2759 66.5907 15.8959 76.0874 19.2217 84.6174C24.6331 85.641 29.7626 87.4607 34.5539 90.1335C43.6857 95.1946 51.1263 103.042 55.7485 112.539C65.2184 113.506 74.7447 111.288 82.9182 106.34H82.9745C72.1518 97.6967 62.851 82.9683 56.0304 74.0971Z" fill="#19C3ED"/>
<path d="M98.5323 89.7923C105.015 77.9071 105.747 63.7474 100.562 51.2936C87.1458 47.2561 76.1539 48.0522 71.4754 54.535C64.7675 63.9748 73.5046 82.5133 91.4862 99.4596C94.2483 96.5594 96.6721 93.318 98.5323 89.7923Z" fill="#19C3ED"/>
<path d="M81.2271 29.6843C71.0244 24.0545 59.0179 22.6897 47.8006 25.9311C36.6396 29.2863 27.226 36.8495 21.6455 47.1424C21.6455 47.1424 21.6455 47.1992 21.5892 47.1992C26.7187 48.1091 38.2743 49.417 50.8445 47.0286C54.9594 46.2325 59.0179 44.8677 62.9073 43.1617C73.9556 38.2143 84.1019 37.6456 95.3756 42.0812C91.6553 37.0201 86.8076 32.7551 81.2271 29.6843Z" fill="#19C3ED"/>
<path d="M60.0889 112.709C84.3274 112.709 103.944 92.9199 103.944 68.4673C103.944 44.0147 84.3274 24.2251 60.0889 24.2251C35.8504 24.2251 16.2342 44.0147 16.2342 68.4673C16.2342 92.863 35.8504 112.709 60.0889 112.709Z" fill="url(#paint1_linear)"/>
<path d="M52.6483 67.9555C52.5919 69.9458 53.4374 71.9362 54.7903 73.3578C55.8049 74.3814 57.1577 75.1207 58.6233 75.405C60.0325 75.6893 61.5545 75.5187 62.9073 74.8932C64.2602 74.3245 65.3875 73.3009 66.1767 72.0499C66.9659 70.7988 67.3604 69.3203 67.3041 67.8418L52.6483 67.9555Z" fill="black"/>
<path d="M76.3794 66.3632C75.9285 66.3632 75.4775 65.9652 75.4775 65.5102C75.3648 64.5435 75.5339 63.5199 75.9848 62.61C76.4358 61.7002 77.1122 60.9609 77.9577 60.4491C79.3106 59.653 81.058 59.4824 82.5236 60.1079C83.5382 60.506 84.4401 61.3021 85.0038 62.2688C85.5675 63.2356 85.8493 64.3729 85.7366 65.5102C85.7366 65.7377 85.5675 65.9652 85.3984 66.1358C85.2293 66.3064 84.9474 66.3632 84.722 66.3632C84.4965 66.3632 84.271 66.1926 84.1019 66.022C83.9328 65.8514 83.8764 65.5671 83.8764 65.3396C83.9328 64.6572 83.7637 63.918 83.4255 63.2924C83.0873 62.6669 82.4672 62.212 81.8472 61.9276C80.9453 61.5296 79.7615 61.6433 78.916 62.1551C78.3523 62.4963 77.9014 62.9512 77.6195 63.5199C77.3377 64.0886 77.2249 64.7141 77.2813 65.3396C77.3377 65.624 77.2249 65.8514 77.0558 66.0789C76.8867 66.2495 76.6613 66.3632 76.3794 66.3632Z" fill="black"/>
<path d="M35.6249 66.3632C35.174 66.3632 34.723 65.9652 34.723 65.5102C34.6103 64.5435 34.7794 63.5199 35.2303 62.61C35.6813 61.7002 36.3577 60.9609 37.2032 60.4491C38.5561 59.653 40.3035 59.4824 41.7691 60.1079C42.7837 60.506 43.6856 61.3021 44.2493 62.2688C44.813 63.2356 45.0949 64.3729 44.9821 65.5102C44.9821 65.7377 44.813 65.9652 44.6439 66.1358C44.4748 66.3064 44.193 66.3632 43.9675 66.3632C43.742 66.3632 43.5165 66.1926 43.3474 66.022C43.1783 65.8514 43.122 65.5671 43.122 65.3396C43.1783 64.6572 43.0092 63.918 42.671 63.2924C42.3328 62.6669 41.7127 62.212 41.0927 61.9276C40.1908 61.5296 39.007 61.6433 38.1615 62.1551C37.5978 62.4963 37.1469 62.9512 36.865 63.5199C36.5832 64.0886 36.4705 64.7141 36.5268 65.3396C36.5832 65.624 36.4705 65.8514 36.3014 66.0789C36.1322 66.2495 35.9068 66.3632 35.6249 66.3632Z" fill="black"/>
<path d="M41.7127 74.552C41.7127 75.6894 41.0363 76.8267 39.8526 77.6228C38.6688 78.4189 37.0905 78.8739 35.3995 78.8739C33.7084 78.8739 32.1301 78.4189 30.9463 77.6228C29.7626 76.8267 29.0862 75.6894 29.0862 74.552C29.0862 72.1636 31.9046 70.2302 35.3431 70.2302C38.8943 70.2302 41.7127 72.1636 41.7127 74.552Z" fill="#FF8080"/>
<path d="M91.4298 74.552C91.4298 75.6894 90.7534 76.8267 89.5696 77.6228C88.3859 78.4189 86.8076 78.8739 85.1165 78.8739C83.4255 78.8739 81.8472 78.4189 80.6634 77.6228C79.4797 76.8267 78.8033 75.6894 78.8033 74.552C78.8033 72.1636 81.6217 70.2302 85.0602 70.2302C88.6114 70.2302 91.4298 72.1636 91.4298 74.552Z" fill="#FF8080"/>
<path d="M60.1453 70.8557C59.0743 70.8557 58.0033 70.9694 56.9323 71.1969C55.9176 71.4243 54.903 71.8793 54.0011 72.3342C54.2266 72.6754 54.5084 73.0166 54.7903 73.3009C55.8049 74.3245 57.1577 75.0638 58.6233 75.3481C60.0325 75.6325 61.5545 75.4619 62.9073 74.8363C64.1474 74.3245 65.1621 73.4147 65.9512 72.3342C64.1474 71.4812 62.1745 70.9125 60.1453 70.8557Z" fill="#FF8080"/>
</g>
<defs>
<linearGradient id="paint0_linear" x1="38.1737" y1="46.3233" x2="100.79" y2="108.398" gradientUnits="userSpaceOnUse">
<stop stop-color="#B4FF8C"/>
<stop offset="0.39" stop-color="#B4EAAC"/>
<stop offset="1" stop-color="#B3C4E5"/>
</linearGradient>
<linearGradient id="paint1_linear" x1="46.9361" y1="55.1646" x2="91.1542" y2="98.9988" gradientUnits="userSpaceOnUse">
<stop stop-color="#0058D3" stop-opacity="0"/>
<stop offset="0.12" stop-color="#0058D3" stop-opacity="0.16"/>
<stop offset="0.35" stop-color="#0058D3" stop-opacity="0.46"/>
<stop offset="0.56" stop-color="#0058D3" stop-opacity="0.69"/>
<stop offset="0.75" stop-color="#0058D3" stop-opacity="0.86"/>
<stop offset="0.9" stop-color="#0058D3" stop-opacity="0.96"/>
<stop offset="1" stop-color="#0058D3"/>
</linearGradient>
<clipPath id="clip0">
<rect width="104" height="147" fill="white"/>
</clipPath>
</defs>
</svg>
