<svg width="113" height="136" viewBox="0 0 113 136" fill="none" xmlns="http://www.w3.org/2000/svg">
<g clip-path="url(#clip0)">
<path d="M64.098 74.1704H48.9646V103.889H64.098V74.1704Z" fill="#F9AC29"/>
<path d="M64.098 71.7778V90.4148C58.72 91.6741 53.4671 91.0444 48.9646 89.7222V71.7778H64.098Z" fill="#EE9A1F"/>
<path d="M36.8329 63.3407L35.8323 70.3296C29.5789 69.4482 24.0133 66.8667 19.1356 62.7111C13.6325 57.9889 9.06751 51.1259 5.62811 42.3111C4.12728 38.4074 3.06419 34.6296 2.25124 31.2296C0.562811 24.1778 0.187604 18.9519 0.125069 18.637L1.4971e-07 16.8111C-0.0625344 15.7407 0.750415 14.7963 1.87604 14.7963H26.5147V21.9111H9.44272C8.44217 21.9111 7.75429 22.7926 7.87936 23.737C8.00443 24.4926 8.1295 25.2481 8.3171 26.1296C9.56779 32.3 11.9441 40.9889 16.3841 48.4815C20.8865 55.8481 27.3901 62.0185 36.8329 63.3407Z" fill="#F9AC29"/>
<path d="M113 16.2444L112.812 18.5741C112.75 19.0778 111.937 30.2852 107.309 42.2481C103.932 51.063 99.3674 57.9259 93.7393 62.7111C88.9242 66.8667 83.2961 69.4482 77.0426 70.3296L76.042 63.3407C85.5473 61.9556 92.0509 55.7852 96.4283 48.4185C101.681 39.7296 103.995 29.4037 105.058 23.2963C105.183 22.5407 104.62 21.8481 103.87 21.8481H86.4228V14.7963H111.624C112.437 14.7963 113.063 15.4889 113 16.2444Z" fill="#F9AC29"/>
<path d="M26.5147 14.7963H16.4466V21.9111H26.5147V14.7963Z" fill="#F19E22"/>
<path d="M36.8329 63.3407L35.8323 70.3296C29.5789 69.4481 24.0133 66.8667 19.1356 62.7111C18.01 60.0667 17.197 57.2333 16.7593 54.2741C16.5091 52.637 16.3841 50.937 16.3841 49.237V48.4815C20.8866 55.8481 27.3901 62.0185 36.8329 63.3407Z" fill="#F19E22"/>
<path d="M96.4909 14.7963H86.4228V21.9111H96.4909V14.7963Z" fill="#F19E22"/>
<path d="M96.4909 48.4815V49.3C96.4909 54.0222 95.4903 58.6185 93.7393 62.7741C88.9242 66.9296 83.2961 69.5111 77.0426 70.3926L76.042 63.4037C85.6098 62.0185 92.0509 55.8481 96.4909 48.4815Z" fill="#F19E22"/>
<path d="M93.3642 4.65927V49.237C93.3642 59.437 89.2369 68.7556 82.5457 75.4926C75.8545 82.2296 66.6619 86.3852 56.4687 86.3852C52.2789 86.3852 48.2142 85.6926 44.3996 84.3074C31.5174 79.7741 21.762 68.2519 19.886 54.2741C19.6359 52.637 19.5108 50.937 19.5108 49.237V4.65927H93.3642Z" fill="#F7C552"/>
<path d="M98.4294 3.9037V5.47778C98.4294 7.61852 96.6785 9.38148 94.5523 9.38148H18.3852C16.259 9.38148 14.508 7.61852 14.508 5.47778V3.9037C14.508 1.76296 16.259 0 18.3852 0H94.6148C96.741 0 98.4294 1.76296 98.4294 3.9037Z" fill="#F7C552"/>
<path d="M73.6658 39.2889C73.9784 39.037 73.9784 38.5963 73.8534 38.3444C73.8534 38.3444 73.228 37.0852 72.6652 37.5889C72.6027 37.6518 72.5401 37.7148 72.5401 37.8407L62.7222 36.3296C62.4721 36.2667 62.2219 36.1407 62.0969 35.8889L57.4693 26.2555C57.1566 25.6259 56.2811 25.6259 55.9685 26.2555L51.2158 35.8259C51.0908 36.0778 50.8406 36.2667 50.5905 36.2667L40.0847 37.7148C39.3968 37.8407 39.1467 38.6592 39.5844 39.163L47.1511 46.5926C47.3387 46.7815 47.4012 47.0333 47.4012 47.3481L45.6503 57.2333C45.4001 57.2963 45.15 57.4222 45.15 57.6741C45.2125 58.1778 45.7753 58.6815 45.7753 58.6815C46.0255 58.8704 46.3381 58.9963 46.7133 58.8074L56.1561 53.8963C56.4062 53.7704 56.6563 53.7704 56.9065 53.8963L66.2867 58.9333C66.912 59.2481 67.5999 58.7444 67.4748 58.0518L65.7239 47.4741C65.6613 47.2222 65.7864 46.9074 65.974 46.7185L73.6658 39.2889Z" fill="#EDAB33"/>
<path d="M59.658 4.65927C56.7814 27.7667 41.0852 46.7815 19.9485 54.3371C19.6984 52.7 19.5733 51 19.5733 49.3V4.65927H59.658Z" fill="#F9D469"/>
<path d="M65.6613 46.2148C65.4737 46.4037 65.3486 46.6555 65.4112 46.9704L67.1621 57.5481C67.2872 58.2407 66.5368 58.7444 65.974 58.4296L56.5938 53.3926C56.3437 53.2666 56.0935 53.2666 55.8434 53.3926L46.4007 58.3037C45.7753 58.6185 45.0874 58.1148 45.2125 57.4222L46.6508 49.1741L47.026 46.9074C47.0885 46.6555 46.9635 46.3407 46.7759 46.1518L44.8373 44.2629L39.2092 38.6592C38.7089 38.1555 39.0216 37.337 39.7095 37.2111L50.2153 35.7629C50.4654 35.7 50.7155 35.5741 50.8406 35.3222L55.6558 25.6259C55.9685 24.9963 56.8439 24.9963 57.1566 25.6259L59.9081 31.3555L60.2208 32.0481L61.7842 35.2592C61.9092 35.5111 62.1594 35.7 62.4095 35.7L72.9153 37.337C73.6032 37.4629 73.8533 38.2815 73.3531 38.7852L65.6613 46.2148Z" fill="#F7E897"/>
<path d="M19.5733 9.31854V11.1445L93.3641 14.7963V9.31854H19.5733Z" fill="#F7B13D"/>
<path d="M65.9114 0C65.2861 3.21111 64.2856 6.35926 63.0349 9.31852H18.3852C16.259 9.31852 14.508 7.55556 14.508 5.41481V3.9037C14.508 1.76296 16.259 0 18.3852 0H65.9114Z" fill="#F9D469"/>
<path d="M60.2208 32.0481C58.1572 39.3518 53.1544 45.4592 46.6508 49.0481L47.026 46.7815C47.0885 46.5296 46.9635 46.2148 46.7759 46.0259L44.8373 44.137L39.2092 38.5333C38.7089 38.0296 39.0216 37.2111 39.7095 37.0852L50.2153 35.637C50.4654 35.5741 50.7156 35.4481 50.8406 35.1963L55.6558 25.6259C55.9685 24.9963 56.8439 24.9963 57.1566 25.6259L59.9081 31.3555L60.2208 32.0481Z" fill="#F8EDA4"/>
<path d="M71.0393 103.889H41.8982V110.311H71.0393V103.889Z" fill="#F7C552"/>
<path opacity="0.3" d="M71.0393 103.889V110.311H49.1522C61.9092 108.926 67.2872 106.156 69.5385 103.889H71.0393Z" fill="#D89219"/>
<path opacity="0.2" d="M98.4294 3.9037V5.47778C98.4294 7.61852 96.6785 9.38148 94.5523 9.38148H93.3641V49.3C93.3641 59.5 89.2369 68.8185 82.5457 75.5555C75.8545 82.2926 66.6619 86.4481 56.4687 86.4481C52.2789 86.4481 48.2142 85.7555 44.3996 84.3704C79.3564 78.9555 83.6087 33.937 83.2335 9.31852C83.2335 7.68148 83.171 6.10741 83.1085 4.65926C83.0459 2.95926 82.9834 1.38519 82.8583 0H94.4898C96.741 0 98.4294 1.76296 98.4294 3.9037Z" fill="#D89219"/>
<path d="M76.2922 113.207H36.6453L41.8982 110.311H71.0393L76.2922 113.207Z" fill="#5F6678"/>
<path d="M76.2922 131.844H36.6453V113.207H76.2922" fill="#474D5D"/>
<path d="M71.0393 116.293H41.8982V128.759H71.0393V116.293Z" fill="#F7C552"/>
<path d="M69.8595 127.616V117.416H43.0321V127.616H69.8595Z" fill="#F9D469"/>
<path d="M45.0874 118.748C45.0874 119.126 44.7748 119.441 44.3996 119.441C44.0244 119.441 43.7117 119.126 43.7117 118.748C43.7117 118.37 44.0244 118.056 44.3996 118.056C44.7748 118.056 45.0874 118.37 45.0874 118.748Z" fill="#F9AC29"/>
<path d="M69.1632 118.748C69.1632 119.126 68.8506 119.441 68.4754 119.441C68.1002 119.441 67.7875 119.126 67.7875 118.748C67.7875 118.37 68.1002 118.056 68.4754 118.056C68.8506 118.056 69.1632 118.37 69.1632 118.748Z" fill="#F9AC29"/>
<path d="M45.0874 126.367C45.0874 126.744 44.7748 127.059 44.3996 127.059C44.0244 127.059 43.7117 126.744 43.7117 126.367C43.7117 125.989 44.0244 125.674 44.3996 125.674C44.7748 125.674 45.0874 125.989 45.0874 126.367Z" fill="#F9AC29"/>
<path d="M69.1632 126.367C69.1632 126.744 68.8506 127.059 68.4754 127.059C68.1002 127.059 67.7875 126.744 67.7875 126.367C67.7875 125.989 68.1002 125.674 68.4754 125.674C68.8506 125.674 69.1632 125.989 69.1632 126.367Z" fill="#F9AC29"/>
<path d="M79.3564 131.844H33.5811V136H79.3564V131.844Z" fill="#3C434F"/>
</g>
<defs>
<clipPath id="clip0">
<rect width="113" height="136" fill="white"/>
</clipPath>
</defs>
</svg>
