<svg width="53" height="54" viewBox="0 0 53 54" fill="none" xmlns="http://www.w3.org/2000/svg">
<g clip-path="url(#clip0)">
<path fill-rule="evenodd" clip-rule="evenodd" d="M0 53.4875C0 53.7866 0.21668 54.0002 0.520033 54.0002H8.88389C8.92723 54.0002 8.97056 53.9575 8.97056 53.9147V53.1885C8.97056 53.1458 8.92723 53.103 8.88389 53.103H1.17007C1.0834 53.103 0.996729 53.0176 0.996729 52.9321V48.7882C0.996729 48.7027 1.0834 48.6173 1.17007 48.6173H8.36386C8.40719 48.6173 8.45053 48.5745 8.45053 48.5318V47.8056C8.45053 47.7628 8.40719 47.7201 8.36386 47.7201H1.17007C1.0834 47.7201 0.996729 47.6347 0.996729 47.5492V44.0461C0.996729 43.9606 1.0834 43.8752 1.17007 43.8752H8.75388C8.79722 43.8752 8.84056 43.8325 8.84056 43.7897V43.1489C8.84056 43.1062 8.79722 43.0635 8.75388 43.0635H0.520033C0.260016 43.0635 0 43.2771 0 43.5761L0 53.4875Z" fill="white"/>
<path fill-rule="evenodd" clip-rule="evenodd" d="M13.9109 54.0002H22.2748C22.3181 54.0002 22.3614 53.9575 22.3614 53.9147V53.1885C22.3614 53.1458 22.3181 53.103 22.2748 53.103H14.5176C14.4309 53.103 14.3443 53.0176 14.3443 52.9321V43.1489C14.3443 43.1062 14.3009 43.0635 14.2576 43.0635H13.4775C13.4342 43.0635 13.3909 43.1062 13.3909 43.1489V53.4875C13.3909 53.7866 13.6509 54.0002 13.9109 54.0002Z" fill="white"/>
<path fill-rule="evenodd" clip-rule="evenodd" d="M43.6828 49.9841L46.6729 44.2167C46.7163 44.174 46.7596 44.1313 46.803 44.1313C46.8463 44.1313 46.933 44.174 46.933 44.2167L49.9231 49.9841C49.9665 50.0268 49.9665 50.1123 49.9231 50.155C49.8798 50.1977 49.8365 50.2404 49.7931 50.2404H43.8561C43.8128 50.2404 43.7261 50.1977 43.7261 50.155C43.6828 50.1123 43.6828 50.0268 43.6828 49.9841ZM43.2061 51.0949H50.3998C50.4432 51.0949 50.5299 51.1376 50.5299 51.1803L51.9599 53.9572C51.9599 53.9999 52.0033 53.9999 52.0033 53.9999H52.87C52.9133 53.9999 52.9133 53.9999 52.9133 53.9572C52.9133 53.9145 52.9133 53.9145 52.9133 53.8718L47.6697 43.6186C47.6263 43.5759 47.3663 43.106 46.803 43.106C46.2396 43.106 45.9796 43.6186 45.9362 43.6186L40.6059 53.9145C40.6059 53.9572 40.6059 53.9572 40.6059 53.9999C40.6059 54.0427 40.6492 54.0427 40.6492 54.0427H41.516C41.5593 54.0427 41.5593 54.0427 41.5593 53.9999L42.9894 51.223C43.1194 51.1376 43.1627 51.0949 43.2061 51.0949Z" fill="white"/>
<path fill-rule="evenodd" clip-rule="evenodd" d="M35.9256 50.1552C35.7523 49.8989 35.5356 49.6426 35.2756 49.429C35.0156 49.2154 34.7122 49.0445 34.3222 48.8736C33.9755 48.7027 33.5855 48.5746 33.1955 48.4464C32.8054 48.3182 32.3721 48.1901 31.9387 48.0619C31.5054 47.9337 31.1153 47.8483 30.682 47.7201C30.292 47.6347 29.9019 47.5065 29.5552 47.3783C29.2086 47.2502 28.8619 47.122 28.6019 46.9511C28.3418 46.7802 28.1252 46.6094 27.9518 46.4385C27.7785 46.2249 27.7351 46.0113 27.7351 45.7549C27.7351 45.4559 27.8218 45.1568 27.9951 44.9432C28.1685 44.7296 28.3852 44.516 28.7319 44.3878C29.0352 44.2597 29.4252 44.1742 29.9019 44.0888C30.3353 44.0033 30.8553 44.0033 31.3754 44.0033H35.2756C35.2756 44.0033 35.3189 44.0033 35.3189 43.9606V43.9179V43.1489C35.3189 43.1062 35.2756 43.0635 35.2756 43.0635H35.2323H31.3754C30.9853 43.0635 29.8586 43.1062 29.2519 43.2344C28.9052 43.3198 28.6019 43.4052 28.2985 43.5761C27.9951 43.7043 27.7351 43.8752 27.5184 44.0888C27.3018 44.3024 27.1284 44.516 26.9984 44.8151C26.8684 45.0714 26.8251 45.4132 26.8251 45.7549C26.8251 46.0967 26.9117 46.4385 27.0418 46.6948C27.2151 46.9511 27.4318 47.2075 27.6918 47.4211C27.9518 47.6347 28.2552 47.8056 28.6452 47.9765C28.9919 48.1473 29.3819 48.2755 29.7719 48.4037C30.1619 48.5318 30.5953 48.66 31.0287 48.7454C31.462 48.8309 31.8521 48.959 32.2854 49.0872C32.6754 49.2154 33.0655 49.3008 33.4122 49.429C33.7588 49.5571 34.1055 49.6853 34.3655 49.8562C34.6256 50.0271 34.8422 50.198 35.0156 50.4116C35.1889 50.6252 35.2323 50.8815 35.2323 51.1806C35.2323 51.5223 35.1456 51.8214 34.9289 52.0777C34.7556 52.334 34.4522 52.5477 34.1055 52.6758C33.7588 52.8467 33.3255 52.8894 32.8488 52.9749C32.4154 53.0603 31.8954 53.0603 31.2887 53.103H26.9551C26.9117 53.103 26.9117 53.1458 26.9117 53.1885V53.9147C26.9117 53.9575 26.9551 54.0002 26.9551 54.0002H31.2453C31.6354 54.0002 32.0254 54.0002 32.3721 53.9575C32.7621 53.9147 33.1521 53.872 33.4988 53.7866H33.5855C33.9322 53.7011 34.2355 53.6584 34.5389 53.5302C34.8422 53.4021 35.1456 53.1885 35.3623 53.0176C35.6223 52.804 35.7956 52.5477 35.9256 52.2486C36.0557 51.9496 36.1423 51.6078 36.1423 51.2233C36.1857 50.7961 36.099 50.4543 35.9256 50.1552Z" fill="white"/>
<path d="M26.4784 0C25.6983 0 23.9216 0.213608 22.1014 5.68196C16.6844 3.11867 15.5144 4.10127 14.9077 4.69937C14.3443 5.25475 13.2609 6.62183 15.9044 11.7484C10.2707 13.6282 10.1407 15.5506 10.1407 16.0633C10.1407 16.5759 10.3574 18.5411 15.9044 20.3354C13.2609 25.5902 14.5176 27.0427 14.9077 27.4272C15.2543 27.769 16.8144 29.0079 22.0581 26.4446C23.9649 31.9984 25.6983 32.1266 26.4784 32.1266C27.2584 32.1266 29.0352 31.913 30.812 26.4446C36.099 29.0506 37.4857 27.9399 38.0058 27.3845C38.5691 26.8291 39.6525 25.462 37.009 20.3354C42.6427 18.4557 42.7727 16.5332 42.7727 16.0206C42.7727 15.5079 42.5561 13.5427 37.009 11.7484C39.6525 6.49367 38.3958 5.04114 38.0058 4.65665C37.6591 4.31487 36.099 3.07595 30.8553 5.63924C28.9052 0.085443 27.3451 0 26.4784 0ZM16.3811 6.1519C16.5544 5.98101 17.1611 5.21202 21.7114 7.00633C21.7114 7.09177 21.6681 7.17721 21.6247 7.21994C20.9747 9.56962 19.5446 10.6804 17.5078 11.2358C17.4211 11.2785 17.2911 11.2785 17.2045 11.3212C15.341 6.96361 16.1644 6.36551 16.3811 6.1519ZM29.9886 7.60443C30.0319 7.56171 30.0753 7.56171 30.1186 7.51899C30.1619 7.60443 30.1619 7.64715 30.2053 7.73259C31.1587 10.0823 32.6321 11.663 35.0589 12.5174C35.1023 12.5174 35.1456 12.5601 35.1889 12.5601C35.1456 12.6456 35.1456 12.6883 35.1023 12.7737C34.0622 15.0807 33.9755 17.2595 35.1023 19.5237C35.1456 19.5665 35.1456 19.6092 35.1889 19.6519C35.1023 19.6946 35.0589 19.6946 34.9722 19.7373C32.5888 20.5918 30.942 22.1297 30.1186 24.5222C30.1186 24.5649 30.0753 24.6076 30.0753 24.693C29.9886 24.6503 29.9453 24.6503 29.8586 24.6076C27.5184 23.5823 25.3516 23.5396 23.0115 24.6076C22.9682 24.6503 22.9248 24.6503 22.8815 24.693C22.8382 24.6076 22.8382 24.5649 22.7948 24.4794C21.8848 22.1297 20.368 20.549 17.9412 19.6946C17.8978 19.6946 17.8545 19.6519 17.8112 19.6519C17.8545 19.5665 17.8545 19.5237 17.8978 19.4383C18.9379 17.1313 19.0246 14.9525 17.8978 12.6883C17.8545 12.6456 17.8545 12.6028 17.8112 12.5601C17.8978 12.5174 17.9412 12.5174 18.0278 12.4747C20.4113 11.6203 22.0148 10.0823 22.8815 7.68987C22.8815 7.64715 22.9248 7.60443 22.9248 7.56171C23.0115 7.60443 23.0548 7.60443 23.1415 7.64715C25.4817 8.58702 27.6485 8.67247 29.9886 7.60443ZM12.2208 16.106C12.2208 15.807 12.0908 14.8244 16.5978 12.9873C16.6411 13.0728 16.6844 13.1582 16.7278 13.2009C17.9412 15.2943 17.7245 17.0886 16.6844 18.8829C16.6411 18.9684 16.5978 19.0538 16.5544 19.1392C12.0908 17.3877 12.2208 16.3623 12.2208 16.106ZM16.3811 26.0601C16.1644 25.8465 15.341 25.2484 17.2478 20.8054C17.3345 20.8481 17.4211 20.8481 17.5078 20.8908C19.8913 21.5316 21.018 22.9415 21.5814 24.9494C21.6247 25.0348 21.6247 25.1203 21.6681 25.2484C17.2478 27.0427 16.5978 26.231 16.3811 26.0601ZM26.4784 30.1614C26.2184 30.1614 25.265 30.4177 23.3148 25.8465C23.4015 25.8038 23.4449 25.7611 23.5315 25.7184C25.655 24.5222 27.4751 24.7358 29.2952 25.7611C29.3819 25.8038 29.4686 25.8465 29.5552 25.932C27.9085 30.2896 26.7384 30.1614 26.4784 30.1614ZM36.619 26.0601C36.4457 26.231 35.9256 27.0854 31.2887 25.2057C31.332 25.1203 31.332 25.0348 31.3754 24.9494C32.0254 22.5997 33.4555 21.4889 35.4923 20.9335C35.579 20.8908 35.709 20.8908 35.7956 20.8481C37.6591 25.163 36.749 25.8892 36.619 26.0601ZM40.7793 16.106C40.7793 16.4051 40.9093 17.3877 36.4023 19.2247C36.359 19.1392 36.3157 19.0538 36.2723 19.0111C35.0589 16.9177 35.2756 15.1234 36.3157 13.3291C36.359 13.2437 36.4023 13.1582 36.4457 13.0728C40.8659 14.8244 40.7793 15.8497 40.7793 16.106ZM36.619 6.1519C36.8357 6.36551 37.6591 6.96361 35.7523 11.4066C35.6656 11.3639 35.579 11.3639 35.4923 11.3212C33.1088 10.6804 32.0254 9.22785 31.4187 7.26266C31.3754 7.17721 31.3754 7.09177 31.332 7.00633C35.7523 5.1693 36.4023 5.93829 36.619 6.1519ZM29.6419 6.36551C29.5552 6.40823 29.5119 6.45095 29.4252 6.49367C27.3018 7.68987 25.4816 7.43354 23.6615 6.45095C23.5749 6.40823 23.4882 6.36551 23.4015 6.32278C25.1783 1.87975 26.2184 2.05063 26.5217 2.05063C26.7384 2.00791 27.6918 1.87975 29.6419 6.36551Z" fill="url(#paint0_linear)"/>
</g>
<defs>
<linearGradient id="paint0_linear" x1="26.4981" y1="32.188" x2="26.4981" y2="0" gradientUnits="userSpaceOnUse">
<stop stop-color="#007DCD"/>
<stop offset="0.5028" stop-color="#46DF83"/>
<stop offset="1" stop-color="#FFCF71"/>
</linearGradient>
<clipPath id="clip0">
<rect width="53" height="54" fill="white"/>
</clipPath>
</defs>
</svg>
