<svg width="145" height="47" viewBox="0 0 145 47" fill="none" xmlns="http://www.w3.org/2000/svg">
<path fill-rule="evenodd" clip-rule="evenodd" d="M63.2827 30.7368C63.2827 31.1647 63.5972 31.476 63.9902 31.476H76.1751C76.2144 31.476 76.293 31.4371 76.293 31.3593V30.2699C76.293 30.231 76.2537 30.1532 76.1751 30.1532H64.9729C64.855 30.1532 64.737 30.0364 64.737 29.9197V23.928C64.737 23.7724 64.855 23.6945 64.9729 23.6945H75.4283C75.4676 23.6945 75.5462 23.6556 75.5462 23.5778V22.5273C75.5462 22.4884 75.5069 22.4106 75.4283 22.4106H64.9729C64.855 22.4106 64.737 22.2939 64.737 22.1772V17.0803C64.737 16.9247 64.855 16.8469 64.9729 16.8469H76.0179C76.0572 16.8469 76.1358 16.808 76.1358 16.7301V15.6407C76.1358 15.6018 76.0965 15.524 76.0179 15.524H63.9902C63.5972 15.524 63.2827 15.8742 63.2827 16.2633V30.7368Z" fill="white"/>
<path fill-rule="evenodd" clip-rule="evenodd" d="M85.0583 31.5149H97.2038C97.2431 31.5149 97.3218 31.476 97.3218 31.3982V30.3088C97.3218 30.2699 97.2824 30.1921 97.2038 30.1921H85.923C85.8051 30.1921 85.6872 30.0753 85.6872 29.9586V15.6796C85.6872 15.6407 85.6479 15.5629 85.5693 15.5629H84.3901C84.3508 15.5629 84.2722 15.6018 84.2722 15.6796V30.7368C84.3115 31.1647 84.6652 31.5149 85.0583 31.5149Z" fill="white"/>
<path fill-rule="evenodd" clip-rule="evenodd" d="M131.479 25.6399L135.802 17.2359C135.842 17.1581 135.96 17.1192 136.038 17.1192C136.117 17.1192 136.195 17.1581 136.235 17.2359L140.558 25.6399C140.598 25.7177 140.598 25.7955 140.558 25.8734C140.519 25.9512 140.441 25.9901 140.362 25.9901H131.715C131.636 25.9901 131.557 25.9512 131.518 25.8734C131.439 25.7955 131.439 25.7177 131.479 25.6399ZM130.771 27.274H141.266C141.345 27.274 141.423 27.3129 141.462 27.3907L143.546 31.4371C143.546 31.476 143.585 31.476 143.624 31.476H144.882C144.921 31.476 144.961 31.476 144.961 31.4371C144.961 31.3982 145 31.3593 144.961 31.3204L137.257 16.3411C137.217 16.2633 136.824 15.5629 135.999 15.5629C135.174 15.5629 134.78 16.3022 134.741 16.3411L126.998 31.3593C126.998 31.3982 126.998 31.4371 126.998 31.476C126.998 31.5149 127.037 31.5149 127.076 31.5149H128.334C128.374 31.5149 128.413 31.476 128.413 31.476L130.496 27.4296C130.614 27.3129 130.693 27.274 130.771 27.274Z" fill="white"/>
<path fill-rule="evenodd" clip-rule="evenodd" d="M118.665 25.9123C118.429 25.5232 118.115 25.1341 117.722 24.8229C117.329 24.5116 116.857 24.2392 116.346 24.0058C115.835 23.7724 115.245 23.5389 114.695 23.3833C114.105 23.1888 113.516 23.0331 112.887 22.8386C112.258 22.683 111.668 22.5273 111.079 22.3328C110.529 22.1772 109.939 22.0215 109.428 21.827C108.917 21.6325 108.445 21.4379 108.052 21.2045C107.659 20.971 107.345 20.7376 107.148 20.4263C106.912 20.154 106.795 19.8038 106.795 19.4147C106.795 18.9479 106.912 18.5588 107.148 18.2475C107.384 17.8974 107.738 17.625 108.21 17.4305C108.642 17.2359 109.192 17.1192 109.9 17.0025C110.529 16.8858 111.275 16.8469 112.062 16.8469H117.722C117.761 16.8469 117.761 16.8469 117.8 16.808C117.8 16.808 117.84 16.769 117.84 16.7301V15.6407C117.84 15.6018 117.8 15.524 117.761 15.524H117.682H112.022C111.472 15.524 109.821 15.5629 108.917 15.7964C108.445 15.9131 107.974 16.0687 107.541 16.2633C107.109 16.4578 106.716 16.7301 106.401 17.0025C106.087 17.2748 105.812 17.6639 105.655 18.053C105.458 18.4421 105.38 18.909 105.38 19.4537C105.38 19.9984 105.497 20.4652 105.733 20.8543C105.969 21.2434 106.284 21.5936 106.677 21.9048C107.07 22.2161 107.541 22.4884 108.052 22.683C108.563 22.9164 109.114 23.1109 109.703 23.3055C110.293 23.5 110.882 23.6556 111.511 23.8113C112.14 23.9669 112.73 24.1225 113.319 24.2782C113.909 24.4338 114.459 24.6283 114.97 24.784C115.481 24.9785 115.953 25.173 116.346 25.4065C116.739 25.6399 117.053 25.9123 117.25 26.2624C117.486 26.5737 117.604 26.9239 117.604 27.3518C117.604 27.8965 117.486 28.3245 117.171 28.6747C116.896 29.0248 116.503 29.3361 115.992 29.5695C115.481 29.803 114.852 29.9197 114.184 29.9975C113.555 30.0753 112.808 30.1532 111.904 30.1532H105.576C105.537 30.1532 105.497 30.1921 105.497 30.2699V31.3593C105.497 31.3982 105.537 31.476 105.576 31.476H111.826C112.376 31.476 112.926 31.4371 113.477 31.3982C114.027 31.3593 114.577 31.2815 115.127 31.1647L115.245 31.1258C115.717 31.0091 116.189 30.9313 116.621 30.7368C117.093 30.5422 117.486 30.2699 117.84 29.9586C118.193 29.6474 118.468 29.2583 118.665 28.8303C118.861 28.4023 118.979 27.8965 118.979 27.3129C118.979 26.8071 118.901 26.3013 118.665 25.9123Z" fill="white"/>
<path d="M23.7409 0C22.601 0 20.0461 0.311258 17.4126 8.32616C9.55137 4.55215 7.8219 6.03063 6.95717 6.88659C6.13174 7.70364 4.5595 9.68791 8.41149 17.1581C0.235836 19.9205 0 22.7219 0 23.5C0 24.2392 0.314448 27.1184 8.37219 29.7641C4.5595 37.4288 6.36758 39.5687 6.95717 40.1134C7.46815 40.6192 9.7479 42.4478 17.334 38.6738C20.0854 46.7666 22.6403 47 23.7409 47C24.8807 47 27.4356 46.6887 30.0691 38.7127C37.7731 42.5257 39.7777 40.8916 40.5245 40.1134C41.35 39.2964 42.9222 37.3121 39.0702 29.803C47.2459 27.0406 47.4817 24.2781 47.4817 23.4611C47.4817 22.7219 47.1673 19.8427 39.1095 17.197C42.9222 9.53228 41.1141 7.39238 40.5245 6.84768C40.0136 6.34189 37.7338 4.51324 30.1084 8.28725C27.2391 0.155629 24.9593 0 23.7409 0ZM9.04039 8.94868C9.27623 8.71523 10.141 7.58692 16.823 10.2326C16.7837 10.3493 16.7444 10.4661 16.7444 10.5828C15.801 14.0066 13.7178 15.6018 10.7699 16.4578C10.6126 16.4967 10.4947 16.5356 10.3375 16.5745C7.50745 10.1937 8.72594 9.29884 9.04039 8.94868ZM28.8506 11.0886C28.9292 11.0497 28.9686 11.0108 29.0472 11.0108C29.0865 11.1275 29.1258 11.2053 29.1651 11.322C30.5408 14.7459 32.7026 17.0414 36.2402 18.3253C36.3188 18.3642 36.3974 18.3642 36.476 18.4031C36.4367 18.5199 36.3974 18.5977 36.3581 18.7144C34.8252 22.0604 34.7072 25.2508 36.3581 28.5969C36.3974 28.6747 36.4367 28.7525 36.476 28.7914C36.3581 28.8303 36.2795 28.8692 36.1616 28.9081C32.7026 30.1921 30.3443 32.3709 29.0865 35.8725C29.0472 35.9503 29.0472 36.0281 29.0079 36.106C28.8899 36.0671 28.8113 36.0281 28.6934 35.9892C25.3131 34.4719 22.09 34.4329 18.7097 35.9892C18.6311 36.0281 18.5525 36.0671 18.5131 36.0671C18.4738 35.9503 18.4345 35.8725 18.3952 35.7558C17.0588 32.332 14.8577 30.0364 11.3201 28.7525C11.2415 28.7136 11.1629 28.7136 11.0843 28.6747C11.1236 28.5579 11.1629 28.4801 11.2022 28.3634C12.7352 25.0174 12.8138 21.827 11.2022 18.481C11.1629 18.4031 11.1236 18.3253 11.0843 18.2864C11.2022 18.2475 11.2808 18.2086 11.3988 18.1697C14.897 16.8858 17.216 14.668 18.4738 11.2053C18.5131 11.1275 18.5131 11.0497 18.5525 11.0108C18.6704 11.0497 18.749 11.0886 18.8669 11.1275C22.2472 12.5671 25.431 12.6449 28.8506 11.0886ZM2.98726 23.5C2.98726 23.072 2.79073 21.6325 9.39414 18.9478C9.47276 19.0646 9.51206 19.1813 9.59067 19.298C11.3594 22.3717 11.045 24.9785 9.55137 27.6242C9.47276 27.7409 9.43345 27.8576 9.35484 28.0132C2.83003 25.3675 2.98726 23.8891 2.98726 23.5ZM9.04039 38.0513C8.72594 37.7401 7.54676 36.8841 10.2982 30.3477C10.4161 30.3866 10.534 30.4255 10.6912 30.4644C14.1502 31.3982 15.7617 33.4603 16.6265 36.3783C16.6658 36.5339 16.7051 36.6507 16.7444 36.8063C10.2982 39.4909 9.31553 38.3237 9.04039 38.0513ZM23.7409 44.082C23.3871 44.082 21.9721 44.4321 19.142 37.7401C19.26 37.6623 19.3779 37.6233 19.4565 37.5455C22.5617 35.7947 25.1952 36.106 27.868 37.5844C27.9859 37.6623 28.1431 37.7401 28.261 37.8179C25.7848 44.2765 24.0946 44.082 23.7409 44.082ZM38.4413 38.0513C38.2055 38.2848 37.4194 39.5298 30.6587 36.8063C30.698 36.6896 30.7373 36.5728 30.7766 36.4561C31.72 33.0323 33.8032 31.4371 36.7512 30.5811C36.9084 30.5422 37.0656 30.5033 37.1835 30.4644C40.0136 36.7674 38.6772 37.8179 38.4413 38.0513ZM44.5337 23.5C44.5337 23.928 44.7303 25.3675 38.1269 28.0522C38.0483 27.9354 38.0089 27.8187 37.9303 27.702C36.1616 24.6283 36.476 22.0215 37.9696 19.3758C38.0483 19.2591 38.1269 19.1424 38.1662 18.9868C44.691 21.6325 44.5337 23.1498 44.5337 23.5ZM38.4413 8.94868C38.7558 9.25993 39.9349 10.1159 37.1835 16.6523C37.0656 16.6134 36.9477 16.5745 36.7905 16.5356C33.3315 15.6018 31.7593 13.5008 30.8552 10.6217C30.8159 10.505 30.7766 10.3493 30.7373 10.2326C37.2228 7.54801 38.1662 8.71523 38.4413 8.94868ZM28.3397 9.29884C28.2217 9.37666 28.1431 9.41556 28.0252 9.49338C24.92 11.2442 22.2865 10.894 19.6137 9.45447C19.4958 9.37665 19.3386 9.29884 19.2207 9.25993C21.7755 2.72351 23.3085 2.95695 23.7409 2.95695C24.0946 2.95695 25.5096 2.76242 28.3397 9.29884Z" fill="url(#paint0_linear)"/>
<defs>
<linearGradient id="paint0_linear" x1="23.7495" y1="47.0172" x2="23.7495" y2="0" gradientUnits="userSpaceOnUse">
<stop stop-color="#007DCD"/>
<stop offset="0.5028" stop-color="#46DF83"/>
<stop offset="1" stop-color="#FFCF71"/>
</linearGradient>
</defs>
</svg>
