<svg width="56" height="93" viewBox="0 0 56 93" fill="none" xmlns="http://www.w3.org/2000/svg">
<path d="M17.8064 45.8205C17.2029 43.2829 13.6173 42.4371 9.81869 43.9173L5.45207 45.6443C1.68896 47.1246 -0.583105 51.5653 0.446424 55.4422L2.89599 64.7114C3.92552 68.6235 6.5881 69.0464 8.82466 65.663L14.8243 56.5347C17.0964 53.1865 18.4099 48.3581 17.8064 45.8205Z" fill="#D32E22"/>
<path d="M17.8064 45.8205C17.2029 43.2829 13.6173 42.4371 9.81869 43.9173L5.45207 45.6443C1.68896 47.1246 -0.583105 51.5653 0.446424 55.4422L2.89599 64.7114C3.92552 68.6235 6.5881 69.0464 8.82466 65.663L14.8243 56.5347C17.0964 53.1865 18.4099 48.3581 17.8064 45.8205Z" fill="url(#paint0_linear)"/>
<path d="M38.1129 46.0319C38.7874 43.5296 42.373 42.7542 46.1361 44.305L50.4673 46.1024C54.2304 47.6884 56.3604 52.1292 55.2599 56.006L52.5973 65.2047C51.4613 69.0816 48.7987 69.4693 46.6331 66.0506L40.811 56.7814C38.6454 53.4332 37.4384 48.5695 38.1129 46.0319Z" fill="#D32E22"/>
<path d="M38.1129 46.0319C38.7874 43.5296 42.373 42.7542 46.1361 44.305L50.4673 46.1024C54.2304 47.6884 56.3604 52.1292 55.2599 56.006L52.5973 65.2047C51.4613 69.0816 48.7987 69.4693 46.6331 66.0506L40.811 56.7814C38.6454 53.4332 37.4384 48.5695 38.1129 46.0319Z" fill="url(#paint1_linear)"/>
<path d="M27.9952 0.0380131C36.6575 0.143745 43.5092 20.3386 43.2252 45.1857C43.1187 56.1819 36.054 57.9441 27.3562 57.8736C18.694 57.7679 11.6648 55.8647 11.7713 44.8685C12.0553 20.0214 19.2975 -0.0677192 27.9952 0.0380131Z" fill="url(#paint2_linear)"/>
<path d="M27.782 21.1498C30.9771 21.185 33.5332 23.7931 33.4977 26.9651C33.4622 30.137 30.8351 32.6746 27.6755 32.6394C24.445 32.6041 21.8889 29.996 21.9244 26.8241C21.9599 23.6521 24.587 21.1145 27.782 21.1498Z" fill="white"/>
<path d="M27.782 21.1498C30.9771 21.185 33.5332 23.7931 33.4977 26.9651C33.4622 30.137 30.8351 32.6746 27.6755 32.6394C24.445 32.6041 21.8889 29.996 21.9244 26.8241C21.9599 23.6521 24.587 21.1145 27.782 21.1498Z" stroke="#8C312A" stroke-width="3.4547" stroke-miterlimit="10"/>
<path d="M38.113 73.1347C38.042 78.95 33.1428 92.801 27.2852 92.7657C21.4275 92.6952 16.8124 78.7386 16.8479 72.9233C16.9189 67.108 21.7115 62.4205 27.6047 62.491C33.4623 62.5263 38.1485 67.2842 38.113 73.1347Z" fill="#F7830F"/>
<path d="M32.5748 71.3374C32.5393 74.1216 30.1962 80.7475 27.3916 80.7123C24.5871 80.677 22.386 74.0159 22.4215 71.2316C22.457 68.4473 24.7646 66.1917 27.5691 66.227C30.3382 66.2622 32.6103 68.5531 32.5748 71.3374Z" fill="#FFD348"/>
<defs>
<linearGradient id="paint0_linear" x1="0.233418" y1="55.5942" x2="17.9645" y2="55.5942" gradientUnits="userSpaceOnUse">
<stop stop-color="#C57BFF"/>
<stop offset="1" stop-color="#454BCB"/>
</linearGradient>
<linearGradient id="paint1_linear" x1="37.9259" y1="55.9789" x2="55.5228" y2="55.9789" gradientUnits="userSpaceOnUse">
<stop stop-color="#C57BFF"/>
<stop offset="1" stop-color="#454BCB"/>
</linearGradient>
<linearGradient id="paint2_linear" x1="11.7923" y1="28.9514" x2="43.2333" y2="28.9514" gradientUnits="userSpaceOnUse">
<stop stop-color="#C57BFF"/>
<stop offset="1" stop-color="#454BCB"/>
</linearGradient>
</defs>
</svg>
