<svg width="623" height="863" viewBox="0 0 623 863" fill="none" xmlns="http://www.w3.org/2000/svg">
<g clip-path="url(#clip0)">
<path d="M311.3 852C483.226 852 622.6 712.626 622.6 540.7C622.6 368.774 483.226 229.4 311.3 229.4C139.374 229.4 0 368.774 0 540.7C0 712.626 139.374 852 311.3 852Z" fill="url(#paint0_radial)"/>
<path d="M488.1 284.5C471.6 273.1 453.9 263.2 435.3 255.1C366.8 281.7 230.7 337.7 300.3 337.2C391.5 336.6 428.2 368.7 386.8 400.4C345.4 432.1 260 457.9 192.5 474.9C125 491.9 67.3 500.4 39.3 532.6C11.3 564.8 59.1 586.2 127 570.6C182.6 557.8 157.7 611.6 22.6 657C28.4 671.3 35.2 685.1 42.9 698.3C45.7 697.2 48.4 696 51.2 694.8C136.1 656.6 171.3 646.3 203.8 605.6C236.3 564.9 238 522.7 170.9 528.1C103.8 533.5 218.7 513.6 310.6 487.1C402.6 460.6 498.5 402.5 500.6 361.1C502.7 319.7 448.7 349.8 438.4 329.3C429.9 312.3 446 296.3 488.1 284.5Z" fill="url(#paint1_linear)"/>
<path d="M508 299.4C495 300.9 482.3 303.5 476.2 308.4C461.1 320.4 486.5 336.1 523 327.8C527.7 326.7 531.6 325.4 534.8 324C526.4 315.3 517.4 307.1 508 299.4Z" fill="url(#paint2_linear)"/>
<path d="M562.4 356.7C544.5 381.3 497.4 438.1 431.2 460.6C345.5 489.8 329.6 502.5 320.2 515C310.8 527.5 343.9 525.6 438.3 499.7C512.6 479.3 566.4 440.5 595.2 412.8C586.2 392.9 575.2 374.1 562.4 356.7Z" fill="url(#paint3_linear)"/>
<path d="M288.6 353.7C220.3 392.7 139.7 418.4 33.7 452.1C25.2 454.8 17.6 457.3 10.6 459.7C7.4 471.7 4.8 484.1 3.1 496.7C131.7 495.5 311.7 418 311.7 418C380.5 398.5 352.4 317.2 288.6 353.7Z" fill="url(#paint4_linear)"/>
<path opacity="0.61" d="M607.7 557.1C607.7 557.1 583.9 558 579.8 575C575.7 592 582.1 604.3 585.1 607.3C585.1 607.3 578.9 606.7 576.4 609.8C573.9 613 574.5 617 574.5 617C574.5 617 559.8 614.1 551.2 619.6C542.6 625.2 537.8 632.6 536.6 640C536.6 640 534.3 630.5 527.2 627C520.1 623.4 512.7 626.4 512.7 626.4C512.7 626.4 502.2 608 480.6 608C459 608 447.5 621.5 447.5 621.5C447.5 621.5 444.5 615.3 437.1 613.5C429.7 611.7 423.7 617.6 423.7 617.6C423.7 617.6 421.9 603.9 407.7 597.2C393.5 590.5 378.9 593.1 369.5 598.3C369.5 598.3 340.4 578.1 356.7 481.7C356.7 481.7 304.9 433 265.1 483.8C265.1 483.8 282.4 560.6 252.2 597.3C252.2 597.3 242.1 589.9 234.6 602.2C234.6 602.2 226.1 588 211 591.6C195.9 595.2 183.9 617.2 181 625.2C181 625.2 176.1 620.9 170.8 622C165.5 623.1 163.6 629.2 163.5 630.9C163.5 630.9 158 619.9 143.6 620.5C129.2 621.1 118.1 635 116.5 637.4C116.5 637.4 116.6 622.8 105.3 616.6C93.9 610.4 79.6 618.4 75 624.7C75 624.7 76 604.3 66.2 593.1C56.4 581.9 43.7 577 29.7 579.7C29.7 579.7 30.9 574.1 28.9 569.7C26.9 565.3 22.3 563.9 16.8 564.2C16.8 564.2 21.7 555.6 19.1 547.5C16.8 540.2 10.2 535.8 0.1 533.9C0.1 535.7 0 537.4 0 539.2C7.9 704.1 144.4 835.3 311.3 835.3C472.7 835.3 606.5 712.3 622.2 555.1C622.3 552.3 622.4 549.4 622.5 546.6C617.4 545.9 609.3 547.2 607.7 557.1Z" fill="#250A24"/>
<path d="M621.8 563.4C616.8 562.7 609.4 563.5 607.8 573.8C607.8 573.8 584 574.7 579.9 591.7C575.8 608.7 582.2 621 585.2 624C585.2 624 579 623.4 576.5 626.5C574 629.7 574.6 633.7 574.6 633.7C574.6 633.7 559.9 630.8 551.3 636.3C542.7 641.9 537.9 649.3 536.7 656.7C536.7 656.7 534.4 647.2 527.3 643.6C520.2 640 512.8 643 512.8 643C512.8 643 502.3 624.6 480.7 624.6C459.1 624.6 447.6 638.1 447.6 638.1C447.6 638.1 444.6 631.9 437.2 630.1C429.8 628.3 423.8 634.2 423.8 634.2C423.8 634.2 422 620.5 407.8 613.8C393.6 607.1 379 609.7 369.6 614.9C369.6 614.9 340.5 594.7 356.8 498.3C356.8 498.3 305 449.6 265.2 500.4C265.2 500.4 282.5 577.2 252.3 613.9C252.3 613.9 242.2 606.5 234.7 618.8C234.7 618.8 226.2 604.6 211.1 608.2C196 611.8 184 633.8 181.1 641.8C181.1 641.8 176.2 637.5 170.9 638.6C165.6 639.8 163.7 645.8 163.6 647.5C163.6 647.5 158.1 636.5 143.7 637.1C129.3 637.7 118.2 651.6 116.6 654C116.6 654 116.7 639.4 105.4 633.2C94 627 79.7 635 75 641.3C75 641.3 76 620.9 66.2 609.7C56.4 598.5 43.7 593.6 29.7 596.3C29.7 596.3 30.9 590.7 28.9 586.3C26.9 581.9 22.3 580.5 16.8 580.8C16.8 580.8 21.7 572.2 19.1 564.1C16.8 556.8 10.4 552.2 0.200001 550.4C5.3 717.8 115.7 863 311.3 863C505.7 863 610.1 724.7 621.8 563.4Z" fill="white"/>
<path d="M119.9 333.8C120.7 333.8 120.7 332.5 119.9 332.5C119.1 332.5 119.1 333.8 119.9 333.8Z" fill="white"/>
<path d="M137.3 323.2C138.1 323.2 138.1 321.9 137.3 321.9C136.5 321.9 136.5 323.2 137.3 323.2Z" fill="white"/>
<path d="M172.1 341C172.9 341 172.9 339.7 172.1 339.7C171.3 339.7 171.3 341 172.1 341Z" fill="white"/>
<path d="M142.3 370.4C142 370.3 141.7 370.1 141.5 370C140.8 369.6 140.1 370.7 140.9 371.1C141.2 371.2 141.5 371.4 141.7 371.5C142.3 371.9 143 370.8 142.3 370.4Z" fill="white"/>
<path d="M129.7 355.4C130.5 355.4 130.5 354.1 129.7 354.1C128.8 354.2 128.8 355.4 129.7 355.4Z" fill="white"/>
<path d="M125 322.3C125.8 322.3 125.8 321 125 321C124.2 321 124.2 322.3 125 322.3Z" fill="white"/>
<path d="M181.9 276.1C182.7 276.1 182.7 274.8 181.9 274.8C181 274.8 181 276.1 181.9 276.1Z" fill="white"/>
<path d="M226.5 279.7C227.3 279.7 227.3 278.4 226.5 278.4C225.6 278.4 225.6 279.7 226.5 279.7Z" fill="white"/>
<path d="M71.1 397.9C71.9 397.9 71.9 396.6 71.1 396.6C70.3 396.6 70.3 397.9 71.1 397.9Z" fill="white"/>
<path d="M38.4 417.8C39.2 417.8 39.2 416.5 38.4 416.5C37.6 416.5 37.6 417.8 38.4 417.8Z" fill="white"/>
<path d="M74.1 345.7C74.9 345.7 74.9 344.4 74.1 344.4C73.2 344.4 73.2 345.7 74.1 345.7Z" fill="white"/>
<path d="M92.3 353.7C93.1 353.7 93.1 352.4 92.3 352.4C91.5 352.5 91.5 353.7 92.3 353.7Z" fill="white"/>
<path d="M125.8 398.3C126.6 398.3 126.6 397 125.8 397C125 397 125 398.3 125.8 398.3Z" fill="white"/>
<path d="M103.8 419.9C104.6 419.9 104.6 418.6 103.8 418.6C102.9 418.7 102.9 419.9 103.8 419.9Z" fill="white"/>
<path d="M59.6 370.3C60.4 370.3 60.4 369 59.6 369C58.8 369 58.8 370.3 59.6 370.3Z" fill="white"/>
<path d="M214.5 377.9C215.3 377.9 215.3 376.6 214.5 376.6C213.7 376.6 213.7 377.9 214.5 377.9Z" fill="white"/>
<path d="M227.1 340.1C227.9 340.1 227.9 338.8 227.1 338.8C226.3 338.9 226.3 340.1 227.1 340.1Z" fill="white"/>
<path d="M185.7 367.7C186.5 367.7 186.5 366.4 185.7 366.4C184.9 366.5 184.9 367.7 185.7 367.7Z" fill="white"/>
<path d="M198 394C198.8 394 198.8 392.7 198 392.7C197.2 392.8 197.2 394 198 394Z" fill="white"/>
<path d="M112.7 376.6C113.5 376.6 113.5 375.3 112.7 375.3C111.9 375.4 111.9 376.6 112.7 376.6Z" fill="white"/>
<path d="M154.7 280.3C155.5 280.3 155.5 279 154.7 279C153.9 279 153.9 280.3 154.7 280.3Z" fill="white"/>
<path d="M239.1 243.8C239.9 243.8 239.9 242.5 239.1 242.5C238.3 242.5 238.3 243.8 239.1 243.8Z" fill="white"/>
<path d="M251.5 245.9C252.3 245.9 252.3 244.6 251.5 244.6C250.6 244.7 250.6 245.9 251.5 245.9Z" fill="white"/>
<path d="M205.6 302.8C206.4 302.8 206.4 301.5 205.6 301.5C204.8 301.5 204.8 302.8 205.6 302.8Z" fill="white"/>
<path d="M134.7 301.1C135.5 301.1 135.5 299.8 134.7 299.8C133.9 299.8 133.9 301.1 134.7 301.1Z" fill="white"/>
<path d="M220.9 319.1C221.7 319.1 221.7 317.8 220.9 317.8C220.1 317.9 220.1 319.1 220.9 319.1Z" fill="white"/>
<path d="M209 320.2C209.8 320.2 209.8 318.9 209 318.9C208.2 318.9 208.2 320.2 209 320.2Z" fill="white"/>
<path d="M167 299C167.8 299 167.8 297.7 167 297.7C166.2 297.7 166.2 299 167 299Z" fill="white"/>
<path d="M19.3 505.2C19.4 505.2 19.6 505.2 19.7 505.2C20.5 505.2 20.5 503.9 19.7 503.9C19.6 503.9 19.4 503.9 19.3 503.9C18.5 504 18.5 505.2 19.3 505.2Z" fill="white"/>
<path d="M117.3 508.6C118.1 508.6 118.1 507.3 117.3 507.3C116.5 507.4 116.5 508.6 117.3 508.6Z" fill="white"/>
<path d="M140.3 535.4C141.1 535.4 141.1 534.1 140.3 534.1C139.4 534.1 139.4 535.4 140.3 535.4Z" fill="white"/>
<path d="M55.4 486.6C56.2 486.6 56.2 485.3 55.4 485.3C54.6 485.3 54.6 486.6 55.4 486.6Z" fill="white"/>
<path d="M25 461.7C25 461.6 25 461.4 25 461.3C25 460.5 23.7 460.5 23.7 461.3C23.7 461.4 23.7 461.6 23.7 461.7C23.8 462.6 25 462.6 25 461.7Z" fill="white"/>
<path d="M42.9 407C42.9 406.9 42.9 406.7 42.9 406.6C42.9 405.8 41.6 405.8 41.6 406.6C41.6 406.7 41.6 406.9 41.6 407C41.6 407.8 42.9 407.8 42.9 407Z" fill="white"/>
<path d="M183.5 506.5C184.3 506.5 184.3 505.2 183.5 505.2C182.7 505.2 182.7 506.5 183.5 506.5Z" fill="white"/>
<path d="M186.1 570.6C186.9 570.6 186.9 569.3 186.1 569.3C185.3 569.3 185.3 570.6 186.1 570.6Z" fill="white"/>
<path d="M143.2 614.3C144 614.3 144 613 143.2 613C142.4 613 142.4 614.3 143.2 614.3Z" fill="white"/>
<path d="M89.5 618.4C89.4 618.1 89.2 617.8 89.1 617.6C88.7 616.9 87.6 617.5 88 618.2C88.1 618.5 88.3 618.8 88.4 619C88.7 619.8 89.8 619.2 89.5 618.4Z" fill="white"/>
<path d="M46.9 591C47.7 591 47.7 589.7 46.9 589.7C46.1 589.7 46.1 591 46.9 591Z" fill="white"/>
<path d="M66.4 551.9C67.2 551.9 67.2 550.6 66.4 550.6C65.6 550.6 65.6 551.9 66.4 551.9Z" fill="white"/>
<path d="M41.8 550.2C42.6 550.2 42.6 548.9 41.8 548.9C41 548.9 41 550.2 41.8 550.2Z" fill="white"/>
<path d="M16.6 546.2C16.6 545.9 16.6 545.6 16.6 545.4C16.6 544.6 15.3 544.6 15.3 545.4C15.3 545.7 15.3 546 15.3 546.2C15.3 547 16.6 547 16.6 546.2Z" fill="white"/>
<path d="M47.7 513.7C48.5 513.7 48.5 512.4 47.7 512.4C46.9 512.5 46.9 513.7 47.7 513.7Z" fill="white"/>
<path d="M88.1 518.4C88.9 518.4 88.9 517.1 88.1 517.1C87.2 517.1 87.2 518.4 88.1 518.4Z" fill="white"/>
<path d="M89.3 473.8C90.1 473.8 90.1 472.5 89.3 472.5C88.5 472.6 88.5 473.8 89.3 473.8Z" fill="white"/>
<path d="M53.7 450.5C54.5 450.5 54.5 449.2 53.7 449.2C52.9 449.2 52.9 450.5 53.7 450.5Z" fill="white"/>
<path d="M240.2 552.1C240.2 552 240.2 551.8 240.2 551.7C240.2 550.9 238.9 550.9 238.9 551.7C238.9 551.8 238.9 552 238.9 552.1C238.9 552.9 240.2 553 240.2 552.1Z" fill="white"/>
<path d="M256.5 523.1C257.3 523.1 257.3 521.8 256.5 521.8C255.7 521.8 255.7 523.1 256.5 523.1Z" fill="white"/>
<path d="M243 498.9C243.8 498.9 243.8 497.6 243 497.6C242.1 497.6 242.1 498.9 243 498.9Z" fill="white"/>
<path d="M167.8 552.3C168.6 552.3 168.6 551 167.8 551C167 551.1 167 552.3 167.8 552.3Z" fill="white"/>
<path d="M173.4 576.5C174.2 576.5 174.2 575.2 173.4 575.2C172.5 575.3 172.5 576.5 173.4 576.5Z" fill="white"/>
<path d="M142.8 539.2C143.6 539.2 143.6 537.9 142.8 537.9C142 537.9 142 539.2 142.8 539.2Z" fill="white"/>
<path d="M113.9 572.3C114 572.3 114.2 572.3 114.3 572.3C115.1 572.3 115.1 571 114.3 571C114.2 571 114 571 113.9 571C113.1 571 113.1 572.3 113.9 572.3Z" fill="white"/>
<path d="M154.7 594.4C155.5 594.4 155.5 593.1 154.7 593.1C153.9 593.1 153.9 594.4 154.7 594.4Z" fill="white"/>
<path d="M87.6 581.6C88.4 581.6 88.4 580.3 87.6 580.3C86.8 580.4 86.8 581.6 87.6 581.6Z" fill="white"/>
<path d="M100.8 490.4C101.6 490.4 101.6 489.1 100.8 489.1C100 489.1 100 490.4 100.8 490.4Z" fill="white"/>
<path d="M127.5 468.7C128.3 468.7 128.3 467.4 127.5 467.4C126.7 467.5 126.7 468.7 127.5 468.7Z" fill="white"/>
<path d="M148.3 445C149.1 445 149.1 443.7 148.3 443.7C147.5 443.7 147.5 445 148.3 445Z" fill="white"/>
<path d="M170.8 400.4C171.6 400.4 171.6 399.1 170.8 399.1C170 399.1 170 400.4 170.8 400.4Z" fill="white"/>
<path d="M144.9 395.3C145 395.3 145.2 395.3 145.3 395.3C146.1 395.3 146.1 394 145.3 394C145.2 394 145 394 144.9 394C144.1 394 144.1 395.3 144.9 395.3Z" fill="white"/>
<path d="M62.6 421.6C63.4 421.6 63.4 420.3 62.6 420.3C61.8 420.4 61.8 421.6 62.6 421.6Z" fill="white"/>
<path d="M69.4 419.9C70.2 419.9 70.2 418.6 69.4 418.6C68.6 418.7 68.6 419.9 69.4 419.9Z" fill="white"/>
<path d="M195.9 424.2C196.7 424.2 196.7 422.9 195.9 422.9C195 422.9 195 424.2 195.9 424.2Z" fill="white"/>
<path d="M171.2 468.7C172 468.7 172 467.4 171.2 467.4C170.4 467.5 170.4 468.7 171.2 468.7Z" fill="white"/>
<path d="M150.7 505.9C151.3 505.5 151.8 505 152.4 504.6C153 504.1 152.4 503 151.8 503.5C151.2 503.9 150.7 504.4 150.1 504.8C149.4 505.3 150.1 506.4 150.7 505.9Z" fill="white"/>
<path d="M100.8 447.5C101.6 447.5 101.6 446.2 100.8 446.2C100 446.2 100 447.5 100.8 447.5Z" fill="white"/>
<path d="M148.7 416.1C149.5 416.1 149.5 414.8 148.7 414.8C147.9 414.8 147.9 416.1 148.7 416.1Z" fill="white"/>
<path d="M227.7 582.1C228.5 582.1 228.5 580.8 227.7 580.8C226.9 580.8 226.9 582.1 227.7 582.1Z" fill="white"/>
<path d="M212.4 600.7C213.2 600.7 213.2 599.4 212.4 599.4C211.6 599.5 211.6 600.7 212.4 600.7Z" fill="white"/>
<path d="M156.4 634.3C157.2 634.3 157.2 633 156.4 633C155.6 633 155.6 634.3 156.4 634.3Z" fill="white"/>
<path d="M108.9 620.2C109.7 620.2 109.7 618.9 108.9 618.9C108 619 108 620.2 108.9 620.2Z" fill="white"/>
<path d="M62.2 560.8C63 560.8 63 559.5 62.2 559.5C61.4 559.6 61.4 560.8 62.2 560.8Z" fill="white"/>
<path d="M158.5 504C159.3 504 159.3 502.7 158.5 502.7C157.7 502.7 157.7 504 158.5 504Z" fill="white"/>
<path d="M164.9 519.7C165.7 519.7 165.7 518.4 164.9 518.4C164.1 518.4 164.1 519.7 164.9 519.7Z" fill="white"/>
<path d="M106.7 498C107.5 498 107.5 496.7 106.7 496.7C105.9 496.7 105.9 498 106.7 498Z" fill="white"/>
<path d="M10 498C10.8 498 10.8 496.7 10 496.7C9.2 496.7 9.2 498 10 498Z" fill="white"/>
<path d="M22.9 450.7C22.9 450.6 22.9 450.4 22.9 450.3C22.9 449.5 21.6 449.5 21.6 450.3C21.6 450.4 21.6 450.6 21.6 450.7C21.6 451.5 22.9 451.5 22.9 450.7Z" fill="white"/>
<path d="M67.7 468.7C68.5 468.7 68.5 467.4 67.7 467.4C66.9 467.5 66.9 468.7 67.7 468.7Z" fill="white"/>
<path d="M39.3 478.5C40.1 478.5 40.1 477.2 39.3 477.2C38.4 477.2 38.4 478.5 39.3 478.5Z" fill="white"/>
<path d="M156.8 415.7C157.6 415.7 157.6 414.4 156.8 414.4C156 414.4 156 415.7 156.8 415.7Z" fill="white"/>
<path d="M181.4 421.2C182.2 421.2 182.2 419.9 181.4 419.9C180.6 419.9 180.6 421.2 181.4 421.2Z" fill="white"/>
<path d="M164.5 362.2C165.3 362.2 165.3 360.9 164.5 360.9C163.6 360.9 163.6 362.2 164.5 362.2Z" fill="white"/>
<path d="M205.2 332.9C206 332.9 206 331.6 205.2 331.6C204.4 331.7 204.4 332.9 205.2 332.9Z" fill="white"/>
<path d="M169.5 319.8C170.3 319.8 170.3 318.5 169.5 318.5C168.7 318.5 168.7 319.8 169.5 319.8Z" fill="white"/>
<path d="M249.1 265.3C249.9 265.3 249.9 264 249.1 264C248.3 264 248.3 265.3 249.1 265.3Z" fill="white"/>
<path d="M207.1 265.7C207.1 265.6 207.1 265.4 207.1 265.3C207.1 264.5 205.8 264.5 205.8 265.3C205.8 265.4 205.8 265.6 205.8 265.7C205.8 266.5 207.1 266.5 207.1 265.7Z" fill="white"/>
<path d="M202.6 255.7C203.4 255.7 203.4 254.4 202.6 254.4C201.8 254.4 201.8 255.7 202.6 255.7Z" fill="white"/>
<path d="M236.4 302.2C237.2 302.2 237.2 300.9 236.4 300.9C235.5 300.9 235.5 302.2 236.4 302.2Z" fill="white"/>
<path d="M116.5 306.2C117.3 306.2 117.3 304.9 116.5 304.9C115.7 304.9 115.7 306.2 116.5 306.2Z" fill="white"/>
<path d="M87.6 467C88.4 467 88.4 465.7 87.6 465.7C86.8 465.8 86.8 467 87.6 467Z" fill="white"/>
<path d="M43.5 515C44.3 515 44.3 513.7 43.5 513.7C42.7 513.7 42.7 515 43.5 515Z" fill="white"/>
<path d="M150.7 614.1C150.7 614 150.7 613.8 150.7 613.7C150.7 612.9 149.4 612.9 149.4 613.7C149.4 613.8 149.4 614 149.4 614.1C149.4 614.9 150.7 614.9 150.7 614.1Z" fill="white"/>
<path d="M101.2 596.1C102 596.1 102 594.8 101.2 594.8C100.4 594.8 100.4 596.1 101.2 596.1Z" fill="white"/>
<path d="M144.9 566.8C145.7 566.8 145.7 565.5 144.9 565.5C144.1 565.5 144.1 566.8 144.9 566.8Z" fill="white"/>
<path d="M108.4 549.8C109.2 549.8 109.2 548.5 108.4 548.5C107.6 548.5 107.6 549.8 108.4 549.8Z" fill="white"/>
<path d="M109.3 543C110.1 543 110.1 541.7 109.3 541.7C108.5 541.7 108.5 543 109.3 543Z" fill="white"/>
<path d="M231.7 572.1C231.7 572.2 231.7 572.4 231.7 572.5C231.7 573.3 233 573.3 233 572.5C233 572.4 233 572.2 233 572.1C233 571.3 231.7 571.3 231.7 572.1Z" fill="white"/>
<path d="M230.7 488.3C231.5 488.3 231.5 487 230.7 487C229.8 487 229.8 488.3 230.7 488.3Z" fill="white"/>
<path d="M264.6 541.7C265.4 541.7 265.4 540.4 264.6 540.4C263.8 540.5 263.8 541.7 264.6 541.7Z" fill="white"/>
<path d="M244.2 583.3C245 583.3 245 582 244.2 582C243.4 582.1 243.4 583.3 244.2 583.3Z" fill="white"/>
<path d="M194.6 546.6C194.7 546.5 194.9 546.3 195 546.2C195.6 545.6 194.7 544.7 194.1 545.3C194 545.4 193.8 545.6 193.7 545.7C193.1 546.3 194 547.2 194.6 546.6Z" fill="white"/>
<path d="M239.6 525.2C240.4 525.2 240.4 523.9 239.6 523.9C238.7 523.9 238.7 525.2 239.6 525.2Z" fill="white"/>
<path d="M229 519.2C229.3 519.2 229.6 519.2 229.8 519.2C230.6 519.2 230.6 517.9 229.8 517.9C229.5 517.9 229.2 517.9 229 517.9C228.1 518 228.1 519.2 229 519.2Z" fill="white"/>
<path d="M231.5 533.2C232.3 533.2 232.3 531.9 231.5 531.9C230.7 532 230.7 533.2 231.5 533.2Z" fill="white"/>
<path d="M204.8 532.2C204.9 532.1 205.1 531.9 205.2 531.8C205.8 531.2 204.9 530.3 204.3 530.9C204.2 531 204 531.2 203.9 531.3C203.3 531.9 204.2 532.8 204.8 532.2Z" fill="white"/>
<path d="M190.3 580.4C191.1 580.4 191.1 579.1 190.3 579.1C189.5 579.1 189.5 580.4 190.3 580.4Z" fill="white"/>
<path d="M190.3 607.5C191.1 607.5 191.1 606.2 190.3 606.2C189.5 606.2 189.5 607.5 190.3 607.5Z" fill="white"/>
<path d="M184.4 604.5C185.2 604.5 185.2 603.2 184.4 603.2C183.6 603.3 183.6 604.5 184.4 604.5Z" fill="white"/>
<path d="M141.1 475.5C141.5 475.5 141.9 475.5 142.4 475.5C143.2 475.5 143.2 474.2 142.4 474.2C142 474.2 141.6 474.2 141.1 474.2C140.3 474.3 140.3 475.5 141.1 475.5Z" fill="white"/>
<path d="M99.9 501C100.7 501 100.7 499.7 99.9 499.7C99.1 499.7 99.1 501 99.9 501Z" fill="white"/>
<path d="M132.6 433.5C133.4 433.5 133.4 432.2 132.6 432.2C131.8 432.2 131.8 433.5 132.6 433.5Z" fill="white"/>
<path d="M85.9 414C85.8 414 85.6 414 85.5 414C84.7 414 84.7 415.3 85.5 415.3C85.6 415.3 85.8 415.3 85.9 415.3C86.8 415.3 86.8 414 85.9 414Z" fill="white"/>
<path d="M96.5 389.4C97.3 389.4 97.3 388.1 96.5 388.1C95.7 388.1 95.7 389.4 96.5 389.4Z" fill="white"/>
<path d="M99.1 329.1C99.9 329.1 99.9 327.8 99.1 327.8C98.3 327.8 98.3 329.1 99.1 329.1Z" fill="white"/>
<path d="M89.8 340.1C90.6 340.1 90.6 338.8 89.8 338.8C88.9 338.9 88.9 340.1 89.8 340.1Z" fill="white"/>
<path d="M95.3 346.9C96.1 346.9 96.1 345.6 95.3 345.6C94.5 345.7 94.5 346.9 95.3 346.9Z" fill="white"/>
<path d="M55.4 540C55.3 540 55.1 540 55 540C54.2 540 54.2 541.3 55 541.3C55.1 541.3 55.3 541.3 55.4 541.3C56.2 541.3 56.2 540 55.4 540Z" fill="white"/>
<path d="M21.9 548.5C22.7 548.5 22.7 547.2 21.9 547.2C21 547.3 21 548.5 21.9 548.5Z" fill="white"/>
<path d="M165.1 451.5C165.1 451.4 165.1 451.2 165.1 451.1C165.1 450.3 163.8 450.3 163.8 451.1C163.8 451.2 163.8 451.4 163.8 451.5C163.8 452.4 165.1 452.4 165.1 451.5Z" fill="white"/>
<path d="M502.2 333.8C501.4 333.8 501.4 332.5 502.2 332.5C503.1 332.5 503.1 333.8 502.2 333.8Z" fill="white"/>
<path d="M484.8 323.2C484 323.2 484 321.9 484.8 321.9C485.7 321.9 485.7 323.2 484.8 323.2Z" fill="white"/>
<path d="M450 341C449.2 341 449.2 339.7 450 339.7C450.9 339.7 450.9 341 450 341Z" fill="white"/>
<path d="M479.9 370.4C480.2 370.3 480.5 370.1 480.7 370C481.4 369.6 482.1 370.7 481.3 371.1C481 371.2 480.7 371.4 480.5 371.5C479.8 371.9 479.1 370.8 479.9 370.4Z" fill="white"/>
<path d="M492.5 355.4C491.7 355.4 491.7 354.1 492.5 354.1C493.3 354.2 493.3 355.4 492.5 355.4Z" fill="white"/>
<path d="M497.1 322.3C496.3 322.3 496.3 321 497.1 321C498 321 498 322.3 497.1 322.3Z" fill="white"/>
<path d="M440.3 276.1C439.5 276.1 439.5 274.8 440.3 274.8C441.1 274.8 441.1 276.1 440.3 276.1Z" fill="white"/>
<path d="M383.6 282.9C382.8 282.9 382.8 281.6 383.6 281.6C384.4 281.6 384.4 282.9 383.6 282.9Z" fill="white"/>
<path d="M551 397.9C550.2 397.9 550.2 396.6 551 396.6C551.9 396.6 551.9 397.9 551 397.9Z" fill="white"/>
<path d="M583.7 417.8C582.9 417.8 582.9 416.5 583.7 416.5C584.5 416.5 584.5 417.8 583.7 417.8Z" fill="white"/>
<path d="M548.1 345.7C547.3 345.7 547.3 344.4 548.1 344.4C548.9 344.4 548.9 345.7 548.1 345.7Z" fill="white"/>
<path d="M529.8 353.7C529 353.7 529 352.4 529.8 352.4C530.6 352.5 530.6 353.7 529.8 353.7Z" fill="white"/>
<path d="M496.3 398.3C495.5 398.3 495.5 397 496.3 397C497.1 397 497.1 398.3 496.3 398.3Z" fill="white"/>
<path d="M518.4 419.9C517.6 419.9 517.6 418.6 518.4 418.6C519.2 418.7 519.2 419.9 518.4 419.9Z" fill="white"/>
<path d="M562.5 370.3C561.7 370.3 561.7 369 562.5 369C563.3 369 563.3 370.3 562.5 370.3Z" fill="white"/>
<path d="M407.6 377.9C406.8 377.9 406.8 376.6 407.6 376.6C408.4 376.6 408.4 377.9 407.6 377.9Z" fill="white"/>
<path d="M402.5 338.4C401.7 338.4 401.7 337.1 402.5 337.1C403.3 337.2 403.3 338.4 402.5 338.4Z" fill="white"/>
<path d="M436.5 367.7C435.7 367.7 435.7 366.4 436.5 366.4C437.3 366.5 437.3 367.7 436.5 367.7Z" fill="white"/>
<path d="M424.1 394C423.3 394 423.3 392.7 424.1 392.7C425 392.8 425 394 424.1 394Z" fill="white"/>
<path d="M509.4 376.6C508.6 376.6 508.6 375.3 509.4 375.3C510.3 375.4 510.3 376.6 509.4 376.6Z" fill="white"/>
<path d="M467.4 280.3C466.6 280.3 466.6 279 467.4 279C468.3 279 468.3 280.3 467.4 280.3Z" fill="white"/>
<path d="M383 243.8C382.2 243.8 382.2 242.5 383 242.5C383.8 242.5 383.8 243.8 383 243.8Z" fill="white"/>
<path d="M370.7 245.9C369.9 245.9 369.9 244.6 370.7 244.6C371.5 244.7 371.5 245.9 370.7 245.9Z" fill="white"/>
<path d="M416.5 302.8C415.7 302.8 415.7 301.5 416.5 301.5C417.3 301.5 417.3 302.8 416.5 302.8Z" fill="white"/>
<path d="M487.4 301.1C486.6 301.1 486.6 299.8 487.4 299.8C488.2 299.8 488.2 301.1 487.4 301.1Z" fill="white"/>
<path d="M389.1 322.3C388.3 322.3 388.3 321 389.1 321C390 321 390 322.3 389.1 322.3Z" fill="white"/>
<path d="M413.1 320.2C412.3 320.2 412.3 318.9 413.1 318.9C413.9 318.9 413.9 320.2 413.1 320.2Z" fill="white"/>
<path d="M455.1 299C454.3 299 454.3 297.7 455.1 297.7C455.9 297.7 455.9 299 455.1 299Z" fill="white"/>
<path d="M602.8 505.2C602.7 505.2 602.5 505.2 602.4 505.2C601.6 505.2 601.6 503.9 602.4 503.9C602.5 503.9 602.7 503.9 602.8 503.9C603.6 504 603.6 505.2 602.8 505.2Z" fill="white"/>
<path d="M504.8 508.6C504 508.6 504 507.3 504.8 507.3C505.6 507.4 505.6 508.6 504.8 508.6Z" fill="white"/>
<path d="M481.9 535.4C481.1 535.4 481.1 534.1 481.9 534.1C482.7 534.1 482.7 535.4 481.9 535.4Z" fill="white"/>
<path d="M566.7 486.6C565.9 486.6 565.9 485.3 566.7 485.3C567.6 485.3 567.6 486.6 566.7 486.6Z" fill="white"/>
<path d="M597.1 461.7C597.1 461.6 597.1 461.4 597.1 461.3C597.1 460.5 598.4 460.5 598.4 461.3C598.4 461.4 598.4 461.6 598.4 461.7C598.4 462.6 597.1 462.6 597.1 461.7Z" fill="white"/>
<path d="M579.3 407C579.3 406.9 579.3 406.7 579.3 406.6C579.3 405.8 580.6 405.8 580.6 406.6C580.6 406.7 580.6 406.9 580.6 407C580.5 407.8 579.3 407.8 579.3 407Z" fill="white"/>
<path d="M438.6 506.5C437.8 506.5 437.8 505.2 438.6 505.2C439.4 505.2 439.4 506.5 438.6 506.5Z" fill="white"/>
<path d="M436 570.6C435.2 570.6 435.2 569.3 436 569.3C436.8 569.3 436.8 570.6 436 570.6Z" fill="white"/>
<path d="M478.9 614.3C478.1 614.3 478.1 613 478.9 613C479.7 613 479.7 614.3 478.9 614.3Z" fill="white"/>
<path d="M532.7 618.4C532.8 618.1 533 617.8 533.1 617.6C533.5 616.9 534.6 617.5 534.2 618.2C534.1 618.5 533.9 618.8 533.8 619C533.4 619.8 532.3 619.2 532.7 618.4Z" fill="white"/>
<path d="M575.2 591C574.4 591 574.4 589.7 575.2 589.7C576 589.7 576 591 575.2 591Z" fill="white"/>
<path d="M555.7 551.9C554.9 551.9 554.9 550.6 555.7 550.6C556.5 550.6 556.5 551.9 555.7 551.9Z" fill="white"/>
<path d="M580.3 550.2C579.5 550.2 579.5 548.9 580.3 548.9C581.1 548.9 581.1 550.2 580.3 550.2Z" fill="white"/>
<path d="M605.6 546.2C605.6 545.9 605.6 545.6 605.6 545.4C605.6 544.6 606.9 544.6 606.9 545.4C606.9 545.7 606.9 546 606.9 546.2C606.8 547 605.6 547 605.6 546.2Z" fill="white"/>
<path d="M574.4 513.7C573.6 513.7 573.6 512.4 574.4 512.4C575.2 512.5 575.2 513.7 574.4 513.7Z" fill="white"/>
<path d="M534.1 518.4C533.3 518.4 533.3 517.1 534.1 517.1C534.9 517.1 534.9 518.4 534.1 518.4Z" fill="white"/>
<path d="M532.8 473.8C532 473.8 532 472.5 532.8 472.5C533.6 472.6 533.6 473.8 532.8 473.8Z" fill="white"/>
<path d="M568.4 450.5C567.6 450.5 567.6 449.2 568.4 449.2C569.3 449.2 569.3 450.5 568.4 450.5Z" fill="white"/>
<path d="M381.9 552.1C381.9 552 381.9 551.8 381.9 551.7C381.9 550.9 383.2 550.9 383.2 551.7C383.2 551.8 383.2 552 383.2 552.1C383.2 552.9 381.9 553 381.9 552.1Z" fill="white"/>
<path d="M365.6 523.1C364.8 523.1 364.8 521.8 365.6 521.8C366.4 521.8 366.4 523.1 365.6 523.1Z" fill="white"/>
<path d="M379.2 498.9C378.4 498.9 378.4 497.6 379.2 497.6C380 497.6 380 498.9 379.2 498.9Z" fill="white"/>
<path d="M454.3 552.3C453.5 552.3 453.5 551 454.3 551C455.1 551.1 455.1 552.3 454.3 552.3Z" fill="white"/>
<path d="M448.8 576.5C448 576.5 448 575.2 448.8 575.2C449.6 575.3 449.6 576.5 448.8 576.5Z" fill="white"/>
<path d="M479.3 539.2C478.5 539.2 478.5 537.9 479.3 537.9C480.1 537.9 480.1 539.2 479.3 539.2Z" fill="white"/>
<path d="M508.2 572.3C508.1 572.3 507.9 572.3 507.8 572.3C507 572.3 507 571 507.8 571C507.9 571 508.1 571 508.2 571C509 571 509 572.3 508.2 572.3Z" fill="white"/>
<path d="M467.4 594.4C466.6 594.4 466.6 593.1 467.4 593.1C468.3 593.1 468.3 594.4 467.4 594.4Z" fill="white"/>
<path d="M534.5 581.6C533.7 581.6 533.7 580.3 534.5 580.3C535.3 580.4 535.3 581.6 534.5 581.6Z" fill="white"/>
<path d="M521.3 490.4C520.5 490.4 520.5 489.1 521.3 489.1C522.2 489.1 522.2 490.4 521.3 490.4Z" fill="white"/>
<path d="M494.6 468.7C493.8 468.7 493.8 467.4 494.6 467.4C495.4 467.5 495.4 468.7 494.6 468.7Z" fill="white"/>
<path d="M473.8 445C473 445 473 443.7 473.8 443.7C474.6 443.7 474.6 445 473.8 445Z" fill="white"/>
<path d="M451.3 400.4C450.5 400.4 450.5 399.1 451.3 399.1C452.1 399.1 452.1 400.4 451.3 400.4Z" fill="white"/>
<path d="M477.2 395.3C477.1 395.3 476.9 395.3 476.8 395.3C476 395.3 476 394 476.8 394C476.9 394 477.1 394 477.2 394C478 394 478 395.3 477.2 395.3Z" fill="white"/>
<path d="M559.5 421.6C558.7 421.6 558.7 420.3 559.5 420.3C560.3 420.4 560.3 421.6 559.5 421.6Z" fill="white"/>
<path d="M552.7 419.9C551.9 419.9 551.9 418.6 552.7 418.6C553.6 418.7 553.6 419.9 552.7 419.9Z" fill="white"/>
<path d="M426.3 424.2C425.5 424.2 425.5 422.9 426.3 422.9C427.1 422.9 427.1 424.2 426.3 424.2Z" fill="white"/>
<path d="M450.9 468.7C450.1 468.7 450.1 467.4 450.9 467.4C451.7 467.5 451.7 468.7 450.9 468.7Z" fill="white"/>
<path d="M471.4 505.9C470.8 505.5 470.3 505 469.7 504.6C469.1 504.1 469.7 503 470.3 503.5C470.9 503.9 471.4 504.4 472 504.8C472.7 505.3 472 506.4 471.4 505.9Z" fill="white"/>
<path d="M521.3 447.5C520.5 447.5 520.5 446.2 521.3 446.2C522.2 446.2 522.2 447.5 521.3 447.5Z" fill="white"/>
<path d="M473.4 416.1C472.6 416.1 472.6 414.8 473.4 414.8C474.2 414.8 474.2 416.1 473.4 416.1Z" fill="white"/>
<path d="M394.4 582.1C393.6 582.1 393.6 580.8 394.4 580.8C395.3 580.8 395.3 582.1 394.4 582.1Z" fill="white"/>
<path d="M409.7 600.7C408.9 600.7 408.9 599.4 409.7 599.4C410.5 599.5 410.5 600.7 409.7 600.7Z" fill="white"/>
<path d="M465.7 634.3C464.9 634.3 464.9 633 465.7 633C466.6 633 466.6 634.3 465.7 634.3Z" fill="white"/>
<path d="M513.3 620.2C512.5 620.2 512.5 618.9 513.3 618.9C514.1 619 514.1 620.2 513.3 620.2Z" fill="white"/>
<path d="M560 560.8C559.2 560.8 559.2 559.5 560 559.5C560.8 559.6 560.8 560.8 560 560.8Z" fill="white"/>
<path d="M463.6 504C462.8 504 462.8 502.7 463.6 502.7C464.4 502.7 464.4 504 463.6 504Z" fill="white"/>
<path d="M457.2 519.7C456.4 519.7 456.4 518.4 457.2 518.4C458.1 518.4 458.1 519.7 457.2 519.7Z" fill="white"/>
<path d="M515.4 498C514.6 498 514.6 496.7 515.4 496.7C516.2 496.7 516.2 498 515.4 498Z" fill="white"/>
<path d="M612.2 498C611.4 498 611.4 496.7 612.2 496.7C613 496.7 613 498 612.2 498Z" fill="white"/>
<path d="M599.2 450.7C599.2 450.6 599.2 450.4 599.2 450.3C599.2 449.5 600.5 449.5 600.5 450.3C600.5 450.4 600.5 450.6 600.5 450.7C600.5 451.5 599.2 451.5 599.2 450.7Z" fill="white"/>
<path d="M554.4 468.7C553.6 468.7 553.6 467.4 554.4 467.4C555.3 467.5 555.3 468.7 554.4 468.7Z" fill="white"/>
<path d="M582.9 478.5C582.1 478.5 582.1 477.2 582.9 477.2C583.7 477.2 583.7 478.5 582.9 478.5Z" fill="white"/>
<path d="M465.3 415.7C464.5 415.7 464.5 414.4 465.3 414.4C466.1 414.4 466.1 415.7 465.3 415.7Z" fill="white"/>
<path d="M440.7 421.2C439.9 421.2 439.9 419.9 440.7 419.9C441.5 419.9 441.5 421.2 440.7 421.2Z" fill="white"/>
<path d="M457.7 362.2C456.9 362.2 456.9 360.9 457.7 360.9C458.5 360.9 458.5 362.2 457.7 362.2Z" fill="white"/>
<path d="M416.9 332.9C416.1 332.9 416.1 331.6 416.9 331.6C417.8 331.7 417.8 332.9 416.9 332.9Z" fill="white"/>
<path d="M452.6 319.8C451.8 319.8 451.8 318.5 452.6 318.5C453.4 318.5 453.4 319.8 452.6 319.8Z" fill="white"/>
<path d="M380 261.6C379.2 261.6 379.2 260.3 380 260.3C380.8 260.4 380.8 261.6 380 261.6Z" fill="white"/>
<path d="M415 265.7C415 265.6 415 265.4 415 265.3C415 264.5 416.3 264.5 416.3 265.3C416.3 265.4 416.3 265.6 416.3 265.7C416.3 266.5 415 266.5 415 265.7Z" fill="white"/>
<path d="M419.5 255.7C418.7 255.7 418.7 254.4 419.5 254.4C420.3 254.4 420.3 255.7 419.5 255.7Z" fill="white"/>
<path d="M403.1 293.7C402.3 293.7 402.3 292.4 403.1 292.4C403.9 292.4 403.9 293.7 403.1 293.7Z" fill="white"/>
<path d="M505.6 306.2C504.8 306.2 504.8 304.9 505.6 304.9C506.4 304.9 506.4 306.2 505.6 306.2Z" fill="white"/>
<path d="M534.5 467C533.7 467 533.7 465.7 534.5 465.7C535.3 465.8 535.3 467 534.5 467Z" fill="white"/>
<path d="M578.6 515C577.8 515 577.8 513.7 578.6 513.7C579.4 513.7 579.4 515 578.6 515Z" fill="white"/>
<path d="M471.5 614.1C471.5 614 471.5 613.8 471.5 613.7C471.5 612.9 472.8 612.9 472.8 613.7C472.8 613.8 472.8 614 472.8 614.1C472.7 614.9 471.5 614.9 471.5 614.1Z" fill="white"/>
<path d="M520.9 596.1C520.1 596.1 520.1 594.8 520.9 594.8C521.7 594.8 521.7 596.1 520.9 596.1Z" fill="white"/>
<path d="M477.2 566.8C476.4 566.8 476.4 565.5 477.2 565.5C478 565.5 478 566.8 477.2 566.8Z" fill="white"/>
<path d="M513.7 549.8C512.9 549.8 512.9 548.5 513.7 548.5C514.5 548.5 514.5 549.8 513.7 549.8Z" fill="white"/>
<path d="M512.8 543C512 543 512 541.7 512.8 541.7C513.7 541.7 513.7 543 512.8 543Z" fill="white"/>
<path d="M390.4 572.1C390.4 572.2 390.4 572.4 390.4 572.5C390.4 573.3 389.1 573.3 389.1 572.5C389.1 572.4 389.1 572.2 389.1 572.1C389.1 571.3 390.4 571.3 390.4 572.1Z" fill="white"/>
<path d="M391.5 488.3C390.7 488.3 390.7 487 391.5 487C392.3 487 392.3 488.3 391.5 488.3Z" fill="white"/>
<path d="M357.5 541.7C356.7 541.7 356.7 540.4 357.5 540.4C358.3 540.5 358.3 541.7 357.5 541.7Z" fill="white"/>
<path d="M377.9 583.3C377.1 583.3 377.1 582 377.9 582C378.7 582.1 378.7 583.3 377.9 583.3Z" fill="white"/>
<path d="M427.5 546.6C427.4 546.5 427.2 546.3 427.1 546.2C426.5 545.6 427.4 544.7 428 545.3C428.1 545.4 428.3 545.6 428.4 545.7C429 546.3 428.1 547.2 427.5 546.6Z" fill="white"/>
<path d="M382.6 525.2C381.8 525.2 381.8 523.9 382.6 523.9C383.4 523.9 383.4 525.2 382.6 525.2Z" fill="white"/>
<path d="M393.2 519.2C392.9 519.2 392.6 519.2 392.4 519.2C391.6 519.2 391.6 517.9 392.4 517.9C392.7 517.9 393 517.9 393.2 517.9C394 518 394 519.2 393.2 519.2Z" fill="white"/>
<path d="M390.6 533.2C389.8 533.2 389.8 531.9 390.6 531.9C391.4 532 391.4 533.2 390.6 533.2Z" fill="white"/>
<path d="M417.3 532.2C417.2 532.1 417 531.9 416.9 531.8C416.3 531.2 417.2 530.3 417.8 530.9C417.9 531 418.1 531.2 418.2 531.3C418.8 531.9 417.9 532.8 417.3 532.2Z" fill="white"/>
<path d="M431.8 580.4C431 580.4 431 579.1 431.8 579.1C432.6 579.1 432.6 580.4 431.8 580.4Z" fill="white"/>
<path d="M431.8 607.5C431 607.5 431 606.2 431.8 606.2C432.6 606.2 432.6 607.5 431.8 607.5Z" fill="white"/>
<path d="M437.7 604.5C436.9 604.5 436.9 603.2 437.7 603.2C438.5 603.3 438.5 604.5 437.7 604.5Z" fill="white"/>
<path d="M481 475.5C480.6 475.5 480.2 475.5 479.7 475.5C478.9 475.5 478.9 474.2 479.7 474.2C480.1 474.2 480.5 474.2 481 474.2C481.8 474.3 481.8 475.5 481 475.5Z" fill="white"/>
<path d="M522.2 501C521.4 501 521.4 499.7 522.2 499.7C523 499.7 523 501 522.2 501Z" fill="white"/>
<path d="M489.5 433.5C488.7 433.5 488.7 432.2 489.5 432.2C490.3 432.2 490.3 433.5 489.5 433.5Z" fill="white"/>
<path d="M536.2 414C536.3 414 536.5 414 536.6 414C537.4 414 537.4 415.3 536.6 415.3C536.5 415.3 536.3 415.3 536.2 415.3C535.4 415.3 535.4 414 536.2 414Z" fill="white"/>
<path d="M525.6 389.4C524.8 389.4 524.8 388.1 525.6 388.1C526.4 388.1 526.4 389.4 525.6 389.4Z" fill="white"/>
<path d="M523 329.1C522.2 329.1 522.2 327.8 523 327.8C523.8 327.8 523.8 329.1 523 329.1Z" fill="white"/>
<path d="M532.4 340.1C531.6 340.1 531.6 338.8 532.4 338.8C533.2 338.9 533.2 340.1 532.4 340.1Z" fill="white"/>
<path d="M526.8 346.9C526 346.9 526 345.6 526.8 345.6C527.7 345.7 527.7 346.9 526.8 346.9Z" fill="white"/>
<path d="M566.7 540C566.8 540 567 540 567.1 540C567.9 540 567.9 541.3 567.1 541.3C567 541.3 566.8 541.3 566.7 541.3C565.9 541.3 565.9 540 566.7 540Z" fill="white"/>
<path d="M600.3 548.5C599.5 548.5 599.5 547.2 600.3 547.2C601.1 547.3 601.1 548.5 600.3 548.5Z" fill="white"/>
<path d="M457 451.5C457 451.4 457 451.2 457 451.1C457 450.3 458.3 450.3 458.3 451.1C458.3 451.2 458.3 451.4 458.3 451.5C458.3 452.4 457 452.4 457 451.5Z" fill="white"/>
<path d="M216.9 262.1C217.9 237.1 220.8 212.1 225.4 187.4C229.7 164.5 235.6 141.5 247.5 121.5C251.9 114.2 257 107.3 263.4 101.8C269.8 96.3 277.6 92.2 286 90.8C295.4 89.3 305.1 91.5 313.6 95.9C321.7 100.1 328.7 106.3 334.5 113.4C340.3 120.5 344.9 128.4 349.1 136.6C362.6 163.4 370.5 192.7 375.5 222.3C381.4 257.3 383.2 292.8 383.3 328.3C383.3 336.4 383.2 344.7 381.7 352.7C380.2 360.7 377.2 368.6 372 374.9C365.1 383.2 354.9 388 344.5 391C327.4 395.8 309.3 396.1 291.5 395.7C276.9 395.3 261.8 394.3 248.9 387.4C238.5 381.8 230.1 372.6 225.1 361.8C218 346.5 217.7 329 217.5 312.1C217.3 295.4 217.1 278.8 216.9 262.1Z" fill="url(#paint5_linear)"/>
<path d="M217.9 246.2C206.6 256.4 196.8 268.3 188.9 281.3C175.5 303.3 167.7 328.6 165.5 354.2C164.1 370.6 164.9 387.1 166.1 403.4C166.4 407.4 166.7 411.6 168.7 415.2C169.7 417 171 418.6 172.8 419.6C174.5 420.7 176.6 421.2 178.6 420.8C179.8 420.6 181 420 182 419.3C183 418.6 183.9 417.7 184.6 416.7C186.1 414.7 187.1 412.4 188.3 410.2C193.1 400.9 199.9 392.9 207.6 385.9C214.4 379.7 222 374.4 230.1 370C228.3 367.4 226.7 364.6 225.3 361.6C218.2 346.3 217.9 328.8 217.7 311.9C217.5 295.2 217.3 278.6 217.1 261.9C217.1 256.8 217.5 251.5 217.9 246.2Z" fill="url(#paint6_linear)"/>
<path d="M303.6 189C299.9 189.2 296.2 189.3 292.5 189.6C269.2 191.2 246 194.8 223.2 200.3C219.9 220.8 217.7 241.4 216.9 262.1C217.1 278.5 217.3 294.8 217.5 311.2C243.1 315.6 269.2 317.4 295.2 316.4C324.8 315.2 354.3 310.5 382.8 302.3C382 275.5 379.9 248.7 375.4 222.3C373.7 211.9 371.5 201.6 369 191.4C347.3 188.9 325.4 188.1 303.6 189Z" fill="#DFE2E7"/>
<path d="M255.2 390.2C249.1 403 244 416.4 240.1 430.1C239.2 433.3 238.4 436.6 238.2 439.9C238.1 443.3 238.8 446.7 240.8 449.4C242.7 452.1 245.8 453.9 249 454.9C252.2 455.9 255.5 456.2 258.9 456.4C278.4 457.8 297.9 458 317.4 457.6C331.5 457.3 345.6 456.6 359.7 455.4C363 455.1 366.4 454.8 369.6 453.8C372.8 452.8 375.8 451 377.8 448.3C379.7 445.7 380.5 442.4 380.5 439.1C380.5 435.9 379.7 432.6 378.7 429.5C375.8 419.9 371.2 411 366.6 402.2C363.7 396.7 360.7 391.3 357.7 385.8C353.5 388 348.9 389.7 344.4 391C327.3 395.9 309.2 396.2 291.4 395.7C279.3 395.3 266.6 394.5 255.2 390.2Z" fill="#DFE2E7"/>
<path d="M377.5 235C381.8 265.9 383.2 297.1 383.3 328.3C383.3 336.4 383.2 344.7 381.7 352.7C381.5 353.9 381.1 355.2 380.8 356.4C392.1 359.2 403.1 363.6 413 369.6C421.9 375 430.1 381.6 436.5 389.8C438 391.8 439.5 393.8 441.3 395.5C442.2 396.3 443.3 397.1 444.4 397.6C445.5 398.1 446.8 398.4 448 398.4C450 398.4 452 397.5 453.5 396.1C455 394.7 456 392.9 456.6 391C457.8 387.1 457.4 382.9 456.9 378.9C455 362.6 452.6 346.2 448.1 330.4C441 305.6 428.5 282.3 411.2 263.2C401.5 252.3 390 242.8 377.5 235Z" fill="url(#paint7_linear)"/>
<path d="M262.5 254.8C262.1 247.6 263.9 240.2 267.9 234.2C271.4 229 276.4 224.9 282 222.3C287.7 219.7 294 218.5 300.2 218.5C308.9 218.6 317.8 221.1 324.6 226.6C329.4 230.5 333 235.9 335 241.7C337 247.6 337.2 254 335.8 260.1C333.9 268.6 328.7 276.3 321.9 281.8C313.8 288.4 303 292 292.8 290.3C283.7 288.8 275.5 283.1 270.1 275.7C265.7 269.7 262.9 262.3 262.5 254.8Z" fill="url(#paint8_linear)"/>
<path d="M272.9 247.4C274.8 240.9 279 235.1 284.6 231.4C291.7 226.7 301.1 225.4 309.1 228.2C313.1 229.6 316.8 232 319.7 235.1C322.6 238.2 324.8 242.1 325.8 246.2C327.2 251.5 326.8 257.2 324.8 262.2C322.8 267.2 319.3 271.7 314.9 274.8C310.8 277.7 306 279.5 301 279.9C296 280.3 290.9 279.4 286.5 277.1C281.2 274.4 276.9 269.9 274.4 264.6C272.1 259.4 271.5 253.2 272.9 247.4Z" fill="url(#paint9_linear)"/>
<path d="M254.8 456C247.9 465.6 243.4 476.9 242.1 488.7C241.3 495.9 241.6 503.2 242.8 510.3C243.2 512.8 243.7 515.2 244.5 517.6C244.7 518.1 244.8 518.7 245.1 519.2C245.4 519.7 245.8 520.1 246.4 520.3C246.8 520.4 247.2 520.4 247.5 520.4C247.9 520.3 248.2 520.2 248.6 520C249.2 519.6 249.7 519 250.2 518.4C255.6 511.3 259 502.9 264.8 496C267.9 492.2 271.9 489 276.6 487.5C277 487.4 277.5 487.2 278 487.2C278.4 487.2 278.9 487.3 279.3 487.6C279.5 487.8 279.7 488.1 279.7 488.3C279.8 488.6 279.8 488.9 279.8 489.2C279.8 489.8 279.5 490.3 279.3 490.9C278 494.6 277.4 498.6 276.9 502.5C275.4 513.6 274.1 524.9 275.1 536.1C276.6 552.2 282.8 567.8 292.4 580.9C294.3 583.5 296.3 585.9 298.7 588C301.1 590.1 304 591.7 307.1 592.3C310.6 593 314.3 592.3 317.7 590.9C324.8 587.9 330 581.8 334.4 575.6C340.7 566.7 346.2 557.1 349.5 546.8C352.8 536.5 354 525.4 352.1 514.8C350.8 507.6 348 500.7 345.8 493.7C345.5 492.9 345.3 492 345.2 491.1C345.1 490.2 345.3 489.3 345.9 488.6C346.3 488.1 346.9 487.8 347.5 487.6C348.1 487.4 348.8 487.4 349.4 487.6C350.7 487.8 351.8 488.5 352.9 489.2C357.3 491.9 361.6 494.9 365.4 498.4C368.5 501.2 371.2 504.4 373.6 507.9C374.8 509.6 375.9 511.4 377.5 512.7C378.3 513.4 379.2 513.9 380.2 514.1C381.2 514.4 382.3 514.3 383.2 513.9C384.3 513.4 385.1 512.5 385.7 511.5C386.3 510.5 386.6 509.3 386.9 508.1C388.2 502.1 388.3 495.9 387.7 489.7C386.7 480.5 384.2 471.5 380.2 463.2C378.3 459.2 376.1 455.5 373.5 451.9C372.4 452.5 371.2 453.1 370 453.5C366.8 454.5 363.4 454.8 360.1 455.1C346 456.3 331.9 457 317.8 457.3C298.3 457.7 278.7 457.5 259.3 456.1L254.8 456Z" fill="url(#paint10_linear)"/>
<path d="M344.2 189.4C345.6 194.3 346.9 199.2 348.1 204.2C356.3 238.3 360.4 273.8 355.8 308.7C355.8 308.8 355.8 308.9 355.7 309C364.8 307.1 373.8 304.9 382.7 302.4C382.5 296.3 382.3 290.1 381.9 284C381.8 282.9 381.8 281.8 381.7 280.8C381 268.6 379.9 256.4 378.4 244.2C378.2 243 378.1 241.8 378 240.6C377.2 234.5 376.4 228.5 375.3 222.5C374.5 217.7 373.6 212.9 372.6 208.1C372.4 207.3 372.2 206.5 372.1 205.7C371.1 201 370.1 196.4 368.9 191.8V191.7C360.8 190.5 352.5 189.9 344.2 189.4Z" fill="#CFD3DB"/>
<path d="M216.9 262.1C217.9 237.1 220.8 212.1 225.4 187.5C229.7 164.6 235.6 141.6 247.5 121.6C251.9 114.3 257 107.4 263.4 101.9C269.8 96.4 277.6 92.2 286 90.9C295.4 89.5 305.1 91.6 313.6 96C321.7 100.2 328.7 106.4 334.5 113.5C340.3 120.6 344.9 128.5 349 136.7C362.5 163.5 370.5 192.8 375.4 222.4C381.3 257.4 383.1 292.9 383.2 328.4C383.2 336.6 383.1 344.8 381.6 352.8C380.1 360.8 377.1 368.7 371.9 375C365 383.3 354.8 388.1 344.4 391.1C327.3 395.9 309.2 396.2 291.4 395.8C276.8 395.4 261.7 394.3 248.8 387.5C238.4 381.9 230 372.7 225 361.9C217.9 346.6 217.6 329.1 217.4 312.2C217.3 295.4 217.1 278.8 216.9 262.1Z" stroke="black" stroke-width="0.9295"/>
<path d="M377.4 235C381.7 265.9 383.1 297.1 383.2 328.3C383.2 336.5 383.1 344.7 381.6 352.7C381.4 353.9 381 355.2 380.7 356.4C392 359.2 403 363.6 412.9 369.6C421.8 375 430 381.6 436.4 389.8C437.9 391.8 439.4 393.8 441.2 395.5C442.1 396.3 443.2 397.1 444.3 397.6C445.4 398.1 446.7 398.4 447.9 398.4C449.9 398.4 451.9 397.5 453.4 396.1C454.9 394.7 455.9 392.9 456.5 391C457.7 387.1 457.3 382.9 456.8 378.9C454.8 362.6 452.5 346.2 448 330.4C440.9 305.6 428.4 282.3 411.1 263.2C401.5 252.3 390 242.8 377.4 235Z" stroke="black" stroke-width="0.9295"/>
<path d="M217.8 246.2C206.5 256.4 196.7 268.3 188.8 281.3C175.4 303.3 167.6 328.6 165.4 354.3C164 370.7 164.8 387.2 166 403.5C166.3 407.6 166.6 411.7 168.6 415.3C169.6 417.1 170.9 418.7 172.7 419.7C174.4 420.8 176.5 421.3 178.5 420.9C179.7 420.7 180.9 420.1 181.9 419.4C182.9 418.7 183.8 417.8 184.5 416.8C186 414.8 187 412.5 188.2 410.3C193 401 199.8 393 207.5 386C214.3 379.8 221.9 374.5 230 370.1C228.2 367.5 226.6 364.6 225.2 361.7C218.1 346.4 217.8 328.9 217.6 312C217.4 295.3 217.2 278.7 217 262C217.1 256.8 217.5 251.5 217.8 246.2Z" stroke="black" stroke-width="0.9295"/>
<path d="M304.7 227.1C308.2 228.7 311.4 231.1 313.8 234.1C317.5 238.8 319.4 244.8 319.2 250.7C318.9 257.2 316.1 263.4 311.8 268.2C307.8 272.7 302.5 276.2 296.8 278C295.2 278.5 293.6 278.8 292 279.1C295 279.9 298.2 280.2 301.3 280C306.3 279.6 311.1 277.8 315.2 274.9C319.6 271.8 323.2 267.3 325.2 262.3C327.1 257.2 327.5 251.5 326.2 246.3C325.1 242.2 323 238.3 320.1 235.2C317.2 232.1 313.5 229.7 309.5 228.3C307.7 227.7 306.2 227.4 304.7 227.1Z" fill="#B8BECA"/>
<path d="M308.7 219.5C312.8 221.8 316.5 224.7 319.7 228.1C324.4 233.1 327.9 239.2 329.6 245.8C331.3 252.5 331.1 259.6 328.6 266C325.6 273.8 319.4 280.1 312.2 284.3C306.2 287.8 299.3 289.8 292.4 290.4C292.6 290.4 292.7 290.5 292.9 290.5C303.2 292.2 313.9 288.6 322 282C328.8 276.5 334 268.8 335.9 260.3C337.3 254.2 337 247.8 335.1 241.9C333.2 236 329.5 230.7 324.7 226.8C320.1 222.9 314.5 220.6 308.7 219.5Z" fill="url(#paint11_linear)"/>
<path d="M357.9 385.9C353.7 388.1 349.1 389.8 344.6 391.1C343.6 391.4 342.6 391.6 341.6 391.9C346.1 401.1 348.4 411.4 348 421.7C347.8 425.6 347.3 429.7 345.4 433.2C343.9 436 341.5 438.3 338.9 440C336.2 441.7 333.3 443 330.3 444C320.5 447.2 310 447.9 299.6 448.4C280.5 449.5 261.5 450.3 242.4 451C244.3 452.9 246.7 454.2 249.3 455C252.5 456 255.8 456.3 259.2 456.5C278.7 457.9 298.2 458.1 317.7 457.7C331.8 457.4 345.9 456.7 360 455.5C363.3 455.2 366.7 454.9 369.9 453.9C373.1 452.9 376.1 451.1 378.1 448.4C380 445.8 380.8 442.4 380.8 439.2C380.8 436 380 432.8 379 429.6C376.1 420.1 371.5 411.1 366.9 402.3C363.8 396.7 360.8 391.3 357.9 385.9Z" fill="#CFD3DB"/>
<path d="M255.2 390.2C249.1 403 244 416.4 240.1 430.1C239.2 433.3 238.4 436.6 238.3 439.9C238.2 443.3 238.9 446.7 240.9 449.4C242.8 452.1 245.9 453.9 249.1 454.9C252.3 455.9 255.6 456.2 259 456.4C278.5 457.8 298 458 317.5 457.6C331.6 457.3 345.7 456.6 359.8 455.4C363.1 455.1 366.5 454.8 369.7 453.8C372.9 452.8 375.9 451 377.9 448.3C379.8 445.7 380.6 442.3 380.6 439.1C380.6 435.8 379.8 432.6 378.8 429.5C375.9 419.9 371.3 411 366.7 402.2C363.8 396.7 360.8 391.3 357.8 385.8C353.6 388 349 389.6 344.5 391C327.4 395.8 309.3 396.2 291.5 395.7C279.3 395.3 266.6 394.5 255.2 390.2Z" stroke="black" stroke-width="0.9295"/>
<path d="M373.3 452.2C372.2 452.8 371 453.4 369.8 453.8C368.8 454.1 367.8 454.3 366.7 454.6C371.2 463 374.8 472 377.2 481.3C377.6 482.9 378 484.6 377.8 486.2C377.7 487 377.3 487.8 376.8 488.4C376.3 489 375.5 489.5 374.7 489.7C374 489.8 373.3 489.7 372.6 489.5C370 488.8 367.7 487.2 365.6 485.4C363.6 483.6 361.8 481.6 359.7 479.8C356.9 477.5 353.7 475.6 350.1 475C348.3 474.7 346.5 474.7 344.7 475.1C342.9 475.5 341.2 476.3 339.8 477.4C338 478.9 336.7 481 335.9 483.3C335.1 485.5 334.8 487.9 334.7 490.3C334.3 499.2 336.4 508.2 335.7 517.2C334.6 529.2 328.4 540 321.5 549.9C318.2 554.7 314.6 559.3 310.4 563.3C304.2 569 296.4 573 288.2 575C289.5 577.1 290.8 579.2 292.3 581.2C294.2 583.8 296.2 586.2 298.6 588.3C301 590.4 303.9 592 307 592.6C310.5 593.3 314.2 592.6 317.6 591.2C324.7 588.2 329.9 582.1 334.3 575.9C340.6 567 346.1 557.5 349.4 547.1C352.7 536.8 353.9 525.7 352 515.1C350.7 507.9 347.9 501 345.7 494C345.4 493.2 345.2 492.3 345.1 491.4C345 490.5 345.2 489.6 345.8 488.9C346.2 488.4 346.8 488.1 347.4 487.9C348 487.8 348.7 487.7 349.3 487.9C350.6 488.1 351.7 488.8 352.8 489.5C357.2 492.3 361.5 495.2 365.3 498.7C368.4 501.6 371.1 504.7 373.5 508.2C374.7 509.9 375.8 511.7 377.4 513.1C378.2 513.8 379.1 514.3 380.1 514.5C381.1 514.7 382.2 514.7 383.2 514.3C384.3 513.8 385.1 512.9 385.7 511.9C386.3 510.9 386.6 509.7 386.8 508.5C388.2 502.5 388.2 496.3 387.6 490.1C386.6 480.9 384.1 471.9 380.1 463.6C378 459.6 375.8 455.8 373.3 452.2Z" fill="url(#paint12_linear)"/>
<path d="M254.8 456C247.9 465.6 243.4 476.9 242.1 488.7C241.3 495.9 241.6 503.2 242.8 510.3C243.2 512.8 243.7 515.2 244.5 517.7C244.7 518.2 244.8 518.8 245.1 519.3C245.4 519.8 245.8 520.2 246.4 520.4C246.7 520.5 247.2 520.5 247.5 520.5C247.9 520.4 248.2 520.3 248.6 520.1C249.2 519.7 249.7 519.1 250.2 518.5C255.6 511.4 259 503 264.8 496.1C267.9 492.3 271.9 489.1 276.6 487.6C277 487.5 277.5 487.3 278 487.3C278.4 487.3 278.9 487.4 279.3 487.7C279.5 487.9 279.7 488.2 279.7 488.4C279.8 488.7 279.8 489 279.8 489.3C279.8 489.9 279.5 490.4 279.3 491C278 494.7 277.4 498.7 276.8 502.6C275.3 513.7 274 525 275 536.2C276.5 552.3 282.7 567.9 292.3 581C294.2 583.6 296.2 586 298.6 588.1C301 590.2 303.9 591.8 307 592.4C310.5 593.1 314.2 592.4 317.6 591C324.6 588 329.9 581.9 334.3 575.7C340.6 566.9 346.1 557.2 349.4 546.9C352.7 536.6 353.9 525.5 352 514.9C350.7 507.7 347.9 500.8 345.7 493.8C345.4 493 345.2 492.1 345.1 491.2C345 490.3 345.2 489.4 345.8 488.7C346.2 488.2 346.8 487.9 347.4 487.7C348 487.5 348.7 487.5 349.3 487.7C350.6 487.9 351.7 488.6 352.8 489.3C357.2 492 361.5 495 365.3 498.5C368.4 501.3 371.1 504.6 373.5 508C374.7 509.7 375.8 511.5 377.4 512.8C378.2 513.5 379.1 514 380.2 514.2C381.2 514.5 382.3 514.4 383.2 514C384.3 513.5 385.1 512.6 385.7 511.6C386.3 510.6 386.6 509.4 386.9 508.2C388.2 502.2 388.3 496 387.7 489.8C386.7 480.6 384.2 471.6 380.2 463.3C378.3 459.3 376.1 455.6 373.5 452C372.4 452.6 371.2 453.2 370 453.6C366.8 454.6 363.4 454.9 360.1 455.2C346 456.4 331.9 457.1 317.8 457.4C298.3 457.8 278.7 457.6 259.3 456.2L254.8 456Z" stroke="black" stroke-width="0.9295"/>
<path d="M203.1 280.9C198.4 285.9 194.5 291.6 191.4 297.7C188.2 304.1 186 311.1 184.8 318.2" stroke="white" stroke-width="1.4407" stroke-linecap="round" stroke-linejoin="round"/>
<g clip-path="url(#clip1)">
<path d="M120.405 207.961C150.179 207.961 174.286 183.81 174.286 153.981C174.286 124.152 150.179 100.001 120.405 100.001C90.6303 100.001 66.5235 124.152 66.5235 153.981C66.5235 183.73 90.6303 207.961 120.405 207.961Z" fill="#FF5CAA"/>
<path d="M106.795 101.759C112.861 100.16 119.048 99.6801 124.955 100.2L125.513 101.28C128.068 106.278 131.58 110.596 136.05 114.075C142.276 118.993 148.143 124.391 153.372 130.349L153.611 130.669C157.084 134.587 160.396 138.706 163.39 142.944L167.381 148.582C169.297 151.341 171.691 153.9 174.326 156.059C173.727 171.573 166.463 186.048 154.609 195.765L142.516 181.41C141.917 180.65 141.358 179.85 140.879 179.011L133.735 166.056C132.258 163.417 130.423 161.057 128.187 159.018L118.888 150.701C117.252 149.222 115.815 147.702 114.338 146.063L104.799 134.947C103.801 133.787 102.724 132.628 101.566 131.628L88.9141 119.913C88.6746 119.673 85.2023 116.514 83.3664 114.835C89.6724 108.717 97.6947 104.158 106.795 101.759Z" fill="url(#paint13_linear)"/>
<path d="M74.6656 125.431L78.6568 129.909C80.1335 131.508 81.4905 133.148 82.8076 134.827L93.7435 148.782L101.446 157.259C105.677 161.897 110.387 166.056 115.456 169.694C121.921 174.253 127.868 179.571 133.097 185.408L139.083 192.126L147.305 200.603C144.99 201.922 142.596 203.082 140.161 204.081L137.766 199.683C136.21 196.924 134.055 194.605 131.38 192.966L121.442 186.888C118.529 185.049 115.895 182.729 113.899 179.93L104.6 167.215L91.7479 150.621L87.597 145.623C82.9673 139.985 77.7388 134.907 71.9117 130.509C72.67 128.829 73.588 127.15 74.6656 125.431Z" fill="url(#paint14_linear)"/>
<path d="M76.302 151.741L77.9783 152.9C84.7633 157.619 90.8299 163.177 96.0584 169.494C99.8101 174.053 103.203 178.971 106.076 184.209C110.147 191.686 116.254 197.924 123.558 202.242L131.34 206.88C124.196 208.36 117.012 208.36 110.187 207.04C105.797 202.802 101.566 198.404 97.6548 193.765L91.2689 186.288L81.0515 174.652C78.4971 171.813 75.9028 168.934 73.1888 166.255L66.9626 159.978C66.3639 154.42 66.5634 148.862 67.6411 143.544C70.0757 146.663 72.9893 149.422 76.302 151.741Z" fill="url(#paint15_linear)"/>
<path d="M146.347 106.718C156.645 112.355 165.066 121.352 169.895 132.628L156.645 117.993L146.347 106.718Z" fill="#8345ED"/>
<path d="M106.795 101.759C109.07 101.16 111.464 100.68 113.779 100.4L118.249 105.798C120.724 108.717 123.238 111.596 126.032 114.275L131.5 119.593C135.132 123.151 138.205 127.15 140.72 131.628L142.356 134.387C145.908 140.545 150.219 146.183 155.288 151.181C160.197 155.979 165.505 160.298 171.213 164.136L173.128 165.456C172.45 168.615 171.452 171.693 170.215 174.692L166.064 169.814C160.835 163.656 155.447 157.699 149.82 151.861L143.194 144.903L132.418 134.507C129.584 131.748 125.633 130.509 121.722 131.028C116.892 131.708 112.023 129.549 109.309 125.471C104.679 118.593 98.4531 112.875 91.1492 108.797C95.779 105.638 101.087 103.239 106.795 101.759Z" fill="url(#paint16_linear)"/>
<path d="M72.9893 179.571C75.1445 180.65 77.9782 182.649 80.9317 186.128C86.24 191.846 88.8742 196.004 90.0716 198.564C83.087 193.765 77.1401 187.288 72.9893 179.571Z" fill="#FF78BF"/>
<path opacity="0.9" d="M120.405 207.961C150.179 207.961 174.286 183.81 174.286 153.981C174.286 124.152 150.179 100.001 120.405 100.001C90.6303 100.001 66.5235 124.152 66.5235 153.981C66.5235 183.73 90.6303 207.961 120.405 207.961Z" fill="url(#paint17_linear)"/>
<path d="M169.257 130.549C170.853 133.068 172.25 135.747 173.408 138.466C173.807 138.666 174.246 138.826 174.645 139.026C176.082 139.745 177.479 140.585 178.596 141.745C179.714 142.904 180.512 144.424 180.592 146.023C180.672 147.582 179.993 149.102 179.075 150.341C178.117 151.581 176.92 152.581 175.683 153.54C173.009 155.579 170.135 157.459 167.141 158.978C158.999 163.137 149.82 164.736 140.72 165.976C125.354 168.095 109.788 169.334 94.3821 167.775C85.5615 166.895 76.741 165.056 68.599 161.497C66.7231 160.698 64.8872 159.778 63.4104 158.418C62.6521 157.739 62.0135 156.939 61.5346 156.059C61.0556 155.18 60.7762 154.18 60.7363 153.14C60.6964 151.821 61.1354 150.541 61.774 149.382C62.4126 148.222 63.3306 147.263 64.2486 146.343C65.0069 145.583 65.845 144.903 66.6832 144.264C67.6411 140.705 68.9582 137.266 70.5546 133.947C68.1998 134.547 65.8849 135.467 63.7696 136.666C59.1398 139.345 55.3482 143.344 52.9136 148.062C50.3991 152.9 49.2816 158.538 50.3193 163.896C51.5566 170.334 55.7872 175.932 60.9359 179.97C65.6854 183.729 71.2331 186.368 76.9805 188.287C92.8654 193.525 109.988 193.166 126.671 192.166C140.879 191.326 155.407 190.007 168.339 184.129C175.842 180.73 182.667 175.812 187.976 169.534C191.568 165.296 194.521 160.258 194.84 154.74C195.04 151.181 194.162 147.622 192.446 144.464C189.652 139.066 184.503 135.067 178.796 132.788C175.762 131.588 172.53 130.829 169.257 130.549Z" fill="#F7CB16"/>
<path d="M175.962 131.828C179.953 134.147 183.386 137.426 185.581 141.465C187.257 144.584 188.175 148.182 187.976 151.741C187.656 157.259 184.663 162.337 181.111 166.535C175.802 172.813 168.938 177.731 161.474 181.13C148.503 187.008 134.015 188.327 119.806 189.167C103.123 190.167 86.0006 190.527 70.1156 185.288C69.5169 185.089 68.9183 184.849 68.2797 184.609C71.1134 186.088 74.0669 187.288 77.1002 188.287C92.9851 193.525 110.107 193.166 126.791 192.166C140.999 191.326 155.527 190.007 168.459 184.129C175.962 180.73 182.787 175.812 188.095 169.534C191.687 165.296 194.641 160.258 194.96 154.74C195.16 151.181 194.282 147.582 192.565 144.464C189.652 139.066 184.503 135.067 178.796 132.788C177.878 132.428 176.92 132.108 175.962 131.828Z" fill="#F7B516"/>
<path d="M62.8916 178.011C60.0977 176.212 57.6631 173.813 55.8671 170.974C54.5101 168.855 53.5123 166.495 52.8338 164.016C52.5943 163.097 52.3548 162.097 52.3947 161.137C52.4346 160.178 52.714 159.178 53.3925 158.458C53.7517 158.059 54.2706 157.739 54.7894 157.579C55.3083 157.419 55.907 157.419 56.4258 157.539C57.264 157.779 57.9824 158.338 58.5412 159.058C59.06 159.738 59.4591 160.538 59.8582 161.337C61.0556 163.696 62.3727 165.976 64.2086 167.895C66.1643 169.934 68.559 171.494 70.8739 173.173C71.5524 173.693 72.2309 174.213 72.7498 174.892C73.2687 175.572 73.6279 176.412 73.548 177.251C73.5081 177.811 73.2687 178.331 72.9494 178.731C72.6301 179.171 72.1511 179.491 71.6722 179.731C70.6744 180.21 69.5568 180.29 68.4792 180.17C66.4038 180.05 64.488 179.251 62.8916 178.011Z" fill="#FADF6F"/>
<path d="M113.739 149.982C113.42 149.982 113.101 150.141 112.901 150.421C112.702 150.701 112.622 151.021 112.702 151.381C112.981 152.7 113.62 153.9 114.538 154.94C115.456 155.939 116.573 156.699 117.85 157.139C120.085 157.899 122.6 157.579 124.635 156.379C126.471 155.3 127.868 153.54 128.467 151.501C128.587 151.221 128.547 150.901 128.427 150.621C128.307 150.341 128.028 150.141 127.748 150.061C127.469 149.982 127.15 150.021 126.87 150.141C126.591 150.301 126.391 150.541 126.312 150.861C125.833 152.341 124.795 153.66 123.478 154.46C122.001 155.34 120.165 155.539 118.569 155.02C117.651 154.7 116.852 154.18 116.214 153.46C115.575 152.74 115.136 151.861 114.937 150.941C114.777 150.341 114.298 149.982 113.739 149.982Z" fill="black"/>
<path d="M139.203 148.182C138.604 148.182 138.126 147.742 138.086 147.143C137.966 145.943 138.165 144.743 138.724 143.664C139.243 142.584 140.121 141.705 141.119 141.105C142.795 140.105 144.831 139.985 146.627 140.705C147.864 141.225 148.942 142.104 149.62 143.264C150.299 144.424 150.618 145.783 150.458 147.143C150.418 147.422 150.259 147.702 150.059 147.902C149.82 148.102 149.54 148.182 149.221 148.142C148.942 148.102 148.662 147.942 148.463 147.742C148.263 147.502 148.183 147.223 148.223 146.903C148.303 146.063 148.103 145.183 147.664 144.424C147.225 143.704 146.547 143.104 145.749 142.784C144.631 142.344 143.274 142.424 142.236 143.024C141.598 143.424 141.039 143.984 140.68 144.663C140.321 145.343 140.201 146.143 140.281 146.863C140.321 147.183 140.201 147.502 140.001 147.742C139.842 148.062 139.562 148.182 139.203 148.182Z" fill="black"/>
<path d="M89.9918 148.182C89.3931 148.182 88.9141 147.742 88.8742 147.143C88.7545 145.943 88.954 144.743 89.5128 143.664C90.0317 142.584 90.9097 141.705 91.9075 141.105C93.5838 140.105 95.6193 139.985 97.4154 140.705C98.6526 141.225 99.7303 142.104 100.409 143.264C101.087 144.424 101.407 145.783 101.247 147.143C101.207 147.462 101.087 147.702 100.848 147.902C100.608 148.102 100.329 148.182 100.01 148.142C99.6903 148.102 99.4509 147.942 99.2513 147.742C99.0518 147.502 98.9719 147.223 99.0118 146.903C99.0917 146.063 98.8921 145.183 98.4531 144.424C98.014 143.704 97.3355 143.104 96.5373 142.784C95.4198 142.344 94.0628 142.424 93.0251 143.024C92.3865 143.424 91.8277 143.984 91.4685 144.663C91.1093 145.343 90.9896 146.143 91.0694 146.863C91.1093 147.183 90.9896 147.502 90.79 147.742C90.6303 148.062 90.311 148.182 89.9918 148.182Z" fill="black"/>
<path d="M97.3755 158.058C97.3755 160.937 93.9829 163.257 89.7922 163.257C87.7966 163.257 85.8409 162.697 84.444 161.737C83.0072 160.777 82.2089 159.458 82.2089 158.058C82.2089 155.18 85.6014 152.86 89.7922 152.86C93.9829 152.86 97.3755 155.18 97.3755 158.058Z" fill="#FF8080"/>
<path d="M157.363 158.058C157.363 159.418 156.565 160.777 155.128 161.737C153.691 162.697 151.775 163.257 149.78 163.257C147.784 163.257 145.829 162.697 144.432 161.737C142.995 160.777 142.197 159.458 142.197 158.058C142.197 155.18 145.589 152.86 149.78 152.86C153.971 152.86 157.363 155.18 157.363 158.058Z" fill="#FF8080"/>
</g>
</g>
<path d="M472 144C511.799 144 544 111.799 544 72C544 32.2007 511.799 0 472 0C432.201 0 400 32.2007 400 72C400 111.799 432.201 144 472 144Z" fill="#AEE7EF"/>
<path d="M410.787 85.9749C407.705 86.8782 404.835 88.366 402.232 90.2789C407.173 109.089 419.607 125.136 436.505 134.701C446.973 126.252 450.108 111.534 443.784 99.6309C437.621 87.7284 423.752 82.0959 410.787 85.9749Z" fill="url(#paint18_linear)"/>
<path d="M462.01 136.72C467.165 136.72 471.362 132.522 471.362 127.368C471.362 122.214 467.165 118.016 462.01 118.016C456.856 118.016 452.658 122.214 452.658 127.368C452.658 132.522 456.856 136.72 462.01 136.72Z" fill="url(#paint19_linear)"/>
<path d="M477.261 134.754C478.908 134.754 480.342 133.426 480.342 131.672C480.342 129.919 479.014 128.59 477.261 128.59C475.613 128.59 474.179 129.919 474.179 131.672C474.179 133.426 475.613 134.754 477.261 134.754Z" fill="#E6FBFF"/>
<path d="M525.88 66.155C529.069 66.155 531.725 63.4982 531.725 60.31C531.725 57.1218 529.175 54.465 525.88 54.465C522.586 54.465 520.035 57.0155 520.035 60.31C520.035 63.445 522.692 66.155 525.88 66.155Z" fill="url(#paint20_linear)"/>
<path d="M500.269 5.73877C496.071 17.7476 498.621 31.138 507.176 40.7026C515.625 50.2672 528.697 54.465 541.131 51.7019C535.073 31.0849 520.035 14.2938 500.269 5.73877Z" fill="url(#paint21_linear)"/>
<path d="M543.681 77.9513C532.682 83.5838 527.315 96.3365 531.035 108.186C531.353 109.302 531.779 110.365 532.257 111.374C537.889 102.607 541.715 92.8827 543.15 82.5742C543.469 81.0332 543.575 79.4923 543.681 77.9513Z" fill="url(#paint22_linear)"/>
<path d="M484.54 18.3852C487.091 18.3852 489.269 16.3129 489.269 13.6561C489.269 10.9993 487.197 8.92694 484.54 8.92694C481.99 8.92694 479.811 10.9993 479.811 13.6561C479.811 16.3129 481.99 18.3852 484.54 18.3852Z" fill="#E6FBFF"/>
<path d="M494.211 36.9299C495.54 36.9299 496.602 35.9203 496.602 34.5387C496.602 33.2103 495.593 32.1476 494.211 32.1476C492.83 32.1476 491.82 33.1572 491.82 34.5387C491.873 35.9203 492.883 36.9299 494.211 36.9299Z" fill="#E6FBFF"/>
<path d="M441.34 87.1439C442.669 87.1439 443.731 86.1343 443.731 84.7528C443.731 83.3712 442.722 82.3616 441.34 82.3616C440.012 82.3616 438.949 83.3712 438.949 84.7528C439.108 86.0812 440.118 87.1439 441.34 87.1439Z" fill="#E6FBFF"/>
<path d="M513.872 101.013C522.533 91.7668 523.224 78.3764 515.519 71.3092C507.814 64.1358 494.53 65.8362 485.975 75.135C477.314 84.3808 476.623 97.7712 484.328 104.838C492.032 111.906 505.317 110.258 513.872 101.013Z" fill="url(#paint23_linear)"/>
<path d="M472 144C511.799 144 544 111.799 544 72C544 32.2007 511.799 0 472 0C432.201 0 400 32.2007 400 72C400 111.799 432.201 144 472 144Z" fill="url(#paint24_linear)"/>
<path d="M459.141 71.8937C459.088 75.2413 460.416 78.5889 462.807 80.9269C464.561 82.6804 466.846 83.8494 469.237 84.3276C471.628 84.8059 474.179 84.487 476.463 83.5306C478.695 82.5741 480.661 80.8738 481.99 78.8014C483.318 76.7291 484.009 74.2317 483.903 71.7874L459.141 71.8937Z" fill="black"/>
<path d="M499.047 69.2369C498.249 69.2369 497.559 68.5992 497.506 67.8022C497.346 66.155 497.612 64.4546 498.409 62.9668C499.153 61.4789 500.322 60.2568 501.757 59.4066C504.095 58.0251 506.964 57.8125 509.461 58.8221C511.215 59.5129 512.649 60.7882 513.659 62.3823C514.616 63.9764 515.041 65.8893 514.828 67.7491C514.775 68.1742 514.562 68.5461 514.244 68.8118C513.925 69.0775 513.5 69.1838 513.075 69.1306C512.649 69.0775 512.278 68.8649 512.012 68.5461C511.746 68.2273 511.64 67.8022 511.693 67.3771C511.799 66.2081 511.534 64.986 510.949 63.9232C510.365 62.9136 509.408 62.0634 508.292 61.6384C506.751 61.0007 504.838 61.1601 503.404 62.0103C502.5 62.5417 501.703 63.3387 501.278 64.2952C500.8 65.2516 500.588 66.3144 500.694 67.3771C500.747 67.8022 500.588 68.2804 500.322 68.5992C499.95 69.0243 499.525 69.2369 499.047 69.2369Z" fill="black"/>
<path d="M430.5 69.2369C429.703 69.2369 429.013 68.5992 428.959 67.8022C428.8 66.155 429.066 64.4546 429.863 62.9668C430.607 61.4789 431.776 60.2568 433.21 59.4066C435.548 58.0251 438.418 57.8125 440.915 58.8221C442.669 59.5129 444.103 60.7882 445.113 62.3823C446.069 63.9764 446.494 65.8893 446.282 67.7491C446.229 68.1742 446.016 68.5461 445.697 68.8118C445.379 69.0775 444.954 69.1838 444.528 69.1306C444.103 69.0775 443.731 68.8649 443.466 68.5461C443.2 68.2273 443.094 67.8022 443.147 67.3771C443.253 66.2081 442.987 64.986 442.403 63.9232C441.818 62.9136 440.862 62.0634 439.746 61.6384C438.205 61.0007 436.292 61.1601 434.858 62.0103C433.954 62.5417 433.157 63.3387 432.732 64.2952C432.254 65.2516 432.041 66.3144 432.148 67.3771C432.201 67.8022 432.041 68.2804 431.776 68.5992C431.351 69.0243 430.925 69.2369 430.5 69.2369Z" fill="black"/>
<path d="M440.756 82.9461C440.756 84.859 439.64 86.7188 437.674 88.0472C435.708 89.4288 432.998 90.1727 430.182 90.1727C427.365 90.1727 424.708 89.4288 422.689 88.0472C420.723 86.6657 419.607 84.859 419.607 82.9461C419.607 78.9609 424.337 75.7195 430.182 75.7195C436.027 75.7195 440.756 78.9609 440.756 82.9461Z" fill="#FF8080"/>
<path d="M524.339 82.9461C524.339 84.859 523.224 86.7188 521.258 88.0472C519.291 89.4288 516.582 90.1727 513.765 90.1727C510.949 90.1727 508.292 89.4288 506.273 88.0472C504.307 86.6657 503.191 84.859 503.191 82.9461C503.191 78.9609 507.92 75.7195 513.765 75.7195C519.61 75.7195 524.339 78.9609 524.339 82.9461Z" fill="#FF8080"/>
<path d="M471.734 76.7823C469.928 76.7291 468.121 76.9417 466.368 77.3668C464.614 77.7919 462.967 78.4826 461.426 79.2797C461.851 79.8642 462.276 80.4487 462.754 80.9269C464.508 82.6804 466.793 83.8494 469.184 84.3276C471.575 84.8059 474.125 84.4871 476.41 83.5306C478.483 82.6273 480.236 81.1926 481.511 79.3859C478.483 77.7918 475.135 76.8354 471.734 76.7823Z" fill="#FF8080"/>
<defs>
<radialGradient id="paint0_radial" cx="0" cy="0" r="1" gradientUnits="userSpaceOnUse" gradientTransform="translate(324.971 499.653) scale(342.616)">
<stop stop-color="#4A289C"/>
<stop offset="0.963" stop-color="#00092B"/>
</radialGradient>
<linearGradient id="paint1_linear" x1="14.5707" y1="670.077" x2="669.642" y2="121.476" gradientUnits="userSpaceOnUse">
<stop offset="0.142" stop-color="#4A1448" stop-opacity="0.2"/>
<stop offset="0.268" stop-color="#44174A" stop-opacity="0.2409"/>
<stop offset="0.4335" stop-color="#341F4F" stop-opacity="0.2947"/>
<stop offset="0.6202" stop-color="#192D57" stop-opacity="0.3554"/>
<stop offset="0.7574" stop-color="#00395E" stop-opacity="0.4"/>
<stop offset="0.8068" stop-color="#013557" stop-opacity="0.5221"/>
<stop offset="0.8799" stop-color="#042943" stop-opacity="0.7029"/>
<stop offset="0.9673" stop-color="#081622" stop-opacity="0.9192"/>
<stop offset="1" stop-color="#0A0E14"/>
</linearGradient>
<linearGradient id="paint2_linear" x1="453.527" y1="343.778" x2="584.955" y2="273.683" gradientUnits="userSpaceOnUse">
<stop offset="0.1113" stop-color="#4A1448" stop-opacity="0.7"/>
<stop offset="0.2097" stop-color="#41184B" stop-opacity="0.7"/>
<stop offset="0.3698" stop-color="#292552" stop-opacity="0.7"/>
<stop offset="0.5708" stop-color="#02385E" stop-opacity="0.7"/>
<stop offset="0.5782" stop-color="#00395E" stop-opacity="0.7"/>
</linearGradient>
<linearGradient id="paint3_linear" x1="353.882" y1="541.149" x2="672.925" y2="303.856" gradientUnits="userSpaceOnUse">
<stop offset="0.2317" stop-color="#4A1448" stop-opacity="0.2"/>
<stop offset="0.3373" stop-color="#41184B" stop-opacity="0.2421"/>
<stop offset="0.5092" stop-color="#292552" stop-opacity="0.3107"/>
<stop offset="0.7249" stop-color="#02385E" stop-opacity="0.3968"/>
<stop offset="0.7329" stop-color="#00395E" stop-opacity="0.4"/>
<stop offset="0.7872" stop-color="#013557" stop-opacity="0.5221"/>
<stop offset="0.8677" stop-color="#042943" stop-opacity="0.7029"/>
<stop offset="0.964" stop-color="#081622" stop-opacity="0.9192"/>
<stop offset="1" stop-color="#0A0E14"/>
</linearGradient>
<linearGradient id="paint4_linear" x1="-20.5301" y1="501.271" x2="397.06" y2="351.223" gradientUnits="userSpaceOnUse">
<stop offset="0.2364" stop-color="#4A1448" stop-opacity="0.1"/>
<stop offset="0.3547" stop-color="#41184B" stop-opacity="0.2896"/>
<stop offset="0.5474" stop-color="#292552" stop-opacity="0.5983"/>
<stop offset="0.7892" stop-color="#02385E" stop-opacity="0.9858"/>
<stop offset="0.7981" stop-color="#00395E"/>
<stop offset="0.8392" stop-color="#013557"/>
<stop offset="0.9" stop-color="#042943"/>
<stop offset="0.9728" stop-color="#081622"/>
<stop offset="1" stop-color="#0A0E14"/>
</linearGradient>
<linearGradient id="paint5_linear" x1="217.215" y1="241.94" x2="384.601" y2="244.517" gradientUnits="userSpaceOnUse">
<stop stop-color="#C57BFF"/>
<stop offset="1" stop-color="#454BCB"/>
</linearGradient>
<linearGradient id="paint6_linear" x1="165.237" y1="333.118" x2="230.529" y2="334.123" gradientUnits="userSpaceOnUse">
<stop offset="0.2759" stop-color="#7556BA"/>
<stop offset="0.3895" stop-color="#7C5FBE"/>
<stop offset="0.5743" stop-color="#9077C8"/>
<stop offset="0.7825" stop-color="#AC9AD6"/>
</linearGradient>
<linearGradient id="paint7_linear" x1="376.21" y1="316.171" x2="458.618" y2="317.439" gradientUnits="userSpaceOnUse">
<stop offset="0.2759" stop-color="#7556BA"/>
<stop offset="0.3895" stop-color="#7C5FBE"/>
<stop offset="0.5743" stop-color="#9077C8"/>
<stop offset="0.7825" stop-color="#AC9AD6"/>
</linearGradient>
<linearGradient id="paint8_linear" x1="262.463" y1="254.142" x2="336.709" y2="255.285" gradientUnits="userSpaceOnUse">
<stop offset="0.2759" stop-color="#7556BA"/>
<stop offset="0.3895" stop-color="#7C5FBE"/>
<stop offset="0.5743" stop-color="#9077C8"/>
<stop offset="0.7825" stop-color="#AC9AD6"/>
</linearGradient>
<linearGradient id="paint9_linear" x1="272.2" y1="253.008" x2="326.762" y2="253.848" gradientUnits="userSpaceOnUse">
<stop offset="0.1525" stop-color="#7FCDEE"/>
<stop offset="0.236" stop-color="#88D0EF"/>
<stop offset="0.372" stop-color="#A0DAF2"/>
<stop offset="0.5426" stop-color="#C7E9F7"/>
<stop offset="0.5915" stop-color="#D4EEF9"/>
</linearGradient>
<linearGradient id="paint10_linear" x1="241.277" y1="520.908" x2="387.423" y2="523.158" gradientUnits="userSpaceOnUse">
<stop offset="0.4377" stop-color="#F7931E"/>
<stop offset="0.5098" stop-color="#F89C27"/>
<stop offset="0.6095" stop-color="#FBB03B"/>
</linearGradient>
<linearGradient id="paint11_linear" x1="292.909" y1="254.989" x2="336.706" y2="255.663" gradientUnits="userSpaceOnUse">
<stop offset="0.2759" stop-color="#7556BA"/>
<stop offset="0.3895" stop-color="#7C5FBE"/>
<stop offset="0.5743" stop-color="#9077C8"/>
<stop offset="0.7825" stop-color="#AC9AD6"/>
</linearGradient>
<linearGradient id="paint12_linear" x1="288.908" y1="521.641" x2="387.423" y2="523.158" gradientUnits="userSpaceOnUse">
<stop offset="0.4377" stop-color="#F7931E"/>
<stop offset="0.5098" stop-color="#F89C27"/>
<stop offset="0.6095" stop-color="#FBB03B"/>
</linearGradient>
<linearGradient id="paint13_linear" x1="162.565" y1="186.651" x2="108.418" y2="104.746" gradientUnits="userSpaceOnUse">
<stop stop-color="#6842DB"/>
<stop offset="0.5804" stop-color="#7B44E8"/>
<stop offset="1" stop-color="#8345ED"/>
</linearGradient>
<linearGradient id="paint14_linear" x1="126.636" y1="191.413" x2="78.0287" y2="117.882" gradientUnits="userSpaceOnUse">
<stop stop-color="#FF78BF"/>
<stop offset="0.1116" stop-color="#FF8DC9"/>
<stop offset="0.4022" stop-color="#FFBEE0"/>
<stop offset="0.6577" stop-color="#FFE1F1"/>
<stop offset="0.8656" stop-color="#FFF7FB"/>
<stop offset="1" stop-color="white"/>
</linearGradient>
<linearGradient id="paint15_linear" x1="118.23" y1="212.395" x2="73.9681" y2="145.441" gradientUnits="userSpaceOnUse">
<stop stop-color="#6842DB"/>
<stop offset="0.5804" stop-color="#7B44E8"/>
<stop offset="1" stop-color="#8345ED"/>
</linearGradient>
<linearGradient id="paint16_linear" x1="132.031" y1="140.071" x2="134.044" y2="85.6905" gradientUnits="userSpaceOnUse">
<stop stop-color="#FF78BF"/>
<stop offset="0.1116" stop-color="#FF8DC9"/>
<stop offset="0.4022" stop-color="#FFBEE0"/>
<stop offset="0.6577" stop-color="#FFE1F1"/>
<stop offset="0.8656" stop-color="#FFF7FB"/>
<stop offset="1" stop-color="white"/>
</linearGradient>
<linearGradient id="paint17_linear" x1="104.571" y1="138.105" x2="183.477" y2="216.879" gradientUnits="userSpaceOnUse">
<stop stop-color="#7033FF" stop-opacity="0"/>
<stop offset="1" stop-color="#7033FF"/>
</linearGradient>
<linearGradient id="paint18_linear" x1="426.603" y1="126.04" x2="420.25" y2="44.2684" gradientUnits="userSpaceOnUse">
<stop stop-color="#4567C4" stop-opacity="0"/>
<stop offset="0.07" stop-color="#4567C4" stop-opacity="0.09"/>
<stop offset="0.32" stop-color="#4567C4" stop-opacity="0.41"/>
<stop offset="0.54" stop-color="#4567C4" stop-opacity="0.67"/>
<stop offset="0.74" stop-color="#4567C4" stop-opacity="0.85"/>
<stop offset="0.9" stop-color="#4567C4" stop-opacity="0.96"/>
<stop offset="1" stop-color="#4567C4"/>
</linearGradient>
<linearGradient id="paint19_linear" x1="468.533" y1="133.844" x2="449.104" y2="114.425" gradientUnits="userSpaceOnUse">
<stop stop-color="#4567C4" stop-opacity="0"/>
<stop offset="0.07" stop-color="#4567C4" stop-opacity="0.09"/>
<stop offset="0.32" stop-color="#4567C4" stop-opacity="0.41"/>
<stop offset="0.54" stop-color="#4567C4" stop-opacity="0.67"/>
<stop offset="0.74" stop-color="#4567C4" stop-opacity="0.85"/>
<stop offset="0.9" stop-color="#4567C4" stop-opacity="0.96"/>
<stop offset="1" stop-color="#4567C4"/>
</linearGradient>
<linearGradient id="paint20_linear" x1="529.972" y1="64.3284" x2="517.81" y2="52.1706" gradientUnits="userSpaceOnUse">
<stop stop-color="#4567C4" stop-opacity="0"/>
<stop offset="0.07" stop-color="#4567C4" stop-opacity="0.09"/>
<stop offset="0.32" stop-color="#4567C4" stop-opacity="0.41"/>
<stop offset="0.54" stop-color="#4567C4" stop-opacity="0.67"/>
<stop offset="0.74" stop-color="#4567C4" stop-opacity="0.85"/>
<stop offset="0.9" stop-color="#4567C4" stop-opacity="0.96"/>
<stop offset="1" stop-color="#4567C4"/>
</linearGradient>
<linearGradient id="paint21_linear" x1="519.796" y1="35.7171" x2="492.013" y2="7.93533" gradientUnits="userSpaceOnUse">
<stop stop-color="#4567C4" stop-opacity="0"/>
<stop offset="0.07" stop-color="#4567C4" stop-opacity="0.09"/>
<stop offset="0.32" stop-color="#4567C4" stop-opacity="0.41"/>
<stop offset="0.54" stop-color="#4567C4" stop-opacity="0.67"/>
<stop offset="0.74" stop-color="#4567C4" stop-opacity="0.85"/>
<stop offset="0.9" stop-color="#4567C4" stop-opacity="0.96"/>
<stop offset="1" stop-color="#4567C4"/>
</linearGradient>
<linearGradient id="paint22_linear" x1="540.682" y1="97.38" x2="530.503" y2="87.1973" gradientUnits="userSpaceOnUse">
<stop stop-color="#4567C4" stop-opacity="0"/>
<stop offset="0.07" stop-color="#4567C4" stop-opacity="0.09"/>
<stop offset="0.32" stop-color="#4567C4" stop-opacity="0.41"/>
<stop offset="0.54" stop-color="#4567C4" stop-opacity="0.67"/>
<stop offset="0.74" stop-color="#4567C4" stop-opacity="0.85"/>
<stop offset="0.9" stop-color="#4567C4" stop-opacity="0.96"/>
<stop offset="1" stop-color="#4567C4"/>
</linearGradient>
<linearGradient id="paint23_linear" x1="509.121" y1="97.2392" x2="481.653" y2="69.7763" gradientUnits="userSpaceOnUse">
<stop stop-color="#4567C4" stop-opacity="0"/>
<stop offset="0.07" stop-color="#4567C4" stop-opacity="0.09"/>
<stop offset="0.32" stop-color="#4567C4" stop-opacity="0.41"/>
<stop offset="0.54" stop-color="#4567C4" stop-opacity="0.67"/>
<stop offset="0.74" stop-color="#4567C4" stop-opacity="0.85"/>
<stop offset="0.9" stop-color="#4567C4" stop-opacity="0.96"/>
<stop offset="1" stop-color="#4567C4"/>
</linearGradient>
<linearGradient id="paint24_linear" x1="450.377" y1="50.3777" x2="522.298" y2="122.296" gradientUnits="userSpaceOnUse">
<stop stop-color="#4567C4" stop-opacity="0"/>
<stop offset="0.07" stop-color="#4567C4" stop-opacity="0.09"/>
<stop offset="0.32" stop-color="#4567C4" stop-opacity="0.41"/>
<stop offset="0.54" stop-color="#4567C4" stop-opacity="0.67"/>
<stop offset="0.74" stop-color="#4567C4" stop-opacity="0.85"/>
<stop offset="0.9" stop-color="#4567C4" stop-opacity="0.96"/>
<stop offset="1" stop-color="#4567C4"/>
</linearGradient>
<clipPath id="clip0">
<rect width="622.6" height="773" fill="white" transform="translate(0 90)"/>
</clipPath>
<clipPath id="clip1">
<rect width="145" height="108" fill="white" transform="translate(50 100)"/>
</clipPath>
</defs>
</svg>
