<svg width="521" height="579" viewBox="0 0 521 579" fill="none" xmlns="http://www.w3.org/2000/svg">
<circle cx="239.82" cy="338.976" r="168.962" transform="rotate(5.75016 239.82 338.976)" stroke="#C4C4C4" stroke-width="2"/>
<circle cx="239.82" cy="338.976" r="218.482" transform="rotate(5.75016 239.82 338.976)" stroke="#C4C4C4"/>
<circle cx="240.26" cy="338.615" r="125.773" transform="rotate(5.75016 240.26 338.615)" stroke="#C4C4C4" stroke-width="4"/>
<path d="M460.058 320.582C481.22 322.713 500.036 307.263 502.17 286.069C504.304 264.874 488.868 245.947 467.787 243.825C446.706 241.702 427.728 257.136 425.591 278.357C423.462 299.497 438.895 318.451 460.058 320.582Z" fill="#8641EF"/>
<path d="M473.33 303.592C472.783 309.019 474.137 314.255 476.817 318.507C491.809 313.144 502.152 298.967 502.388 282.818C501.4 282.61 500.385 282.398 499.333 282.292C486.29 281.034 474.643 290.552 473.33 303.592Z" fill="#FDC2C4"/>
<path d="M502.038 277.355C500.535 265.476 493.815 255.582 484.463 249.622C484.085 249.584 483.756 249.605 483.351 249.564C477.288 249.39 474.469 247.061 473.145 244.773C469.312 243.842 465.317 243.439 461.225 243.736C459.991 247.321 459.359 252.248 461.957 257.31C464.324 261.967 468.684 265.242 473.774 266.409C483.758 268.805 493.602 270.424 502.038 277.355Z" fill="#EB27B7"/>
<path d="M459.141 307.481C455.897 299.082 460.186 296.023 456.552 288.239C451.55 277.535 440.997 278.354 437.057 269.557C435.566 266.216 434.97 261.302 437.762 253.892C430.933 260.241 426.453 268.98 425.596 278.576C426.201 278.528 426.887 278.488 427.481 278.547C434.283 279.232 439.001 287.344 438.063 296.659C437.661 300.654 436.298 304.172 434.331 306.919C442.484 316.658 455.205 322.194 468.739 320.475C469.349 320.373 469.981 320.327 470.537 320.219C466.333 317.56 461.65 313.979 459.141 307.481ZM444.546 310.266C443.743 311.194 442.002 310.882 440.567 309.702C439.14 308.44 438.658 306.727 439.404 305.821C440.206 304.892 441.947 305.204 443.382 306.385C444.815 307.593 445.34 309.419 444.546 310.266Z" fill="#F7921E"/>
<path d="M450.634 252.516C453.819 252.836 456.78 249.153 457.272 244.266L457.278 244.212C453.333 244.933 449.612 246.14 446.21 247.979C446.966 250.483 448.609 252.312 450.634 252.516Z" fill="#AD1AA4"/>
<path d="M460.166 320.594C481.328 322.725 500.198 307.279 502.332 286.085C504.466 264.891 489.03 245.964 467.895 243.836C446.759 241.707 427.89 257.153 425.753 278.374C423.624 299.514 439.057 318.468 460.166 320.594Z" fill="url(#paint0_linear)"/>
<path d="M500.974 270.321C501.85 272.182 502.583 274.11 503.146 276.103C503.637 276.371 504.155 276.641 504.644 276.936C505.645 277.555 506.608 278.279 507.333 279.198C508.059 280.116 508.541 281.283 508.478 282.449C508.418 283.589 507.821 284.647 507.056 285.47C506.289 286.32 505.328 286.932 504.339 287.542C502.246 288.831 500.032 289.971 497.731 290.885C491.488 293.311 484.677 293.798 477.998 294.053C466.668 294.466 455.239 294.243 444.124 291.978C437.765 290.683 431.474 288.713 425.824 285.526C424.534 284.796 423.249 284.012 422.27 282.905C421.779 282.364 421.353 281.721 421.095 281.041C420.809 280.358 420.693 279.61 420.74 278.878C420.808 277.93 421.227 277.018 421.77 276.227C422.34 275.439 423.062 274.775 423.802 274.195C424.601 273.567 425.476 273 426.373 272.491C427.241 270.096 428.32 267.778 429.603 265.589C427.749 265.866 425.899 266.361 424.185 267.143C420.642 268.75 417.568 271.386 415.441 274.635C413.252 277.96 412.029 281.983 412.393 285.947C412.838 290.737 415.51 295.069 418.936 298.414C422.117 301.489 425.972 303.814 430.018 305.612C441.187 310.582 453.685 311.568 465.903 312.089C476.301 312.536 486.953 312.627 496.83 309.313C502.533 307.378 507.858 304.314 512.205 300.143C515.133 297.328 517.662 293.874 518.31 289.876C518.733 287.3 518.319 284.64 517.333 282.25C515.597 278.093 512.136 274.827 508.148 272.734C505.895 271.553 503.468 270.736 500.974 270.321Z" fill="#F7CB16"/>
<path d="M506.116 271.794C508.833 273.785 511.107 276.387 512.376 279.488C513.362 281.878 513.773 284.565 513.353 287.113C512.705 291.112 510.176 294.566 507.248 297.38C502.901 301.552 497.576 304.615 491.873 306.55C481.993 309.892 471.344 309.774 460.946 309.327C448.728 308.806 436.23 307.82 425.061 302.85C424.642 302.671 424.257 302.441 423.838 302.263C425.781 303.549 427.853 304.631 429.993 305.583C441.163 310.553 453.661 311.539 465.878 312.06C476.276 312.507 486.928 312.598 496.806 309.283C502.508 307.348 507.834 304.285 512.18 300.113C515.108 297.299 517.638 293.845 518.286 289.846C518.709 287.271 518.295 284.611 517.308 282.221C515.573 278.064 512.112 274.797 508.124 272.705C507.476 272.367 506.796 272.08 506.116 271.794Z" fill="#F7B516"/>
<path d="M420.217 296.798C418.347 295.328 416.794 293.426 415.726 291.3C414.907 289.69 414.346 287.943 414.064 286.142C413.943 285.448 413.876 284.759 413.974 284.06C414.072 283.361 414.358 282.681 414.866 282.241C415.166 281.971 415.538 281.79 415.927 281.72C416.316 281.651 416.724 281.664 417.118 281.813C417.695 282.035 418.167 282.491 418.493 283.043C418.822 283.567 419.035 284.161 419.275 284.758C419.943 286.516 420.752 288.234 421.882 289.738C423.112 291.335 424.728 292.616 426.228 293.967C426.678 294.367 427.126 294.794 427.455 295.318C427.784 295.842 427.967 296.46 427.853 297.049C427.788 297.424 427.588 297.786 427.315 298.058C427.043 298.331 426.694 298.541 426.351 298.697C425.614 298.978 424.799 298.95 424.051 298.793C422.583 298.482 421.263 297.776 420.217 296.798Z" fill="#FADF6F"/>
<path d="M459.665 280.615C459.449 280.594 459.222 280.68 459.068 280.855C458.914 281.031 458.838 281.241 458.871 281.463C458.97 282.373 459.32 283.226 459.846 283.961C460.372 284.696 461.103 285.288 461.913 285.642C463.373 286.307 465.068 286.26 466.499 285.585C467.787 284.979 468.849 283.913 469.419 282.58C469.519 282.399 469.514 282.18 469.452 281.983C469.39 281.786 469.242 281.634 469.031 281.559C468.848 281.486 468.629 281.491 468.432 281.553C468.232 281.642 468.081 281.79 468.032 282.004C467.635 282.973 466.843 283.793 465.874 284.213C464.845 284.683 463.56 284.717 462.543 284.26C461.971 283.984 461.439 283.576 461.056 283.046C460.673 282.517 460.433 281.92 460.361 281.286C460.342 280.929 460.046 280.627 459.665 280.615Z" fill="black"/>
<path d="M452.272 275.508C452.163 276.588 451.628 277.57 450.796 278.25C449.964 278.93 448.895 279.259 447.815 279.15C446.736 279.041 445.753 278.506 445.074 277.674C444.394 276.842 444.065 275.772 444.174 274.692C444.4 272.452 446.391 270.825 448.631 271.05C450.871 271.276 452.498 273.267 452.272 275.508Z" fill="black"/>
<path d="M448.403 273.318C448.37 273.642 448.202 273.953 447.935 274.171C447.668 274.39 447.33 274.492 447.006 274.46C446.304 274.389 445.795 273.765 445.865 273.063C445.936 272.361 446.56 271.851 447.262 271.922C447.961 272.019 448.473 272.616 448.403 273.318Z" fill="white"/>
<path d="M477.422 281.094C476.882 281.04 476.467 280.562 476.494 280.019C476.503 279.12 476.754 278.245 477.211 277.5C477.695 276.758 478.384 276.146 479.183 275.79C480.498 275.186 482.02 275.23 483.289 275.903C484.168 276.374 484.883 277.128 485.312 278.016C485.738 278.932 485.853 279.952 485.645 280.941C485.59 281.208 485.428 281.464 485.196 281.604C484.961 281.772 484.683 281.826 484.389 281.769C484.121 281.714 483.865 281.552 483.725 281.32C483.558 281.085 483.504 280.807 483.588 280.515C483.693 280.008 483.616 279.427 483.392 278.941C483.168 278.455 482.774 278.033 482.308 277.795C481.633 277.455 480.764 277.422 480.078 277.735C479.648 277.937 479.262 278.252 479.003 278.663C478.743 279.073 478.613 279.551 478.621 280.015C478.618 280.315 478.507 280.604 478.267 280.825C478.029 281.019 477.719 281.124 477.422 281.094Z" fill="black"/>
<path d="M33.4348 25.6926C33.8105 24.1651 33.4874 22.5673 33.1365 21.0459C32.6491 18.8768 32.0898 16.6211 32.5925 14.4328C32.9183 12.9994 33.6974 11.671 34.8221 10.7144C35.9469 9.75767 37.3974 9.17062 38.8964 9.10362C40.2936 9.04617 41.6453 9.43987 43.001 9.79434C44.3567 10.1488 45.7583 10.4484 47.1114 10.2281C48.69 9.97093 50.0743 9.04037 51.2708 7.97203C52.4653 6.9233 53.5159 5.70157 54.7824 4.73935C56.0289 3.77511 57.5132 3.05277 59.1 2.91534C59.8943 2.83682 60.6928 2.91723 61.4536 3.17216C62.2144 3.42709 62.8975 3.85253 63.445 4.42282C64.3543 5.406 64.7649 6.73524 65.2872 7.95685C65.5473 8.57746 65.8294 9.18047 66.2392 9.71707C66.6489 10.2537 67.1684 10.7023 67.7874 10.9627C68.2907 11.1719 68.8696 11.2302 69.4165 11.206C69.9654 11.1622 70.5022 11.038 71.0249 10.8528C72.0685 10.5022 73.05 9.967 74.1276 9.67924C76.2428 9.09968 78.6205 9.51744 80.4323 10.75C82.244 11.9826 83.4718 14.0083 83.7595 16.1574C83.854 16.8208 83.8468 17.4937 83.9213 18.1551C83.9959 18.8164 84.1084 19.5014 84.4324 20.0888C84.7384 20.6546 85.194 21.1364 85.7194 21.5261C86.2448 21.9159 86.818 22.2312 87.3912 22.5465C87.9644 22.8618 88.5396 23.1575 89.0869 23.5296C89.6142 23.8997 90.1157 24.3267 90.4836 24.8789C90.9554 25.6001 91.1719 26.454 91.1848 27.3271C91.1997 28.1806 91.013 29.0336 90.7703 29.8414C90.263 31.4745 89.4403 33.0362 89.1906 34.715C88.8933 36.6665 89.3945 38.6983 90.2826 40.4917C90.7847 41.5132 91.4145 42.4682 91.8947 43.5073C92.3748 44.5463 92.6834 45.6869 92.529 46.8206C92.412 47.5815 92.0755 48.3204 91.609 48.9471C91.1426 49.5738 90.5643 50.11 89.9501 50.6029C88.7036 51.5671 87.2971 52.3171 86.1066 53.3266C83.528 55.5041 82.1162 58.7105 81.1495 61.9022C80.8213 62.9589 80.529 64.0589 80.045 65.0603C79.5611 66.0617 78.8415 66.9997 77.86 67.5349C77.07 67.9705 76.148 68.1154 75.2617 68.1055C74.3575 68.0738 73.471 67.8657 72.6084 67.6203C70.8853 67.11 69.1858 66.3642 67.3734 66.3402C65.7825 66.3187 64.2561 66.8585 62.7996 67.5044C61.3631 68.1523 59.9587 68.8827 58.4222 69.3224C57.0732 69.7017 55.6502 69.816 54.2866 69.54C52.923 69.264 51.6228 68.5584 50.7414 67.4988C50.1298 66.7636 49.7516 65.9131 49.3116 65.0763C48.8716 64.2394 48.3497 63.4141 47.5787 62.8609C47.0533 62.4712 46.4103 62.2479 45.7555 62.1424C45.1007 62.0368 44.436 62.0293 43.7833 62.1023C42.48 62.2286 41.193 62.5944 39.8736 62.6795C37.9436 62.8219 35.9291 62.4011 34.369 61.2732C33.5999 60.7004 32.9264 59.9787 32.4884 59.1222C32.0484 58.2854 31.8238 57.3117 31.8587 56.3641C31.9213 55.142 32.441 53.9857 32.9009 52.8233C33.3587 51.6806 33.7846 50.4554 33.6456 49.2328C33.4925 47.9493 32.7427 46.784 31.8734 45.8049C31.006 44.8061 30.027 43.915 29.2873 42.8498C27.774 40.6566 27.3698 37.8618 27.7742 35.2474C28.0081 33.7255 28.5814 32.2378 29.4943 30.9823C29.9607 30.3556 30.481 29.7938 31.0413 29.236C31.6016 28.6782 32.16 28.14 32.6064 27.5113C33.005 26.957 33.2679 26.3494 33.4348 25.6926Z" fill="#F77026"/>
<path d="M37.9126 22.4778C37.608 21.298 37.6346 20.0325 37.9946 18.8602C38.4202 17.4368 39.357 16.1442 40.6457 15.3625C42.022 14.5104 43.6805 14.2613 45.2911 14.0867C46.8399 13.9256 48.4047 13.8058 49.9254 13.523C51.4661 13.2422 52.9666 12.7593 54.2791 11.9404C55.075 11.446 55.785 10.8041 56.5649 10.2684C57.3447 9.73275 58.2165 9.28557 59.1706 9.22313C59.9231 9.1602 60.6898 9.35629 61.3608 9.70126C62.0338 10.0266 62.6511 10.5049 63.2065 10.9967C64.3154 12 65.2848 13.1873 66.5751 13.9909C67.9973 14.8871 69.7182 15.2189 71.4131 15.4094C73.088 15.5978 74.7987 15.6314 76.4518 16.0356C77.2005 16.2101 77.9214 16.461 78.5905 16.8256C79.2595 17.1902 79.8549 17.686 80.3186 18.2875C80.9923 19.2073 81.3009 20.348 81.5735 21.4454C81.8661 22.5448 82.1548 23.6834 82.8703 24.5877C83.3161 25.1675 83.9154 25.6242 84.4927 26.0984C85.0701 26.5726 85.6236 27.0841 85.9815 27.7343C86.2715 28.2589 86.4119 28.8674 86.4325 29.4639C86.4531 30.0604 86.3719 30.6665 86.2528 31.2489C86.0145 32.4137 85.5965 33.5605 85.496 34.759C85.3836 36.0752 85.6725 37.412 86.0072 38.694C86.3419 39.9759 86.7565 41.2659 86.8856 42.5867C86.9784 43.4678 86.9474 44.3761 86.7387 45.2467C86.5301 46.1173 86.1238 46.9482 85.5137 47.6001C84.9016 48.2716 84.1057 48.766 83.3137 49.2212C82.5218 49.6765 81.7099 50.1297 81.0239 50.7343C79.9789 51.699 79.3217 53.0198 78.866 54.341C78.4083 55.6819 78.0884 57.0565 77.5728 58.3717C77.1687 59.3812 76.6468 60.3589 75.8831 61.134C75.1194 61.9091 74.0741 62.4775 72.9783 62.5455C72.3496 62.5813 71.7167 62.4581 71.1117 62.2585C70.5067 62.0588 69.9514 61.7652 69.3743 61.4891C68.2419 60.9194 67.0755 60.2867 65.808 60.2582C64.9437 60.2306 64.1116 60.4836 63.3275 60.8604C62.5634 61.2392 61.8494 61.7221 61.1373 62.1853C60.4232 62.6682 59.7111 63.1315 58.931 63.469C58.1509 63.8065 57.2828 64.0163 56.4244 63.9299C55.1867 63.8053 54.0682 63.0982 53.1431 62.2719C52.218 61.4457 51.4066 60.4922 50.4138 59.7383C49.2152 58.8251 47.7833 58.2252 46.3397 57.743C44.894 57.2804 43.3966 56.9315 41.9529 56.4493C41.1323 56.1883 40.2976 55.8665 39.5805 55.3782C38.8634 54.8899 38.2439 54.2331 37.9636 53.4123C37.6813 52.6111 37.7502 51.7265 37.8731 50.9066C37.9979 50.0672 38.1827 49.2338 38.1478 48.3783C38.0823 46.8263 37.2764 45.4176 36.3768 44.1382C35.4772 42.8588 34.4918 41.6301 33.9334 40.1671C33.4729 38.9319 33.3657 37.5936 33.516 36.301C33.6664 35.0085 34.0562 33.74 34.5999 32.5465C35.486 30.5553 36.7376 28.7396 37.4101 26.6674C37.8678 25.3265 38.0319 23.8966 37.9126 22.4778Z" fill="#F78526"/>
<path d="M37.9798 31.222C39.7175 24.7792 44.59 19.2465 50.8089 16.5638C55.5314 14.523 60.9763 14.1202 65.9639 15.4546C70.9515 16.789 75.4638 19.839 78.4763 23.9664C82.1984 29.0569 83.5609 35.7525 82.1402 41.8508C80.7195 47.9491 76.5635 53.3756 70.9957 56.4013C67.1355 58.4893 62.6414 59.4633 58.2397 59.1192C53.836 58.7946 49.5447 57.1538 46.0408 54.5026C42.5369 51.8514 39.8642 48.1545 38.4426 44.0485C37.023 39.923 36.8525 35.4081 37.9798 31.222Z" fill="#F7CB16"/>
<path d="M72.584 18.4003C75.0617 24.6335 74.832 31.9217 71.7504 37.8924C68.3382 44.5431 61.5768 49.4101 54.0987 50.579C49.6722 51.2824 45.0547 50.6788 40.911 48.9736C42.2925 51.0743 44.0391 52.9542 46.0428 54.4834C49.5467 57.1347 53.838 58.7754 58.2417 59.1C62.6453 59.4246 67.1375 58.4701 70.9976 56.3821C76.5654 53.3565 80.7394 47.9515 82.1421 41.8316C83.5628 35.7333 82.1984 29.0574 78.4783 23.9473C76.8811 21.7852 74.8731 19.8989 72.584 18.4003Z" fill="#F7B516"/>
<path d="M47.7095 20.7106C49.5264 19.2886 51.587 18.0497 53.852 17.5843C54.5924 17.4409 55.3468 17.3584 56.0855 17.4327C56.8241 17.5071 57.5669 17.7404 58.1901 18.1598C58.7374 18.532 59.1891 19.053 59.4312 19.652C59.6934 20.253 59.746 20.9319 59.561 21.5672C59.378 22.1828 58.9594 22.735 58.4928 23.1636C58.0043 23.6097 57.4637 23.9714 56.9212 24.3527C54.3183 26.171 51.9632 28.3313 49.8159 30.6314C49.3872 31.0836 48.9765 31.5574 48.472 31.9623C47.9893 32.3496 47.4128 32.668 46.7961 32.7843C46.0558 32.9277 45.2671 32.7492 44.62 32.367C43.9728 31.9848 43.4692 31.3793 43.1531 30.7134C42.821 30.0063 42.6984 29.2212 42.7156 28.4502C42.7327 27.6792 42.9315 26.9067 43.2261 26.1834C44.116 23.9548 45.8267 22.1853 47.7095 20.7106Z" fill="#FADF6F"/>
<path d="M57.4984 39.6473C57.3586 39.6332 57.211 39.6976 57.1213 39.7876C57.0296 39.8973 56.9758 40.0306 57.0019 40.1719C57.0684 40.7135 57.2765 41.2497 57.6163 41.6802C57.9541 42.1303 58.4036 42.4727 58.9049 42.7015C59.8115 43.1099 60.8634 43.0771 61.7512 42.6711C62.5533 42.316 63.2053 41.6485 63.5478 40.8508C63.5995 40.7372 63.6134 40.5999 63.5633 40.4958C63.5153 40.372 63.4234 40.2835 63.3076 40.2322C63.1917 40.1809 63.05 40.1865 62.9443 40.2353C62.8186 40.2821 62.7289 40.3721 62.6951 40.5074C62.4342 41.0954 61.9617 41.5828 61.3691 41.8599C60.7347 42.1527 59.9463 42.1724 59.3092 41.8903C58.9418 41.7344 58.6261 41.4648 58.3942 41.1641C58.1643 40.8437 58.0003 40.4705 57.958 40.0898C57.9018 39.8464 57.718 39.6694 57.4984 39.6473Z" fill="black"/>
<path d="M50.3592 42.2575C50.2407 43.4344 48.7285 44.2332 46.9918 44.0584C45.255 43.8835 43.9325 42.7992 44.051 41.6223C44.1083 41.0535 44.501 40.5581 45.1194 40.2241C45.7578 39.8921 46.58 39.7371 47.4184 39.8215C48.2569 39.9059 49.0336 40.2021 49.591 40.6743C50.1504 41.1269 50.4165 41.6887 50.3592 42.2575Z" fill="#FF8080"/>
<path d="M75.2928 44.7683C75.1743 45.9452 73.6621 46.744 71.9253 46.5691C70.1886 46.3942 68.866 45.31 68.9845 44.1331C69.0418 43.5642 69.4345 43.0688 70.0529 42.7348C70.6913 42.4028 71.5135 42.2478 72.352 42.3323C73.1904 42.4167 73.9672 42.7129 74.5246 43.1851C75.064 43.6357 75.3501 44.1995 75.2928 44.7683Z" fill="#FF8080"/>
<path d="M53.5187 36.3138C53.3666 37.8242 51.9845 38.9333 50.4473 38.7785C48.9102 38.6237 47.777 37.2613 47.9291 35.751C48.0812 34.2406 49.4633 33.1315 51.0004 33.2863C52.5375 33.4411 53.6727 34.7839 53.5187 36.3138Z" fill="black"/>
<path d="M50.8463 34.8163C50.8226 35.0517 50.7011 35.2574 50.5256 35.3982C50.3501 35.5391 50.1206 35.615 49.8811 35.5909C49.6415 35.5668 49.4318 35.4466 49.2879 35.2736C49.144 35.1006 49.0659 34.8748 49.0896 34.6394C49.137 34.1687 49.5758 33.8166 50.0549 33.8648C50.532 33.9327 50.8937 34.3456 50.8463 34.8163Z" fill="white"/>
<path d="M72.3635 38.2115C72.2115 39.7219 70.8294 40.831 69.2922 40.6762C67.7551 40.5214 66.6219 39.159 66.774 37.6487C66.926 36.1383 68.3081 35.0292 69.8453 35.184C71.3844 35.3192 72.5176 36.6816 72.3635 38.2115Z" fill="black"/>
<path d="M69.6912 36.7138C69.6675 36.9492 69.546 37.1549 69.3705 37.2957C69.195 37.4365 68.9655 37.5125 68.726 37.4884C68.4864 37.4643 68.2767 37.3441 68.1328 37.1711C67.9889 36.9981 67.9108 36.7723 67.9345 36.5369C67.9819 36.0661 68.4207 35.714 68.8998 35.7623C69.3969 35.8321 69.7386 36.243 69.6912 36.7138Z" fill="white"/>
<path d="M74.348 325.947C92.4607 327.771 108.605 314.597 110.432 296.454C112.259 278.311 99.0628 262.207 80.9502 260.383C62.8375 258.559 46.7164 271.735 44.8895 289.878C43.0697 307.95 56.2354 324.123 74.348 325.947Z" fill="url(#paint1_linear)"/>
<path d="M74.188 297.022C63.4335 279.853 46.6647 281.954 46.6647 281.954C44.3251 288.391 44.0652 295.467 45.9284 302.041C49.8853 303.202 53.5705 304.932 56.9793 307.277C63.441 311.717 68.3753 318.076 71.1342 325.456C78.1382 326.876 85.4033 325.94 91.8798 322.898L91.927 322.903C84.4555 315.716 78.6217 304.094 74.188 297.022Z" fill="#19C3ED"/>
<path d="M104.763 311.828C110.461 303.512 112.084 293.07 109.145 283.456C99.4235 279.451 91.178 279.24 87.1841 283.652C81.481 290.132 86.61 304.494 98.7655 318.397C101.074 316.532 103.082 314.328 104.763 311.828Z" fill="#19C3ED"/>
<path d="M96.3176 266.053C89.0968 261.108 80.2606 259.193 71.6435 260.78C63.0736 262.372 55.4329 267.275 50.4888 274.498C50.4888 274.498 50.484 274.545 50.4368 274.541C54.2145 275.588 62.7254 277.422 72.3136 276.601C75.4649 276.298 78.5575 275.633 81.5867 274.651C90.1858 271.823 97.8226 272.163 105.912 276.29C103.554 272.263 100.266 268.715 96.3176 266.053Z" fill="#19C3ED"/>
<path d="M74.348 325.947C92.4607 327.771 108.605 314.597 110.432 296.454C112.259 278.311 99.0628 262.207 80.9502 260.383C62.8375 258.559 46.7164 271.735 44.8895 289.878C43.0697 307.95 56.2354 324.123 74.348 325.947Z" fill="url(#paint2_linear)"/>
<path d="M72.0996 292.213C71.9263 293.697 72.3662 295.243 73.323 296.388C74.0229 297.245 74.9847 297.866 76.0246 298.185C77.0645 298.504 78.2108 298.477 79.2677 298.154C80.301 297.829 81.2496 297.162 81.9319 296.302C82.6142 295.441 83.0324 294.363 83.0945 293.273L72.0996 292.213Z" fill="black"/>
<path d="M89.9536 292.819C89.5999 292.784 89.3218 292.47 89.3338 292.113C89.3367 291.375 89.5307 290.632 89.951 290.007C90.3477 289.379 90.9212 288.889 91.5959 288.576C92.6954 288.067 93.9785 288.101 95.0418 288.66C95.7892 289.046 96.3689 289.676 96.7458 290.429C97.099 291.179 97.2022 292.048 97.0247 292.864C96.9821 293.05 96.8711 293.206 96.7177 293.31C96.5643 293.413 96.3709 293.442 96.1846 293.399C95.9983 293.356 95.8427 293.245 95.7391 293.092C95.6354 292.938 95.6072 292.745 95.6498 292.559C95.7493 292.044 95.686 291.49 95.4741 290.992C95.2598 290.517 94.8733 290.097 94.397 289.859C93.7416 289.507 92.8854 289.492 92.2106 289.805C91.786 290.001 91.3966 290.319 91.1651 290.725C90.9101 291.128 90.7682 291.59 90.7679 292.067C90.7725 292.258 90.6803 292.463 90.5482 292.593C90.3641 292.765 90.1659 292.841 89.9536 292.819Z" fill="black"/>
<path d="M59.53 289.756C59.1763 289.72 58.8982 289.406 58.9102 289.05C58.9131 288.311 59.1071 287.568 59.5274 286.943C59.9241 286.316 60.4976 285.826 61.1723 285.512C62.2718 285.003 63.5549 285.037 64.6182 285.597C65.3656 285.982 65.9453 286.612 66.3222 287.365C66.6754 288.116 66.7785 288.984 66.6011 289.8C66.5585 289.987 66.4475 290.142 66.2941 290.246C66.1407 290.35 65.9473 290.378 65.761 290.335C65.5747 290.293 65.4191 290.182 65.3155 290.028C65.2118 289.875 65.1836 289.682 65.2262 289.495C65.3257 288.981 65.2624 288.426 65.0505 287.928C64.8362 287.454 64.4497 287.034 63.9734 286.795C63.318 286.443 62.4618 286.428 61.787 286.742C61.3624 286.937 60.973 287.256 60.7415 287.661C60.4865 288.065 60.3446 288.527 60.3443 289.004C60.3489 289.195 60.2567 289.4 60.1246 289.53C59.9169 289.699 59.7187 289.775 59.53 289.756Z" fill="black"/>
<path d="M63.4689 296.301C63.3833 297.151 62.8049 297.926 61.8729 298.428C60.9385 298.954 59.7025 299.163 58.4525 299.037C57.2026 298.911 56.0566 298.462 55.2222 297.759C54.4113 297.057 53.9968 296.205 54.0824 295.356C54.2605 293.587 56.5044 292.359 59.0987 292.62C61.693 292.881 63.647 294.532 63.4689 296.301Z" fill="#FF8080"/>
<path d="M100.567 300.037C100.481 300.886 99.9028 301.662 98.9708 302.164C98.0364 302.689 96.8004 302.898 95.5504 302.773C94.3004 302.647 93.1545 302.198 92.3201 301.494C91.5092 300.793 91.0947 299.941 91.1803 299.091C91.3584 297.322 93.6023 296.094 96.1966 296.355C98.7909 296.617 100.745 298.267 100.567 300.037Z" fill="#FF8080"/>
<path d="M77.494 294.949C76.6945 294.844 75.8832 294.858 75.0859 294.968C74.2886 295.079 73.5266 295.312 72.807 295.597C72.9696 295.875 73.1321 296.154 73.323 296.388C74.0229 297.244 74.9847 297.866 76.0246 298.185C77.0645 298.504 78.2108 298.476 79.2677 298.154C80.2279 297.845 81.0703 297.287 81.7171 296.542C80.4441 295.699 79.001 295.124 77.494 294.949Z" fill="#FF8080"/>
<path d="M281.624 196.67C279.029 183.119 275.482 169.756 271.012 156.703C266.852 144.571 261.785 132.553 253.669 122.623C250.708 119.009 247.337 115.704 243.416 113.217C239.441 110.718 234.905 109.091 230.217 109.054C224.984 109.038 219.867 110.955 215.632 114.034C211.541 116.974 208.281 120.922 205.679 125.244C203.078 129.565 201.221 134.251 199.603 139.017C194.416 154.694 192.451 171.252 192.143 187.777C191.745 207.299 193.626 226.812 196.458 246.136C197.103 250.576 197.824 255.061 199.279 259.31C200.734 263.559 203 267.616 206.322 270.626C210.716 274.583 216.688 276.413 222.562 277.139C232.273 278.399 242.122 277.099 251.77 275.413C259.68 273.999 267.837 272.24 274.296 267.46C279.527 263.605 283.323 257.867 285.176 251.644C287.823 242.722 286.59 233.2 285.317 223.982C284.075 214.885 282.833 205.788 281.624 196.67Z" fill="url(#paint3_linear)"/>
<path d="M279.817 188.075C286.792 192.716 293.083 198.401 298.464 204.853C307.499 215.783 313.777 228.894 317.087 242.688C319.163 251.485 320.046 260.532 320.734 269.563C320.898 271.791 321.071 274.106 320.268 276.206C319.899 277.235 319.28 278.237 318.416 278.928C317.574 279.653 316.453 280.089 315.353 280.046C314.644 280.032 314.005 279.834 313.368 279.494C312.753 279.188 312.215 278.785 311.723 278.306C310.738 277.349 309.998 276.189 309.191 275.072C305.856 270.437 301.505 266.546 296.736 263.388C292.516 260.579 287.948 258.319 283.185 256.557C283.956 254.991 284.61 253.313 285.122 251.633C287.769 242.711 286.535 233.189 285.263 223.971C284.021 214.874 282.8 205.81 281.591 196.692C281.058 193.813 280.437 190.944 279.817 188.075Z" fill="url(#paint4_linear)"/>
<path d="M228.518 163.838C230.528 163.627 232.593 163.427 234.645 163.282C247.475 162.27 260.404 162.361 273.202 163.561C276.645 174.425 279.474 185.494 281.624 196.67C282.815 205.613 284.038 214.536 285.262 223.458C271.667 227.945 257.599 230.961 243.395 232.524C227.16 234.266 210.756 234.063 194.585 231.891C192.862 217.223 191.871 202.46 192.155 187.723C192.255 181.967 192.596 176.151 193.175 170.416C204.726 167.328 216.599 165.108 228.518 163.838Z" fill="#DFE2E7"/>
<path d="M271.063 269.479C275.44 275.966 279.276 282.846 282.465 289.953C283.207 291.625 283.936 293.352 284.251 295.157C284.565 296.963 284.451 298.901 283.634 300.543C282.785 302.205 281.268 303.408 279.617 304.182C277.967 304.957 276.159 305.412 274.364 305.813C263.863 308.136 253.244 309.835 242.621 311.164C234.927 312.114 227.182 312.91 219.421 313.39C217.576 313.495 215.731 313.601 213.916 313.314C212.101 313.028 210.294 312.316 209.022 310.982C207.739 309.703 207.096 307.967 206.803 306.195C206.565 304.435 206.709 302.617 206.982 300.855C207.807 295.43 209.587 290.187 211.388 284.978C212.518 281.783 213.714 278.546 214.899 275.364C217.39 276.198 219.974 276.739 222.574 277.085C232.285 278.345 242.155 277.078 251.782 275.359C258.4 274.257 265.221 272.745 271.063 269.479Z" fill="#DFE2E7"/>
<path d="M192.061 194.875C192.188 212.009 193.941 229.131 196.404 246.125C197.049 250.565 197.77 255.05 199.225 259.299C199.452 259.947 199.734 260.606 199.994 261.233C194.082 263.657 188.47 266.916 183.528 271.007C179.141 274.65 175.176 278.955 172.356 283.883C171.668 285.069 171.055 286.3 170.195 287.363C169.738 287.888 169.239 288.347 168.697 288.74C168.134 289.1 167.474 289.381 166.796 289.488C165.681 289.64 164.553 289.335 163.617 288.673C162.703 288.044 161.99 287.147 161.475 286.123C160.467 284.107 160.403 281.816 160.326 279.579C160.064 270.556 160.042 261.472 161.197 252.476C163.038 238.424 167.957 224.737 175.849 212.93C180.351 206.182 185.844 200.107 192.061 194.875Z" fill="url(#paint5_linear)"/>
<path d="M197.216 94.3885C196.834 90.4335 195.295 86.5648 192.636 83.6446C190.352 81.0916 187.28 79.2755 183.996 78.2948C180.678 77.3353 177.181 77.1902 173.791 77.7232C169.045 78.4695 164.404 80.5481 161.173 84.1049C158.857 86.611 157.323 89.8304 156.757 93.1778C156.158 96.5465 156.548 100.076 157.784 103.252C159.529 107.736 162.967 111.511 167.096 113.958C172.054 116.902 178.182 118.026 183.667 116.247C188.505 114.696 192.513 110.969 194.846 106.446C196.684 102.753 197.583 98.5395 197.216 94.3885Z" fill="url(#paint6_linear)"/>
<path d="M190.942 91.2114C189.383 87.8221 186.614 85.0196 183.264 83.427C179.007 81.435 173.816 81.4855 169.643 83.6388C167.55 84.7426 165.754 86.3102 164.386 88.257C163.051 90.1826 162.212 92.4452 161.948 94.8063C161.608 97.7765 162.301 100.833 163.777 103.435C165.253 106.038 167.546 108.166 170.18 109.515C172.609 110.762 175.41 111.352 178.15 111.188C180.89 111.023 183.568 110.106 185.822 108.525C188.486 106.637 190.458 103.884 191.38 100.729C192.345 97.64 192.16 94.2123 190.942 91.2114Z" fill="url(#paint7_linear)"/>
<path d="M276.587 305.279C281.13 309.981 284.497 315.761 286.152 322.075C287.157 325.911 287.581 329.932 287.505 333.9C287.456 335.284 287.408 336.668 287.197 338.016C287.158 338.32 287.086 338.646 286.972 338.906C286.825 339.186 286.645 339.488 286.392 339.603C286.226 339.709 285.997 339.715 285.768 339.722C285.572 339.707 285.355 339.659 285.15 339.557C284.761 339.386 284.483 339.097 284.151 338.796C280.629 335.4 278.085 331.054 274.419 327.798C272.393 326.013 270.012 324.549 267.337 324.158C267.087 324.131 266.837 324.104 266.575 324.132C266.313 324.16 266.06 324.274 265.903 324.468C265.792 324.585 265.756 324.748 265.72 324.911C265.684 325.074 265.703 325.249 265.754 325.403C265.824 325.731 265.994 325.996 266.13 326.282C267.162 328.189 267.808 330.296 268.4 332.39C270.139 338.324 271.712 344.363 272.062 350.531C272.577 359.439 270.431 368.415 266.278 376.294C265.485 377.827 264.551 379.357 263.414 380.643C262.341 382.028 260.902 383.134 259.266 383.713C257.39 384.352 255.319 384.322 253.41 383.815C249.341 382.776 245.995 379.875 243.077 376.84C238.93 372.539 235.174 367.754 232.519 362.358C229.907 357.029 228.343 351.077 228.533 345.171C228.676 341.161 229.614 337.155 230.258 333.199C230.332 332.731 230.418 332.209 230.372 331.772C230.338 331.281 230.162 330.787 229.809 330.453C229.552 330.197 229.184 330.059 228.847 330.041C228.488 329.991 228.138 330.027 227.798 330.151C227.15 330.379 226.563 330.847 226.01 331.294C223.837 333.149 221.728 335.103 219.93 337.324C218.477 339.139 217.251 341.088 216.252 343.173C215.741 344.199 215.306 345.27 214.548 346.128C214.169 346.556 213.694 346.907 213.167 347.104C212.661 347.334 212.049 347.398 211.485 347.245C210.867 347.08 210.308 346.644 209.936 346.135C209.565 345.626 209.271 345.021 209.011 344.394C207.795 341.251 207.261 337.86 207.131 334.445C206.913 329.359 207.578 324.268 209.078 319.391C209.788 317.071 210.703 314.854 211.781 312.672C212.441 312.903 213.135 313.113 213.82 313.236C215.635 313.522 217.479 313.417 219.324 313.312C227.085 312.832 234.797 312.057 242.524 311.086C253.18 309.736 263.821 308.07 274.267 305.735L276.587 305.279Z" fill="url(#paint8_linear)"/>
<path d="M206.46 167.341C206.101 170.136 205.775 172.91 205.503 175.696C203.769 194.953 204.426 214.594 209.726 233.181C209.714 233.236 209.756 233.302 209.778 233.335C204.692 233.039 199.588 232.567 194.552 231.912C194.181 228.557 193.809 225.202 193.504 221.805C193.44 221.193 193.396 220.614 193.353 220.035C192.752 213.328 192.358 206.581 192.161 199.849C192.163 199.195 192.143 198.508 192.112 197.875C192.057 194.504 192.023 191.166 192.11 187.799C192.162 185.106 192.268 182.426 192.429 179.757C192.449 179.278 192.49 178.832 192.531 178.385C192.68 175.771 192.916 173.148 193.173 170.558C193.152 170.524 193.185 170.503 193.185 170.503C197.559 169.248 201.994 168.234 206.46 167.341Z" fill="#CFD3DB"/>
<path d="M281.624 196.67C279.029 183.119 275.482 169.757 271.012 156.703C266.852 144.572 261.764 132.52 253.669 122.623C250.708 119.01 247.337 115.705 243.416 113.218C239.442 110.719 234.905 109.092 230.217 109.054C224.984 109.038 219.867 110.955 215.632 114.034C211.541 116.974 208.281 120.923 205.679 125.244C203.111 129.545 201.221 134.251 199.603 139.017C194.416 154.694 192.451 171.252 192.143 187.777C191.745 207.3 193.626 226.812 196.459 246.137C197.103 250.577 197.824 255.062 199.279 259.31C200.735 263.559 203 267.617 206.355 270.605C210.749 274.563 216.721 276.392 222.595 277.118C232.307 278.378 242.155 277.078 251.804 275.392C259.735 274.011 267.87 272.219 274.329 267.439C279.56 263.584 283.356 257.846 285.21 251.624C287.857 242.701 286.623 233.179 285.35 223.961C284.075 214.885 282.833 205.788 281.624 196.67Z" stroke="black" stroke-width="0.9295"/>
<path d="M192.061 194.875C192.188 212.009 193.941 229.131 196.404 246.125C197.049 250.565 197.77 255.05 199.225 259.299C199.452 259.946 199.734 260.606 199.994 261.233C194.082 263.657 188.47 266.916 183.528 271.007C179.141 274.65 175.188 278.901 172.356 283.883C171.668 285.069 171.055 286.3 170.195 287.363C169.738 287.888 169.239 288.347 168.664 288.761C168.101 289.121 167.441 289.402 166.763 289.509C165.648 289.661 164.52 289.356 163.584 288.694C162.67 288.065 161.957 287.168 161.442 286.144C160.434 284.128 160.369 281.837 160.293 279.6C160.03 270.577 160.009 261.493 161.164 252.498C163.005 238.445 167.924 224.758 175.816 212.951C180.351 206.182 185.844 200.107 192.061 194.875Z" stroke="black" stroke-width="0.9295"/>
<path d="M279.817 188.074C286.792 192.715 293.083 198.4 298.464 204.852C307.532 215.761 313.777 228.893 317.087 242.687C319.163 251.484 320.046 260.531 320.734 269.563C320.898 271.79 321.038 274.127 320.268 276.205C319.866 277.255 319.28 278.236 318.416 278.928C317.574 279.653 316.453 280.088 315.353 280.045C314.644 280.031 314.005 279.833 313.368 279.493C312.753 279.187 312.215 278.784 311.723 278.305C310.738 277.348 309.998 276.188 309.191 275.071C305.856 270.437 301.505 266.545 296.736 263.387C292.516 260.578 287.948 258.318 283.185 256.556C283.956 254.99 284.61 253.312 285.122 251.632C287.769 242.71 286.535 233.188 285.263 223.97C284.021 214.873 282.8 205.809 281.591 196.691C281.058 193.813 280.437 190.943 279.817 188.074Z" stroke="black" stroke-width="0.9295"/>
<path d="M172.037 82.7157C170.27 83.8913 168.736 85.4314 167.655 87.2421C166.008 90.0667 165.451 93.5016 166.055 96.7085C166.74 100.19 168.772 103.37 171.541 105.66C174.083 107.815 177.239 109.251 180.511 109.773C181.391 109.911 182.317 109.972 183.2 109.968C181.628 110.646 179.94 111.071 178.204 111.2C175.465 111.364 172.696 110.753 170.234 109.527C167.567 108.199 165.287 106.017 163.777 103.435C162.301 100.833 161.641 97.7557 161.981 94.7855C162.212 92.4455 163.106 90.1949 164.419 88.2361C165.754 86.3105 167.583 84.7217 169.676 83.6179C170.414 83.2399 171.215 82.9612 172.037 82.7157Z" fill="#B8BECA"/>
<path d="M169.244 78.8549C167.219 80.4289 165.384 82.3011 163.926 84.3988C161.795 87.4865 160.34 91.1218 159.974 94.8548C159.575 98.6091 160.285 102.494 162.151 105.78C164.429 109.784 168.275 112.738 172.571 114.426C176.131 115.837 180.023 116.383 183.866 116.12C183.779 116.129 183.713 116.172 183.613 116.235C178.161 117.993 172 116.89 167.042 113.946C162.913 111.499 159.475 107.723 157.73 103.24C156.494 100.064 156.104 96.5343 156.703 93.1657C157.302 89.7971 158.857 86.6108 161.119 84.0927C163.336 81.6501 166.16 79.9392 169.244 78.8549Z" fill="url(#paint9_linear)"/>
<path d="M214.865 275.385C217.357 276.219 219.941 276.761 222.54 277.106C223.095 277.172 223.683 277.216 224.238 277.281C222.542 282.657 222.093 288.449 223.153 293.977C223.537 296.111 224.171 298.271 225.522 300.021C226.586 301.394 228.026 302.48 229.604 303.198C231.203 303.949 232.895 304.408 234.623 304.704C240.241 305.687 246.018 305.168 251.708 304.658C262.16 303.719 272.615 302.638 283.06 301.47C282.176 302.641 280.948 303.565 279.638 304.216C277.988 304.99 276.18 305.445 274.385 305.846C263.884 308.169 253.265 309.869 242.642 311.197C234.948 312.147 227.182 312.91 219.442 313.423C217.597 313.528 215.753 313.634 213.937 313.347C212.122 313.061 210.348 312.328 209.043 311.016C207.76 309.736 207.096 307.968 206.857 306.207C206.619 304.447 206.763 302.629 207.037 300.868C207.861 295.442 209.608 290.221 211.463 285.023C212.518 281.783 213.681 278.568 214.865 275.385Z" fill="#CFD3DB"/>
<path d="M271.063 269.479C275.44 275.966 279.276 282.846 282.486 289.987C283.228 291.659 283.958 293.385 284.272 295.19C284.586 296.996 284.472 298.935 283.655 300.576C282.806 302.239 281.289 303.441 279.638 304.216C277.988 304.99 276.18 305.445 274.385 305.846C263.884 308.169 253.265 309.868 242.642 311.197C234.948 312.147 227.203 312.943 219.442 313.423C217.597 313.528 215.753 313.634 213.937 313.347C212.122 313.061 210.315 312.349 209.043 311.015C207.793 309.715 207.117 308.001 206.824 306.228C206.586 304.468 206.73 302.65 207.004 300.889C207.828 295.463 209.575 290.242 211.409 285.011C212.539 281.816 213.735 278.579 214.92 275.397C217.411 276.231 219.996 276.772 222.595 277.118C232.306 278.378 242.176 277.111 251.804 275.392C258.4 274.257 265.221 272.745 271.063 269.479Z" stroke="black" stroke-width="0.9295"/>
<path d="M211.823 312.739C212.484 312.97 213.177 313.18 213.862 313.303C214.438 313.401 215.026 313.445 215.593 313.457C213.818 318.416 212.595 323.583 212.015 328.805C211.899 329.719 211.838 330.645 212.105 331.501C212.238 331.928 212.492 332.326 212.824 332.627C213.157 332.928 213.621 333.144 214.046 333.153C214.417 333.149 214.812 333.037 215.185 332.892C216.571 332.286 217.66 331.217 218.619 330.091C219.578 328.965 220.42 327.728 221.379 326.602C222.706 325.101 224.322 323.835 226.22 323.229C227.175 322.899 228.148 322.744 229.182 322.829C230.195 322.882 231.181 323.185 232.032 323.714C233.164 324.391 234.016 325.433 234.636 326.623C235.236 327.779 235.603 329.084 235.862 330.365C236.815 335.215 236.358 340.265 237.498 345.042C239.042 351.474 243.342 356.891 247.861 361.701C250.051 364.034 252.374 366.283 255.021 368.09C258.852 370.728 263.412 372.247 268.037 372.698C267.533 373.953 266.921 375.184 266.287 376.382C265.494 377.914 264.593 379.423 263.423 380.731C262.341 382.029 260.902 383.135 259.266 383.713C257.39 384.352 255.319 384.322 253.41 383.816C249.32 382.743 245.995 379.875 243.077 376.841C238.93 372.539 235.174 367.754 232.519 362.359C229.874 357.051 228.343 351.078 228.533 345.171C228.676 341.161 229.614 337.156 230.258 333.199C230.332 332.732 230.418 332.21 230.372 331.773C230.338 331.281 230.162 330.787 229.809 330.453C229.519 330.218 229.184 330.059 228.847 330.042C228.509 330.024 228.159 330.061 227.798 330.152C227.117 330.4 226.563 330.847 226.01 331.294C223.837 333.149 221.728 335.103 219.93 337.325C218.477 339.139 217.251 341.089 216.252 343.174C215.741 344.2 215.306 345.271 214.548 346.128C214.169 346.557 213.694 346.907 213.188 347.137C212.661 347.334 212.07 347.431 211.506 347.279C210.888 347.114 210.329 346.678 209.958 346.169C209.586 345.66 209.292 345.054 209.086 344.439C207.871 341.297 207.337 337.906 207.173 334.511C206.955 329.425 207.62 324.335 209.121 319.458C209.83 317.138 210.745 314.921 211.823 312.739Z" fill="url(#paint10_linear)"/>
<path d="M276.587 305.279C281.13 309.981 284.497 315.761 286.152 322.075C287.157 325.911 287.581 329.932 287.505 333.9C287.456 335.284 287.408 336.668 287.197 338.016C287.158 338.32 287.086 338.646 286.972 338.906C286.825 339.186 286.645 339.488 286.392 339.603C286.226 339.709 285.997 339.715 285.768 339.722C285.572 339.707 285.355 339.659 285.15 339.557C284.761 339.386 284.483 339.097 284.151 338.796C280.629 335.4 278.085 331.054 274.419 327.798C272.393 326.013 270.012 324.549 267.337 324.158C267.087 324.131 266.837 324.104 266.575 324.132C266.313 324.16 266.06 324.274 265.903 324.468C265.792 324.585 265.756 324.748 265.72 324.911C265.684 325.074 265.703 325.249 265.754 325.403C265.824 325.731 265.994 325.996 266.13 326.282C267.162 328.189 267.808 330.296 268.4 332.39C270.139 338.324 271.712 344.363 272.062 350.531C272.577 359.439 270.431 368.415 266.278 376.294C265.485 377.827 264.551 379.357 263.414 380.643C262.341 382.028 260.902 383.134 259.266 383.713C257.39 384.352 255.319 384.322 253.41 383.815C249.341 382.776 245.995 379.875 243.077 376.84C238.93 372.539 235.174 367.754 232.54 362.392C229.928 357.062 228.364 351.11 228.554 345.204C228.676 341.161 229.636 337.188 230.279 333.232C230.353 332.764 230.44 332.243 230.393 331.805C230.359 331.314 230.184 330.82 229.83 330.486C229.573 330.23 229.205 330.092 228.868 330.074C228.509 330.024 228.159 330.06 227.819 330.185C227.171 330.412 226.584 330.88 226.031 331.327C223.858 333.182 221.749 335.136 219.951 337.358C218.498 339.172 217.272 341.122 216.273 343.206C215.762 344.232 215.327 345.303 214.57 346.161C214.191 346.589 213.715 346.94 213.188 347.137C212.661 347.334 212.07 347.431 211.506 347.278C210.888 347.113 210.329 346.677 209.958 346.168C209.565 345.626 209.292 345.054 209.065 344.406C207.85 341.263 207.315 337.872 207.152 334.478C206.934 329.392 207.599 324.302 209.099 319.424C209.809 317.104 210.724 314.887 211.802 312.705C212.484 312.97 213.156 313.147 213.841 313.269C215.656 313.556 217.501 313.45 219.345 313.345C227.106 312.865 234.818 312.09 242.545 311.119C253.201 309.769 263.842 308.103 274.288 305.768L276.587 305.279Z" stroke="black" stroke-width="0.9295"/>
<path d="M231.683 103.812C234.635 106.171 237.242 108.938 239.407 112.034C241.677 115.295 243.451 118.874 244.61 122.659" stroke="white" stroke-width="1.4407" stroke-linecap="round" stroke-linejoin="round"/>
<defs>
<linearGradient id="paint0_linear" x1="453.905" y1="269.819" x2="504.366" y2="331.442" gradientUnits="userSpaceOnUse">
<stop stop-color="#661FD1" stop-opacity="0"/>
<stop offset="1" stop-color="#661FD1"/>
</linearGradient>
<linearGradient id="paint1_linear" x1="62.9197" y1="275.115" x2="104.624" y2="326.145" gradientUnits="userSpaceOnUse">
<stop stop-color="#B4FF8C"/>
<stop offset="0.39" stop-color="#B4EAAC"/>
<stop offset="1" stop-color="#B3C4E5"/>
</linearGradient>
<linearGradient id="paint2_linear" x1="68.8043" y1="282.321" x2="98.2546" y2="318.356" gradientUnits="userSpaceOnUse">
<stop stop-color="#0058D3" stop-opacity="0"/>
<stop offset="0.12" stop-color="#0058D3" stop-opacity="0.16"/>
<stop offset="0.35" stop-color="#0058D3" stop-opacity="0.46"/>
<stop offset="0.56" stop-color="#0058D3" stop-opacity="0.69"/>
<stop offset="0.75" stop-color="#0058D3" stop-opacity="0.86"/>
<stop offset="0.9" stop-color="#0058D3" stop-opacity="0.96"/>
<stop offset="1" stop-color="#0058D3"/>
</linearGradient>
<linearGradient id="paint3_linear" x1="279.827" y1="185.736" x2="188.944" y2="200.606" gradientUnits="userSpaceOnUse">
<stop stop-color="#C57BFF"/>
<stop offset="1" stop-color="#454BCB"/>
</linearGradient>
<linearGradient id="paint4_linear" x1="315.453" y1="231.197" x2="280.002" y2="236.997" gradientUnits="userSpaceOnUse">
<stop offset="0.2759" stop-color="#7556BA"/>
<stop offset="0.3895" stop-color="#7C5FBE"/>
<stop offset="0.5743" stop-color="#9077C8"/>
<stop offset="0.7825" stop-color="#AC9AD6"/>
</linearGradient>
<linearGradient id="paint5_linear" x1="199.273" y1="238.909" x2="154.529" y2="246.23" gradientUnits="userSpaceOnUse">
<stop offset="0.2759" stop-color="#7556BA"/>
<stop offset="0.3895" stop-color="#7C5FBE"/>
<stop offset="0.5743" stop-color="#9077C8"/>
<stop offset="0.7825" stop-color="#AC9AD6"/>
</linearGradient>
<linearGradient id="paint6_linear" x1="197.184" y1="94.0116" x2="156.872" y2="100.607" gradientUnits="userSpaceOnUse">
<stop offset="0.2759" stop-color="#7556BA"/>
<stop offset="0.3895" stop-color="#7C5FBE"/>
<stop offset="0.5743" stop-color="#9077C8"/>
<stop offset="0.7825" stop-color="#AC9AD6"/>
</linearGradient>
<linearGradient id="paint7_linear" x1="191.794" y1="94.1757" x2="162.169" y2="99.0228" gradientUnits="userSpaceOnUse">
<stop offset="0.1525" stop-color="#7FCDEE"/>
<stop offset="0.236" stop-color="#88D0EF"/>
<stop offset="0.372" stop-color="#A0DAF2"/>
<stop offset="0.5426" stop-color="#C7E9F7"/>
<stop offset="0.5915" stop-color="#D4EEF9"/>
</linearGradient>
<linearGradient id="paint8_linear" x1="289.185" y1="339.525" x2="209.835" y2="352.507" gradientUnits="userSpaceOnUse">
<stop offset="0.4377" stop-color="#F7931E"/>
<stop offset="0.5098" stop-color="#F89C27"/>
<stop offset="0.6095" stop-color="#FBB03B"/>
</linearGradient>
<linearGradient id="paint9_linear" x1="180.683" y1="96.9168" x2="156.904" y2="100.808" gradientUnits="userSpaceOnUse">
<stop offset="0.2759" stop-color="#7556BA"/>
<stop offset="0.3895" stop-color="#7C5FBE"/>
<stop offset="0.5743" stop-color="#9077C8"/>
<stop offset="0.7825" stop-color="#AC9AD6"/>
</linearGradient>
<linearGradient id="paint10_linear" x1="263.322" y1="343.748" x2="209.833" y2="352.5" gradientUnits="userSpaceOnUse">
<stop offset="0.4377" stop-color="#F7931E"/>
<stop offset="0.5098" stop-color="#F89C27"/>
<stop offset="0.6095" stop-color="#FBB03B"/>
</linearGradient>
</defs>
</svg>
