<svg width="239" height="203" viewBox="0 0 239 203" fill="none" xmlns="http://www.w3.org/2000/svg">
<path d="M108.247 49.6416C115.059 41.6053 122.467 34.0444 130.407 27.0278C137.79 20.5092 145.766 14.3994 155.105 10.7974C158.509 9.48975 162.085 8.53724 165.745 8.32983C169.448 8.13446 173.221 8.72462 176.515 10.4246C180.181 12.3399 183.055 15.495 184.883 19.0965C186.661 22.5527 187.485 26.3724 187.712 30.1973C187.939 34.0222 187.51 37.8142 186.885 41.5722C184.734 53.8828 180.004 65.5928 174.127 76.671C167.208 89.771 158.698 102.026 149.591 113.805C147.503 116.514 145.346 119.225 142.761 121.508C140.176 123.792 137.095 125.65 133.662 126.425C129.129 127.434 124.276 126.45 119.899 124.77C112.64 122.032 106.23 117.545 100.101 112.876C95.0888 109.027 90.031 104.858 87.2744 99.3093C85.0361 94.826 84.4959 89.6222 85.4935 84.8112C86.9313 77.9169 91.3052 72.0528 95.5938 66.4049C99.8167 60.8259 104.04 55.2468 108.247 49.6416Z" fill="url(#paint0_linear)"/>
<path d="M112.648 45.0898C106.04 45.6039 99.526 47.0665 93.3661 49.3756C82.9885 53.3168 73.7384 59.7287 66.3175 67.6915C61.6091 72.7826 57.6456 78.4804 53.8249 84.2406C52.8862 85.6634 51.9088 87.1411 51.6963 88.836C51.5747 89.6572 51.6385 90.553 51.9886 91.3326C52.3117 92.1265 52.9364 92.8306 53.7243 93.2081C54.2264 93.4604 54.7481 93.5648 55.3203 93.5737C55.8653 93.5969 56.3913 93.527 56.9135 93.3901C57.958 93.1163 58.9062 92.6178 59.8854 92.1719C63.9372 90.3171 68.428 89.333 72.9405 88.9914C76.9388 88.6792 80.9785 88.8615 84.971 89.4472C85.0086 88.1195 85.1701 86.7611 85.432 85.4532C86.8735 78.5343 91.2589 72.6493 95.5587 66.9813C99.7927 61.3823 104 55.7976 108.218 50.1723C109.656 48.4526 111.152 46.7712 112.648 45.0898Z" fill="url(#paint1_linear)"/>
<path d="M157.476 47.4788C156.151 46.6008 154.783 45.7109 153.403 44.8612C144.819 39.4798 135.759 34.7926 126.383 30.8879C119.982 36.8158 113.935 43.1057 108.322 49.7151C104.201 55.1989 100.064 60.6566 95.927 66.1143C103.767 74.0768 112.479 81.2395 121.819 87.49C132.513 94.6043 144.04 100.494 156.128 104.993C162.727 95.9152 168.851 86.5055 174.074 76.6443C176.122 72.797 178.024 68.821 179.729 64.8112C172.802 58.5256 165.33 52.6965 157.476 47.4788Z" fill="#DFE2E7"/>
<path d="M88.1025 102.072C82.6643 104.757 77.4597 107.901 72.6233 111.433C71.4912 112.267 70.3475 113.141 69.4648 114.22C68.582 115.299 67.9487 116.624 67.9149 118.009C67.8965 119.421 68.5125 120.773 69.3789 121.891C70.2454 123.008 71.339 123.973 72.4442 124.897C78.9144 130.286 85.6968 135.307 92.6182 140.083C97.6355 143.534 102.745 146.903 107.982 150.068C109.23 150.814 110.478 151.561 111.85 152.037C113.221 152.514 114.743 152.706 116.12 152.29C117.486 151.915 118.572 151.003 119.428 149.938C120.241 148.861 120.809 147.605 121.266 146.34C122.685 142.448 123.371 138.327 124.029 134.22C124.415 131.692 124.771 129.112 125.115 126.572C123.07 126.209 121.068 125.619 119.128 124.894C111.891 122.164 105.473 117.705 99.3894 113.036C95.1787 109.879 90.9766 106.376 88.1025 102.072Z" fill="#DFE2E7"/>
<path d="M171.037 81.06C164.645 92.3546 157.124 103.045 149.153 113.39C147.07 116.092 144.917 118.796 142.338 121.074C141.941 121.42 141.502 121.753 141.09 122.072C144.325 125.848 147.043 130.066 148.988 134.587C150.71 138.609 151.894 142.915 152.05 147.212C152.094 148.25 152.068 149.29 152.278 150.309C152.404 150.825 152.583 151.312 152.817 151.771C153.078 152.215 153.435 152.644 153.869 152.963C154.591 153.474 155.491 153.685 156.387 153.591C157.257 153.511 158.085 153.178 158.821 152.689C160.265 151.725 161.153 150.232 162.03 148.78C165.532 142.903 168.888 136.898 171.391 130.52C175.275 120.542 176.876 109.676 175.711 98.9632C175.051 92.8432 173.452 86.8057 171.037 81.06Z" fill="url(#paint2_linear)"/>
<path d="M126.165 58.863C127.888 56.3836 130.387 54.3864 133.318 53.4288C135.853 52.5768 138.668 52.5025 141.323 53.0597C143.993 53.643 146.489 54.8315 148.661 56.43C151.702 58.6679 154.178 61.7497 155.125 65.2923C155.82 67.8032 155.707 70.4991 154.87 72.9243C154.048 75.3757 152.477 77.5706 150.444 79.22C147.575 81.5485 143.784 82.7862 139.999 82.8906C135.453 83.0188 130.759 81.5122 127.582 78.3189C124.774 75.514 123.347 71.5731 123.382 67.72C123.458 64.5987 124.381 61.4777 126.165 58.863Z" fill="url(#paint3_linear)"/>
<path d="M131.719 59.0588C134.055 57.3865 137.022 56.5477 139.947 56.7232C143.654 56.9677 147.261 58.9082 149.384 61.8679C150.439 63.3679 151.117 65.0663 151.356 66.8583C151.579 68.6241 151.333 70.4313 150.648 72.0921C149.792 74.1848 148.183 75.9544 146.194 77.1359C144.205 78.3175 141.82 78.8849 139.484 78.8111C137.328 78.7449 135.154 78.1061 133.301 76.9908C131.447 75.8755 129.915 74.2837 128.922 72.4085C127.756 70.1788 127.392 67.6309 127.909 65.2022C128.373 62.8018 129.763 60.5992 131.719 59.0588Z" fill="url(#paint4_linear)"/>
<path d="M70.679 123.867C65.7726 125.313 61.2913 127.906 57.8094 131.482C55.6939 133.655 53.9167 136.164 52.5089 138.821C52.0331 139.756 51.5573 140.691 51.2086 141.662C51.1234 141.878 51.0535 142.12 51.0377 142.334C51.0371 142.574 51.052 142.84 51.1864 143.01C51.2632 143.141 51.4209 143.229 51.5786 143.317C51.721 143.38 51.8904 143.428 52.0714 143.435C52.4064 143.465 52.707 143.376 53.05 143.298C56.7613 142.343 60.1396 140.397 63.9006 139.587C65.9738 139.149 68.1771 139.054 70.19 139.778C70.3747 139.852 70.5595 139.926 70.7325 140.041C70.9056 140.155 71.0401 140.325 71.0782 140.51C71.1126 140.629 71.0777 140.75 71.0427 140.871C71.0078 140.992 70.9305 141.101 70.8379 141.184C70.668 141.376 70.4521 141.49 70.2515 141.629C68.8283 142.514 67.6009 143.672 66.4159 144.843C63.0154 148.136 59.6917 151.56 57.1757 155.518C53.535 161.233 51.7293 167.97 51.7301 174.718C51.7196 176.025 51.8091 177.382 52.1299 178.652C52.3697 179.965 52.9678 181.227 53.8978 182.211C54.9738 183.325 56.432 184.066 57.9527 184.432C61.1786 185.238 64.5851 184.546 67.7416 183.607C72.224 182.281 76.6112 180.491 80.4531 177.891C84.241 175.319 87.5261 171.95 89.5685 167.965C90.9456 165.256 91.7648 162.256 92.7724 159.398C92.8925 159.061 93.0243 158.683 93.2175 158.41C93.4223 158.097 93.7272 157.834 94.0971 157.743C94.3708 157.668 94.6788 157.711 94.9212 157.824C95.1906 157.922 95.4214 158.075 95.6135 158.282C95.9824 158.671 96.2201 159.197 96.4424 159.697C97.2777 161.725 98.032 163.795 98.4703 165.928C98.8171 167.664 98.9558 169.407 98.8865 171.156C98.8654 172.023 98.7749 172.893 98.9888 173.74C99.0957 174.163 99.299 174.57 99.5949 174.894C99.8637 175.233 100.268 175.5 100.718 175.606C101.211 175.724 101.762 175.64 102.209 175.44C102.656 175.239 103.084 174.946 103.497 174.626C105.504 172.99 107.126 170.939 108.475 168.724C110.5 165.434 111.91 161.816 112.658 158.032C113.016 156.234 113.193 154.428 113.244 152.586C112.697 152.497 112.135 152.381 111.611 152.21C110.237 151.733 108.987 150.985 107.737 150.237C102.49 147.067 97.3861 143.718 92.344 140.235C85.3944 135.424 78.5724 130.409 72.1324 125.022L70.679 123.867Z" fill="url(#paint5_linear)"/>
<path d="M171.539 57.5766C170.759 59.564 169.964 61.5252 169.127 63.4744C163.24 76.8924 155.537 89.6858 144.974 100.071C144.962 100.111 144.908 100.14 144.881 100.154C148.549 101.829 152.295 103.395 156.06 104.814C157.557 102.724 159.054 100.634 160.52 98.4917C160.791 98.1094 161.035 97.7412 161.278 97.373C164.173 93.1429 166.936 88.81 169.556 84.4148C169.796 83.98 170.063 83.531 170.319 83.1224C171.6 80.9056 172.855 78.7031 174.036 76.436C174.992 74.6301 175.906 72.812 176.778 70.982C176.941 70.6564 177.077 70.345 177.212 70.0336C178.072 68.244 178.875 66.4161 179.65 64.6024C179.677 64.5882 179.662 64.562 179.662 64.562C177.063 62.1188 174.334 59.8133 171.539 57.5766Z" fill="#CFD3DB"/>
<path d="M108.247 49.6416C115.059 41.6053 122.467 34.0445 130.407 27.0279C137.79 20.5093 145.793 14.3853 155.105 10.7974C158.509 9.48977 162.086 8.53725 165.745 8.32984C169.448 8.13447 173.221 8.72463 176.515 10.4246C180.181 12.3399 183.055 15.495 184.883 19.0965C186.661 22.5527 187.485 26.3724 187.712 30.1973C187.924 33.996 187.51 37.8142 186.885 41.5722C184.734 53.8829 180.004 65.5929 174.127 76.671C167.208 89.771 158.698 102.026 149.591 113.806C147.503 116.514 145.346 119.225 142.761 121.509C140.176 123.792 137.095 125.651 133.646 126.399C129.113 127.408 124.261 126.424 119.884 124.744C112.625 122.006 106.214 117.519 100.086 112.85C95.0464 109.015 90.0156 104.832 87.259 99.2832C85.0207 94.7999 84.4805 89.5961 85.4781 84.7851C86.9159 77.8908 91.2898 72.0266 95.5784 66.3788C99.8167 60.8259 104.04 55.2469 108.247 49.6416Z" stroke="black" stroke-width="0.9295"/>
<path d="M171.037 81.06C164.645 92.3546 157.124 103.045 149.153 113.39C147.07 116.092 144.917 118.796 142.338 121.074C141.941 121.42 141.502 121.753 141.09 122.072C144.325 125.848 147.043 130.065 148.988 134.587C150.71 138.609 151.905 142.874 152.05 147.212C152.094 148.25 152.068 149.29 152.278 150.309C152.403 150.824 152.583 151.312 152.832 151.797C153.093 152.241 153.45 152.67 153.884 152.989C154.606 153.5 155.506 153.711 156.402 153.617C157.272 153.537 158.1 153.204 158.836 152.715C160.281 151.751 161.169 150.258 162.045 148.806C165.547 142.929 168.903 136.924 171.406 130.546C175.291 120.568 176.892 109.702 175.726 98.9893C175.051 92.8432 173.452 86.8057 171.037 81.06Z" stroke="black" stroke-width="0.9295"/>
<path d="M112.648 45.0899C106.04 45.604 99.526 47.0666 93.3661 49.3757C82.9732 53.2906 73.7385 59.7287 66.3176 67.6915C61.6092 72.7827 57.6457 78.4804 53.825 84.2406C52.8864 85.6634 51.9243 87.1674 51.6964 88.836C51.5902 89.6835 51.6386 90.5529 51.9887 91.3326C52.3118 92.1265 52.9366 92.8306 53.7244 93.208C54.2265 93.4604 54.7482 93.5647 55.3204 93.5737C55.8654 93.5969 56.3914 93.5269 56.9136 93.39C57.9581 93.1163 58.9063 92.6178 59.8854 92.1719C63.9373 90.3171 68.428 89.333 72.9406 88.9913C76.9388 88.6792 80.9786 88.8615 84.971 89.4472C85.0087 88.1195 85.1702 86.7611 85.432 85.4532C86.8736 78.5343 91.259 72.6493 95.5588 66.9813C99.7927 61.3823 104 55.7976 108.218 50.1724C109.656 48.4526 111.152 46.7713 112.648 45.0899Z" stroke="black" stroke-width="0.9295"/>
<path d="M148.032 60.3088C148.836 61.741 149.342 63.3294 149.431 64.9309C149.541 67.414 148.664 69.9012 147.058 71.8094C145.293 73.8697 142.696 75.2339 139.912 75.735C137.336 76.2297 134.596 76.0209 132.112 75.1625C131.445 74.9292 130.774 74.6293 130.157 74.3009C131.008 75.3305 132.033 76.2344 133.201 76.96C135.059 78.0786 137.223 78.693 139.4 78.7857C141.758 78.886 144.16 78.2765 146.17 77.1177C148.164 75.9326 149.762 74.1315 150.62 72.0327C151.322 70.3932 151.527 68.5687 151.33 66.7835C151.106 65.0124 150.411 63.2828 149.353 61.7783C148.976 61.2553 148.517 60.775 148.032 60.3088Z" fill="#B8BECA"/>
<path d="M151.393 58.7479C152.231 60.5406 152.825 62.4612 153.072 64.3926C153.425 67.23 153.102 70.1822 151.98 72.7981C150.874 75.4403 148.942 77.7605 146.422 79.2565C143.348 81.0773 139.564 81.6232 135.931 81.1612C132.917 80.7871 129.989 79.7148 127.394 78.124C127.452 78.1623 127.482 78.2148 127.529 78.2936C130.699 81.4713 135.422 83.0092 139.982 82.8806C143.777 82.7757 147.579 81.534 150.457 79.1977C152.495 77.5429 154.071 75.3407 154.895 72.8812C155.719 70.4216 155.806 67.7309 155.151 65.2238C154.5 62.7834 153.153 60.6055 151.393 58.7479Z" fill="url(#paint6_linear)"/>
<path d="M125.124 126.577C123.078 126.215 121.075 125.625 119.134 124.899C118.723 124.739 118.296 124.552 117.885 124.392C117.091 128.572 115.275 132.571 112.502 135.841C111.449 137.112 110.211 138.31 108.625 138.972C107.377 139.49 105.973 139.68 104.607 139.576C103.215 139.486 101.866 139.169 100.551 138.73C96.2685 137.319 92.4269 134.854 88.643 132.428C81.6937 127.969 74.7945 123.416 67.934 118.808C68.1201 119.908 68.6371 120.97 69.3122 121.882C70.1792 123 71.2734 123.965 72.3793 124.89C78.8535 130.282 85.64 135.305 92.5656 140.084C97.586 143.537 102.726 146.894 107.939 150.074C109.188 150.821 110.436 151.568 111.809 152.045C113.181 152.522 114.689 152.688 116.082 152.298C117.449 151.923 118.562 150.996 119.376 149.918C120.19 148.841 120.759 147.584 121.215 146.318C122.636 142.425 123.337 138.327 123.954 134.206C124.409 131.674 124.78 129.119 125.124 126.577Z" fill="#CFD3DB"/>
<path d="M88.1023 102.072C82.6641 104.758 77.4595 107.902 72.5962 111.447C71.4641 112.281 70.3203 113.156 69.4376 114.235C68.5549 115.314 67.9215 116.638 67.8877 118.024C67.8693 119.435 68.4853 120.787 69.3518 121.905C70.2182 123.023 71.3118 123.987 72.4171 124.911C78.8873 130.301 85.6697 135.321 92.5911 140.098C97.6084 143.549 102.718 146.917 107.955 150.082C109.203 150.829 110.451 151.575 111.822 152.052C113.194 152.528 114.716 152.721 116.093 152.305C117.444 151.904 118.545 151.017 119.401 149.952C120.214 148.875 120.782 147.62 121.239 146.354C122.658 142.463 123.359 138.368 124.002 134.234C124.388 131.706 124.744 129.126 125.087 126.586C123.043 126.224 121.041 125.634 119.101 124.909C111.864 122.179 105.446 117.72 99.3622 113.05C95.1786 109.879 90.9764 106.376 88.1023 102.072Z" stroke="black" stroke-width="0.9295"/>
<path d="M113.159 152.39C112.61 152.3 112.046 152.184 111.52 152.013C111.08 151.865 110.651 151.678 110.249 151.476C109.661 155.435 108.608 159.328 107.084 163.021C106.828 163.672 106.529 164.312 106.025 164.783C105.773 165.019 105.448 165.19 105.104 165.268C104.759 165.345 104.353 165.318 104.052 165.166C103.793 165.027 103.558 164.806 103.35 164.572C102.601 163.657 102.233 162.542 101.976 161.438C101.719 160.333 101.586 159.198 101.33 158.094C100.954 156.604 100.288 155.164 99.1806 154.059C98.6328 153.487 98.0074 153.023 97.2502 152.699C96.5201 152.359 95.7161 152.197 94.9233 152.235C93.8792 152.268 92.8962 152.647 92.0211 153.21C91.173 153.759 90.4329 154.493 89.7777 155.25C87.3161 158.128 85.7694 161.661 83.2036 164.422C79.7424 168.135 74.7227 170.155 69.7737 171.69C67.3746 172.435 64.9139 173.074 62.3884 173.301C58.7257 173.643 54.9647 172.969 51.5534 171.561C51.4429 172.583 51.4174 173.629 51.419 174.661C51.4085 175.975 51.4829 177.313 51.8204 178.616C52.0999 179.881 52.7004 181.149 53.634 182.138C54.7143 183.257 56.1783 184.002 57.7049 184.37C60.9706 185.167 64.3633 184.484 67.5323 183.541C72.0324 182.208 76.4368 180.409 80.2938 177.796C84.1121 175.237 87.3947 171.824 89.445 167.82C90.8275 165.096 91.65 162.081 92.6616 159.208C92.7822 158.869 92.9145 158.49 93.1084 158.216C93.314 157.901 93.6201 157.637 93.9915 157.545C94.2816 157.496 94.5755 157.513 94.8189 157.626C95.0622 157.739 95.2939 157.893 95.5139 158.087C95.8997 158.504 96.1229 159.007 96.346 159.509C97.1846 161.547 97.9419 163.628 98.3819 165.772C98.73 167.517 98.8693 169.268 98.7998 171.026C98.7786 171.898 98.6877 172.772 98.9024 173.624C99.0098 174.049 99.2138 174.458 99.4838 174.798C99.7808 175.124 100.159 175.407 100.611 175.514C101.106 175.632 101.659 175.548 102.108 175.346C102.557 175.145 102.987 174.85 103.359 174.517C105.373 172.872 107.002 170.811 108.372 168.61C110.405 165.303 111.82 161.667 112.571 157.864C112.931 156.057 113.109 154.242 113.159 152.39Z" fill="url(#paint7_linear)"/>
<path d="M70.6789 123.867C65.7726 125.313 61.2913 127.906 57.8093 131.482C55.6938 133.655 53.9166 136.164 52.5089 138.821C52.0331 139.756 51.5573 140.691 51.2085 141.662C51.1233 141.878 51.0535 142.12 51.0376 142.334C51.0371 142.574 51.0519 142.841 51.1863 143.01C51.2631 143.141 51.4208 143.229 51.5786 143.318C51.7209 143.38 51.8903 143.428 52.0713 143.436C52.4063 143.465 52.707 143.376 53.0499 143.298C56.7612 142.343 60.1395 140.397 63.9005 139.587C65.9737 139.149 68.177 139.054 70.1899 139.778C70.3746 139.852 70.5594 139.926 70.7324 140.041C70.9055 140.156 71.0399 140.325 71.0781 140.51C71.1125 140.629 71.0775 140.75 71.0426 140.871C71.0077 140.993 70.9304 141.102 70.8378 141.184C70.6679 141.376 70.452 141.49 70.2514 141.629C68.8282 142.514 67.6008 143.672 66.4158 144.843C63.0153 148.136 59.6916 151.56 57.1756 155.519C53.5349 161.233 51.7293 167.97 51.73 174.718C51.7195 176.025 51.809 177.382 52.1298 178.652C52.3696 179.965 52.9677 181.227 53.8977 182.211C54.9738 183.325 56.432 184.066 57.9526 184.432C61.1786 185.238 64.585 184.546 67.7415 183.607C72.2239 182.281 76.611 180.491 80.426 177.905C84.2139 175.333 87.499 171.964 89.5413 167.98C90.9454 165.256 91.7376 162.27 92.7452 159.412C92.8654 159.075 92.9972 158.697 93.1903 158.425C93.3951 158.112 93.7 157.849 94.07 157.757C94.3436 157.682 94.6516 157.726 94.8941 157.838C95.1635 157.937 95.3942 158.089 95.5864 158.297C95.9553 158.685 96.1929 159.211 96.4153 159.711C97.2505 161.739 98.0048 163.809 98.4432 165.942C98.7899 167.678 98.9286 169.421 98.8594 171.17C98.8382 172.038 98.7477 172.907 98.9616 173.754C99.0685 174.177 99.2718 174.584 99.5677 174.909C99.8635 175.233 100.24 175.514 100.691 175.62C101.184 175.738 101.735 175.655 102.182 175.454C102.656 175.239 103.057 174.96 103.455 174.614C105.461 172.978 107.083 170.927 108.448 168.738C110.473 165.448 111.883 161.83 112.631 158.046C112.989 156.248 113.166 154.442 113.216 152.601C112.643 152.525 112.108 152.395 111.584 152.225C110.21 151.747 108.96 150.999 107.71 150.252C102.463 147.081 97.3589 143.733 92.3169 140.249C85.3673 135.438 78.5453 130.423 72.1053 125.036L70.6789 123.867Z" stroke="black" stroke-width="0.9295"/>
<path d="M98.6654 52.9289C95.7116 53.4127 92.85 54.2986 90.1777 55.5701C87.3695 56.9133 84.7932 58.6542 82.5731 60.7619" stroke="white" stroke-width="1.4407" stroke-linecap="round" stroke-linejoin="round"/>
<defs>
<linearGradient id="paint0_linear" x1="113.536" y1="43.0482" x2="170.066" y2="88.3196" gradientUnits="userSpaceOnUse">
<stop stop-color="#C57BFF"/>
<stop offset="1" stop-color="#454BCB"/>
</linearGradient>
<linearGradient id="paint1_linear" x1="71.7114" y1="60.6431" x2="93.8361" y2="78.3447" gradientUnits="userSpaceOnUse">
<stop offset="0.2759" stop-color="#7556BA"/>
<stop offset="0.3895" stop-color="#7C5FBE"/>
<stop offset="0.5743" stop-color="#9077C8"/>
<stop offset="0.7825" stop-color="#AC9AD6"/>
</linearGradient>
<linearGradient id="paint2_linear" x1="149.805" y1="107.56" x2="177.57" y2="129.797" gradientUnits="userSpaceOnUse">
<stop offset="0.2759" stop-color="#7556BA"/>
<stop offset="0.3895" stop-color="#7C5FBE"/>
<stop offset="0.5743" stop-color="#9077C8"/>
<stop offset="0.7825" stop-color="#AC9AD6"/>
</linearGradient>
<linearGradient id="paint3_linear" x1="126.326" y1="58.6249" x2="151.358" y2="78.6737" gradientUnits="userSpaceOnUse">
<stop offset="0.2759" stop-color="#7556BA"/>
<stop offset="0.3895" stop-color="#7C5FBE"/>
<stop offset="0.5743" stop-color="#9077C8"/>
<stop offset="0.7825" stop-color="#AC9AD6"/>
</linearGradient>
<linearGradient id="paint4_linear" x1="130.033" y1="60.7095" x2="148.429" y2="75.4438" gradientUnits="userSpaceOnUse">
<stop offset="0.1525" stop-color="#7FCDEE"/>
<stop offset="0.236" stop-color="#88D0EF"/>
<stop offset="0.372" stop-color="#A0DAF2"/>
<stop offset="0.5426" stop-color="#C7E9F7"/>
<stop offset="0.5915" stop-color="#D4EEF9"/>
</linearGradient>
<linearGradient id="paint5_linear" x1="49.2637" y1="141.931" x2="98.5605" y2="181.414" gradientUnits="userSpaceOnUse">
<stop offset="0.4377" stop-color="#F7931E"/>
<stop offset="0.5098" stop-color="#F89C27"/>
<stop offset="0.6095" stop-color="#FBB03B"/>
</linearGradient>
<linearGradient id="paint6_linear" x1="136.713" y1="66.5353" x2="151.526" y2="78.3946" gradientUnits="userSpaceOnUse">
<stop offset="0.2759" stop-color="#7556BA"/>
<stop offset="0.3895" stop-color="#7C5FBE"/>
<stop offset="0.5743" stop-color="#9077C8"/>
<stop offset="0.7825" stop-color="#AC9AD6"/>
</linearGradient>
<linearGradient id="paint7_linear" x1="65.5647" y1="154.02" x2="98.9562" y2="180.733" gradientUnits="userSpaceOnUse">
<stop offset="0.4377" stop-color="#F7931E"/>
<stop offset="0.5098" stop-color="#F89C27"/>
<stop offset="0.6095" stop-color="#FBB03B"/>
</linearGradient>
</defs>
</svg>
