<svg width="850" height="172" viewBox="0 0 850 172" fill="none" xmlns="http://www.w3.org/2000/svg">
<path d="M0 64C0 41.9086 17.9086 24 40 24H850V124C850 146.091 832.091 164 810 164H40C17.9086 164 0 146.091 0 124V64Z" fill="url(#paint0_linear)"/>
<path d="M179.09 55.4V68.2C179.09 72.2533 177.89 75.36 175.49 77.52C173.33 79.44 170.53 80.4 167.09 80.4C163.65 80.4 160.85 79.44 158.69 77.52C156.29 75.36 155.09 72.2533 155.09 68.2V52H160.49V68.6C160.49 70.92 161.103 72.6533 162.33 73.8C163.583 75 165.17 75.6 167.09 75.6C169.01 75.6 170.597 75 171.85 73.8C173.077 72.6533 173.69 70.92 173.69 68.6V52H178.49C179.05 51.92 179.45 51.76 179.69 51.52C180.037 51.1733 180.21 50.5067 180.21 49.52L184.09 49.48C184.09 51.1333 183.503 52.5467 182.33 53.72C181.397 54.6533 180.317 55.2133 179.09 55.4ZM203.295 60.6V80H198.295V78.44C196.828 79.7467 195.081 80.4 193.055 80.4C190.335 80.4 188.135 79.36 186.455 77.28C185.148 75.68 184.495 73.5467 184.495 70.88V60.6H189.695V71.08C189.695 72.5733 190.015 73.68 190.655 74.4C191.375 75.2 192.348 75.6 193.575 75.6C194.561 75.6 195.495 75.32 196.375 74.76C196.748 74.52 197.081 74.2533 197.375 73.96C197.641 73.72 197.881 73.4667 198.095 73.2V60.6H203.295ZM217.09 62.6H221.09V52H229.89C233.917 52 237.13 52.88 239.53 54.64C241.263 55.92 242.623 57.5467 243.61 59.52C244.597 61.5467 245.09 63.7067 245.09 66C245.09 68.2933 244.597 70.44 243.61 72.44C242.623 74.44 241.263 76.08 239.53 77.36C237.13 79.12 233.917 80 229.89 80H221.09V67.4H217.09V62.6ZM239.69 66C239.69 63.6533 239.01 61.6267 237.65 59.92C235.997 57.84 233.61 56.8 230.49 56.8H226.49V62.6H234.49V67.4H226.49V75.2H230.49C233.61 75.2 235.997 74.16 237.65 72.08C239.01 70.3733 239.69 68.3467 239.69 66ZM263.49 67.4C262.29 65.8 260.69 65 258.69 65C257.223 65 256.01 65.5333 255.05 66.6C254.143 67.64 253.69 68.88 253.69 70.32C253.69 71.84 254.183 73.0933 255.17 74.08C256.13 75.0933 257.343 75.6 258.81 75.6C260.81 75.6 262.37 74.8 263.49 73.2V67.4ZM268.69 80H263.69V78.44C262.143 79.7467 260.343 80.4 258.29 80.4C255.303 80.4 252.863 79.3067 250.97 77.12C249.317 75.2 248.49 72.9333 248.49 70.32C248.49 67.4667 249.423 65.0667 251.29 63.12C253.13 61.1733 255.37 60.2 258.01 60.2C260.197 60.2 262.09 60.8533 263.69 62.16V60.6H268.69V80ZM265.73 54.28C265.73 55.48 265.423 56.48 264.81 57.28C264.17 58.1333 263.29 58.56 262.17 58.56C261.503 58.56 260.65 58.2933 259.61 57.76L259.01 57.48L258.45 57.2C258.05 57.04 257.703 56.96 257.41 56.96C256.663 56.96 256.237 57.4933 256.13 58.56L253.57 58.04C253.57 56.84 253.877 55.84 254.49 55.04C255.13 54.1867 256.01 53.76 257.13 53.76C257.823 53.76 258.69 54.0267 259.73 54.56L260.29 54.84L260.85 55.12C261.25 55.28 261.597 55.36 261.89 55.36C262.637 55.36 263.063 54.8267 263.17 53.76L265.73 54.28ZM279.899 80H274.699V60.6H279.899V80ZM273.899 53.72C273.899 52.7867 274.233 52 274.899 51.36C275.566 50.72 276.366 50.4 277.299 50.4C278.233 50.4 279.033 50.72 279.699 51.36C280.366 52 280.699 52.7867 280.699 53.72C280.699 54.6533 280.366 55.44 279.699 56.08C279.033 56.72 278.233 57.04 277.299 57.04C276.366 57.04 275.566 56.72 274.899 56.08C274.233 55.44 273.899 54.6533 273.899 53.72ZM179.395 118.6H183.395V108H192.195C196.221 108 199.435 108.88 201.835 110.64C203.568 111.92 204.928 113.547 205.915 115.52C206.901 117.547 207.395 119.707 207.395 122C207.395 124.293 206.901 126.44 205.915 128.44C204.928 130.44 203.568 132.08 201.835 133.36C199.435 135.12 196.221 136 192.195 136H183.395V123.4H179.395V118.6ZM201.995 122C201.995 119.653 201.315 117.627 199.955 115.92C198.301 113.84 195.915 112.8 192.795 112.8H188.795V118.6H196.795V123.4H188.795V131.2H192.795C195.915 131.2 198.301 130.16 199.955 128.08C201.315 126.373 201.995 124.347 201.995 122ZM228.915 132.92C226.968 135.24 224.315 136.4 220.955 136.4C218.021 136.4 215.608 135.48 213.715 133.64C211.768 131.773 210.795 129.333 210.795 126.32C210.795 123.52 211.648 121.16 213.355 119.24C215.141 117.213 217.435 116.2 220.235 116.2C222.875 116.2 225.075 117.173 226.835 119.12C228.541 121.04 229.395 123.373 229.395 126.12C229.395 126.653 229.355 127.147 229.275 127.6H215.835C215.968 128.96 216.528 130.067 217.515 130.92C218.501 131.773 219.688 132.2 221.075 132.2C222.061 132.2 223.035 131.947 223.995 131.44C224.741 131.067 225.395 130.573 225.955 129.96L228.915 132.92ZM224.075 123.8C223.995 122.893 223.595 122.107 222.875 121.44C222.128 120.747 221.248 120.4 220.235 120.4C219.195 120.4 218.261 120.747 217.435 121.44C216.661 122.107 216.208 122.893 216.075 123.8H224.075ZM222.475 109.12L225.915 114.64H222.595L220.115 111.88L217.635 114.64H214.315L217.755 109.12H222.475ZM232.075 105.2L227.835 110.48H224.835L227.075 105.2H232.075ZM233.801 136V116.6H238.801V118.16C240.401 116.853 242.227 116.2 244.281 116.2C247.027 116.2 249.267 117.24 251.001 119.32C252.334 120.893 253.001 123.16 253.001 126.12V136H247.801V125.72C247.801 124.067 247.414 122.853 246.641 122.08C245.921 121.36 244.947 121 243.721 121C242.734 121 241.761 121.28 240.801 121.84C240.027 122.267 239.427 122.787 239.001 123.4V136H233.801Z" fill="white"/>
<circle cx="78.5" cy="93.5" r="58.5" fill="white" stroke="#FF8F3A" stroke-width="2"/>
<path d="M114.304 125.183H42.7358C39.5171 125.183 36.9341 122.6 36.9341 119.382V95.7773H120.106V119.382C120.106 122.6 117.483 125.183 114.304 125.183Z" fill="url(#paint1_radial)"/>
<path d="M119.788 95.7773H37.2122C34.9074 95.7773 33 93.9096 33 91.5651V88.2668C33 85.9223 34.9074 84.0546 37.2122 84.0546H119.788C122.132 84.0546 124 85.962 124 88.2668V91.5651C124 93.9096 122.132 95.7773 119.788 95.7773Z" fill="url(#paint2_radial)"/>
<path d="M87.3218 84.0148H69.6782V95.7773H87.3218V84.0148Z" fill="url(#paint3_linear)"/>
<path d="M87.3218 95.7773H69.6782V125.183H87.3218V95.7773Z" fill="url(#paint4_linear)"/>
<path d="M83.507 84.0148H73.5328V78.0541C73.5328 76.7031 74.6454 75.5904 75.9965 75.5904H81.0433C82.3943 75.5904 83.507 76.7031 83.507 78.0541V84.0148Z" fill="url(#paint5_linear)"/>
<path d="M73.5327 78.0939C73.5327 78.0939 70.8305 72.6895 66.1415 68.0799C62.1279 64.1459 56.6838 62 51.0808 62C47.0672 62 43.8087 65.2585 43.8087 69.2721V78.7297C43.8087 81.6703 46.193 84.0148 49.0939 84.0148H73.5327V78.0939Z" fill="url(#paint6_linear)"/>
<path d="M83.507 78.0939C83.507 78.0939 86.2091 72.6895 90.8982 68.0799C94.872 64.1459 100.316 62 105.959 62C109.972 62 113.231 65.2585 113.231 69.2721V78.7297C113.231 81.6703 110.847 84.0148 107.946 84.0148H83.5467V78.0939H83.507Z" fill="url(#paint7_linear)"/>
<path d="M120.106 95.7773H36.9341V111.235H120.106V95.7773Z" fill="url(#paint8_linear)"/>
<path d="M304.4 58H359.6V67.6L323.48 142H306.32L340.28 72.4H304.4V58ZM381.487 142L397.327 115.24H396.247C388.167 115.24 381.287 112.52 375.607 107.08C369.767 101.48 366.847 94.56 366.847 86.32C366.847 78.16 369.807 71.2 375.727 65.44C381.567 59.68 388.567 56.8 396.727 56.8C404.967 56.8 412.047 59.4 417.967 64.6C424.287 70.04 427.447 77 427.447 85.48C427.447 91.64 424.687 99.36 419.167 108.64L399.367 142H381.487ZM406.807 98.8C408.247 96.8 409.367 94.88 410.167 93.04C411.287 90.56 411.847 88.04 411.847 85.48C411.847 81.56 410.407 78.2 407.527 75.4C404.567 72.6 401.047 71.2 396.967 71.2C392.887 71.2 389.487 72.64 386.767 75.52C384.127 78.32 382.807 81.76 382.807 85.84C382.807 90 384.167 93.52 386.887 96.4C389.767 99.36 393.407 100.84 397.807 100.84C400.847 100.84 403.847 100.16 406.807 98.8Z" fill="white"/>
<path d="M304.4 58V55H301.4V58H304.4ZM359.6 58H362.6V55H359.6V58ZM359.6 67.6L362.299 68.9102L362.6 68.2897V67.6H359.6ZM323.48 142V145H325.358L326.179 143.31L323.48 142ZM306.32 142L303.624 140.684L301.518 145H306.32V142ZM340.28 72.4L342.976 73.7155L345.082 69.4H340.28V72.4ZM304.4 72.4H301.4V75.4H304.4V72.4ZM304.4 61H359.6V55H304.4V61ZM356.6 58V67.6H362.6V58H356.6ZM356.901 66.2898L320.781 140.69L326.179 143.31L362.299 68.9102L356.901 66.2898ZM323.48 139H306.32V145H323.48V139ZM309.016 143.316L342.976 73.7155L337.584 71.0844L303.624 140.684L309.016 143.316ZM340.28 69.4H304.4V75.4H340.28V69.4ZM307.4 72.4V58H301.4V72.4H307.4ZM381.487 142L378.905 140.472L376.225 145H381.487V142ZM397.327 115.24L399.909 116.768L402.589 112.24H397.327V115.24ZM375.607 107.08L373.531 109.245L373.532 109.247L375.607 107.08ZM375.727 65.44L377.819 67.5902L377.826 67.5831L377.834 67.5759L375.727 65.44ZM417.967 64.6L415.987 66.8539L415.998 66.8639L416.01 66.8737L417.967 64.6ZM419.167 108.64L416.589 107.106L416.587 107.109L419.167 108.64ZM399.367 142V145H401.075L401.947 143.531L399.367 142ZM406.807 98.8L408.059 101.526L408.779 101.195L409.241 100.553L406.807 98.8ZM410.167 93.04L407.433 91.8052L407.424 91.8245L407.416 91.8438L410.167 93.04ZM407.527 75.4L409.618 73.249L409.603 73.2347L409.588 73.2206L407.527 75.4ZM386.767 75.52L384.586 73.4601L384.584 73.462L386.767 75.52ZM386.887 96.4L384.706 98.4599L384.721 98.4761L384.737 98.4921L386.887 96.4ZM384.069 143.528L399.909 116.768L394.745 113.712L378.905 140.472L384.069 143.528ZM397.327 112.24H396.247V118.24H397.327V112.24ZM396.247 112.24C388.917 112.24 382.787 109.803 377.682 104.913L373.532 109.247C379.787 115.237 387.417 118.24 396.247 118.24V112.24ZM377.683 104.915C372.445 99.8921 369.847 93.7595 369.847 86.32H363.847C363.847 95.3605 367.088 103.068 373.531 109.245L377.683 104.915ZM369.847 86.32C369.847 78.981 372.471 72.7932 377.819 67.5902L373.635 63.2898C367.142 69.6068 363.847 77.339 363.847 86.32H369.847ZM377.834 67.5759C383.115 62.3663 389.36 59.8 396.727 59.8V53.8C387.774 53.8 380.018 56.9937 373.62 63.3041L377.834 67.5759ZM396.727 59.8C404.275 59.8 410.641 62.1583 415.987 66.8539L419.947 62.346C413.452 56.6417 405.659 53.8 396.727 53.8V59.8ZM416.01 66.8737C421.655 71.7328 424.447 77.8566 424.447 85.48H430.447C430.447 76.1434 426.919 68.3472 419.924 62.3263L416.01 66.8737ZM424.447 85.48C424.447 90.8316 422.013 97.9865 416.589 107.106L421.745 110.174C427.36 100.734 430.447 92.4484 430.447 85.48H424.447ZM416.587 107.109L396.787 140.469L401.947 143.531L421.747 110.171L416.587 107.109ZM399.367 139H381.487V145H399.367V139ZM409.241 100.553C410.779 98.4169 412.016 96.311 412.918 94.2362L407.416 91.8438C406.718 93.449 405.714 95.1831 404.372 97.0471L409.241 100.553ZM412.901 94.2748C414.185 91.4316 414.847 88.4923 414.847 85.48H408.847C408.847 87.5877 408.389 89.6884 407.433 91.8052L412.901 94.2748ZM414.847 85.48C414.847 80.7275 413.063 76.5982 409.618 73.249L405.436 77.551C407.751 79.8018 408.847 82.3925 408.847 85.48H414.847ZM409.588 73.2206C406.071 69.8928 401.813 68.2 396.967 68.2V74.2C400.281 74.2 403.063 75.3072 405.465 77.5794L409.588 73.2206ZM396.967 68.2C392.089 68.2 387.891 69.9601 384.586 73.4601L388.948 77.5799C391.082 75.3199 393.684 74.2 396.967 74.2V68.2ZM384.584 73.462C381.385 76.8545 379.807 81.0455 379.807 85.84H385.807C385.807 82.4745 386.868 79.7855 388.95 77.578L384.584 73.462ZM379.807 85.84C379.807 90.7236 381.432 94.9929 384.706 98.4599L389.068 94.3401C386.902 92.0471 385.807 89.2764 385.807 85.84H379.807ZM384.737 98.4921C388.221 102.073 392.656 103.84 397.807 103.84V97.84C394.158 97.84 391.312 96.6465 389.037 94.3079L384.737 98.4921ZM397.807 103.84C401.31 103.84 404.735 103.053 408.059 101.526L405.554 96.074C402.959 97.2666 400.384 97.84 397.807 97.84V103.84Z" fill="white"/>
<path d="M300.4 55H355.6V64.6L319.48 139H302.32L336.28 69.4H300.4V55ZM377.487 139L393.327 112.24H392.247C384.167 112.24 377.287 109.52 371.607 104.08C365.767 98.48 362.847 91.56 362.847 83.32C362.847 75.16 365.807 68.2 371.727 62.44C377.567 56.68 384.567 53.8 392.727 53.8C400.967 53.8 408.047 56.4 413.967 61.6C420.287 67.04 423.447 74 423.447 82.48C423.447 88.64 420.687 96.36 415.167 105.64L395.367 139H377.487ZM402.807 95.8C404.247 93.8 405.367 91.88 406.167 90.04C407.287 87.56 407.847 85.04 407.847 82.48C407.847 78.56 406.407 75.2 403.527 72.4C400.567 69.6 397.047 68.2 392.967 68.2C388.887 68.2 385.487 69.64 382.767 72.52C380.127 75.32 378.807 78.76 378.807 82.84C378.807 87 380.167 90.52 382.887 93.4C385.767 96.36 389.407 97.84 393.807 97.84C396.847 97.84 399.847 97.16 402.807 95.8Z" fill="#DE020D"/>
<path d="M511.82 74.18H502.02V83H498.24V63.4H502.02V70.82H511.82V63.4H515.6V83H511.82V74.18ZM518.828 76.224C518.828 74.2453 519.518 72.5747 520.9 71.212C522.281 69.8307 523.998 69.14 526.052 69.14C528.105 69.14 529.822 69.8307 531.204 71.212C532.585 72.5747 533.276 74.2453 533.276 76.224C533.276 78.2027 532.585 79.864 531.204 81.208C529.822 82.5893 528.105 83.28 526.052 83.28C523.998 83.28 522.281 82.5893 520.9 81.208C519.518 79.864 518.828 78.2027 518.828 76.224ZM522.468 76.224C522.468 77.2693 522.804 78.1373 523.476 78.828C524.148 79.556 525.006 79.92 526.052 79.92C527.097 79.92 527.965 79.556 528.656 78.828C529.309 78.1373 529.636 77.2693 529.636 76.224C529.636 75.1787 529.309 74.3013 528.656 73.592C527.965 72.864 527.097 72.5 526.052 72.5C525.006 72.5 524.148 72.864 523.476 73.592C522.804 74.3013 522.468 75.1787 522.468 76.224ZM524.12 87.2C524.12 86.64 524.306 86.1733 524.68 85.8C525.053 85.408 525.51 85.212 526.052 85.212C526.612 85.212 527.078 85.408 527.452 85.8C527.844 86.1733 528.04 86.64 528.04 87.2C528.04 87.7413 527.844 88.1987 527.452 88.572C527.078 88.9453 526.612 89.132 526.052 89.132C525.51 89.132 525.053 88.9453 524.68 88.572C524.306 88.1987 524.12 87.7413 524.12 87.2ZM548.947 80.228C547.417 82.2627 545.363 83.28 542.787 83.28C540.697 83.28 538.961 82.5893 537.579 81.208C536.198 79.864 535.507 78.2027 535.507 76.224C535.507 74.2453 536.207 72.5747 537.607 71.212C539.007 69.8307 540.743 69.14 542.815 69.14C545.223 69.14 547.127 70.0453 548.527 71.856L545.951 74.124C545.13 73.0413 544.085 72.5 542.815 72.5C541.77 72.5 540.893 72.864 540.183 73.592C539.493 74.3013 539.147 75.1787 539.147 76.224C539.147 77.288 539.493 78.1653 540.183 78.856C540.893 79.5653 541.798 79.92 542.899 79.92C544.281 79.92 545.363 79.3227 546.147 78.128L548.947 80.228ZM563.215 75.02V83H559.435V63.4H566.799C569.077 63.4 570.775 63.988 571.895 65.164C572.922 66.228 573.435 67.5813 573.435 69.224C573.435 70.8667 572.922 72.22 571.895 73.284C570.794 74.4413 569.095 75.02 566.799 75.02H563.215ZM566.631 71.66C567.733 71.66 568.526 71.3987 569.011 70.876C569.441 70.4093 569.655 69.8587 569.655 69.224C569.655 68.5707 569.441 68.0107 569.011 67.544C568.526 67.0213 567.733 66.76 566.631 66.76H563.215V71.66H566.631ZM579.724 83H576.084V63.12H579.724V70.4C580.807 69.56 582.039 69.14 583.42 69.14C585.343 69.14 586.911 69.868 588.124 71.324C589.058 72.4253 589.524 74.012 589.524 76.084V83H585.884V75.804C585.884 74.6467 585.614 73.7973 585.072 73.256C584.568 72.752 583.887 72.5 583.028 72.5C582.338 72.5 581.656 72.696 580.984 73.088C580.443 73.3867 580.023 73.7507 579.724 74.18V83ZM597.088 83H593.448V69.42H597.088V83ZM598.516 63.624L595.548 67.32H593.448L595.016 63.624H598.516ZM617.886 66.48C616.038 66.48 614.489 67.1333 613.238 68.44C611.988 69.7467 611.362 71.3333 611.362 73.2C611.362 75.104 612.006 76.7 613.294 77.988C614.582 79.276 616.169 79.92 618.054 79.92C620.35 79.92 622.198 79.0147 623.598 77.204L626.202 79.528C624.242 82.0293 621.498 83.28 617.97 83.28C614.946 83.28 612.454 82.3 610.494 80.34C608.553 78.436 607.582 76.056 607.582 73.2C607.582 70.344 608.544 67.964 610.466 66.06C612.426 64.1 614.909 63.12 617.914 63.12C620.77 63.12 623.16 64.0533 625.082 65.92L622.646 68.496C621.302 67.152 619.716 66.48 617.886 66.48ZM632.498 83H628.858V63.12H632.498V70.4C633.58 69.56 634.812 69.14 636.194 69.14C638.116 69.14 639.684 69.868 640.898 71.324C641.831 72.4253 642.298 74.012 642.298 76.084V83H638.658V75.804C638.658 74.6467 638.387 73.7973 637.846 73.256C637.342 72.752 636.66 72.5 635.802 72.5C635.111 72.5 634.43 72.696 633.758 73.088C633.216 73.3867 632.796 73.7507 632.498 74.18V83ZM645.101 76.224C645.101 74.2453 645.792 72.5747 647.173 71.212C648.554 69.8307 650.272 69.14 652.325 69.14C654.378 69.14 656.096 69.8307 657.477 71.212C658.858 72.5747 659.549 74.2453 659.549 76.224C659.549 78.2027 658.858 79.864 657.477 81.208C656.096 82.5893 654.378 83.28 652.325 83.28C650.272 83.28 648.554 82.5893 647.173 81.208C645.792 79.864 645.101 78.2027 645.101 76.224ZM648.741 76.224C648.741 77.2693 649.077 78.1373 649.749 78.828C650.421 79.556 651.28 79.92 652.325 79.92C653.37 79.92 654.238 79.556 654.929 78.828C655.582 78.1373 655.909 77.2693 655.909 76.224C655.909 75.1787 655.582 74.3013 654.929 73.592C654.238 72.864 653.37 72.5 652.325 72.5C651.28 72.5 650.421 72.864 649.749 73.592C649.077 74.3013 648.741 75.1787 648.741 76.224ZM676.978 63.4C678.864 63.4 680.329 63.8573 681.374 64.772C682.588 65.836 683.194 67.152 683.194 68.72C683.194 70.0267 682.774 71.1187 681.934 71.996C682.812 72.4253 683.521 73.0973 684.062 74.012C684.604 74.9267 684.874 75.9253 684.874 77.008C684.874 78.6693 684.277 80.0787 683.082 81.236C681.906 82.412 680.198 83 677.958 83H670.314V63.4H676.978ZM674.094 70.96H676.754C677.725 70.96 678.425 70.7267 678.854 70.26C679.228 69.8493 679.414 69.3827 679.414 68.86C679.414 68.3373 679.228 67.8707 678.854 67.46C678.425 66.9933 677.725 66.76 676.754 66.76H674.094V70.96ZM677.874 79.64C679.032 79.64 679.872 79.3507 680.394 78.772C680.861 78.268 681.094 77.6707 681.094 76.98C681.094 76.2893 680.861 75.692 680.394 75.188C679.872 74.6093 679.032 74.32 677.874 74.32H674.094V79.64H677.874ZM697.464 74.18C696.624 73.06 695.504 72.5 694.104 72.5C693.078 72.5 692.228 72.8733 691.556 73.62C690.922 74.348 690.604 75.216 690.604 76.224C690.604 77.288 690.95 78.1653 691.64 78.856C692.312 79.5653 693.162 79.92 694.188 79.92C695.588 79.92 696.68 79.36 697.464 78.24V74.18ZM701.104 83H697.604V81.908C696.522 82.8227 695.262 83.28 693.824 83.28C691.734 83.28 690.026 82.5147 688.7 80.984C687.543 79.64 686.964 78.0533 686.964 76.224C686.964 74.2267 687.618 72.5467 688.924 71.184C690.212 69.8213 691.78 69.14 693.628 69.14C695.159 69.14 696.484 69.5973 697.604 70.512V69.42H701.104V83ZM722.798 75.132L729.938 63.4H732.598V83H728.818V72.08L724.114 79.78H721.482L716.778 72.08V83H712.998V63.4H715.658L722.798 75.132ZM748.512 80.844C747.149 82.468 745.292 83.28 742.94 83.28C740.886 83.28 739.197 82.636 737.872 81.348C736.509 80.0413 735.828 78.3333 735.828 76.224C735.828 74.264 736.425 72.612 737.62 71.268C738.87 69.8493 740.476 69.14 742.436 69.14C744.284 69.14 745.824 69.8213 747.056 71.184C748.25 72.528 748.848 74.1613 748.848 76.084C748.848 76.4573 748.82 76.8027 748.764 77.12H739.356C739.449 78.072 739.841 78.8467 740.532 79.444C741.222 80.0413 742.053 80.34 743.024 80.34C743.714 80.34 744.396 80.1627 745.068 79.808C745.59 79.5467 746.048 79.2013 746.44 78.772L748.512 80.844ZM745.124 74.46C745.068 73.8253 744.788 73.2747 744.284 72.808C743.761 72.3227 743.145 72.08 742.436 72.08C741.708 72.08 741.054 72.3227 740.476 72.808C739.934 73.2747 739.617 73.8253 739.524 74.46H745.124ZM740.392 87.2C740.392 86.64 740.578 86.1733 740.952 85.8C741.325 85.408 741.782 85.212 742.324 85.212C742.884 85.212 743.35 85.408 743.724 85.8C744.116 86.1733 744.312 86.64 744.312 87.2C744.312 87.7413 744.116 88.1987 743.724 88.572C743.35 88.9453 742.884 89.132 742.324 89.132C741.782 89.132 741.325 88.9453 740.952 88.572C740.578 88.1987 740.392 87.7413 740.392 87.2ZM496 109.82H498.8V102.4H504.96C507.779 102.4 510.028 103.016 511.708 104.248C512.921 105.144 513.873 106.283 514.564 107.664C515.255 109.083 515.6 110.595 515.6 112.2C515.6 113.805 515.255 115.308 514.564 116.708C513.873 118.108 512.921 119.256 511.708 120.152C510.028 121.384 507.779 122 504.96 122H498.8V113.18H496V109.82ZM511.82 112.2C511.82 110.557 511.344 109.139 510.392 107.944C509.235 106.488 507.564 105.76 505.38 105.76H502.58V109.82H508.18V113.18H502.58V118.64H505.38C507.564 118.64 509.235 117.912 510.392 116.456C511.344 115.261 511.82 113.843 511.82 112.2ZM528.48 113.18C527.64 112.06 526.52 111.5 525.12 111.5C524.093 111.5 523.244 111.873 522.572 112.62C521.937 113.348 521.62 114.216 521.62 115.224C521.62 116.288 521.965 117.165 522.656 117.856C523.328 118.565 524.177 118.92 525.204 118.92C526.604 118.92 527.696 118.36 528.48 117.24V113.18ZM532.12 122H528.62V120.908C527.537 121.823 526.277 122.28 524.84 122.28C522.749 122.28 521.041 121.515 519.716 119.984C518.559 118.64 517.98 117.053 517.98 115.224C517.98 113.227 518.633 111.547 519.94 110.184C521.228 108.821 522.796 108.14 524.644 108.14C526.175 108.14 527.5 108.597 528.62 109.512V108.42H532.12V122ZM529.656 103.52C529.656 104.453 529.329 105.247 528.676 105.9C528.023 106.553 527.229 106.88 526.296 106.88C525.363 106.88 524.569 106.553 523.916 105.9C523.263 105.247 522.936 104.453 522.936 103.52H525.288C525.288 103.8 525.391 104.033 525.596 104.22C525.783 104.425 526.016 104.528 526.296 104.528C526.576 104.528 526.819 104.425 527.024 104.22C527.211 104.033 527.304 103.8 527.304 103.52H529.656ZM536.327 122V108.42H539.827V109.512C540.947 108.597 542.225 108.14 543.663 108.14C545.585 108.14 547.153 108.868 548.367 110.324C549.3 111.425 549.767 113.012 549.767 115.084V122H546.127V114.804C546.127 113.647 545.856 112.797 545.315 112.256C544.811 111.752 544.129 111.5 543.271 111.5C542.58 111.5 541.899 111.696 541.227 112.088C540.685 112.387 540.265 112.751 539.967 113.18V122H536.327ZM566.71 121.244C566.71 123.447 566.299 125.127 565.478 126.284C564.171 128.095 562.165 129 559.458 129C558.17 129 556.919 128.729 555.706 128.188C554.549 127.684 553.625 127.021 552.934 126.2L555.23 123.82C555.454 124.063 555.669 124.277 555.874 124.464C556.173 124.707 556.471 124.912 556.77 125.08C557.573 125.547 558.469 125.78 559.458 125.78C560.69 125.78 561.614 125.416 562.23 124.688C562.79 124.072 563.07 123.008 563.07 121.496V121.048C562.006 121.869 560.793 122.28 559.43 122.28C557.321 122.28 555.603 121.515 554.278 119.984C553.139 118.659 552.57 117.072 552.57 115.224C552.57 113.227 553.223 111.547 554.53 110.184C555.818 108.821 557.386 108.14 559.234 108.14C560.765 108.14 562.09 108.597 563.21 109.512V108.42H566.71V121.244ZM563.07 113.18C562.23 112.06 561.11 111.5 559.71 111.5C558.683 111.5 557.834 111.873 557.162 112.62C556.527 113.348 556.21 114.216 556.21 115.224C556.21 116.288 556.555 117.165 557.246 117.856C557.918 118.565 558.767 118.92 559.794 118.92C561.194 118.92 562.286 118.36 563.07 117.24V113.18ZM582.383 112.368V122H578.603V102.4H582.383V110.24L589.803 102.4H594.787L586.163 111.36L595.823 122H590.979L582.383 112.368ZM597.315 128.72L601.067 120.628L594.991 108.42H598.995L602.971 116.568L606.639 108.42H610.475L601.123 128.72H597.315ZM605.967 102.624L602.999 106.32H600.899L602.467 102.624H605.967ZM620.002 102.4H622.662L633.582 115.168V102.4H637.362V122H634.702L623.782 109.232V122H620.002V102.4ZM654.729 121.244C654.729 123.447 654.319 125.127 653.497 126.284C652.191 128.095 650.184 129 647.477 129C646.189 129 644.939 128.729 643.725 128.188C642.568 127.684 641.644 127.021 640.953 126.2L643.249 123.82C643.473 124.063 643.688 124.277 643.893 124.464C644.192 124.707 644.491 124.912 644.789 125.08C645.592 125.547 646.488 125.78 647.477 125.78C648.709 125.78 649.633 125.416 650.249 124.688C650.809 124.072 651.089 123.008 651.089 121.496V121.048C650.025 121.869 648.812 122.28 647.449 122.28C645.34 122.28 643.623 121.515 642.297 119.984C641.159 118.659 640.589 117.072 640.589 115.224C640.589 113.227 641.243 111.547 642.549 110.184C643.837 108.821 645.405 108.14 647.253 108.14C648.784 108.14 650.109 108.597 651.229 109.512V108.42H654.729V121.244ZM651.089 113.18C650.249 112.06 649.129 111.5 647.729 111.5C646.703 111.5 645.853 111.873 645.181 112.62C644.547 113.348 644.229 114.216 644.229 115.224C644.229 116.288 644.575 117.165 645.265 117.856C645.937 118.565 646.787 118.92 647.813 118.92C649.213 118.92 650.305 118.36 651.089 117.24V113.18ZM668.316 113.18C667.476 112.06 666.356 111.5 664.956 111.5C663.929 111.5 663.08 111.873 662.408 112.62C661.773 113.348 661.456 114.216 661.456 115.224C661.456 116.288 661.801 117.165 662.492 117.856C663.164 118.565 664.013 118.92 665.04 118.92C666.44 118.92 667.532 118.36 668.316 117.24V113.18ZM671.956 122H668.456V120.908C667.373 121.823 666.113 122.28 664.676 122.28C662.585 122.28 660.877 121.515 659.552 119.984C658.395 118.64 657.816 117.053 657.816 115.224C657.816 113.227 658.469 111.547 659.776 110.184C661.064 108.821 662.632 108.14 664.48 108.14C666.011 108.14 667.336 108.597 668.456 109.512V108.42H671.956V122ZM676.667 128.72L680.419 120.628L674.343 108.42H678.347L682.323 116.568L685.991 108.42H689.827L680.475 128.72H676.667ZM712.933 113.18H703.133V122H699.353V102.4H703.133V109.82H712.933V102.4H716.713V122H712.933V113.18ZM719.941 115.224C719.941 113.245 720.632 111.575 722.013 110.212C723.394 108.831 725.112 108.14 727.165 108.14C729.218 108.14 730.936 108.831 732.317 110.212C733.698 111.575 734.389 113.245 734.389 115.224C734.389 117.203 733.698 118.864 732.317 120.208C730.936 121.589 729.218 122.28 727.165 122.28C725.112 122.28 723.394 121.589 722.013 120.208C720.632 118.864 719.941 117.203 719.941 115.224ZM723.581 115.224C723.581 116.269 723.917 117.137 724.589 117.828C725.261 118.556 726.12 118.92 727.165 118.92C728.21 118.92 729.078 118.556 729.769 117.828C730.422 117.137 730.749 116.269 730.749 115.224C730.749 114.179 730.422 113.301 729.769 112.592C729.078 111.864 728.21 111.5 727.165 111.5C726.12 111.5 725.261 111.864 724.589 112.592C723.917 113.301 723.581 114.179 723.581 115.224ZM728.817 103.184L731.225 107.048H728.901L727.165 105.116L725.429 107.048H723.105L725.513 103.184H728.817ZM737.467 122V108.42H740.967V109.512C741.994 108.597 743.217 108.14 744.635 108.14C746.502 108.14 748.023 108.849 749.199 110.268C750.543 108.849 752.149 108.14 754.015 108.14C756.013 108.14 757.599 108.868 758.775 110.324C759.69 111.444 760.147 112.937 760.147 114.804V122H756.507V114.664C756.507 113.619 756.283 112.844 755.835 112.34C755.331 111.78 754.65 111.5 753.791 111.5C753.082 111.5 752.401 111.715 751.747 112.144C751.225 112.461 750.814 112.844 750.515 113.292C750.59 113.889 750.627 114.393 750.627 114.804V122H746.987V114.664C746.987 113.619 746.763 112.844 746.315 112.34C745.811 111.78 745.13 111.5 744.271 111.5C743.581 111.5 742.927 111.696 742.311 112.088C742.05 112.256 741.817 112.443 741.611 112.648C741.425 112.816 741.257 112.993 741.107 113.18V122H737.467ZM771.76 102.4H774.42L785.34 115.168V102.4H789.12V122H786.46L775.54 109.232V122H771.76V102.4ZM802.847 113.18C802.007 112.06 800.887 111.5 799.487 111.5C798.461 111.5 797.611 111.873 796.939 112.62C796.305 113.348 795.987 114.216 795.987 115.224C795.987 116.288 796.333 117.165 797.023 117.856C797.695 118.565 798.545 118.92 799.571 118.92C800.971 118.92 802.063 118.36 802.847 117.24V113.18ZM806.487 122H802.987V120.908C801.905 121.823 800.645 122.28 799.207 122.28C797.117 122.28 795.409 121.515 794.083 119.984C792.926 118.64 792.347 117.053 792.347 115.224C792.347 113.227 793.001 111.547 794.307 110.184C795.595 108.821 797.163 108.14 799.011 108.14C800.542 108.14 801.867 108.597 802.987 109.512V108.42H806.487V122ZM811.198 128.72L814.95 120.628L808.874 108.42H812.878L816.854 116.568L820.522 108.42H824.358L815.006 128.72H811.198Z" fill="white"/>
<path d="M440.6 52.5C440.6 51.22 440.22 50.16 439.46 49.32C438.66 48.44 437.64 48 436.4 48C435.16 48 434.14 48.44 433.34 49.32C432.58 50.16 432.2 51.22 432.2 52.5C432.2 53.78 432.58 54.84 433.34 55.68C434.14 56.56 435.16 57 436.4 57C437.64 57 438.66 56.56 439.46 55.68C440.22 54.84 440.6 53.78 440.6 52.5ZM425 52.5C425 49.42 426.1 46.8 428.3 44.64C430.5 42.48 433.2 41.4 436.4 41.4C439.6 41.4 442.32 42.48 444.56 44.64C446.72 46.8 447.8 49.42 447.8 52.5C447.8 55.58 446.72 58.2 444.56 60.36C442.32 62.52 439.6 63.6 436.4 63.6C433.2 63.6 430.5 62.52 428.3 60.36C426.1 58.2 425 55.58 425 52.5ZM469.7 73.5C469.7 72.22 469.32 71.16 468.56 70.32C467.76 69.44 466.74 69 465.5 69C464.26 69 463.24 69.44 462.44 70.32C461.68 71.16 461.3 72.22 461.3 73.5C461.3 74.78 461.68 75.84 462.44 76.68C463.24 77.56 464.26 78 465.5 78C466.74 78 467.76 77.56 468.56 76.68C469.32 75.84 469.7 74.78 469.7 73.5ZM454.1 73.5C454.1 70.42 455.2 67.8 457.4 65.64C459.6 63.48 462.3 62.4 465.5 62.4C468.7 62.4 471.42 63.48 473.66 65.64C475.82 67.8 476.9 70.42 476.9 73.5C476.9 76.58 475.82 79.2 473.66 81.36C471.42 83.52 468.7 84.6 465.5 84.6C462.3 84.6 459.6 83.52 457.4 81.36C455.2 79.2 454.1 76.58 454.1 73.5ZM435.44 84L459.98 42H466.64L442.1 84H435.44Z" fill="#DE020D"/>
<defs>
<linearGradient id="paint0_linear" x1="425" y1="24" x2="425" y2="136" gradientUnits="userSpaceOnUse">
<stop stop-color="#FFC553"/>
<stop offset="1" stop-color="#FF9849"/>
</linearGradient>
<radialGradient id="paint1_radial" cx="0" cy="0" r="1" gradientUnits="userSpaceOnUse" gradientTransform="translate(77.5756 104.057) scale(52.3664)">
<stop stop-color="#F4ECD7"/>
<stop offset="0.2237" stop-color="#F4EAD4"/>
<stop offset="0.3826" stop-color="#F5E3CB"/>
<stop offset="0.5214" stop-color="#F6D6BB"/>
<stop offset="0.6487" stop-color="#F7C5A5"/>
<stop offset="0.7682" stop-color="#F9AF89"/>
<stop offset="0.8818" stop-color="#FC9366"/>
<stop offset="0.9889" stop-color="#FF743D"/>
<stop offset="1" stop-color="#FF7038"/>
</radialGradient>
<radialGradient id="paint2_radial" cx="0" cy="0" r="1" gradientUnits="userSpaceOnUse" gradientTransform="translate(77.4875 87.3388) scale(52.1514)">
<stop stop-color="#F4ECD7"/>
<stop offset="0.2237" stop-color="#F4EAD4"/>
<stop offset="0.3826" stop-color="#F5E3CB"/>
<stop offset="0.5214" stop-color="#F6D6BB"/>
<stop offset="0.6487" stop-color="#F7C5A5"/>
<stop offset="0.7682" stop-color="#F9AF89"/>
<stop offset="0.8818" stop-color="#FC9366"/>
<stop offset="0.9889" stop-color="#FF743D"/>
<stop offset="1" stop-color="#FF7038"/>
</radialGradient>
<linearGradient id="paint3_linear" x1="78.5094" y1="95.2138" x2="78.5094" y2="82.3933" gradientUnits="userSpaceOnUse">
<stop stop-color="#FF7654"/>
<stop offset="0.1498" stop-color="#FE7054"/>
<stop offset="0.358" stop-color="#FC5E53"/>
<stop offset="0.6004" stop-color="#F94051"/>
<stop offset="0.8666" stop-color="#F5174E"/>
<stop offset="1" stop-color="#F2004D"/>
</linearGradient>
<linearGradient id="paint4_linear" x1="78.5094" y1="126.607" x2="78.5094" y2="92.9837" gradientUnits="userSpaceOnUse">
<stop stop-color="#FF7654"/>
<stop offset="0.1498" stop-color="#FE7054"/>
<stop offset="0.358" stop-color="#FC5E53"/>
<stop offset="0.6004" stop-color="#F94051"/>
<stop offset="0.8666" stop-color="#F5174E"/>
<stop offset="1" stop-color="#F2004D"/>
</linearGradient>
<linearGradient id="paint5_linear" x1="75.246" y1="75.4902" x2="81.8518" y2="86.0506" gradientUnits="userSpaceOnUse">
<stop stop-color="#FF7654"/>
<stop offset="0.1498" stop-color="#FE7054"/>
<stop offset="0.358" stop-color="#FC5E53"/>
<stop offset="0.6004" stop-color="#F94051"/>
<stop offset="0.8666" stop-color="#F5174E"/>
<stop offset="1" stop-color="#F2004D"/>
</linearGradient>
<linearGradient id="paint6_linear" x1="48.0792" y1="62.1416" x2="66.306" y2="91.2802" gradientUnits="userSpaceOnUse">
<stop stop-color="#FF7654"/>
<stop offset="0.1498" stop-color="#FE7054"/>
<stop offset="0.358" stop-color="#FC5E53"/>
<stop offset="0.6004" stop-color="#F94051"/>
<stop offset="0.8666" stop-color="#F5174E"/>
<stop offset="1" stop-color="#F2004D"/>
</linearGradient>
<linearGradient id="paint7_linear" x1="92.4604" y1="66.1947" x2="106.174" y2="88.119" gradientUnits="userSpaceOnUse">
<stop stop-color="#FF7654"/>
<stop offset="0.1498" stop-color="#FE7054"/>
<stop offset="0.358" stop-color="#FC5E53"/>
<stop offset="0.6004" stop-color="#F94051"/>
<stop offset="0.8666" stop-color="#F5174E"/>
<stop offset="1" stop-color="#F2004D"/>
</linearGradient>
<linearGradient id="paint8_linear" x1="78.5094" y1="113.79" x2="78.5094" y2="95.6415" gradientUnits="userSpaceOnUse">
<stop stop-color="#FF7038" stop-opacity="0"/>
<stop offset="0.8833" stop-color="#FF7038" stop-opacity="0.8833"/>
<stop offset="1" stop-color="#FF7038"/>
</linearGradient>
</defs>
</svg>
